{
 "cells": [
  {
   "cell_type": "raw",
   "id": "79757dce",
   "metadata": {},
   "source": [
    "Following this tutorial : \"Midi in python\"\n",
    "https://www.youtube.com/watch?v=JYslZkc90GI"
   ]
  },
  {
   "cell_type": "raw",
   "id": "ded75ba4",
   "metadata": {},
   "source": [
    "Tuto midi Programmation python \n",
    "https://www.linuxrouen.fr/wp/programmation/introduction-a-la-programmation-midi-avec-python-mido-et-rtmidi-23805/"
   ]
  },
  {
   "cell_type": "raw",
   "id": "1aca3b71",
   "metadata": {},
   "source": [
    "Midi explained\n",
    "https://www.youtube.com/watch?v=2BccxWkUgaU"
   ]
  },
  {
   "cell_type": "raw",
   "id": "7c644abd",
   "metadata": {},
   "source": [
    "Config Apple\n",
    "https://support.apple.com/fr-fr/guide/audio-midi-setup/ams875bae1e0/mac\n",
    "\n",
    "https://natespilman.com/blog/2020-03-23-generating-midi-music-stream-with-python/"
   ]
  },
  {
   "cell_type": "raw",
   "id": "50b55abd",
   "metadata": {},
   "source": [
    "A creuser, notamment pour le \"Live Compiling\"\n",
    "https://www.youtube.com/watch?v=Q40qEg8Yq5c"
   ]
  },
  {
   "cell_type": "raw",
   "id": "6122b90e",
   "metadata": {},
   "source": [
    "A creuser, code pour polysynth \n",
    "https://python.plainenglish.io/build-your-own-python-synthesizer-part-3-162796b7d351"
   ]
  },
  {
   "cell_type": "raw",
   "id": "6c79173d",
   "metadata": {},
   "source": [
    "FluidSynth (en remplacement plus simple de garageband?)\n",
    "https://www.fluidsynth.org"
   ]
  },
  {
   "cell_type": "raw",
   "id": "e3d9bbc3",
   "metadata": {},
   "source": [
    "webserver?\n",
    "https://github.com/narcode/codeklavier-extras"
   ]
  },
  {
   "cell_type": "raw",
   "id": "0cd7b478",
   "metadata": {},
   "source": [
    "comment mapper un output midi à un output garageband?\n",
    "https://support.apple.com/en-hk/guide/audio-midi-setup/ams875bae1e0/3.5/mac/11.0\n",
    "\n",
    "https://www.music.mcgill.ca/~gary/rtmidi/\n",
    "#virtual ports"
   ]
  },
  {
   "cell_type": "code",
   "execution_count": 43,
   "id": "b6f614b8",
   "metadata": {
    "ExecuteTime": {
     "end_time": "2023-03-03T14:31:50.220968Z",
     "start_time": "2023-03-03T14:31:50.214468Z"
    }
   },
   "outputs": [],
   "source": [
    "#!pip install python-rtmidi\n",
    "#!pip install mido\n",
    "import time\n",
    "import rtmidi\n",
    "import mido\n",
    "from collections import deque\n",
    "import matplotlib.pyplot as plt\n",
    "import string"
   ]
  },
  {
   "cell_type": "code",
   "execution_count": 44,
   "id": "3b800d53",
   "metadata": {
    "ExecuteTime": {
     "end_time": "2023-03-03T14:31:50.432239Z",
     "start_time": "2023-03-03T14:31:50.420524Z"
    }
   },
   "outputs": [],
   "source": [
    "out=rtmidi.MidiOut()"
   ]
  },
  {
   "cell_type": "code",
   "execution_count": 45,
   "id": "4a42b2c7",
   "metadata": {
    "ExecuteTime": {
     "end_time": "2023-03-03T14:31:51.029264Z",
     "start_time": "2023-03-03T14:31:51.014411Z"
    }
   },
   "outputs": [],
   "source": [
    "ports_out= out.get_ports()"
   ]
  },
  {
   "cell_type": "code",
   "execution_count": 46,
   "id": "783d0cd0",
   "metadata": {
    "ExecuteTime": {
     "end_time": "2023-03-03T14:31:51.451535Z",
     "start_time": "2023-03-03T14:31:51.441241Z"
    }
   },
   "outputs": [
    {
     "name": "stdout",
     "output_type": "stream",
     "text": [
      "['LPK25', 'IAC_Driver python_to_logic', 'IAC_Driver logic_to_python', 'LPK25', 'IAC_Driver python_to_logic', 'IAC_Driver logic_to_python']\n"
     ]
    }
   ],
   "source": [
    "print(mido.get_output_names()) # To list the output ports"
   ]
  },
  {
   "cell_type": "code",
   "execution_count": 47,
   "id": "cc5fb167",
   "metadata": {
    "ExecuteTime": {
     "end_time": "2023-03-03T14:31:57.974140Z",
     "start_time": "2023-03-03T14:31:57.966024Z"
    }
   },
   "outputs": [
    {
     "name": "stdout",
     "output_type": "stream",
     "text": [
      "['LPK25', 'IAC_Driver python_to_logic', 'IAC_Driver logic_to_python', 'LPK25', 'IAC_Driver python_to_logic', 'IAC_Driver logic_to_python']\n"
     ]
    }
   ],
   "source": [
    "print(mido.get_input_names()) # To list the input ports"
   ]
  },
  {
   "cell_type": "code",
   "execution_count": 33,
   "id": "cf008e2b",
   "metadata": {
    "ExecuteTime": {
     "end_time": "2023-03-02T14:13:16.578833Z",
     "start_time": "2023-03-02T14:13:16.570597Z"
    }
   },
   "outputs": [],
   "source": [
    "#inport = mido.open_input('IAC_Driver logic_to_python')\n",
    "outport_ = mido.open_output('IAC_Driver python_to_logic')\n"
   ]
  },
  {
   "cell_type": "code",
   "execution_count": 8,
   "id": "69b0bf4e",
   "metadata": {
    "ExecuteTime": {
     "end_time": "2023-03-02T14:00:37.730746Z",
     "start_time": "2023-03-02T14:00:37.709635Z"
    }
   },
   "outputs": [
    {
     "data": {
      "text/plain": [
       "'IAC_Driver python_to_logic'"
      ]
     },
     "execution_count": 8,
     "metadata": {},
     "output_type": "execute_result"
    }
   ],
   "source": [
    "outport_.name"
   ]
  },
  {
   "cell_type": "code",
   "execution_count": 50,
   "id": "1b0a2096",
   "metadata": {
    "ExecuteTime": {
     "end_time": "2023-03-03T14:32:28.837160Z",
     "start_time": "2023-03-03T14:32:28.813324Z"
    }
   },
   "outputs": [],
   "source": [
    "#Generate Sound in GarageBand\n",
    "middleC = 60\n",
    "msg = mido.Message('note_on', note=middleC, velocity=64)\n",
    "outport = mido.open_output(outport_.name)\n",
    "outport.send(msg)"
   ]
  },
  {
   "cell_type": "markdown",
   "id": "e80108fc",
   "metadata": {
    "ExecuteTime": {
     "end_time": "2023-02-27T20:35:13.147447Z",
     "start_time": "2023-02-27T20:35:13.142691Z"
    }
   },
   "source": [
    "# On s'amuse "
   ]
  },
  {
   "cell_type": "code",
   "execution_count": null,
   "id": "38579d0b",
   "metadata": {},
   "outputs": [],
   "source": [
    "# une ptite note\n",
    "middleC = 60\n",
    "msg = mido.Message('note_on', note=middleC, velocity=64)\n",
    "outport = mido.open_output(outport_.name)\n",
    "outport.send(msg)"
   ]
  },
  {
   "cell_type": "code",
   "execution_count": 51,
   "id": "d0bcd6f1",
   "metadata": {
    "ExecuteTime": {
     "end_time": "2023-03-03T14:32:35.575786Z",
     "start_time": "2023-03-03T14:32:31.713091Z"
    }
   },
   "outputs": [],
   "source": [
    "i = 24  # initialisation variable i pour note 24 = Do1\n",
    "while i < 97:  # boucle notes à jouer dans la gamme Chromatique 24 à 96 / Do1 à Do7\n",
    "    #print(\"Note =\", i)  # affiche numéro de note jouée\n",
    "    outport.send(mido.Message('note_on', note=i, velocity=100))\n",
    "    time.sleep(0.1)  # durée d'environ 1/3 seconde\n",
    "    outport.send(mido.Message('note_off', note=i))\n",
    "    i = i +2  # incrémentation de l'index i (note jouée)"
   ]
  },
  {
   "cell_type": "markdown",
   "id": "c46bafb2",
   "metadata": {},
   "source": [
    "# Lecture d'un fichier MIDI (local ou distant)"
   ]
  },
  {
   "cell_type": "code",
   "execution_count": 57,
   "id": "8b19bfc9",
   "metadata": {
    "ExecuteTime": {
     "end_time": "2023-03-03T14:36:44.676803Z",
     "start_time": "2023-03-03T14:36:44.671547Z"
    }
   },
   "outputs": [],
   "source": [
    "root=\"/Users/WDescamps/Desktop/LeWagon/Music generation/Chords progression/\""
   ]
  },
  {
   "cell_type": "code",
   "execution_count": 59,
   "id": "57477bce",
   "metadata": {
    "ExecuteTime": {
     "end_time": "2023-03-03T14:37:13.231546Z",
     "start_time": "2023-03-03T14:37:13.216837Z"
    }
   },
   "outputs": [],
   "source": [
    "lolilol=\"/Users/WDescamps/Desktop/LeWagon/Notebooks_Projets/MIDI_recorder-master/Recordings/rickroll.mid\""
   ]
  },
  {
   "cell_type": "code",
   "execution_count": null,
   "id": "31d5da39",
   "metadata": {
    "ExecuteTime": {
     "start_time": "2023-03-03T14:37:22.538Z"
    },
    "scrolled": true
   },
   "outputs": [
    {
     "name": "stdout",
     "output_type": "stream",
     "text": [
      "===== JOUE un Fichier MIDI... =====\n",
      "=> MidiFile(type=0, ticks_per_beat=384, tracks=[\n",
      "  MidiTrack([\n",
      "    MetaMessage('track_name', name='0013GIVE', time=0),\n",
      "    MetaMessage('set_tempo', tempo=300000, time=0),\n",
      "    MetaMessage('time_signature', numerator=4, denominator=4, clocks_per_click=24, notated_32nd_notes_per_beat=8, time=0),\n",
      "    MetaMessage('text', text='0013GIVE\\x00\\x00', time=0),\n",
      "    Message('sysex', data=(126, 127, 9, 1), time=10),\n",
      "    Message('sysex', data=(65, 16, 66, 18, 64, 0, 127, 0, 65), time=14),\n",
      "    Message('sysex', data=(65, 16, 66, 18, 64, 1, 16, 2, 0, 1, 3, 2, 2, 2, 2, 2, 2, 1, 1, 1, 1, 1, 1, 23), time=24),\n",
      "    Message('sysex', data=(65, 16, 66, 18, 64, 1, 51, 90, 50), time=24),\n",
      "    Message('sysex', data=(65, 16, 66, 18, 64, 1, 58, 90, 43), time=40),\n",
      "    Message('control_change', channel=1, control=121, value=0, time=212),\n",
      "    Message('control_change', channel=2, control=121, value=0, time=4),\n",
      "    Message('control_change', channel=3, control=121, value=0, time=4),\n",
      "    Message('control_change', channel=4, control=121, value=0, time=4),\n",
      "    Message('control_change', channel=5, control=121, value=0, time=4),\n",
      "    Message('control_change', channel=6, control=121, value=0, time=4),\n",
      "    Message('control_change', channel=7, control=121, value=0, time=4),\n",
      "    Message('control_change', channel=8, control=121, value=0, time=4),\n",
      "    Message('control_change', channel=9, control=121, value=0, time=4),\n",
      "    Message('control_change', channel=10, control=121, value=0, time=4),\n",
      "    Message('control_change', channel=13, control=121, value=0, time=12),\n",
      "    Message('control_change', channel=14, control=121, value=0, time=4),\n",
      "    Message('control_change', channel=15, control=121, value=0, time=4),\n",
      "    Message('control_change', channel=0, control=0, value=0, time=4),\n",
      "    Message('control_change', channel=0, control=32, value=0, time=4),\n",
      "    Message('program_change', channel=0, program=0, time=4),\n",
      "    Message('control_change', channel=1, control=0, value=0, time=12),\n",
      "    Message('control_change', channel=1, control=32, value=0, time=4),\n",
      "    Message('program_change', channel=1, program=118, time=4),\n",
      "    Message('control_change', channel=1, control=7, value=100, time=4),\n",
      "    Message('control_change', channel=1, control=10, value=64, time=0),\n",
      "    Message('control_change', channel=1, control=11, value=127, time=0),\n",
      "    Message('control_change', channel=1, control=91, value=60, time=4),\n",
      "    Message('control_change', channel=1, control=93, value=0, time=0),\n",
      "    Message('control_change', channel=2, control=0, value=0, time=4),\n",
      "    Message('control_change', channel=2, control=32, value=0, time=4),\n",
      "    Message('program_change', channel=2, program=39, time=4),\n",
      "    Message('control_change', channel=2, control=7, value=100, time=4),\n",
      "    Message('control_change', channel=2, control=10, value=64, time=0),\n",
      "    Message('control_change', channel=2, control=11, value=127, time=0),\n",
      "    Message('control_change', channel=2, control=91, value=20, time=4),\n",
      "    Message('control_change', channel=2, control=93, value=35, time=0),\n",
      "    Message('control_change', channel=3, control=0, value=0, time=4),\n",
      "    Message('control_change', channel=3, control=32, value=0, time=4),\n",
      "    Message('program_change', channel=3, program=0, time=4),\n",
      "    Message('control_change', channel=3, control=7, value=100, time=4),\n",
      "    Message('control_change', channel=3, control=10, value=64, time=0),\n",
      "    Message('control_change', channel=3, control=11, value=127, time=0),\n",
      "    Message('control_change', channel=3, control=91, value=60, time=4),\n",
      "    Message('control_change', channel=3, control=93, value=0, time=0),\n",
      "    Message('control_change', channel=4, control=0, value=0, time=4),\n",
      "    Message('control_change', channel=4, control=32, value=0, time=4),\n",
      "    Message('program_change', channel=4, program=90, time=4),\n",
      "    Message('control_change', channel=4, control=7, value=100, time=4),\n",
      "    Message('control_change', channel=4, control=10, value=64, time=0),\n",
      "    Message('control_change', channel=4, control=11, value=127, time=0),\n",
      "    Message('control_change', channel=4, control=91, value=127, time=4),\n",
      "    Message('control_change', channel=4, control=93, value=0, time=0),\n",
      "    Message('control_change', channel=5, control=0, value=0, time=4),\n",
      "    Message('control_change', channel=5, control=32, value=0, time=4),\n",
      "    Message('program_change', channel=5, program=28, time=4),\n",
      "    Message('control_change', channel=5, control=7, value=100, time=4),\n",
      "    Message('control_change', channel=5, control=10, value=34, time=0),\n",
      "    Message('control_change', channel=5, control=11, value=127, time=0),\n",
      "    Message('control_change', channel=5, control=91, value=50, time=4),\n",
      "    Message('control_change', channel=5, control=93, value=60, time=0),\n",
      "    Message('control_change', channel=6, control=0, value=0, time=4),\n",
      "    Message('control_change', channel=6, control=32, value=0, time=4),\n",
      "    Message('program_change', channel=6, program=27, time=4),\n",
      "    Message('control_change', channel=6, control=7, value=100, time=4),\n",
      "    Message('control_change', channel=6, control=10, value=94, time=0),\n",
      "    Message('control_change', channel=6, control=11, value=127, time=0),\n",
      "    Message('control_change', channel=6, control=91, value=90, time=4),\n",
      "    Message('control_change', channel=6, control=93, value=80, time=0),\n",
      "    Message('control_change', channel=7, control=0, value=0, time=4),\n",
      "    Message('control_change', channel=7, control=32, value=0, time=4),\n",
      "    Message('program_change', channel=7, program=61, time=4),\n",
      "    Message('control_change', channel=7, control=7, value=100, time=4),\n",
      "    Message('control_change', channel=7, control=10, value=64, time=0),\n",
      "    Message('control_change', channel=7, control=11, value=127, time=0),\n",
      "    Message('control_change', channel=7, control=91, value=100, time=4),\n",
      "    Message('control_change', channel=7, control=93, value=60, time=0),\n",
      "    Message('control_change', channel=8, control=0, value=0, time=4),\n",
      "    Message('control_change', channel=8, control=32, value=0, time=4),\n",
      "    Message('program_change', channel=8, program=48, time=4),\n",
      "    Message('control_change', channel=8, control=7, value=100, time=4),\n",
      "    Message('control_change', channel=8, control=10, value=64, time=0),\n",
      "    Message('control_change', channel=8, control=11, value=127, time=0),\n",
      "    Message('control_change', channel=8, control=91, value=100, time=4),\n",
      "    Message('control_change', channel=8, control=93, value=0, time=0),\n",
      "    Message('control_change', channel=9, control=0, value=0, time=4),\n",
      "    Message('control_change', channel=9, control=32, value=0, time=4),\n",
      "    Message('program_change', channel=9, program=0, time=4),\n",
      "    Message('control_change', channel=9, control=7, value=100, time=4),\n",
      "    Message('control_change', channel=9, control=10, value=64, time=0),\n",
      "    Message('control_change', channel=9, control=11, value=127, time=0),\n",
      "    Message('control_change', channel=9, control=91, value=40, time=4),\n",
      "    Message('control_change', channel=9, control=93, value=0, time=0),\n",
      "    Message('control_change', channel=10, control=0, value=0, time=4),\n",
      "    Message('control_change', channel=10, control=32, value=0, time=4),\n",
      "    Message('program_change', channel=10, program=82, time=4),\n",
      "    Message('control_change', channel=10, control=7, value=100, time=4),\n",
      "    Message('control_change', channel=10, control=10, value=64, time=0),\n",
      "    Message('control_change', channel=10, control=11, value=127, time=0),\n",
      "    Message('control_change', channel=10, control=91, value=100, time=4),\n",
      "    Message('control_change', channel=10, control=93, value=85, time=0),\n",
      "    Message('control_change', channel=11, control=0, value=0, time=4),\n",
      "    Message('control_change', channel=11, control=32, value=0, time=4),\n",
      "    Message('program_change', channel=11, program=0, time=4),\n",
      "    Message('control_change', channel=12, control=0, value=0, time=12),\n",
      "    Message('control_change', channel=12, control=32, value=0, time=4),\n",
      "    Message('program_change', channel=12, program=0, time=4),\n",
      "    Message('control_change', channel=13, control=0, value=0, time=12),\n",
      "    Message('control_change', channel=13, control=32, value=0, time=4),\n",
      "    Message('program_change', channel=13, program=53, time=4),\n",
      "    Message('control_change', channel=13, control=7, value=100, time=4),\n",
      "    Message('control_change', channel=13, control=10, value=84, time=0),\n",
      "    Message('control_change', channel=13, control=11, value=127, time=0),\n",
      "    Message('control_change', channel=13, control=91, value=60, time=4),\n",
      "    Message('control_change', channel=13, control=93, value=90, time=0),\n",
      "    Message('control_change', channel=14, control=0, value=0, time=4),\n",
      "    Message('control_change', channel=14, control=32, value=0, time=4),\n",
      "    Message('program_change', channel=14, program=53, time=4),\n",
      "    Message('control_change', channel=14, control=7, value=100, time=4),\n",
      "    Message('control_change', channel=14, control=10, value=44, time=0),\n",
      "    Message('control_change', channel=14, control=11, value=127, time=0),\n",
      "    Message('control_change', channel=14, control=91, value=60, time=4),\n",
      "    Message('control_change', channel=14, control=93, value=80, time=0),\n",
      "    Message('control_change', channel=15, control=0, value=0, time=4),\n",
      "    Message('control_change', channel=15, control=32, value=0, time=4),\n",
      "    Message('program_change', channel=15, program=65, time=4),\n",
      "    Message('control_change', channel=15, control=7, value=100, time=4),\n",
      "    Message('control_change', channel=15, control=10, value=64, time=0),\n",
      "    Message('control_change', channel=15, control=11, value=127, time=0),\n",
      "    Message('control_change', channel=15, control=91, value=127, time=4),\n",
      "    Message('control_change', channel=15, control=93, value=20, time=0),\n",
      "    Message('control_change', channel=1, control=101, value=0, time=88),\n",
      "    Message('control_change', channel=1, control=100, value=0, time=4),\n",
      "    Message('control_change', channel=1, control=6, value=12, time=4),\n",
      "    Message('control_change', channel=1, control=101, value=127, time=4),\n",
      "    Message('control_change', channel=1, control=100, value=127, time=4),\n",
      "    Message('control_change', channel=2, control=101, value=0, time=4),\n",
      "    Message('control_change', channel=2, control=100, value=0, time=4),\n",
      "    Message('control_change', channel=2, control=6, value=12, time=4),\n",
      "    Message('control_change', channel=2, control=101, value=127, time=4),\n",
      "    Message('control_change', channel=2, control=100, value=127, time=4),\n",
      "    Message('control_change', channel=3, control=101, value=0, time=4),\n",
      "    Message('control_change', channel=3, control=100, value=0, time=4),\n",
      "    Message('control_change', channel=3, control=6, value=12, time=4),\n",
      "    Message('control_change', channel=3, control=101, value=127, time=4),\n",
      "    Message('control_change', channel=3, control=100, value=127, time=4),\n",
      "    Message('control_change', channel=4, control=101, value=0, time=4),\n",
      "    Message('control_change', channel=4, control=100, value=0, time=4),\n",
      "    Message('control_change', channel=4, control=6, value=12, time=4),\n",
      "    Message('control_change', channel=4, control=101, value=127, time=4),\n",
      "    Message('control_change', channel=4, control=100, value=127, time=4),\n",
      "    Message('control_change', channel=5, control=101, value=0, time=4),\n",
      "    Message('control_change', channel=5, control=100, value=0, time=4),\n",
      "    Message('control_change', channel=5, control=6, value=12, time=4),\n",
      "    Message('control_change', channel=5, control=101, value=127, time=4),\n",
      "    Message('control_change', channel=5, control=100, value=127, time=4),\n",
      "    Message('control_change', channel=6, control=101, value=0, time=4),\n",
      "    Message('control_change', channel=6, control=100, value=0, time=4),\n",
      "    Message('control_change', channel=6, control=6, value=12, time=4),\n",
      "    Message('control_change', channel=6, control=101, value=127, time=4),\n",
      "    Message('control_change', channel=6, control=100, value=127, time=4),\n",
      "    Message('control_change', channel=7, control=101, value=0, time=4),\n",
      "    Message('control_change', channel=7, control=100, value=0, time=4),\n",
      "    Message('control_change', channel=7, control=6, value=12, time=4),\n",
      "    Message('control_change', channel=7, control=101, value=127, time=4),\n",
      "    Message('control_change', channel=7, control=100, value=127, time=4),\n",
      "    Message('control_change', channel=8, control=101, value=0, time=4),\n",
      "    Message('control_change', channel=8, control=100, value=0, time=4),\n",
      "    Message('control_change', channel=8, control=6, value=12, time=4),\n",
      "    Message('control_change', channel=8, control=101, value=127, time=4),\n",
      "    Message('control_change', channel=8, control=100, value=127, time=4),\n",
      "    Message('control_change', channel=9, control=101, value=0, time=4),\n",
      "    Message('control_change', channel=9, control=100, value=0, time=4),\n",
      "    Message('control_change', channel=9, control=6, value=12, time=4),\n",
      "    Message('control_change', channel=9, control=101, value=127, time=4),\n",
      "    Message('control_change', channel=9, control=100, value=127, time=4),\n",
      "    Message('control_change', channel=10, control=101, value=0, time=4),\n",
      "    Message('control_change', channel=10, control=100, value=0, time=4),\n",
      "    Message('control_change', channel=10, control=6, value=12, time=4),\n",
      "    Message('control_change', channel=10, control=101, value=127, time=4),\n",
      "    Message('control_change', channel=10, control=100, value=127, time=4),\n",
      "    Message('control_change', channel=13, control=101, value=0, time=44),\n",
      "    Message('control_change', channel=13, control=100, value=0, time=4),\n",
      "    Message('control_change', channel=13, control=6, value=12, time=4),\n",
      "    Message('control_change', channel=13, control=101, value=127, time=4),\n",
      "    Message('control_change', channel=13, control=100, value=127, time=4),\n",
      "    Message('control_change', channel=14, control=101, value=0, time=4),\n",
      "    Message('control_change', channel=14, control=100, value=0, time=4),\n",
      "    Message('control_change', channel=14, control=6, value=12, time=4),\n",
      "    Message('control_change', channel=14, control=101, value=127, time=4),\n",
      "    Message('control_change', channel=14, control=100, value=127, time=4),\n",
      "    Message('control_change', channel=15, control=101, value=0, time=4),\n",
      "    Message('control_change', channel=15, control=100, value=0, time=4),\n",
      "    Message('control_change', channel=15, control=6, value=12, time=4),\n",
      "    Message('control_change', channel=15, control=101, value=127, time=4),\n",
      "    Message('control_change', channel=15, control=100, value=127, time=4),\n",
      "    Message('sysex', data=(65, 16, 69, 18, 16, 0, 0, 80, 114, 111, 103, 114, 97, 109, 109, 101, 100, 32, 98, 121, 32, 72, 97, 110, 100, 115, 32, 79, 110, 46, 32, 32, 14), time=365),\n",
      "    MetaMessage('set_tempo', tempo=508460, time=87),\n",
      "    Message('sysex', data=(65, 16, 69, 18, 16, 1, 0, 3, 20, 20, 23, 30, 22, 23, 20, 3, 2, 2, 2, 2, 3, 0, 0, 16, 31, 25, 25, 25, 25, 25, 0, 27, 10, 10, 10, 10, 26, 0, 0, 28, 23, 22, 22, 23, 28, 0, 3, 24, 8, 8, 8, 8, 8, 0, 0, 0, 31, 0, 0, 31, 31, 31, 31, 0, 0, 0, 0, 0, 0, 0, 0, 71), time=1440),\n",
      "    Message('pitchwheel', channel=1, pitch=2944, time=476),\n",
      "    Message('pitchwheel', channel=1, pitch=896, time=188),\n",
      "    Message('note_on', channel=9, note=50, velocity=106, time=8),\n",
      "    Message('note_on', channel=1, note=71, velocity=111, time=0),\n",
      "    Message('note_off', channel=9, note=50, velocity=106, time=4),\n",
      "    Message('note_off', channel=1, note=71, velocity=111, time=12),\n",
      "    Message('note_on', channel=9, note=50, velocity=103, time=80),\n",
      "    Message('note_on', channel=1, note=70, velocity=108, time=0),\n",
      "    Message('note_off', channel=9, note=50, velocity=103, time=4),\n",
      "    Message('note_off', channel=1, note=70, velocity=108, time=12),\n",
      "    Message('pitchwheel', channel=1, pitch=0, time=76),\n",
      "    Message('note_on', channel=9, note=50, velocity=109, time=100),\n",
      "    Message('note_on', channel=1, note=69, velocity=110, time=0),\n",
      "    Message('note_off', channel=9, note=50, velocity=109, time=4),\n",
      "    Message('note_off', channel=1, note=69, velocity=110, time=12),\n",
      "    Message('note_on', channel=9, note=48, velocity=103, time=80),\n",
      "    Message('note_on', channel=1, note=68, velocity=107, time=0),\n",
      "    Message('note_off', channel=9, note=48, velocity=103, time=4),\n",
      "    Message('note_off', channel=1, note=68, velocity=107, time=12),\n",
      "    Message('note_on', channel=9, note=47, velocity=107, time=80),\n",
      "    Message('note_on', channel=1, note=67, velocity=106, time=0),\n",
      "    Message('note_off', channel=9, note=47, velocity=107, time=4),\n",
      "    Message('note_off', channel=1, note=67, velocity=106, time=12),\n",
      "    Message('pitchwheel', channel=1, pitch=-1664, time=76),\n",
      "    Message('note_on', channel=9, note=45, velocity=111, time=4),\n",
      "    Message('note_on', channel=1, note=66, velocity=108, time=0),\n",
      "    Message('note_off', channel=9, note=45, velocity=111, time=4),\n",
      "    Message('note_off', channel=1, note=66, velocity=108, time=12),\n",
      "    Message('note_on', channel=9, note=45, velocity=110, time=80),\n",
      "    Message('note_on', channel=1, note=65, velocity=110, time=0),\n",
      "    Message('note_off', channel=9, note=45, velocity=110, time=4),\n",
      "    Message('note_off', channel=1, note=65, velocity=110, time=12),\n",
      "    Message('pitchwheel', channel=1, pitch=-2816, time=76),\n",
      "    Message('note_on', channel=9, note=43, velocity=111, time=4),\n",
      "    Message('note_on', channel=1, note=64, velocity=106, time=0),\n",
      "    Message('note_off', channel=9, note=43, velocity=111, time=4),\n",
      "    Message('note_off', channel=1, note=64, velocity=106, time=12),\n",
      "    Message('note_on', channel=9, note=41, velocity=101, time=80),\n",
      "    Message('note_on', channel=1, note=63, velocity=108, time=0),\n",
      "    Message('sysex', data=(65, 16, 69, 18, 16, 1, 0, 28, 11, 11, 8, 1, 9, 8, 11, 31, 28, 29, 29, 29, 29, 28, 31, 16, 32, 6, 6, 6, 6, 6, 22, 31, 4, 21, 21, 21, 21, 5, 31, 3, 8, 9, 9, 8, 11, 3, 28, 31, 7, 23, 23, 23, 23, 23, 31, 31, 0, 31, 31, 0, 0, 0, 0, 31, 31, 31, 31, 31, 31, 31, 31, 83), time=0),\n",
      "    Message('note_off', channel=9, note=41, velocity=101, time=4),\n",
      "    Message('note_off', channel=1, note=63, velocity=108, time=12),\n",
      "    Message('note_on', channel=9, note=42, velocity=82, time=80),\n",
      "    Message('note_on', channel=9, note=36, velocity=105, time=0),\n",
      "    Message('note_on', channel=2, note=27, velocity=106, time=0),\n",
      "    Message('note_on', channel=3, note=61, velocity=87, time=0),\n",
      "    Message('note_on', channel=3, note=58, velocity=92, time=0),\n",
      "    Message('note_on', channel=3, note=65, velocity=92, time=0),\n",
      "    Message('note_on', channel=8, note=73, velocity=96, time=0),\n",
      "    Message('note_off', channel=9, note=36, velocity=105, time=4),\n",
      "    Message('note_off', channel=9, note=42, velocity=82, time=0),\n",
      "    Message('note_off', channel=2, note=27, velocity=106, time=84),\n",
      "    Message('note_on', channel=9, note=46, velocity=90, time=104),\n",
      "    Message('note_on', channel=2, note=27, velocity=106, time=0),\n",
      "    Message('note_off', channel=9, note=46, velocity=90, time=4),\n",
      "    Message('note_off', channel=2, note=27, velocity=106, time=84),\n",
      "    Message('note_on', channel=2, note=27, velocity=107, time=8),\n",
      "    Message('note_off', channel=2, note=27, velocity=107, time=88),\n",
      "    Message('note_on', channel=9, note=42, velocity=81, time=8),\n",
      "    Message('note_on', channel=9, note=38, velocity=101, time=0),\n",
      "    Message('note_on', channel=9, note=39, velocity=86, time=0),\n",
      "    Message('note_off', channel=9, note=39, velocity=86, time=4),\n",
      "    Message('note_off', channel=9, note=38, velocity=101, time=0),\n",
      "    Message('note_off', channel=9, note=42, velocity=81, time=0),\n",
      "    Message('note_off', channel=3, note=65, velocity=92, time=92),\n",
      "    Message('note_off', channel=3, note=58, velocity=92, time=0),\n",
      "    Message('note_off', channel=3, note=61, velocity=87, time=0),\n",
      "    Message('note_on', channel=2, note=36, velocity=106, time=0),\n",
      "    Message('note_off', channel=8, note=73, velocity=96, time=48),\n",
      "    Message('note_off', channel=2, note=36, velocity=106, time=40),\n",
      "    Message('note_on', channel=9, note=42, velocity=85, time=8),\n",
      "    Message('note_on', channel=2, note=34, velocity=109, time=0),\n",
      "    Message('note_on', channel=3, note=56, velocity=91, time=0),\n",
      "    Message('note_on', channel=3, note=63, velocity=93, time=0),\n",
      "    Message('note_on', channel=3, note=60, velocity=87, time=0),\n",
      "    Message('note_on', channel=8, note=75, velocity=98, time=0),\n",
      "    Message('note_off', channel=9, note=42, velocity=85, time=4),\n",
      "    Message('note_off', channel=2, note=34, velocity=109, time=84),\n",
      "    Message('note_on', channel=9, note=42, velocity=83, time=8),\n",
      "    Message('note_off', channel=9, note=42, velocity=83, time=4),\n",
      "    Message('note_on', channel=9, note=42, velocity=84, time=92),\n",
      "    Message('note_on', channel=9, note=36, velocity=104, time=0),\n",
      "    Message('note_on', channel=2, note=32, velocity=109, time=0),\n",
      "    Message('note_off', channel=9, note=36, velocity=104, time=4),\n",
      "    Message('note_off', channel=9, note=42, velocity=84, time=0),\n",
      "    Message('note_off', channel=2, note=32, velocity=109, time=84),\n",
      "    Message('note_on', channel=9, note=46, velocity=91, time=104),\n",
      "    Message('note_on', channel=2, note=32, velocity=110, time=0),\n",
      "    Message('note_off', channel=9, note=46, velocity=91, time=4),\n",
      "    Message('note_off', channel=2, note=32, velocity=110, time=84),\n",
      "    Message('note_off', channel=8, note=75, velocity=98, time=56),\n",
      "    Message('note_on', channel=9, note=42, velocity=80, time=48),\n",
      "    Message('note_on', channel=9, note=38, velocity=108, time=0),\n",
      "    Message('note_on', channel=9, note=39, velocity=82, time=0),\n",
      "    Message('note_on', channel=8, note=68, velocity=99, time=0),\n",
      "    Message('note_off', channel=9, note=39, velocity=82, time=4),\n",
      "    Message('note_off', channel=9, note=38, velocity=108, time=0),\n",
      "    Message('note_off', channel=9, note=42, velocity=80, time=0),\n",
      "    Message('note_on', channel=9, note=46, velocity=92, time=188),\n",
      "    Message('note_on', channel=2, note=29, velocity=110, time=0),\n",
      "    Message('note_off', channel=9, note=46, velocity=92, time=4),\n",
      "    Message('note_off', channel=2, note=29, velocity=110, time=84),\n",
      "    Message('note_off', channel=3, note=60, velocity=87, time=8),\n",
      "    Message('note_off', channel=3, note=63, velocity=93, time=0),\n",
      "    Message('note_off', channel=3, note=56, velocity=91, time=0),\n",
      "    Message('note_on', channel=2, note=32, velocity=106, time=0),\n",
      "    Message('sysex', data=(65, 16, 69, 18, 16, 1, 0, 0, 3, 20, 20, 23, 30, 22, 23, 20, 3, 2, 2, 2, 2, 3, 0, 0, 16, 31, 25, 25, 25, 25, 25, 0, 27, 10, 10, 10, 10, 26, 0, 0, 28, 23, 22, 22, 23, 28, 0, 3, 24, 8, 8, 8, 8, 8, 0, 0, 0, 31, 0, 0, 31, 31, 31, 31, 0, 0, 0, 0, 0, 0, 0, 71), time=0),\n",
      "    Message('note_off', channel=8, note=68, velocity=99, time=64),\n",
      "    Message('note_off', channel=2, note=32, velocity=106, time=24),\n",
      "    Message('note_on', channel=9, note=42, velocity=82, time=8),\n",
      "    Message('note_on', channel=9, note=36, velocity=102, time=0),\n",
      "    Message('note_on', channel=2, note=29, velocity=106, time=0),\n",
      "    Message('note_on', channel=3, note=60, velocity=88, time=0),\n",
      "    Message('note_on', channel=3, note=56, velocity=93, time=0),\n",
      "    Message('note_on', channel=3, note=63, velocity=88, time=0),\n",
      "    Message('note_on', channel=8, note=75, velocity=94, time=0),\n",
      "    Message('note_off', channel=9, note=36, velocity=102, time=4),\n",
      "    Message('note_off', channel=9, note=42, velocity=82, time=0),\n",
      "    Message('note_off', channel=2, note=29, velocity=106, time=84),\n",
      "    Message('note_on', channel=9, note=46, velocity=87, time=104),\n",
      "    Message('note_on', channel=2, note=29, velocity=108, time=0),\n",
      "    Message('note_off', channel=9, note=46, velocity=87, time=4),\n",
      "    Message('note_off', channel=2, note=29, velocity=108, time=84),\n",
      "    Message('note_on', channel=2, note=29, velocity=110, time=8),\n",
      "    Message('note_off', channel=2, note=29, velocity=110, time=88),\n",
      "    Message('note_on', channel=9, note=42, velocity=85, time=8),\n",
      "    Message('note_on', channel=9, note=38, velocity=101, time=0),\n",
      "    Message('note_on', channel=9, note=39, velocity=87, time=0),\n",
      "    Message('note_off', channel=9, note=39, velocity=87, time=4),\n",
      "    Message('note_off', channel=9, note=38, velocity=101, time=0),\n",
      "    Message('note_off', channel=9, note=42, velocity=85, time=0),\n",
      "    Message('note_off', channel=3, note=63, velocity=88, time=92),\n",
      "    Message('note_off', channel=3, note=56, velocity=93, time=0),\n",
      "    Message('note_off', channel=3, note=60, velocity=88, time=0),\n",
      "    Message('note_on', channel=2, note=36, velocity=106, time=0),\n",
      "    Message('note_off', channel=8, note=75, velocity=94, time=48),\n",
      "    Message('note_off', channel=2, note=36, velocity=106, time=40),\n",
      "    Message('note_on', channel=9, note=46, velocity=90, time=8),\n",
      "    Message('note_on', channel=2, note=34, velocity=110, time=0),\n",
      "    Message('note_on', channel=3, note=61, velocity=92, time=0),\n",
      "    Message('note_on', channel=3, note=65, velocity=90, time=0),\n",
      "    Message('note_on', channel=3, note=58, velocity=88, time=0),\n",
      "    Message('note_on', channel=8, note=77, velocity=99, time=0),\n",
      "    Message('note_off', channel=9, note=46, velocity=90, time=4),\n",
      "    Message('note_off', channel=2, note=34, velocity=110, time=84),\n",
      "    Message('note_on', channel=9, note=42, velocity=81, time=104),\n",
      "    Message('note_on', channel=9, note=36, velocity=103, time=0),\n",
      "    Message('note_off', channel=9, note=36, velocity=103, time=4),\n",
      "    Message('note_off', channel=9, note=42, velocity=81, time=0),\n",
      "    Message('note_on', channel=9, note=46, velocity=92, time=188),\n",
      "    Message('note_on', channel=2, note=34, velocity=107, time=0),\n",
      "    Message('note_off', channel=9, note=46, velocity=92, time=4),\n",
      "    Message('note_off', channel=2, note=34, velocity=107, time=84),\n",
      "    Message('note_on', channel=2, note=34, velocity=107, time=8),\n",
      "    Message('note_off', channel=8, note=77, velocity=99, time=48),\n",
      "    Message('note_off', channel=2, note=34, velocity=107, time=40),\n",
      "    Message('note_on', channel=9, note=42, velocity=81, time=8),\n",
      "    Message('note_on', channel=9, note=38, velocity=105, time=0),\n",
      "    Message('note_on', channel=9, note=39, velocity=85, time=0),\n",
      "    Message('note_on', channel=2, note=34, velocity=106, time=0),\n",
      "    Message('note_on', channel=8, note=80, velocity=98, time=0),\n",
      "    Message('note_off', channel=9, note=39, velocity=85, time=4),\n",
      "    Message('note_off', channel=9, note=38, velocity=105, time=0),\n",
      "    Message('note_off', channel=9, note=42, velocity=81, time=0),\n",
      "    Message('note_off', channel=8, note=80, velocity=98, time=84),\n",
      "    Message('note_off', channel=2, note=34, velocity=106, time=0),\n",
      "    Message('note_on', channel=2, note=36, velocity=111, time=8),\n",
      "    Message('note_on', channel=8, note=78, velocity=97, time=0),\n",
      "    Message('note_off', channel=8, note=78, velocity=97, time=88),\n",
      "    Message('note_off', channel=2, note=36, velocity=111, time=0),\n",
      "    Message('note_on', channel=9, note=46, velocity=87, time=8),\n",
      "    Message('note_on', channel=8, note=77, velocity=97, time=0),\n",
      "    Message('note_off', channel=9, note=46, velocity=87, time=4),\n",
      "    Message('note_off', channel=8, note=77, velocity=97, time=84),\n",
      "    Message('note_off', channel=3, note=58, velocity=88, time=8),\n",
      "    Message('note_off', channel=3, note=65, velocity=90, time=0),\n",
      "    Message('note_off', channel=3, note=61, velocity=92, time=0),\n",
      "    Message('note_on', channel=2, note=34, velocity=108, time=0),\n",
      "    Message('note_on', channel=8, note=73, velocity=98, time=0),\n",
      "    Message('sysex', data=(65, 16, 69, 18, 16, 1, 0, 28, 11, 11, 8, 1, 9, 8, 11, 31, 28, 29, 29, 29, 29, 28, 31, 16, 32, 6, 6, 6, 6, 6, 22, 31, 4, 21, 21, 21, 21, 5, 31, 3, 8, 9, 9, 8, 11, 3, 28, 31, 7, 23, 23, 23, 23, 23, 31, 31, 0, 31, 31, 0, 0, 0, 0, 31, 31, 31, 31, 31, 31, 31, 31, 83), time=0),\n",
      "    Message('note_off', channel=2, note=34, velocity=108, time=88),\n",
      "    Message('note_on', channel=9, note=42, velocity=81, time=8),\n",
      "    Message('note_on', channel=9, note=36, velocity=101, time=0),\n",
      "    Message('note_on', channel=2, note=27, velocity=107, time=0),\n",
      "    Message('note_on', channel=3, note=61, velocity=91, time=0),\n",
      "    Message('note_on', channel=3, note=58, velocity=92, time=0),\n",
      "    Message('note_on', channel=3, note=65, velocity=91, time=0),\n",
      "    Message('note_off', channel=9, note=36, velocity=101, time=4),\n",
      "    Message('note_off', channel=9, note=42, velocity=81, time=0),\n",
      "    Message('note_off', channel=2, note=27, velocity=107, time=84),\n",
      "    Message('note_on', channel=9, note=46, velocity=87, time=104),\n",
      "    Message('note_on', channel=2, note=27, velocity=111, time=0),\n",
      "    Message('note_off', channel=9, note=46, velocity=87, time=4),\n",
      "    Message('note_off', channel=2, note=27, velocity=111, time=84),\n",
      "    Message('note_on', channel=2, note=27, velocity=110, time=8),\n",
      "    Message('note_off', channel=2, note=27, velocity=110, time=88),\n",
      "    Message('note_on', channel=9, note=42, velocity=82, time=8),\n",
      "    Message('note_on', channel=9, note=38, velocity=107, time=0),\n",
      "    Message('note_on', channel=9, note=39, velocity=81, time=0),\n",
      "    Message('note_off', channel=9, note=39, velocity=81, time=4),\n",
      "    Message('note_off', channel=9, note=38, velocity=107, time=0),\n",
      "    Message('note_off', channel=9, note=42, velocity=82, time=0),\n",
      "    Message('note_off', channel=3, note=65, velocity=91, time=92),\n",
      "    Message('note_off', channel=3, note=58, velocity=92, time=0),\n",
      "    Message('note_off', channel=3, note=61, velocity=91, time=0),\n",
      "    Message('note_on', channel=2, note=36, velocity=110, time=0),\n",
      "    Message('note_off', channel=8, note=73, velocity=98, time=48),\n",
      "    Message('note_off', channel=2, note=36, velocity=110, time=40),\n",
      "    Message('note_on', channel=9, note=42, velocity=82, time=8),\n",
      "    Message('note_on', channel=2, note=34, velocity=110, time=0),\n",
      "    Message('note_on', channel=3, note=56, velocity=89, time=0),\n",
      "    Message('note_on', channel=3, note=63, velocity=93, time=0),\n",
      "    Message('note_on', channel=3, note=60, velocity=86, time=0),\n",
      "    Message('note_on', channel=8, note=75, velocity=96, time=0),\n",
      "    Message('note_off', channel=9, note=42, velocity=82, time=4),\n",
      "    Message('note_off', channel=2, note=34, velocity=110, time=84),\n",
      "    Message('note_on', channel=9, note=42, velocity=81, time=8),\n",
      "    Message('note_off', channel=9, note=42, velocity=81, time=4),\n",
      "    Message('note_on', channel=9, note=42, velocity=82, time=92),\n",
      "    Message('note_on', channel=9, note=36, velocity=109, time=0),\n",
      "    Message('note_on', channel=2, note=32, velocity=108, time=0),\n",
      "    Message('note_off', channel=9, note=36, velocity=109, time=4),\n",
      "    Message('note_off', channel=9, note=42, velocity=82, time=0),\n",
      "    Message('note_off', channel=2, note=32, velocity=108, time=84),\n",
      "    Message('note_on', channel=9, note=46, velocity=87, time=104),\n",
      "    Message('note_on', channel=2, note=32, velocity=110, time=0),\n",
      "    Message('note_off', channel=9, note=46, velocity=87, time=4),\n",
      "    Message('note_off', channel=2, note=32, velocity=110, time=84),\n",
      "    Message('note_off', channel=8, note=75, velocity=96, time=56),\n",
      "    Message('note_on', channel=9, note=42, velocity=85, time=48),\n",
      "    Message('note_on', channel=9, note=38, velocity=107, time=0),\n",
      "    Message('note_on', channel=9, note=39, velocity=85, time=0),\n",
      "    Message('note_on', channel=8, note=68, velocity=96, time=0),\n",
      "    Message('note_off', channel=9, note=39, velocity=85, time=4),\n",
      "    Message('note_off', channel=9, note=38, velocity=107, time=0),\n",
      "    Message('note_off', channel=9, note=42, velocity=85, time=0),\n",
      "    Message('note_on', channel=9, note=46, velocity=89, time=188),\n",
      "    Message('note_on', channel=2, note=32, velocity=110, time=0),\n",
      "    Message('note_off', channel=9, note=46, velocity=89, time=4),\n",
      "    Message('note_off', channel=2, note=32, velocity=110, time=84),\n",
      "    Message('note_off', channel=3, note=60, velocity=86, time=8),\n",
      "    Message('note_off', channel=3, note=63, velocity=93, time=0),\n",
      "    Message('note_off', channel=3, note=56, velocity=89, time=0),\n",
      "    Message('note_on', channel=2, note=32, velocity=111, time=0),\n",
      "    Message('sysex', data=(65, 16, 69, 18, 16, 1, 0, 0, 3, 20, 20, 23, 30, 22, 23, 20, 3, 2, 2, 2, 2, 3, 0, 0, 16, 31, 25, 25, 25, 25, 25, 0, 27, 10, 10, 10, 10, 26, 0, 0, 28, 23, 22, 22, 23, 28, 0, 3, 24, 8, 8, 8, 8, 8, 0, 0, 0, 31, 0, 0, 31, 31, 31, 31, 0, 0, 0, 0, 0, 0, 0, 71), time=0),\n",
      "    Message('note_off', channel=2, note=32, velocity=111, time=88),\n",
      "    Message('note_on', channel=9, note=42, velocity=82, time=8),\n",
      "    Message('note_on', channel=9, note=36, velocity=105, time=0),\n",
      "    Message('note_on', channel=2, note=29, velocity=109, time=0),\n",
      "    Message('note_on', channel=3, note=56, velocity=91, time=0),\n",
      "    Message('note_on', channel=3, note=60, velocity=90, time=0),\n",
      "    Message('note_on', channel=3, note=63, velocity=89, time=0),\n",
      "    Message('note_off', channel=9, note=36, velocity=105, time=4),\n",
      "    Message('note_off', channel=9, note=42, velocity=82, time=0),\n",
      "    Message('note_off', channel=2, note=29, velocity=109, time=84),\n",
      "    Message('note_on', channel=9, note=46, velocity=88, time=104),\n",
      "    Message('note_on', channel=2, note=29, velocity=108, time=0),\n",
      "    Message('note_off', channel=9, note=46, velocity=88, time=4),\n",
      "    Message('note_off', channel=2, note=29, velocity=108, time=84),\n",
      "    Message('note_on', channel=2, note=29, velocity=110, time=8),\n",
      "    Message('note_off', channel=2, note=29, velocity=110, time=88),\n",
      "    Message('note_on', channel=9, note=42, velocity=80, time=8),\n",
      "    Message('note_on', channel=9, note=38, velocity=104, time=0),\n",
      "    Message('note_on', channel=9, note=39, velocity=86, time=0),\n",
      "    Message('note_off', channel=9, note=39, velocity=86, time=4),\n",
      "    Message('note_off', channel=9, note=38, velocity=104, time=0),\n",
      "    Message('note_off', channel=9, note=42, velocity=80, time=0),\n",
      "    Message('note_off', channel=3, note=63, velocity=89, time=92),\n",
      "    Message('note_off', channel=3, note=60, velocity=90, time=0),\n",
      "    Message('note_off', channel=3, note=56, velocity=91, time=0),\n",
      "    Message('note_on', channel=2, note=36, velocity=111, time=0),\n",
      "    Message('note_off', channel=2, note=36, velocity=111, time=88),\n",
      "    Message('note_on', channel=9, note=46, velocity=90, time=8),\n",
      "    Message('note_on', channel=2, note=34, velocity=111, time=0),\n",
      "    Message('note_on', channel=3, note=58, velocity=87, time=0),\n",
      "    Message('note_on', channel=3, note=61, velocity=86, time=0),\n",
      "    Message('note_on', channel=3, note=65, velocity=88, time=0),\n",
      "    Message('note_off', channel=9, note=46, velocity=90, time=4),\n",
      "    Message('note_off', channel=2, note=34, velocity=111, time=84),\n",
      "    Message('note_on', channel=9, note=42, velocity=82, time=104),\n",
      "    Message('note_on', channel=9, note=36, velocity=107, time=0),\n",
      "    Message('note_off', channel=9, note=36, velocity=107, time=4),\n",
      "    Message('note_off', channel=9, note=42, velocity=82, time=0),\n",
      "    Message('note_off', channel=8, note=68, velocity=96, time=140),\n",
      "    Message('note_on', channel=9, note=46, velocity=89, time=48),\n",
      "    Message('note_on', channel=2, note=32, velocity=111, time=0),\n",
      "    Message('note_off', channel=9, note=46, velocity=89, time=4),\n",
      "    Message('note_off', channel=2, note=32, velocity=111, time=84),\n",
      "    Message('note_on', channel=9, note=42, velocity=82, time=104),\n",
      "    Message('note_on', channel=9, note=38, velocity=103, time=0),\n",
      "    Message('note_on', channel=9, note=39, velocity=85, time=0),\n",
      "    Message('note_on', channel=2, note=32, velocity=107, time=0),\n",
      "    Message('note_on', channel=7, note=58, velocity=95, time=0),\n",
      "    Message('note_on', channel=7, note=70, velocity=113, time=0),\n",
      "    Message('note_on', channel=8, note=80, velocity=94, time=0),\n",
      "    Message('note_off', channel=9, note=39, velocity=85, time=4),\n",
      "    Message('note_off', channel=9, note=38, velocity=103, time=0),\n",
      "    Message('note_off', channel=9, note=42, velocity=82, time=0),\n",
      "    Message('note_off', channel=7, note=70, velocity=113, time=60),\n",
      "    Message('note_off', channel=7, note=58, velocity=95, time=0),\n",
      "    Message('note_off', channel=8, note=80, velocity=94, time=24),\n",
      "    Message('note_off', channel=2, note=32, velocity=107, time=0),\n",
      "    Message('note_on', channel=2, note=32, velocity=106, time=8),\n",
      "    Message('note_on', channel=7, note=61, velocity=89, time=0),\n",
      "    Message('note_on', channel=7, note=73, velocity=113, time=0),\n",
      "    Message('note_on', channel=8, note=78, velocity=97, time=0),\n",
      "    Message('note_off', channel=7, note=73, velocity=113, time=64),\n",
      "    Message('note_off', channel=7, note=61, velocity=89, time=0),\n",
      "    Message('note_off', channel=8, note=78, velocity=97, time=24),\n",
      "    Message('note_off', channel=2, note=32, velocity=106, time=0),\n",
      "    Message('note_on', channel=9, note=46, velocity=91, time=8),\n",
      "    Message('note_on', channel=7, note=58, velocity=89, time=0),\n",
      "    Message('note_on', channel=7, note=70, velocity=117, time=0),\n",
      "    Message('note_on', channel=8, note=77, velocity=95, time=0),\n",
      "    Message('note_off', channel=9, note=46, velocity=91, time=4),\n",
      "    Message('note_off', channel=7, note=70, velocity=117, time=60),\n",
      "    Message('note_off', channel=7, note=58, velocity=89, time=0),\n",
      "    Message('note_off', channel=8, note=77, velocity=95, time=24),\n",
      "    Message('note_off', channel=3, note=65, velocity=88, time=8),\n",
      "    Message('note_off', channel=3, note=61, velocity=86, time=0),\n",
      "    Message('note_off', channel=3, note=58, velocity=87, time=0),\n",
      "    Message('note_on', channel=2, note=37, velocity=111, time=0),\n",
      "    Message('note_on', channel=7, note=61, velocity=91, time=0),\n",
      "    Message('note_on', channel=7, note=73, velocity=118, time=0),\n",
      "    Message('note_on', channel=8, note=73, velocity=98, time=0),\n",
      "    Message('note_off', channel=7, note=73, velocity=118, time=64),\n",
      "    Message('note_off', channel=7, note=61, velocity=91, time=0),\n",
      "    Message('note_off', channel=2, note=37, velocity=111, time=24),\n",
      "    Message('note_on', channel=9, note=42, velocity=84, time=8),\n",
      "    Message('note_on', channel=9, note=36, velocity=101, time=0),\n",
      "    Message('note_on', channel=2, note=27, velocity=107, time=0),\n",
      "    Message('note_on', channel=3, note=61, velocity=89, time=0),\n",
      "    Message('note_on', channel=3, note=58, velocity=93, time=0),\n",
      "    Message('note_on', channel=3, note=65, velocity=90, time=0),\n",
      "    Message('note_on', channel=14, note=68, velocity=81, time=0),\n",
      "    Message('note_off', channel=9, note=36, velocity=101, time=4),\n",
      "    Message('note_off', channel=9, note=42, velocity=84, time=0),\n",
      "    Message('note_off', channel=2, note=27, velocity=107, time=84),\n",
      "    Message('note_on', channel=9, note=46, velocity=87, time=104),\n",
      "    Message('note_on', channel=2, note=27, velocity=107, time=0),\n",
      "    Message('note_off', channel=9, note=46, velocity=87, time=4),\n",
      "    Message('note_off', channel=2, note=27, velocity=107, time=84),\n",
      "    Message('note_on', channel=2, note=27, velocity=110, time=8),\n",
      "    Message('note_off', channel=2, note=27, velocity=110, time=88),\n",
      "    Message('note_off', channel=3, note=65, velocity=90, time=8),\n",
      "    Message('note_off', channel=3, note=58, velocity=93, time=0),\n",
      "    Message('note_off', channel=3, note=61, velocity=89, time=0),\n",
      "    Message('note_on', channel=9, note=42, velocity=84, time=0),\n",
      "    Message('note_on', channel=9, note=38, velocity=104, time=0),\n",
      "    Message('note_on', channel=9, note=39, velocity=83, time=0),\n",
      "    Message('note_off', channel=9, note=39, velocity=83, time=4),\n",
      "    Message('note_off', channel=9, note=38, velocity=104, time=0),\n",
      "    Message('note_off', channel=9, note=42, velocity=84, time=0),\n",
      "    Message('note_on', channel=2, note=36, velocity=110, time=92),\n",
      "    Message('note_off', channel=8, note=73, velocity=98, time=48),\n",
      "    Message('note_off', channel=2, note=36, velocity=110, time=40),\n",
      "    Message('note_on', channel=9, note=42, velocity=85, time=8),\n",
      "    Message('note_on', channel=2, note=34, velocity=111, time=0),\n",
      "    Message('note_on', channel=3, note=56, velocity=93, time=0),\n",
      "    Message('note_on', channel=3, note=63, velocity=87, time=0),\n",
      "    Message('note_on', channel=3, note=60, velocity=93, time=0),\n",
      "    Message('note_on', channel=8, note=75, velocity=94, time=0),\n",
      "    Message('note_off', channel=9, note=42, velocity=85, time=4),\n",
      "    Message('note_off', channel=2, note=34, velocity=111, time=84),\n",
      "    Message('note_on', channel=9, note=42, velocity=82, time=8),\n",
      "    Message('note_off', channel=9, note=42, velocity=82, time=4),\n",
      "    Message('note_on', channel=9, note=42, velocity=82, time=92),\n",
      "    Message('note_on', channel=9, note=36, velocity=104, time=0),\n",
      "    Message('note_on', channel=2, note=32, velocity=107, time=0),\n",
      "    Message('note_off', channel=9, note=36, velocity=104, time=4),\n",
      "    Message('note_off', channel=9, note=42, velocity=82, time=0),\n",
      "    Message('note_off', channel=2, note=32, velocity=107, time=84),\n",
      "    Message('note_on', channel=9, note=46, velocity=89, time=104),\n",
      "    Message('note_on', channel=2, note=32, velocity=106, time=0),\n",
      "    Message('note_off', channel=9, note=46, velocity=89, time=4),\n",
      "    Message('note_off', channel=2, note=32, velocity=106, time=84),\n",
      "    Message('note_off', channel=8, note=75, velocity=94, time=56),\n",
      "    Message('note_on', channel=9, note=42, velocity=85, time=48),\n",
      "    Message('note_on', channel=9, note=38, velocity=103, time=0),\n",
      "    Message('note_on', channel=9, note=39, velocity=86, time=0),\n",
      "    Message('note_on', channel=8, note=68, velocity=98, time=0),\n",
      "    Message('note_off', channel=9, note=39, velocity=86, time=4),\n",
      "    Message('note_off', channel=9, note=38, velocity=103, time=0),\n",
      "    Message('note_off', channel=9, note=42, velocity=85, time=0),\n",
      "    Message('note_off', channel=14, note=68, velocity=81, time=76),\n",
      "    Message('note_on', channel=14, note=66, velocity=79, time=16),\n",
      "    Message('note_off', channel=14, note=66, velocity=79, time=88),\n",
      "    Message('note_on', channel=9, note=46, velocity=92, time=8),\n",
      "    Message('note_on', channel=2, note=29, velocity=109, time=0),\n",
      "    Message('note_on', channel=14, note=65, velocity=76, time=0),\n",
      "    Message('note_off', channel=9, note=46, velocity=92, time=4),\n",
      "    Message('note_off', channel=14, note=65, velocity=76, time=84),\n",
      "    Message('note_off', channel=2, note=29, velocity=109, time=0),\n",
      "    Message('note_off', channel=3, note=60, velocity=93, time=8),\n",
      "    Message('note_off', channel=3, note=63, velocity=87, time=0),\n",
      "    Message('note_off', channel=3, note=56, velocity=93, time=0),\n",
      "    Message('note_on', channel=2, note=32, velocity=111, time=0),\n",
      "    Message('note_on', channel=14, note=63, velocity=80, time=0),\n",
      "    Message('note_off', channel=8, note=68, velocity=98, time=64),\n",
      "    Message('note_off', channel=14, note=63, velocity=80, time=24),\n",
      "    Message('note_off', channel=2, note=32, velocity=111, time=0),\n",
      "    Message('note_on', channel=9, note=42, velocity=82, time=8),\n",
      "    Message('note_on', channel=9, note=36, velocity=108, time=0),\n",
      "    Message('note_on', channel=2, note=29, velocity=111, time=0),\n",
      "    Message('note_on', channel=3, note=56, velocity=88, time=0),\n",
      "    Message('note_on', channel=3, note=60, velocity=87, time=0),\n",
      "    Message('note_on', channel=3, note=63, velocity=93, time=0),\n",
      "    Message('note_on', channel=8, note=75, velocity=96, time=0),\n",
      "    Message('note_on', channel=14, note=65, velocity=82, time=0),\n",
      "    Message('note_off', channel=9, note=36, velocity=108, time=4),\n",
      "    Message('note_off', channel=9, note=42, velocity=82, time=0),\n",
      "    Message('note_off', channel=2, note=29, velocity=111, time=84),\n",
      "    Message('note_on', channel=9, note=46, velocity=91, time=104),\n",
      "    Message('note_on', channel=2, note=29, velocity=109, time=0),\n",
      "    Message('note_off', channel=9, note=46, velocity=91, time=4),\n",
      "    Message('note_off', channel=2, note=29, velocity=109, time=84),\n",
      "    Message('note_on', channel=2, note=29, velocity=110, time=8),\n",
      "    Message('note_off', channel=2, note=29, velocity=110, time=88),\n",
      "    Message('note_off', channel=3, note=63, velocity=93, time=8),\n",
      "    Message('note_off', channel=3, note=60, velocity=87, time=0),\n",
      "    Message('note_off', channel=3, note=56, velocity=88, time=0),\n",
      "    Message('note_on', channel=9, note=42, velocity=85, time=0),\n",
      "    Message('note_on', channel=9, note=38, velocity=105, time=0),\n",
      "    Message('note_on', channel=9, note=39, velocity=85, time=0),\n",
      "    Message('note_off', channel=9, note=39, velocity=85, time=4),\n",
      "    Message('note_off', channel=9, note=38, velocity=105, time=0),\n",
      "    Message('note_off', channel=9, note=42, velocity=85, time=0),\n",
      "    Message('note_on', channel=2, note=36, velocity=107, time=92),\n",
      "    Message('note_off', channel=8, note=75, velocity=96, time=48),\n",
      "    Message('note_off', channel=2, note=36, velocity=107, time=40),\n",
      "    Message('note_on', channel=9, note=46, velocity=90, time=8),\n",
      "    Message('note_on', channel=2, note=34, velocity=111, time=0),\n",
      "    Message('note_on', channel=3, note=61, velocity=91, time=0),\n",
      "    Message('note_on', channel=3, note=58, velocity=89, time=0),\n",
      "    Message('note_on', channel=3, note=65, velocity=90, time=0),\n",
      "    Message('note_on', channel=8, note=77, velocity=95, time=0),\n",
      "    Message('note_off', channel=9, note=46, velocity=90, time=4),\n",
      "    Message('note_off', channel=2, note=34, velocity=111, time=84),\n",
      "    Message('note_on', channel=9, note=42, velocity=82, time=104),\n",
      "    Message('note_on', channel=9, note=36, velocity=102, time=0),\n",
      "    Message('note_off', channel=9, note=36, velocity=102, time=4),\n",
      "    Message('note_off', channel=9, note=42, velocity=82, time=0),\n",
      "    Message('note_on', channel=9, note=46, velocity=88, time=188),\n",
      "    Message('note_on', channel=2, note=34, velocity=108, time=0),\n",
      "    Message('note_off', channel=9, note=46, velocity=88, time=4),\n",
      "    Message('note_off', channel=2, note=34, velocity=108, time=84),\n",
      "    Message('note_on', channel=2, note=34, velocity=107, time=8),\n",
      "    Message('note_off', channel=8, note=77, velocity=95, time=48),\n",
      "    Message('note_off', channel=14, note=65, velocity=82, time=32),\n",
      "    Message('note_off', channel=2, note=34, velocity=107, time=8),\n",
      "    Message('note_on', channel=9, note=42, velocity=82, time=8),\n",
      "    Message('note_on', channel=9, note=38, velocity=105, time=0),\n",
      "    Message('note_on', channel=9, note=39, velocity=82, time=0),\n",
      "    Message('note_on', channel=2, note=34, velocity=108, time=0),\n",
      "    Message('note_on', channel=8, note=80, velocity=98, time=0),\n",
      "    Message('note_off', channel=9, note=39, velocity=82, time=4),\n",
      "    Message('note_off', channel=9, note=38, velocity=105, time=0),\n",
      "    Message('note_off', channel=9, note=42, velocity=82, time=0),\n",
      "    Message('note_off', channel=8, note=80, velocity=98, time=84),\n",
      "    Message('note_off', channel=2, note=34, velocity=108, time=0),\n",
      "    Message('note_on', channel=2, note=36, velocity=107, time=8),\n",
      "    Message('note_on', channel=8, note=78, velocity=95, time=0),\n",
      "    Message('note_off', channel=8, note=78, velocity=95, time=88),\n",
      "    Message('note_off', channel=2, note=36, velocity=107, time=0),\n",
      "    Message('note_on', channel=9, note=46, velocity=90, time=8),\n",
      "    Message('note_on', channel=8, note=77, velocity=97, time=0),\n",
      "    Message('note_off', channel=9, note=46, velocity=90, time=4),\n",
      "    Message('note_off', channel=8, note=77, velocity=97, time=84),\n",
      "    Message('note_off', channel=3, note=65, velocity=90, time=8),\n",
      "    Message('note_off', channel=3, note=58, velocity=89, time=0),\n",
      "    Message('note_off', channel=3, note=61, velocity=91, time=0),\n",
      "    Message('note_on', channel=2, note=34, velocity=110, time=0),\n",
      "    Message('note_on', channel=8, note=73, velocity=94, time=0),\n",
      "    Message('note_off', channel=2, note=34, velocity=110, time=88),\n",
      "    Message('note_on', channel=9, note=42, velocity=81, time=8),\n",
      "    Message('note_on', channel=9, note=36, velocity=103, time=0),\n",
      "    Message('note_on', channel=2, note=27, velocity=109, time=0),\n",
      "    Message('note_on', channel=3, note=61, velocity=89, time=0),\n",
      "    Message('note_on', channel=3, note=58, velocity=87, time=0),\n",
      "    Message('note_on', channel=3, note=65, velocity=87, time=0),\n",
      "    Message('note_off', channel=9, note=36, velocity=103, time=4),\n",
      "    Message('note_off', channel=9, note=42, velocity=81, time=0),\n",
      "    Message('note_off', channel=2, note=27, velocity=109, time=84),\n",
      "    Message('note_on', channel=9, note=46, velocity=91, time=104),\n",
      "    Message('note_on', channel=2, note=27, velocity=109, time=0),\n",
      "    Message('note_off', channel=9, note=46, velocity=91, time=4),\n",
      "    Message('note_off', channel=2, note=27, velocity=109, time=84),\n",
      "    Message('note_on', channel=2, note=27, velocity=111, time=8),\n",
      "    Message('note_off', channel=2, note=27, velocity=111, time=88),\n",
      "    Message('note_off', channel=3, note=65, velocity=87, time=8),\n",
      "    Message('note_off', channel=3, note=58, velocity=87, time=0),\n",
      "    Message('note_off', channel=3, note=61, velocity=89, time=0),\n",
      "    Message('note_on', channel=9, note=42, velocity=82, time=0),\n",
      "    Message('note_on', channel=9, note=38, velocity=106, time=0),\n",
      "    Message('note_on', channel=9, note=39, velocity=81, time=0),\n",
      "    Message('note_off', channel=9, note=39, velocity=81, time=4),\n",
      "    Message('note_off', channel=9, note=38, velocity=106, time=0),\n",
      "    Message('note_off', channel=9, note=42, velocity=82, time=0),\n",
      "    Message('note_on', channel=2, note=36, velocity=106, time=92),\n",
      "    Message('note_off', channel=8, note=73, velocity=94, time=48),\n",
      "    Message('note_off', channel=2, note=36, velocity=106, time=40),\n",
      "    Message('note_on', channel=9, note=42, velocity=82, time=8),\n",
      "    Message('note_on', channel=2, note=34, velocity=108, time=0),\n",
      "    Message('note_on', channel=3, note=56, velocity=90, time=0),\n",
      "    Message('note_on', channel=3, note=60, velocity=91, time=0),\n",
      "    Message('note_on', channel=3, note=63, velocity=91, time=0),\n",
      "    Message('note_on', channel=8, note=75, velocity=95, time=0),\n",
      "    Message('note_off', channel=9, note=42, velocity=82, time=4),\n",
      "    Message('note_off', channel=2, note=34, velocity=108, time=84),\n",
      "    Message('note_on', channel=9, note=42, velocity=84, time=8),\n",
      "    Message('note_off', channel=9, note=42, velocity=84, time=4),\n",
      "    Message('note_on', channel=9, note=42, velocity=84, time=92),\n",
      "    Message('note_on', channel=9, note=36, velocity=105, time=0),\n",
      "    Message('note_on', channel=2, note=32, velocity=107, time=0),\n",
      "    Message('note_off', channel=9, note=36, velocity=105, time=4),\n",
      "    Message('note_off', channel=9, note=42, velocity=84, time=0),\n",
      "    Message('note_off', channel=2, note=32, velocity=107, time=84),\n",
      "    Message('note_on', channel=9, note=46, velocity=92, time=104),\n",
      "    Message('note_on', channel=2, note=32, velocity=109, time=0),\n",
      "    Message('note_off', channel=9, note=46, velocity=92, time=4),\n",
      "    Message('note_off', channel=2, note=32, velocity=109, time=84),\n",
      "    Message('note_off', channel=8, note=75, velocity=95, time=56),\n",
      "    Message('note_on', channel=9, note=42, velocity=83, time=48),\n",
      "    Message('note_on', channel=9, note=38, velocity=109, time=0),\n",
      "    Message('note_on', channel=9, note=39, velocity=86, time=0),\n",
      "    Message('note_on', channel=8, note=68, velocity=98, time=0),\n",
      "    Message('note_off', channel=9, note=39, velocity=86, time=4),\n",
      "    Message('note_off', channel=9, note=38, velocity=109, time=0),\n",
      "    Message('note_off', channel=9, note=42, velocity=83, time=0),\n",
      "    Message('note_on', channel=9, note=46, velocity=90, time=188),\n",
      "    Message('note_on', channel=2, note=32, velocity=107, time=0),\n",
      "    Message('note_off', channel=9, note=46, velocity=90, time=4),\n",
      "    Message('note_off', channel=2, note=32, velocity=107, time=84),\n",
      "    Message('note_off', channel=3, note=63, velocity=91, time=8),\n",
      "    Message('note_off', channel=3, note=60, velocity=91, time=0),\n",
      "    Message('note_off', channel=3, note=56, velocity=90, time=0),\n",
      "    Message('note_on', channel=2, note=32, velocity=111, time=0),\n",
      "    Message('note_off', channel=2, note=32, velocity=111, time=88),\n",
      "    Message('note_on', channel=9, note=42, velocity=85, time=8),\n",
      "    Message('note_on', channel=9, note=36, velocity=106, time=0),\n",
      "    Message('note_on', channel=2, note=29, velocity=110, time=0),\n",
      "    Message('note_off', channel=9, note=36, velocity=106, time=4),\n",
      "    Message('note_off', channel=9, note=42, velocity=85, time=0),\n",
      "    Message('note_off', channel=2, note=29, velocity=110, time=84),\n",
      "    Message('note_on', channel=9, note=46, velocity=92, time=104),\n",
      "    Message('note_on', channel=2, note=29, velocity=108, time=0),\n",
      "    Message('note_on', channel=3, note=58, velocity=89, time=0),\n",
      "    Message('note_on', channel=3, note=61, velocity=90, time=0),\n",
      "    Message('note_on', channel=3, note=65, velocity=91, time=0),\n",
      "    Message('note_off', channel=9, note=46, velocity=92, time=4),\n",
      "    Message('note_off', channel=2, note=29, velocity=108, time=84),\n",
      "    Message('note_off', channel=3, note=65, velocity=91, time=8),\n",
      "    Message('note_off', channel=3, note=61, velocity=90, time=0),\n",
      "    Message('note_off', channel=3, note=58, velocity=89, time=0),\n",
      "    Message('note_on', channel=2, note=29, velocity=109, time=0),\n",
      "    Message('note_off', channel=2, note=29, velocity=109, time=88),\n",
      "    Message('note_on', channel=9, note=42, velocity=85, time=8),\n",
      "    Message('note_on', channel=9, note=38, velocity=106, time=0),\n",
      "    Message('note_on', channel=9, note=39, velocity=82, time=0),\n",
      "    Message('note_on', channel=3, note=58, velocity=93, time=0),\n",
      "    Message('note_on', channel=3, note=61, velocity=89, time=0),\n",
      "    Message('note_on', channel=3, note=65, velocity=86, time=0),\n",
      "    Message('note_off', channel=9, note=39, velocity=82, time=4),\n",
      "    Message('note_off', channel=9, note=38, velocity=106, time=0),\n",
      "    Message('note_off', channel=9, note=42, velocity=85, time=0),\n",
      "    Message('note_on', channel=2, note=36, velocity=106, time=92),\n",
      "    Message('note_off', channel=2, note=36, velocity=106, time=88),\n",
      "    Message('note_on', channel=9, note=46, velocity=87, time=8),\n",
      "    Message('note_on', channel=2, note=34, velocity=107, time=0),\n",
      "    Message('note_off', channel=9, note=46, velocity=87, time=4),\n",
      "    Message('note_off', channel=2, note=34, velocity=107, time=84),\n",
      "    Message('note_on', channel=9, note=42, velocity=83, time=104),\n",
      "    Message('note_on', channel=9, note=36, velocity=101, time=0),\n",
      "    Message('note_on', channel=9, note=45, velocity=80, time=0),\n",
      "    Message('note_on', channel=9, note=39, velocity=82, time=0),\n",
      "    Message('note_off', channel=9, note=39, velocity=82, time=4),\n",
      "    Message('note_off', channel=9, note=45, velocity=80, time=0),\n",
      "    Message('note_off', channel=9, note=36, velocity=101, time=0),\n",
      "    Message('note_off', channel=9, note=42, velocity=83, time=0),\n",
      "    Message('note_on', channel=9, note=45, velocity=82, time=92),\n",
      "    Message('note_on', channel=9, note=39, velocity=85, time=0),\n",
      "    Message('note_off', channel=9, note=39, velocity=85, time=4),\n",
      "    Message('note_off', channel=9, note=45, velocity=82, time=0),\n",
      "    Message('note_on', channel=9, note=46, velocity=90, time=92),\n",
      "    Message('note_on', channel=9, note=43, velocity=81, time=0),\n",
      "    Message('note_on', channel=2, note=32, velocity=107, time=0),\n",
      "    Message('note_on', channel=7, note=73, velocity=85, time=0),\n",
      "    Message('note_on', channel=7, note=85, velocity=105, time=0),\n",
      "    Message('note_off', channel=9, note=43, velocity=81, time=4),\n",
      "    Message('note_off', channel=9, note=46, velocity=90, time=0),\n",
      "    Message('note_off', channel=7, note=85, velocity=105, time=60),\n",
      "    Message('note_off', channel=7, note=73, velocity=85, time=0),\n",
      "    Message('note_off', channel=2, note=32, velocity=107, time=24),\n",
      "    Message('note_on', channel=9, note=43, velocity=86, time=8),\n",
      "    Message('note_on', channel=7, note=73, velocity=87, time=0),\n",
      "    Message('note_on', channel=7, note=85, velocity=103, time=0),\n",
      "    Message('note_off', channel=9, note=43, velocity=86, time=4),\n",
      "    Message('note_off', channel=7, note=85, velocity=103, time=60),\n",
      "    Message('note_off', channel=7, note=73, velocity=87, time=0),\n",
      "    Message('note_on', channel=9, note=42, velocity=85, time=32),\n",
      "    Message('note_on', channel=9, note=38, velocity=104, time=0),\n",
      "    Message('note_on', channel=9, note=45, velocity=83, time=0),\n",
      "    Message('note_on', channel=9, note=39, velocity=81, time=0),\n",
      "    Message('note_on', channel=2, note=32, velocity=110, time=0),\n",
      "    Message('note_on', channel=7, note=73, velocity=87, time=0),\n",
      "    Message('note_on', channel=7, note=85, velocity=102, time=0),\n",
      "    Message('note_off', channel=9, note=39, velocity=81, time=4),\n",
      "    Message('note_off', channel=9, note=45, velocity=83, time=0),\n",
      "    Message('note_off', channel=9, note=38, velocity=104, time=0),\n",
      "    Message('note_off', channel=9, note=42, velocity=85, time=0),\n",
      "    Message('note_off', channel=8, note=68, velocity=98, time=44),\n",
      "    Message('note_off', channel=7, note=85, velocity=102, time=16),\n",
      "    Message('note_off', channel=7, note=73, velocity=87, time=0),\n",
      "    Message('note_off', channel=2, note=32, velocity=110, time=24),\n",
      "    Message('note_on', channel=9, note=45, velocity=80, time=8),\n",
      "    Message('note_on', channel=9, note=39, velocity=81, time=0),\n",
      "    Message('note_on', channel=2, note=32, velocity=107, time=0),\n",
      "    Message('note_on', channel=7, note=73, velocity=85, time=0),\n",
      "    Message('note_on', channel=7, note=85, velocity=104, time=0),\n",
      "    Message('note_off', channel=9, note=39, velocity=81, time=4),\n",
      "    Message('note_off', channel=9, note=45, velocity=80, time=0),\n",
      "    Message('note_off', channel=7, note=85, velocity=104, time=60),\n",
      "    Message('note_off', channel=7, note=73, velocity=85, time=0),\n",
      "    Message('note_off', channel=2, note=32, velocity=107, time=24),\n",
      "    Message('note_on', channel=9, note=46, velocity=90, time=8),\n",
      "    Message('note_on', channel=9, note=43, velocity=85, time=0),\n",
      "    Message('note_off', channel=9, note=43, velocity=85, time=4),\n",
      "    Message('note_off', channel=9, note=46, velocity=90, time=0),\n",
      "    Message('note_off', channel=3, note=65, velocity=86, time=92),\n",
      "    Message('note_off', channel=3, note=61, velocity=89, time=0),\n",
      "    Message('note_off', channel=3, note=58, velocity=93, time=0),\n",
      "    Message('note_on', channel=9, note=43, velocity=82, time=0),\n",
      "    Message('note_on', channel=2, note=37, velocity=110, time=0),\n",
      "    Message('note_on', channel=7, note=73, velocity=86, time=0),\n",
      "    Message('note_on', channel=7, note=85, velocity=105, time=0),\n",
      "    Message('note_off', channel=9, note=43, velocity=82, time=4),\n",
      "    Message('note_off', channel=7, note=85, velocity=105, time=60),\n",
      "    Message('note_off', channel=7, note=73, velocity=86, time=0),\n",
      "    Message('note_off', channel=2, note=37, velocity=110, time=24),\n",
      "    Message('note_on', channel=9, note=42, velocity=85, time=8),\n",
      "    Message('note_on', channel=9, note=36, velocity=108, time=0),\n",
      "    Message('note_on', channel=2, note=34, velocity=111, time=0),\n",
      "    Message('note_on', channel=3, note=58, velocity=91, time=0),\n",
      "    Message('note_on', channel=3, note=65, velocity=93, time=0),\n",
      "    Message('note_on', channel=3, note=61, velocity=88, time=0),\n",
      "    Message('note_on', channel=3, note=54, velocity=91, time=0),\n",
      "    Message('note_off', channel=9, note=36, velocity=108, time=4),\n",
      "    Message('note_off', channel=9, note=42, velocity=85, time=0),\n",
      "    Message('note_off', channel=2, note=34, velocity=111, time=84),\n",
      "    Message('note_on', channel=9, note=46, velocity=90, time=104),\n",
      "    Message('note_on', channel=2, note=34, velocity=106, time=0),\n",
      "    Message('note_on', channel=15, note=61, velocity=122, time=0),\n",
      "    Message('note_off', channel=9, note=46, velocity=90, time=4),\n",
      "    Message('note_off', channel=15, note=61, velocity=122, time=84),\n",
      "    Message('note_off', channel=2, note=34, velocity=106, time=0),\n",
      "    Message('note_on', channel=2, note=34, velocity=107, time=8),\n",
      "    Message('note_off', channel=2, note=34, velocity=107, time=88),\n",
      "    Message('note_on', channel=9, note=42, velocity=82, time=8),\n",
      "    Message('note_on', channel=9, note=38, velocity=103, time=0),\n",
      "    Message('note_on', channel=9, note=39, velocity=84, time=0),\n",
      "    Message('note_on', channel=15, note=61, velocity=123, time=0),\n",
      "    Message('note_off', channel=9, note=39, velocity=84, time=4),\n",
      "    Message('note_off', channel=9, note=38, velocity=103, time=0),\n",
      "    Message('note_off', channel=9, note=42, velocity=82, time=0),\n",
      "    Message('note_on', channel=2, note=37, velocity=107, time=92),\n",
      "    Message('note_off', channel=15, note=61, velocity=123, time=80),\n",
      "    Message('note_off', channel=2, note=37, velocity=107, time=8),\n",
      "    Message('note_on', channel=9, note=42, velocity=83, time=8),\n",
      "    Message('note_on', channel=2, note=36, velocity=107, time=0),\n",
      "    Message('note_on', channel=15, note=58, velocity=123, time=0),\n",
      "    Message('note_off', channel=9, note=42, velocity=83, time=4),\n",
      "    Message('note_off', channel=2, note=36, velocity=107, time=84),\n",
      "    Message('note_on', channel=9, note=42, velocity=81, time=8),\n",
      "    Message('note_off', channel=9, note=42, velocity=81, time=4),\n",
      "    Message('note_off', channel=15, note=58, velocity=123, time=76),\n",
      "    Message('note_on', channel=9, note=42, velocity=83, time=16),\n",
      "    Message('note_on', channel=9, note=36, velocity=105, time=0),\n",
      "    Message('note_on', channel=2, note=32, velocity=110, time=0),\n",
      "    Message('note_on', channel=15, note=61, velocity=121, time=0),\n",
      "    Message('note_off', channel=9, note=36, velocity=105, time=4),\n",
      "    Message('note_off', channel=9, note=42, velocity=83, time=0),\n",
      "    Message('note_off', channel=15, note=61, velocity=121, time=172),\n",
      "    Message('note_off', channel=2, note=32, velocity=110, time=16),\n",
      "    Message('note_on', channel=9, note=46, velocity=87, time=0),\n",
      "    Message('note_on', channel=2, note=34, velocity=111, time=0),\n",
      "    Message('note_on', channel=15, note=63, velocity=120, time=0),\n",
      "    Message('note_off', channel=9, note=46, velocity=87, time=4),\n",
      "    Message('note_off', channel=2, note=34, velocity=111, time=84),\n",
      "    Message('note_on', channel=9, note=42, velocity=84, time=104),\n",
      "    Message('note_on', channel=9, note=38, velocity=101, time=0),\n",
      "    Message('note_on', channel=9, note=39, velocity=81, time=0),\n",
      "    Message('note_off', channel=9, note=39, velocity=81, time=4),\n",
      "    Message('note_off', channel=9, note=38, velocity=101, time=0),\n",
      "    Message('note_off', channel=9, note=42, velocity=84, time=0),\n",
      "    Message('note_off', channel=15, note=63, velocity=120, time=68),\n",
      "    Message('note_off', channel=3, note=54, velocity=91, time=120),\n",
      "    Message('note_off', channel=3, note=61, velocity=88, time=0),\n",
      "    Message('note_off', channel=3, note=65, velocity=93, time=0),\n",
      "    Message('note_off', channel=3, note=58, velocity=91, time=0),\n",
      "    Message('note_on', channel=9, note=46, velocity=88, time=0),\n",
      "    Message('note_on', channel=2, note=29, velocity=108, time=0),\n",
      "    Message('note_off', channel=9, note=46, velocity=88, time=4),\n",
      "    Message('note_off', channel=2, note=29, velocity=108, time=84),\n",
      "    Message('note_on', channel=2, note=32, velocity=108, time=8),\n",
      "    Message('note_off', channel=2, note=32, velocity=108, time=88),\n",
      "    Message('note_on', channel=9, note=42, velocity=85, time=8),\n",
      "    Message('note_on', channel=9, note=36, velocity=104, time=0),\n",
      "    Message('note_on', channel=2, note=34, velocity=106, time=0),\n",
      "    Message('note_on', channel=3, note=60, velocity=91, time=0),\n",
      "    Message('note_on', channel=3, note=63, velocity=91, time=0),\n",
      "    Message('note_on', channel=3, note=56, velocity=88, time=0),\n",
      "    Message('note_off', channel=9, note=36, velocity=104, time=4),\n",
      "    Message('note_off', channel=9, note=42, velocity=85, time=0),\n",
      "    Message('note_off', channel=2, note=34, velocity=106, time=84),\n",
      "    Message('note_on', channel=9, note=46, velocity=87, time=104),\n",
      "    Message('note_on', channel=2, note=32, velocity=109, time=0),\n",
      "    Message('note_on', channel=15, note=60, velocity=124, time=0),\n",
      "    Message('note_off', channel=9, note=46, velocity=87, time=4),\n",
      "    Message('note_off', channel=2, note=32, velocity=109, time=84),\n",
      "    Message('note_on', channel=2, note=34, velocity=106, time=8),\n",
      "    Message('note_off', channel=15, note=60, velocity=124, time=80),\n",
      "    Message('note_off', channel=2, note=34, velocity=106, time=8),\n",
      "    Message('note_on', channel=9, note=42, velocity=85, time=8),\n",
      "    Message('note_on', channel=9, note=38, velocity=106, time=0),\n",
      "    Message('note_on', channel=9, note=39, velocity=80, time=0),\n",
      "    Message('note_on', channel=15, note=58, velocity=121, time=0),\n",
      "    Message('note_off', channel=9, note=39, velocity=80, time=4),\n",
      "    Message('note_off', channel=9, note=38, velocity=106, time=0),\n",
      "    Message('note_off', channel=9, note=42, velocity=85, time=0),\n",
      "    Message('note_on', channel=2, note=37, velocity=107, time=92),\n",
      "    Message('note_off', channel=15, note=58, velocity=121, time=80),\n",
      "    Message('note_off', channel=2, note=37, velocity=107, time=8),\n",
      "    Message('note_on', channel=9, note=46, velocity=87, time=8),\n",
      "    Message('note_on', channel=2, note=36, velocity=109, time=0),\n",
      "    Message('note_on', channel=15, note=60, velocity=120, time=0),\n",
      "    Message('note_off', channel=9, note=46, velocity=87, time=4),\n",
      "    Message('note_off', channel=2, note=36, velocity=109, time=84),\n",
      "    Message('note_on', channel=9, note=42, velocity=80, time=104),\n",
      "    Message('note_on', channel=9, note=36, velocity=107, time=0),\n",
      "    Message('note_off', channel=9, note=36, velocity=107, time=4),\n",
      "    Message('note_off', channel=9, note=42, velocity=80, time=0),\n",
      "    Message('note_off', channel=15, note=60, velocity=120, time=68),\n",
      "    Message('note_on', channel=15, note=58, velocity=119, time=24),\n",
      "    Message('note_off', channel=15, note=58, velocity=119, time=88),\n",
      "    Message('note_on', channel=9, note=46, velocity=92, time=8),\n",
      "    Message('note_on', channel=15, note=56, velocity=123, time=0),\n",
      "    Message('note_off', channel=9, note=46, velocity=92, time=4),\n",
      "    Message('note_on', channel=9, note=42, velocity=85, time=188),\n",
      "    Message('note_on', channel=9, note=38, velocity=109, time=0),\n",
      "    Message('note_on', channel=9, note=39, velocity=86, time=0),\n",
      "    Message('note_off', channel=9, note=39, velocity=86, time=4),\n",
      "    Message('note_off', channel=9, note=38, velocity=109, time=0),\n",
      "    Message('note_off', channel=9, note=42, velocity=85, time=0),\n",
      "    Message('note_off', channel=15, note=56, velocity=123, time=68),\n",
      "    Message('note_off', channel=3, note=56, velocity=88, time=120),\n",
      "    Message('note_off', channel=3, note=63, velocity=91, time=0),\n",
      "    Message('note_off', channel=3, note=60, velocity=91, time=0),\n",
      "    Message('note_on', channel=9, note=46, velocity=92, time=0),\n",
      "    Message('note_on', channel=2, note=29, velocity=107, time=0),\n",
      "    Message('note_off', channel=9, note=46, velocity=92, time=4),\n",
      "    Message('note_off', channel=2, note=29, velocity=107, time=84),\n",
      "    Message('note_on', channel=2, note=32, velocity=110, time=8),\n",
      "    Message('note_off', channel=2, note=32, velocity=110, time=88),\n",
      "    Message('note_on', channel=9, note=42, velocity=84, time=8),\n",
      "    Message('note_on', channel=9, note=36, velocity=104, time=0),\n",
      "    Message('note_on', channel=2, note=34, velocity=109, time=0),\n",
      "    Message('note_on', channel=3, note=65, velocity=91, time=0),\n",
      "    Message('note_on', channel=3, note=54, velocity=93, time=0),\n",
      "    Message('note_on', channel=3, note=58, velocity=93, time=0),\n",
      "    Message('note_on', channel=3, note=61, velocity=91, time=0),\n",
      "    Message('note_off', channel=9, note=36, velocity=104, time=4),\n",
      "    Message('note_off', channel=9, note=42, velocity=84, time=0),\n",
      "    Message('note_off', channel=2, note=34, velocity=109, time=84),\n",
      "    Message('note_on', channel=9, note=46, velocity=91, time=104),\n",
      "    Message('note_on', channel=2, note=34, velocity=109, time=0),\n",
      "    Message('note_on', channel=15, note=58, velocity=121, time=0),\n",
      "    Message('note_off', channel=9, note=46, velocity=91, time=4),\n",
      "    Message('note_off', channel=15, note=58, velocity=121, time=84),\n",
      "    Message('note_off', channel=2, note=34, velocity=109, time=0),\n",
      "    Message('note_on', channel=2, note=34, velocity=111, time=8),\n",
      "    Message('note_off', channel=2, note=34, velocity=111, time=88),\n",
      "    Message('note_on', channel=9, note=42, velocity=82, time=8),\n",
      "    Message('note_on', channel=9, note=38, velocity=106, time=0),\n",
      "    Message('note_on', channel=9, note=39, velocity=86, time=0),\n",
      "    Message('note_on', channel=15, note=58, velocity=123, time=0),\n",
      "    Message('note_off', channel=9, note=39, velocity=86, time=4),\n",
      "    Message('note_off', channel=9, note=38, velocity=106, time=0),\n",
      "    Message('note_off', channel=9, note=42, velocity=82, time=0),\n",
      "    Message('note_on', channel=2, note=37, velocity=107, time=92),\n",
      "    Message('note_off', channel=15, note=58, velocity=123, time=80),\n",
      "    Message('note_off', channel=2, note=37, velocity=107, time=8),\n",
      "    Message('note_on', channel=9, note=42, velocity=82, time=8),\n",
      "    Message('note_on', channel=2, note=36, velocity=107, time=0),\n",
      "    Message('note_on', channel=15, note=60, velocity=124, time=0),\n",
      "    Message('note_off', channel=9, note=42, velocity=82, time=4),\n",
      "    Message('note_off', channel=2, note=36, velocity=107, time=84),\n",
      "    Message('note_on', channel=9, note=42, velocity=85, time=8),\n",
      "    Message('note_off', channel=9, note=42, velocity=85, time=4),\n",
      "    Message('note_off', channel=15, note=60, velocity=124, time=76),\n",
      "    Message('note_on', channel=9, note=42, velocity=83, time=16),\n",
      "    Message('note_on', channel=9, note=36, velocity=109, time=0),\n",
      "    Message('note_on', channel=2, note=32, velocity=111, time=0),\n",
      "    Message('note_on', channel=15, note=61, velocity=119, time=0),\n",
      "    Message('note_off', channel=9, note=36, velocity=109, time=4),\n",
      "    Message('note_off', channel=9, note=42, velocity=83, time=0),\n",
      "    Message('note_off', channel=15, note=61, velocity=119, time=172),\n",
      "    Message('note_off', channel=2, note=32, velocity=111, time=16),\n",
      "    Message('note_on', channel=9, note=46, velocity=88, time=0),\n",
      "    Message('note_on', channel=2, note=34, velocity=108, time=0),\n",
      "    Message('note_on', channel=15, note=58, velocity=123, time=0),\n",
      "    Message('note_off', channel=9, note=46, velocity=88, time=4),\n",
      "    Message('note_off', channel=2, note=34, velocity=108, time=84),\n",
      "    Message('note_off', channel=15, note=58, velocity=123, time=88),\n",
      "    Message('note_on', channel=9, note=42, velocity=84, time=16),\n",
      "    Message('note_on', channel=9, note=38, velocity=107, time=0),\n",
      "    Message('note_on', channel=9, note=39, velocity=87, time=0),\n",
      "    Message('note_off', channel=9, note=39, velocity=87, time=4),\n",
      "    Message('note_off', channel=9, note=38, velocity=107, time=0),\n",
      "    Message('note_off', channel=9, note=42, velocity=84, time=0),\n",
      "    Message('note_off', channel=3, note=61, velocity=91, time=188),\n",
      "    Message('note_off', channel=3, note=58, velocity=93, time=0),\n",
      "    Message('note_off', channel=3, note=54, velocity=93, time=0),\n",
      "    Message('note_off', channel=3, note=65, velocity=91, time=0),\n",
      "    Message('note_on', channel=9, note=46, velocity=92, time=0),\n",
      "    Message('note_on', channel=2, note=34, velocity=107, time=0),\n",
      "    Message('note_on', channel=15, note=56, velocity=123, time=0),\n",
      "    Message('note_off', channel=9, note=46, velocity=92, time=4),\n",
      "    Message('note_off', channel=2, note=34, velocity=107, time=84),\n",
      "    Message('note_on', channel=2, note=34, velocity=110, time=8),\n",
      "    Message('note_off', channel=15, note=56, velocity=123, time=80),\n",
      "    Message('note_off', channel=2, note=34, velocity=110, time=8),\n",
      "    Message('note_on', channel=9, note=42, velocity=81, time=8),\n",
      "    Message('note_on', channel=9, note=36, velocity=103, time=0),\n",
      "    Message('note_on', channel=2, note=27, velocity=110, time=0),\n",
      "    Message('note_on', channel=3, note=61, velocity=87, time=0),\n",
      "    Message('note_on', channel=3, note=68, velocity=87, time=0),\n",
      "    Message('note_on', channel=3, note=65, velocity=86, time=0),\n",
      "    Message('note_on', channel=3, note=58, velocity=89, time=0),\n",
      "    Message('note_on', channel=15, note=68, velocity=121, time=0),\n",
      "    Message('note_off', channel=9, note=36, velocity=103, time=4),\n",
      "    Message('note_off', channel=9, note=42, velocity=81, time=0),\n",
      "    Message('note_off', channel=2, note=27, velocity=110, time=84),\n",
      "    Message('note_on', channel=9, note=46, velocity=89, time=104),\n",
      "    Message('note_on', channel=2, note=27, velocity=106, time=0),\n",
      "    Message('note_off', channel=9, note=46, velocity=89, time=4),\n",
      "    Message('note_off', channel=15, note=68, velocity=121, time=68),\n",
      "    Message('note_off', channel=2, note=27, velocity=106, time=16),\n",
      "    Message('note_on', channel=2, note=27, velocity=108, time=8),\n",
      "    Message('note_off', channel=2, note=27, velocity=108, time=88),\n",
      "    Message('note_on', channel=9, note=42, velocity=81, time=8),\n",
      "    Message('note_on', channel=9, note=38, velocity=103, time=0),\n",
      "    Message('note_on', channel=9, note=39, velocity=81, time=0),\n",
      "    Message('note_on', channel=15, note=68, velocity=122, time=0),\n",
      "    Message('note_off', channel=9, note=39, velocity=81, time=4),\n",
      "    Message('note_off', channel=9, note=38, velocity=103, time=0),\n",
      "    Message('note_off', channel=9, note=42, velocity=81, time=0),\n",
      "    Message('note_off', channel=3, note=58, velocity=89, time=92),\n",
      "    Message('note_off', channel=3, note=65, velocity=86, time=0),\n",
      "    Message('note_off', channel=3, note=68, velocity=87, time=0),\n",
      "    Message('note_off', channel=3, note=61, velocity=87, time=0),\n",
      "    Message('note_on', channel=2, note=27, velocity=109, time=0),\n",
      "    Message('note_off', channel=15, note=68, velocity=122, time=80),\n",
      "    Message('note_off', channel=2, note=27, velocity=109, time=8),\n",
      "    Message('note_on', channel=9, note=46, velocity=90, time=8),\n",
      "    Message('note_on', channel=2, note=32, velocity=110, time=0),\n",
      "    Message('note_on', channel=3, note=56, velocity=88, time=0),\n",
      "    Message('note_on', channel=3, note=63, velocity=88, time=0),\n",
      "    Message('note_on', channel=3, note=60, velocity=90, time=0),\n",
      "    Message('note_on', channel=15, note=63, velocity=120, time=0),\n",
      "    Message('note_off', channel=9, note=46, velocity=90, time=4),\n",
      "    Message('note_off', channel=2, note=32, velocity=110, time=84),\n",
      "    Message('note_on', channel=9, note=42, velocity=85, time=104),\n",
      "    Message('note_on', channel=9, note=36, velocity=104, time=0),\n",
      "    Message('note_off', channel=9, note=36, velocity=104, time=4),\n",
      "    Message('note_off', channel=9, note=42, velocity=85, time=0),\n",
      "    Message('note_on', channel=9, note=46, velocity=89, time=188),\n",
      "    Message('note_on', channel=2, note=32, velocity=107, time=0),\n",
      "    Message('note_off', channel=9, note=46, velocity=89, time=4),\n",
      "    Message('note_off', channel=2, note=32, velocity=107, time=84),\n",
      "    Message('note_on', channel=2, note=32, velocity=106, time=8),\n",
      "    Message('note_off', channel=15, note=63, velocity=120, time=64),\n",
      "    Message('note_off', channel=2, note=32, velocity=106, time=24),\n",
      "    Message('note_on', channel=9, note=42, velocity=83, time=8),\n",
      "    Message('note_on', channel=9, note=38, velocity=105, time=0),\n",
      "    Message('note_on', channel=9, note=39, velocity=86, time=0),\n",
      "    Message('note_on', channel=2, note=32, velocity=109, time=0),\n",
      "    Message('note_off', channel=9, note=39, velocity=86, time=4),\n",
      "    Message('note_off', channel=9, note=38, velocity=105, time=0),\n",
      "    Message('note_off', channel=9, note=42, velocity=83, time=0),\n",
      "    Message('note_off', channel=2, note=32, velocity=109, time=84),\n",
      "    Message('note_off', channel=3, note=60, velocity=90, time=104),\n",
      "    Message('note_off', channel=3, note=63, velocity=88, time=0),\n",
      "    Message('note_off', channel=3, note=56, velocity=88, time=0),\n",
      "    Message('note_on', channel=9, note=46, velocity=88, time=0),\n",
      "    Message('note_on', channel=2, note=29, velocity=106, time=0),\n",
      "    Message('note_off', channel=9, note=46, velocity=88, time=4),\n",
      "    Message('note_off', channel=2, note=29, velocity=106, time=84),\n",
      "    Message('note_on', channel=2, note=32, velocity=110, time=8),\n",
      "    Message('note_off', channel=2, note=32, velocity=110, time=88),\n",
      "    Message('note_on', channel=9, note=42, velocity=84, time=8),\n",
      "    Message('note_on', channel=9, note=36, velocity=107, time=0),\n",
      "    Message('note_on', channel=2, note=34, velocity=110, time=0),\n",
      "    Message('note_on', channel=3, note=58, velocity=86, time=0),\n",
      "    Message('note_on', channel=3, note=54, velocity=89, time=0),\n",
      "    Message('note_on', channel=3, note=65, velocity=88, time=0),\n",
      "    Message('note_on', channel=3, note=61, velocity=93, time=0),\n",
      "    Message('note_off', channel=9, note=36, velocity=107, time=4),\n",
      "    Message('note_off', channel=9, note=42, velocity=84, time=0),\n",
      "    Message('note_off', channel=2, note=34, velocity=110, time=84),\n",
      "    Message('note_on', channel=9, note=46, velocity=89, time=104),\n",
      "    Message('note_on', channel=2, note=34, velocity=110, time=0),\n",
      "    Message('note_on', channel=15, note=58, velocity=123, time=0),\n",
      "    Message('note_off', channel=9, note=46, velocity=89, time=4),\n",
      "    Message('note_off', channel=15, note=58, velocity=123, time=84),\n",
      "    Message('note_off', channel=2, note=34, velocity=110, time=0),\n",
      "    Message('note_on', channel=2, note=34, velocity=106, time=8),\n",
      "    Message('note_off', channel=2, note=34, velocity=106, time=88),\n",
      "    Message('note_on', channel=9, note=42, velocity=82, time=8),\n",
      "    Message('note_on', channel=9, note=38, velocity=109, time=0),\n",
      "    Message('note_on', channel=9, note=39, velocity=83, time=0),\n",
      "    Message('note_on', channel=15, note=58, velocity=123, time=0),\n",
      "    Message('note_off', channel=9, note=39, velocity=83, time=4),\n",
      "    Message('note_off', channel=9, note=38, velocity=109, time=0),\n",
      "    Message('note_off', channel=9, note=42, velocity=82, time=0),\n",
      "    Message('note_on', channel=2, note=37, velocity=110, time=92),\n",
      "    Message('note_off', channel=15, note=58, velocity=123, time=80),\n",
      "    Message('note_off', channel=2, note=37, velocity=110, time=8),\n",
      "    Message('note_on', channel=9, note=42, velocity=84, time=8),\n",
      "    Message('note_on', channel=2, note=36, velocity=110, time=0),\n",
      "    Message('note_on', channel=15, note=60, velocity=119, time=0),\n",
      "    Message('note_off', channel=9, note=42, velocity=84, time=4),\n",
      "    Message('note_off', channel=2, note=36, velocity=110, time=84),\n",
      "    Message('note_on', channel=9, note=42, velocity=83, time=8),\n",
      "    Message('note_off', channel=9, note=42, velocity=83, time=4),\n",
      "    Message('note_off', channel=15, note=60, velocity=119, time=76),\n",
      "    Message('note_on', channel=9, note=42, velocity=81, time=16),\n",
      "    Message('note_on', channel=9, note=36, velocity=107, time=0),\n",
      "    Message('note_on', channel=2, note=32, velocity=108, time=0),\n",
      "    Message('note_on', channel=15, note=61, velocity=119, time=0),\n",
      "    Message('note_off', channel=9, note=36, velocity=107, time=4),\n",
      "    Message('note_off', channel=9, note=42, velocity=81, time=0),\n",
      "    Message('note_off', channel=15, note=61, velocity=119, time=172),\n",
      "    Message('note_off', channel=2, note=32, velocity=108, time=16),\n",
      "    Message('note_on', channel=9, note=46, velocity=91, time=0),\n",
      "    Message('note_on', channel=2, note=34, velocity=109, time=0),\n",
      "    Message('note_on', channel=15, note=58, velocity=124, time=0),\n",
      "    Message('note_off', channel=9, note=46, velocity=91, time=4),\n",
      "    Message('note_off', channel=2, note=34, velocity=109, time=84),\n",
      "    Message('note_off', channel=15, note=58, velocity=124, time=88),\n",
      "    Message('note_on', channel=9, note=42, velocity=82, time=16),\n",
      "    Message('note_on', channel=9, note=38, velocity=104, time=0),\n",
      "    Message('note_on', channel=9, note=39, velocity=84, time=0),\n",
      "    Message('note_on', channel=15, note=61, velocity=124, time=0),\n",
      "    Message('note_off', channel=9, note=39, velocity=84, time=4),\n",
      "    Message('note_off', channel=9, note=38, velocity=104, time=0),\n",
      "    Message('note_off', channel=9, note=42, velocity=82, time=0),\n",
      "    Message('note_off', channel=15, note=61, velocity=124, time=172),\n",
      "    Message('note_off', channel=3, note=61, velocity=93, time=16),\n",
      "    Message('note_off', channel=3, note=65, velocity=88, time=0),\n",
      "    Message('note_off', channel=3, note=54, velocity=89, time=0),\n",
      "    Message('note_off', channel=3, note=58, velocity=86, time=0),\n",
      "    Message('note_on', channel=9, note=46, velocity=91, time=0),\n",
      "    Message('note_on', channel=2, note=29, velocity=110, time=0),\n",
      "    Message('note_on', channel=15, note=63, velocity=120, time=0),\n",
      "    Message('note_off', channel=9, note=46, velocity=91, time=4),\n",
      "    Message('note_off', channel=2, note=29, velocity=110, time=84),\n",
      "    Message('note_on', channel=2, note=32, velocity=108, time=8),\n",
      "    Message('note_off', channel=15, note=63, velocity=120, time=80),\n",
      "    Message('note_off', channel=2, note=32, velocity=108, time=8),\n",
      "    Message('note_on', channel=9, note=42, velocity=83, time=8),\n",
      "    Message('note_on', channel=9, note=36, velocity=101, time=0),\n",
      "    Message('note_on', channel=2, note=34, velocity=106, time=0),\n",
      "    Message('note_on', channel=3, note=56, velocity=87, time=0),\n",
      "    Message('note_on', channel=3, note=63, velocity=86, time=0),\n",
      "    Message('note_on', channel=3, note=60, velocity=91, time=0),\n",
      "    Message('note_off', channel=9, note=36, velocity=101, time=4),\n",
      "    Message('note_off', channel=9, note=42, velocity=83, time=0),\n",
      "    Message('note_off', channel=2, note=34, velocity=106, time=84),\n",
      "    Message('note_on', channel=9, note=46, velocity=91, time=104),\n",
      "    Message('note_on', channel=2, note=32, velocity=107, time=0),\n",
      "    Message('note_on', channel=15, note=60, velocity=119, time=0),\n",
      "    Message('note_off', channel=9, note=46, velocity=91, time=4),\n",
      "    Message('note_off', channel=2, note=32, velocity=107, time=84),\n",
      "    Message('note_on', channel=2, note=34, velocity=111, time=8),\n",
      "    Message('note_off', channel=15, note=60, velocity=119, time=80),\n",
      "    Message('note_off', channel=2, note=34, velocity=111, time=8),\n",
      "    Message('note_on', channel=9, note=42, velocity=84, time=8),\n",
      "    Message('note_on', channel=9, note=38, velocity=102, time=0),\n",
      "    Message('note_on', channel=9, note=39, velocity=84, time=0),\n",
      "    Message('note_on', channel=15, note=58, velocity=119, time=0),\n",
      "    Message('note_off', channel=9, note=39, velocity=84, time=4),\n",
      "    Message('note_off', channel=9, note=38, velocity=102, time=0),\n",
      "    Message('note_off', channel=9, note=42, velocity=84, time=0),\n",
      "    Message('note_on', channel=2, note=37, velocity=110, time=92),\n",
      "    Message('note_off', channel=15, note=58, velocity=119, time=80),\n",
      "    Message('note_off', channel=2, note=37, velocity=110, time=8),\n",
      "    Message('note_on', channel=9, note=46, velocity=90, time=8),\n",
      "    Message('note_on', channel=2, note=36, velocity=109, time=0),\n",
      "    Message('note_on', channel=15, note=60, velocity=122, time=0),\n",
      "    Message('note_off', channel=9, note=46, velocity=90, time=4),\n",
      "    Message('note_off', channel=2, note=36, velocity=109, time=84),\n",
      "    Message('note_on', channel=9, note=42, velocity=80, time=104),\n",
      "    Message('note_on', channel=9, note=36, velocity=109, time=0),\n",
      "    Message('note_off', channel=9, note=36, velocity=109, time=4),\n",
      "    Message('note_off', channel=9, note=42, velocity=80, time=0),\n",
      "    Message('note_off', channel=15, note=60, velocity=122, time=68),\n",
      "    Message('note_on', channel=15, note=58, velocity=123, time=24),\n",
      "    Message('note_off', channel=15, note=58, velocity=123, time=88),\n",
      "    Message('note_on', channel=9, note=46, velocity=89, time=8),\n",
      "    Message('note_on', channel=15, note=56, velocity=122, time=0),\n",
      "    Message('note_off', channel=9, note=46, velocity=89, time=4),\n",
      "    Message('note_on', channel=9, note=42, velocity=84, time=188),\n",
      "    Message('note_on', channel=9, note=38, velocity=108, time=0),\n",
      "    Message('note_on', channel=9, note=39, velocity=83, time=0),\n",
      "    Message('note_off', channel=9, note=39, velocity=83, time=4),\n",
      "    Message('note_off', channel=9, note=38, velocity=108, time=0),\n",
      "    Message('note_off', channel=9, note=42, velocity=84, time=0),\n",
      "    Message('note_off', channel=15, note=56, velocity=122, time=68),\n",
      "    Message('note_off', channel=3, note=60, velocity=91, time=120),\n",
      "    Message('note_off', channel=3, note=63, velocity=86, time=0),\n",
      "    Message('note_off', channel=3, note=56, velocity=87, time=0),\n",
      "    Message('note_on', channel=9, note=46, velocity=90, time=0),\n",
      "    Message('note_on', channel=2, note=29, velocity=108, time=0),\n",
      "    Message('note_off', channel=9, note=46, velocity=90, time=4),\n",
      "    Message('note_off', channel=2, note=29, velocity=108, time=84),\n",
      "    Message('note_on', channel=2, note=32, velocity=109, time=8),\n",
      "    Message('note_off', channel=2, note=32, velocity=109, time=88),\n",
      "    Message('note_on', channel=9, note=42, velocity=85, time=8),\n",
      "    Message('note_on', channel=9, note=36, velocity=107, time=0),\n",
      "    Message('note_on', channel=2, note=34, velocity=109, time=0),\n",
      "    Message('note_on', channel=3, note=54, velocity=88, time=0),\n",
      "    Message('note_on', channel=3, note=58, velocity=92, time=0),\n",
      "    Message('note_on', channel=3, note=65, velocity=86, time=0),\n",
      "    Message('note_on', channel=3, note=61, velocity=89, time=0),\n",
      "    Message('note_on', channel=7, note=68, velocity=70, time=0),\n",
      "    Message('note_on', channel=7, note=80, velocity=85, time=0),\n",
      "    Message('note_off', channel=9, note=36, velocity=107, time=4),\n",
      "    Message('note_off', channel=9, note=42, velocity=85, time=0),\n",
      "    Message('note_off', channel=2, note=34, velocity=109, time=84),\n",
      "    Message('note_on', channel=9, note=46, velocity=90, time=104),\n",
      "    Message('note_on', channel=2, note=34, velocity=108, time=0),\n",
      "    Message('note_on', channel=15, note=58, velocity=120, time=0),\n",
      "    Message('note_off', channel=9, note=46, velocity=90, time=4),\n",
      "    Message('note_off', channel=15, note=58, velocity=120, time=84),\n",
      "    Message('note_off', channel=2, note=34, velocity=108, time=0),\n",
      "    Message('note_on', channel=2, note=34, velocity=111, time=8),\n",
      "    Message('note_off', channel=2, note=34, velocity=111, time=88),\n",
      "    Message('note_on', channel=9, note=42, velocity=84, time=8),\n",
      "    Message('note_on', channel=9, note=38, velocity=102, time=0),\n",
      "    Message('note_on', channel=9, note=39, velocity=86, time=0),\n",
      "    Message('note_on', channel=15, note=58, velocity=124, time=0),\n",
      "    Message('note_off', channel=9, note=39, velocity=86, time=4),\n",
      "    Message('note_off', channel=9, note=38, velocity=102, time=0),\n",
      "    Message('note_off', channel=9, note=42, velocity=84, time=0),\n",
      "    Message('note_on', channel=2, note=37, velocity=106, time=92),\n",
      "    Message('note_off', channel=15, note=58, velocity=124, time=80),\n",
      "    Message('note_off', channel=2, note=37, velocity=106, time=8),\n",
      "    Message('note_on', channel=9, note=42, velocity=81, time=8),\n",
      "    Message('note_on', channel=2, note=36, velocity=110, time=0),\n",
      "    Message('note_on', channel=15, note=60, velocity=120, time=0),\n",
      "    Message('note_off', channel=9, note=42, velocity=81, time=4),\n",
      "    Message('note_off', channel=2, note=36, velocity=110, time=84),\n",
      "    Message('note_on', channel=9, note=42, velocity=81, time=8),\n",
      "    Message('note_off', channel=9, note=42, velocity=81, time=4),\n",
      "    Message('note_off', channel=15, note=60, velocity=120, time=76),\n",
      "    Message('note_on', channel=9, note=42, velocity=85, time=16),\n",
      "    Message('note_on', channel=9, note=36, velocity=105, time=0),\n",
      "    Message('note_on', channel=2, note=32, velocity=108, time=0),\n",
      "    Message('note_on', channel=15, note=61, velocity=123, time=0),\n",
      "    Message('note_off', channel=9, note=36, velocity=105, time=4),\n",
      "    Message('note_off', channel=9, note=42, velocity=85, time=0),\n",
      "    Message('note_off', channel=15, note=61, velocity=123, time=172),\n",
      "    Message('note_off', channel=2, note=32, velocity=108, time=16),\n",
      "    Message('note_on', channel=9, note=46, velocity=89, time=0),\n",
      "    Message('note_on', channel=2, note=34, velocity=111, time=0),\n",
      "    Message('note_on', channel=15, note=58, velocity=124, time=0),\n",
      "    Message('note_off', channel=9, note=46, velocity=89, time=4),\n",
      "    Message('note_off', channel=2, note=34, velocity=111, time=84),\n",
      "    Message('note_off', channel=15, note=58, velocity=124, time=88),\n",
      "    Message('note_on', channel=9, note=42, velocity=82, time=16),\n",
      "    Message('note_on', channel=9, note=38, velocity=103, time=0),\n",
      "    Message('note_on', channel=9, note=39, velocity=80, time=0),\n",
      "    Message('note_on', channel=15, note=56, velocity=120, time=0),\n",
      "    Message('note_off', channel=9, note=39, velocity=80, time=4),\n",
      "    Message('note_off', channel=9, note=38, velocity=103, time=0),\n",
      "    Message('note_off', channel=9, note=42, velocity=82, time=0),\n",
      "    Message('note_off', channel=15, note=56, velocity=120, time=172),\n",
      "    Message('note_on', channel=9, note=46, velocity=90, time=16),\n",
      "    Message('note_on', channel=2, note=34, velocity=109, time=0),\n",
      "    Message('note_off', channel=9, note=46, velocity=90, time=4),\n",
      "    Message('note_off', channel=2, note=34, velocity=109, time=84),\n",
      "    Message('note_off', channel=3, note=61, velocity=89, time=8),\n",
      "    Message('note_off', channel=3, note=65, velocity=86, time=0),\n",
      "    Message('note_off', channel=3, note=58, velocity=92, time=0),\n",
      "    Message('note_off', channel=3, note=54, velocity=88, time=0),\n",
      "    Message('note_on', channel=2, note=34, velocity=111, time=0),\n",
      "    Message('note_off', channel=2, note=34, velocity=111, time=88),\n",
      "    Message('note_off', channel=7, note=80, velocity=85, time=8),\n",
      "    Message('note_off', channel=7, note=68, velocity=70, time=0),\n",
      "    Message('note_on', channel=9, note=42, velocity=85, time=0),\n",
      "    Message('note_on', channel=9, note=36, velocity=103, time=0),\n",
      "    Message('note_on', channel=2, note=27, velocity=110, time=0),\n",
      "    Message('note_on', channel=3, note=54, velocity=90, time=0),\n",
      "    Message('note_on', channel=3, note=58, velocity=89, time=0),\n",
      "    Message('note_on', channel=3, note=65, velocity=93, time=0),\n",
      "    Message('note_on', channel=3, note=61, velocity=93, time=0),\n",
      "    Message('note_on', channel=15, note=63, velocity=122, time=0),\n",
      "    Message('note_off', channel=9, note=36, velocity=103, time=4),\n",
      "    Message('note_off', channel=9, note=42, velocity=85, time=0),\n",
      "    Message('note_off', channel=15, note=63, velocity=122, time=84),\n",
      "    Message('note_off', channel=2, note=27, velocity=110, time=0),\n",
      "    Message('note_on', channel=9, note=46, velocity=88, time=104),\n",
      "    Message('note_on', channel=2, note=27, velocity=106, time=0),\n",
      "    Message('note_on', channel=7, note=65, velocity=73, time=0),\n",
      "    Message('note_on', channel=7, note=77, velocity=81, time=0),\n",
      "    Message('note_on', channel=15, note=63, velocity=120, time=0),\n",
      "    Message('note_off', channel=9, note=46, velocity=88, time=4),\n",
      "    Message('note_off', channel=15, note=63, velocity=120, time=84),\n",
      "    Message('note_off', channel=2, note=27, velocity=106, time=0),\n",
      "    Message('note_on', channel=2, note=27, velocity=110, time=8),\n",
      "    Message('note_off', channel=2, note=27, velocity=110, time=88),\n",
      "    Message('note_off', channel=7, note=77, velocity=81, time=8),\n",
      "    Message('note_off', channel=7, note=65, velocity=73, time=0),\n",
      "    Message('note_on', channel=9, note=42, velocity=82, time=0),\n",
      "    Message('note_on', channel=9, note=38, velocity=102, time=0),\n",
      "    Message('note_on', channel=9, note=39, velocity=85, time=0),\n",
      "    Message('note_on', channel=15, note=63, velocity=122, time=0),\n",
      "    Message('note_off', channel=9, note=39, velocity=85, time=4),\n",
      "    Message('note_off', channel=9, note=38, velocity=102, time=0),\n",
      "    Message('note_off', channel=9, note=42, velocity=82, time=0),\n",
      "    Message('note_off', channel=3, note=61, velocity=93, time=92),\n",
      "    Message('note_off', channel=3, note=65, velocity=93, time=0),\n",
      "    Message('note_off', channel=3, note=58, velocity=89, time=0),\n",
      "    Message('note_off', channel=3, note=54, velocity=90, time=0),\n",
      "    Message('note_on', channel=2, note=27, velocity=108, time=0),\n",
      "    Message('note_off', channel=15, note=63, velocity=122, time=80),\n",
      "    Message('note_off', channel=2, note=27, velocity=108, time=8),\n",
      "    Message('note_on', channel=9, note=46, velocity=87, time=8),\n",
      "    Message('note_on', channel=2, note=32, velocity=107, time=0),\n",
      "    Message('note_on', channel=3, note=56, velocity=86, time=0),\n",
      "    Message('note_on', channel=3, note=60, velocity=92, time=0),\n",
      "    Message('note_on', channel=3, note=63, velocity=89, time=0),\n",
      "    Message('note_on', channel=7, note=63, velocity=71, time=0),\n",
      "    Message('note_on', channel=7, note=75, velocity=85, time=0),\n",
      "    Message('note_on', channel=15, note=65, velocity=122, time=0),\n",
      "    Message('note_off', channel=9, note=46, velocity=87, time=4),\n",
      "    Message('note_off', channel=2, note=32, velocity=107, time=84),\n",
      "    Message('note_off', channel=15, note=65, velocity=122, time=88),\n",
      "    Message('note_off', channel=7, note=75, velocity=85, time=16),\n",
      "    Message('note_off', channel=7, note=63, velocity=71, time=0),\n",
      "    Message('note_on', channel=9, note=42, velocity=82, time=0),\n",
      "    Message('note_on', channel=9, note=36, velocity=104, time=0),\n",
      "    Message('note_on', channel=15, note=63, velocity=119, time=0),\n",
      "    Message('note_off', channel=9, note=36, velocity=104, time=4),\n",
      "    Message('note_off', channel=9, note=42, velocity=82, time=0),\n",
      "    Message('note_on', channel=9, note=45, velocity=80, time=92),\n",
      "    Message('note_off', channel=9, note=45, velocity=80, time=4),\n",
      "    Message('note_on', channel=9, note=46, velocity=90, time=92),\n",
      "    Message('note_on', channel=9, note=43, velocity=87, time=0),\n",
      "    Message('note_on', channel=2, note=32, velocity=106, time=0),\n",
      "    Message('note_on', channel=7, note=61, velocity=70, time=0),\n",
      "    Message('note_on', channel=7, note=73, velocity=83, time=0),\n",
      "    Message('note_off', channel=9, note=43, velocity=87, time=4),\n",
      "    Message('note_off', channel=9, note=46, velocity=90, time=0),\n",
      "    Message('note_off', channel=2, note=32, velocity=106, time=84),\n",
      "    Message('note_on', channel=9, note=43, velocity=83, time=8),\n",
      "    Message('note_on', channel=2, note=32, velocity=107, time=0),\n",
      "    Message('note_off', channel=9, note=43, velocity=83, time=4),\n",
      "    Message('note_off', channel=2, note=32, velocity=107, time=84),\n",
      "    Message('note_off', channel=7, note=73, velocity=83, time=8),\n",
      "    Message('note_off', channel=7, note=61, velocity=70, time=0),\n",
      "    Message('note_on', channel=9, note=42, velocity=85, time=0),\n",
      "    Message('note_on', channel=9, note=38, velocity=105, time=0),\n",
      "    Message('note_on', channel=9, note=43, velocity=80, time=0),\n",
      "    Message('note_on', channel=9, note=39, velocity=82, time=0),\n",
      "    Message('note_on', channel=2, note=32, velocity=108, time=0),\n",
      "    Message('note_off', channel=9, note=39, velocity=82, time=4),\n",
      "    Message('note_off', channel=9, note=43, velocity=80, time=0),\n",
      "    Message('note_off', channel=9, note=38, velocity=105, time=0),\n",
      "    Message('note_off', channel=9, note=42, velocity=85, time=0),\n",
      "    Message('note_off', channel=2, note=32, velocity=108, time=84),\n",
      "    Message('note_on', channel=9, note=46, velocity=91, time=104),\n",
      "    Message('note_on', channel=2, note=29, velocity=106, time=0),\n",
      "    Message('note_on', channel=7, note=58, velocity=74, time=0),\n",
      "    Message('note_on', channel=7, note=70, velocity=82, time=0),\n",
      "    Message('note_off', channel=9, note=46, velocity=91, time=4),\n",
      "    Message('note_off', channel=15, note=63, velocity=119, time=60),\n",
      "    Message('note_off', channel=2, note=29, velocity=106, time=24),\n",
      "    Message('note_off', channel=3, note=63, velocity=89, time=8),\n",
      "    Message('note_off', channel=3, note=60, velocity=92, time=0),\n",
      "    Message('note_off', channel=3, note=56, velocity=86, time=0),\n",
      "    Message('note_on', channel=2, note=32, velocity=110, time=0),\n",
      "    Message('note_off', channel=2, note=32, velocity=110, time=88),\n",
      "    Message('note_on', channel=9, note=42, velocity=81, time=8),\n",
      "    Message('note_on', channel=9, note=36, velocity=103, time=0),\n",
      "    Message('note_on', channel=2, note=34, velocity=110, time=0),\n",
      "    Message('note_on', channel=3, note=70, velocity=92, time=0),\n",
      "    Message('note_on', channel=3, note=63, velocity=93, time=0),\n",
      "    Message('note_on', channel=3, note=61, velocity=88, time=0),\n",
      "    Message('note_on', channel=3, note=66, velocity=89, time=0),\n",
      "    Message('note_on', channel=4, note=70, velocity=87, time=0),\n",
      "    Message('note_on', channel=4, note=63, velocity=82, time=0),\n",
      "    Message('note_on', channel=4, note=61, velocity=84, time=0),\n",
      "    Message('note_on', channel=4, note=66, velocity=83, time=0),\n",
      "    Message('note_on', channel=15, note=61, velocity=123, time=0),\n",
      "    Message('note_off', channel=9, note=36, velocity=103, time=4),\n",
      "    Message('note_off', channel=9, note=42, velocity=81, time=0),\n",
      "    Message('note_off', channel=2, note=34, velocity=110, time=84),\n",
      "    Message('note_on', channel=9, note=46, velocity=89, time=104),\n",
      "    Message('note_on', channel=2, note=34, velocity=111, time=0),\n",
      "    Message('note_off', channel=9, note=46, velocity=89, time=4),\n",
      "    Message('note_off', channel=2, note=34, velocity=111, time=84),\n",
      "    Message('note_on', channel=2, note=34, velocity=110, time=8),\n",
      "    Message('note_off', channel=2, note=34, velocity=110, time=88),\n",
      "    Message('note_on', channel=9, note=42, velocity=83, time=8),\n",
      "    Message('note_on', channel=9, note=38, velocity=108, time=0),\n",
      "    Message('note_on', channel=9, note=39, velocity=81, time=0),\n",
      "    Message('note_off', channel=9, note=39, velocity=81, time=4),\n",
      "    Message('note_off', channel=9, note=38, velocity=108, time=0),\n",
      "    Message('note_off', channel=9, note=42, velocity=83, time=0),\n",
      "    Message('note_on', channel=2, note=37, velocity=106, time=92),\n",
      "    Message('note_off', channel=2, note=37, velocity=106, time=88),\n",
      "    Message('note_on', channel=9, note=42, velocity=81, time=8),\n",
      "    Message('note_on', channel=2, note=36, velocity=108, time=0),\n",
      "    Message('note_off', channel=9, note=42, velocity=81, time=4),\n",
      "    Message('note_off', channel=2, note=36, velocity=108, time=84),\n",
      "    Message('note_on', channel=9, note=42, velocity=82, time=8),\n",
      "    Message('note_off', channel=9, note=42, velocity=82, time=4),\n",
      "    Message('note_on', channel=9, note=42, velocity=81, time=92),\n",
      "    Message('note_on', channel=9, note=36, velocity=105, time=0),\n",
      "    Message('note_on', channel=2, note=32, velocity=109, time=0),\n",
      "    Message('note_off', channel=9, note=36, velocity=105, time=4),\n",
      "    Message('note_off', channel=9, note=42, velocity=81, time=0),\n",
      "    Message('note_off', channel=15, note=61, velocity=123, time=156),\n",
      "    Message('note_off', channel=2, note=32, velocity=109, time=32),\n",
      "    Message('note_on', channel=9, note=46, velocity=90, time=0),\n",
      "    Message('note_on', channel=2, note=34, velocity=109, time=0),\n",
      "    Message('note_on', channel=15, note=63, velocity=119, time=0),\n",
      "    Message('note_off', channel=9, note=46, velocity=90, time=4),\n",
      "    Message('note_off', channel=2, note=34, velocity=109, time=84),\n",
      "    Message('note_off', channel=15, note=63, velocity=119, time=88),\n",
      "    Message('note_on', channel=9, note=42, velocity=82, time=16),\n",
      "    Message('note_on', channel=9, note=38, velocity=104, time=0),\n",
      "    Message('note_on', channel=9, note=39, velocity=80, time=0),\n",
      "    Message('note_on', channel=15, note=65, velocity=122, time=0),\n",
      "    Message('note_off', channel=9, note=39, velocity=80, time=4),\n",
      "    Message('note_off', channel=9, note=38, velocity=104, time=0),\n",
      "    Message('note_off', channel=9, note=42, velocity=82, time=0),\n",
      "    Message('note_off', channel=15, note=65, velocity=122, time=172),\n",
      "    Message('note_off', channel=7, note=70, velocity=82, time=16),\n",
      "    Message('note_off', channel=7, note=58, velocity=74, time=0),\n",
      "    Message('note_on', channel=9, note=46, velocity=91, time=0),\n",
      "    Message('note_on', channel=2, note=29, velocity=106, time=0),\n",
      "    Message('note_on', channel=15, note=61, velocity=119, time=0),\n",
      "    Message('note_off', channel=9, note=46, velocity=91, time=4),\n",
      "    Message('note_off', channel=2, note=29, velocity=106, time=84),\n",
      "    Message('note_off', channel=4, note=66, velocity=83, time=8),\n",
      "    Message('note_off', channel=4, note=61, velocity=84, time=0),\n",
      "    Message('note_off', channel=4, note=63, velocity=82, time=0),\n",
      "    Message('note_off', channel=4, note=70, velocity=87, time=0),\n",
      "    Message('note_off', channel=3, note=66, velocity=89, time=0),\n",
      "    Message('note_off', channel=3, note=61, velocity=88, time=0),\n",
      "    Message('note_off', channel=3, note=63, velocity=93, time=0),\n",
      "    Message('note_off', channel=3, note=70, velocity=92, time=0),\n",
      "    Message('note_on', channel=2, note=32, velocity=111, time=0),\n",
      "    Message('note_off', channel=15, note=61, velocity=119, time=80),\n",
      "    Message('note_off', channel=2, note=32, velocity=111, time=8),\n",
      "    Message('note_on', channel=9, note=42, velocity=83, time=8),\n",
      "    Message('note_on', channel=9, note=36, velocity=105, time=0),\n",
      "    Message('note_on', channel=2, note=34, velocity=111, time=0),\n",
      "    Message('note_on', channel=3, note=68, velocity=90, time=0),\n",
      "    Message('note_on', channel=3, note=63, velocity=87, time=0),\n",
      "    Message('note_on', channel=3, note=65, velocity=92, time=0),\n",
      "    Message('note_on', channel=3, note=60, velocity=92, time=0),\n",
      "    Message('note_on', channel=4, note=68, velocity=87, time=0),\n",
      "    Message('note_on', channel=4, note=63, velocity=84, time=0),\n",
      "    Message('note_on', channel=4, note=65, velocity=86, time=0),\n",
      "    Message('note_on', channel=4, note=60, velocity=85, time=0),\n",
      "    Message('note_on', channel=15, note=63, velocity=119, time=0),\n",
      "    Message('note_off', channel=9, note=36, velocity=105, time=4),\n",
      "    Message('note_off', channel=9, note=42, velocity=83, time=0),\n",
      "    Message('note_off', channel=15, note=63, velocity=119, time=84),\n",
      "    Message('note_off', channel=2, note=34, velocity=111, time=0),\n",
      "    Message('note_on', channel=9, note=46, velocity=91, time=104),\n",
      "    Message('note_on', channel=2, note=32, velocity=107, time=0),\n",
      "    Message('note_on', channel=15, note=63, velocity=119, time=0),\n",
      "    Message('note_off', channel=9, note=46, velocity=91, time=4),\n",
      "    Message('note_off', channel=15, note=63, velocity=119, time=84),\n",
      "    Message('note_off', channel=2, note=32, velocity=107, time=0),\n",
      "    Message('note_on', channel=2, note=34, velocity=106, time=8),\n",
      "    Message('note_off', channel=2, note=34, velocity=106, time=88),\n",
      "    Message('note_on', channel=9, note=42, velocity=83, time=8),\n",
      "    Message('note_on', channel=9, note=38, velocity=101, time=0),\n",
      "    Message('note_on', channel=9, note=39, velocity=86, time=0),\n",
      "    Message('note_on', channel=15, note=63, velocity=123, time=0),\n",
      "    Message('note_off', channel=9, note=39, velocity=86, time=4),\n",
      "    Message('note_off', channel=9, note=38, velocity=101, time=0),\n",
      "    Message('note_off', channel=9, note=42, velocity=83, time=0),\n",
      "    Message('note_on', channel=2, note=37, velocity=109, time=92),\n",
      "    Message('note_off', channel=15, note=63, velocity=123, time=80),\n",
      "    Message('note_off', channel=2, note=37, velocity=109, time=8),\n",
      "    Message('note_on', channel=9, note=46, velocity=87, time=8),\n",
      "    Message('note_on', channel=2, note=36, velocity=111, time=0),\n",
      "    Message('note_on', channel=15, note=65, velocity=120, time=0),\n",
      "    Message('note_off', channel=9, note=46, velocity=87, time=4),\n",
      "    Message('note_off', channel=2, note=36, velocity=111, time=84),\n",
      "    Message('note_off', channel=15, note=65, velocity=120, time=88),\n",
      "    Message('note_on', channel=9, note=42, velocity=85, time=16),\n",
      "    Message('note_on', channel=9, note=36, velocity=101, time=0),\n",
      "    Message('note_on', channel=15, note=63, velocity=119, time=0),\n",
      "    Message('note_off', channel=9, note=36, velocity=101, time=4),\n",
      "    Message('note_off', channel=9, note=42, velocity=85, time=0),\n",
      "    Message('note_off', channel=15, note=63, velocity=119, time=172),\n",
      "    Message('note_on', channel=9, note=46, velocity=91, time=16),\n",
      "    Message('note_on', channel=15, note=56, velocity=121, time=0),\n",
      "    Message('note_off', channel=9, note=46, velocity=91, time=4),\n",
      "    Message('note_off', channel=15, note=56, velocity=121, time=172),\n",
      "    Message('note_on', channel=9, note=42, velocity=82, time=16),\n",
      "    Message('note_on', channel=9, note=38, velocity=105, time=0),\n",
      "    Message('note_on', channel=9, note=39, velocity=80, time=0),\n",
      "    Message('note_on', channel=15, note=56, velocity=123, time=0),\n",
      "    Message('note_off', channel=9, note=39, velocity=80, time=4),\n",
      "    Message('note_off', channel=9, note=38, velocity=105, time=0),\n",
      "    Message('note_off', channel=9, note=42, velocity=82, time=0),\n",
      "    Message('note_on', channel=9, note=46, velocity=92, time=188),\n",
      "    Message('note_on', channel=2, note=29, velocity=109, time=0),\n",
      "    Message('note_off', channel=9, note=46, velocity=92, time=4),\n",
      "    Message('note_off', channel=2, note=29, velocity=109, time=84),\n",
      "    Message('note_off', channel=4, note=60, velocity=85, time=8),\n",
      "    Message('note_off', channel=4, note=65, velocity=86, time=0),\n",
      "    Message('note_off', channel=4, note=63, velocity=84, time=0),\n",
      "    Message('note_off', channel=4, note=68, velocity=87, time=0),\n",
      "    Message('note_off', channel=3, note=60, velocity=92, time=0),\n",
      "    Message('note_off', channel=3, note=65, velocity=92, time=0),\n",
      "    Message('note_off', channel=3, note=63, velocity=87, time=0),\n",
      "    Message('note_on', channel=2, note=32, velocity=111, time=0),\n",
      "    Message('note_off', channel=15, note=56, velocity=123, time=64),\n",
      "    Message('note_off', channel=2, note=32, velocity=111, time=24),\n",
      "    Message('note_off', channel=3, note=68, velocity=90, time=8),\n",
      "    Message('note_on', channel=9, note=42, velocity=81, time=0),\n",
      "    Message('note_on', channel=9, note=36, velocity=103, time=0),\n",
      "    Message('note_on', channel=2, note=34, velocity=110, time=0),\n",
      "    Message('note_on', channel=3, note=70, velocity=87, time=0),\n",
      "    Message('note_on', channel=3, note=61, velocity=86, time=0),\n",
      "    Message('note_on', channel=3, note=63, velocity=86, time=0),\n",
      "    Message('note_on', channel=3, note=66, velocity=90, time=0),\n",
      "    Message('note_on', channel=4, note=70, velocity=83, time=0),\n",
      "    Message('note_on', channel=4, note=61, velocity=87, time=0),\n",
      "    Message('note_on', channel=4, note=63, velocity=86, time=0),\n",
      "    Message('note_on', channel=4, note=66, velocity=86, time=0),\n",
      "    Message('note_off', channel=9, note=36, velocity=103, time=4),\n",
      "    Message('note_off', channel=9, note=42, velocity=81, time=0),\n",
      "    Message('note_off', channel=2, note=34, velocity=110, time=84),\n",
      "    Message('note_on', channel=9, note=46, velocity=91, time=104),\n",
      "    Message('note_on', channel=2, note=34, velocity=109, time=0),\n",
      "    Message('note_off', channel=9, note=46, velocity=91, time=4),\n",
      "    Message('note_off', channel=2, note=34, velocity=109, time=84),\n",
      "    Message('note_on', channel=2, note=34, velocity=109, time=8),\n",
      "    Message('note_off', channel=2, note=34, velocity=109, time=88),\n",
      "    Message('note_on', channel=9, note=42, velocity=84, time=8),\n",
      "    Message('note_on', channel=9, note=38, velocity=107, time=0),\n",
      "    Message('note_on', channel=9, note=39, velocity=87, time=0),\n",
      "    Message('note_off', channel=9, note=39, velocity=87, time=4),\n",
      "    Message('note_off', channel=9, note=38, velocity=107, time=0),\n",
      "    Message('note_off', channel=9, note=42, velocity=84, time=0),\n",
      "    Message('note_on', channel=2, note=37, velocity=106, time=92),\n",
      "    Message('note_off', channel=2, note=37, velocity=106, time=88),\n",
      "    Message('note_on', channel=9, note=42, velocity=81, time=8),\n",
      "    Message('note_on', channel=2, note=36, velocity=107, time=0),\n",
      "    Message('note_off', channel=9, note=42, velocity=81, time=4),\n",
      "    Message('note_off', channel=2, note=36, velocity=107, time=84),\n",
      "    Message('note_on', channel=9, note=42, velocity=83, time=8),\n",
      "    Message('note_off', channel=9, note=42, velocity=83, time=4),\n",
      "    Message('note_on', channel=9, note=42, velocity=85, time=92),\n",
      "    Message('note_on', channel=9, note=36, velocity=109, time=0),\n",
      "    Message('note_on', channel=2, note=32, velocity=110, time=0),\n",
      "    Message('note_on', channel=15, note=58, velocity=119, time=0),\n",
      "    Message('note_off', channel=9, note=36, velocity=109, time=4),\n",
      "    Message('note_off', channel=9, note=42, velocity=85, time=0),\n",
      "    Message('note_off', channel=2, note=32, velocity=110, time=84),\n",
      "    Message('note_off', channel=15, note=58, velocity=119, time=88),\n",
      "    Message('note_on', channel=9, note=46, velocity=92, time=16),\n",
      "    Message('note_on', channel=2, note=34, velocity=108, time=0),\n",
      "    Message('note_on', channel=15, note=60, velocity=121, time=0),\n",
      "    Message('note_off', channel=9, note=46, velocity=92, time=4),\n",
      "    Message('note_off', channel=2, note=34, velocity=108, time=84),\n",
      "    Message('note_off', channel=15, note=60, velocity=121, time=88),\n",
      "    Message('note_on', channel=9, note=42, velocity=83, time=16),\n",
      "    Message('note_on', channel=9, note=38, velocity=106, time=0),\n",
      "    Message('note_on', channel=9, note=39, velocity=86, time=0),\n",
      "    Message('note_on', channel=15, note=61, velocity=122, time=0),\n",
      "    Message('note_off', channel=9, note=39, velocity=86, time=4),\n",
      "    Message('note_off', channel=9, note=38, velocity=106, time=0),\n",
      "    Message('note_off', channel=9, note=42, velocity=83, time=0),\n",
      "    Message('note_off', channel=15, note=61, velocity=122, time=172),\n",
      "    Message('note_on', channel=9, note=46, velocity=92, time=16),\n",
      "    Message('note_on', channel=2, note=29, velocity=110, time=0),\n",
      "    Message('note_on', channel=15, note=58, velocity=124, time=0),\n",
      "    Message('note_off', channel=9, note=46, velocity=92, time=4),\n",
      "    Message('note_off', channel=2, note=29, velocity=110, time=84),\n",
      "    Message('note_off', channel=4, note=66, velocity=86, time=8),\n",
      "    Message('note_off', channel=4, note=63, velocity=86, time=0),\n",
      "    Message('note_off', channel=4, note=61, velocity=87, time=0),\n",
      "    Message('note_off', channel=4, note=70, velocity=83, time=0),\n",
      "    Message('note_off', channel=3, note=66, velocity=90, time=0),\n",
      "    Message('note_off', channel=3, note=63, velocity=86, time=0),\n",
      "    Message('note_off', channel=3, note=61, velocity=86, time=0),\n",
      "    Message('note_off', channel=3, note=70, velocity=87, time=0),\n",
      "    Message('note_on', channel=2, note=32, velocity=108, time=0),\n",
      "    Message('note_off', channel=15, note=58, velocity=124, time=80),\n",
      "    Message('note_off', channel=2, note=32, velocity=108, time=8),\n",
      "    Message('note_on', channel=9, note=42, velocity=80, time=8),\n",
      "    Message('note_on', channel=9, note=36, velocity=103, time=0),\n",
      "    Message('note_on', channel=2, note=34, velocity=107, time=0),\n",
      "    Message('note_on', channel=3, note=70, velocity=88, time=0),\n",
      "    Message('note_on', channel=3, note=63, velocity=91, time=0),\n",
      "    Message('note_on', channel=3, note=61, velocity=91, time=0),\n",
      "    Message('note_on', channel=3, note=66, velocity=88, time=0),\n",
      "    Message('note_on', channel=4, note=70, velocity=87, time=0),\n",
      "    Message('note_on', channel=4, note=63, velocity=85, time=0),\n",
      "    Message('note_on', channel=4, note=61, velocity=84, time=0),\n",
      "    Message('note_on', channel=4, note=66, velocity=84, time=0),\n",
      "    Message('note_off', channel=9, note=36, velocity=103, time=4),\n",
      "    Message('note_off', channel=9, note=42, velocity=80, time=0),\n",
      "    Message('note_off', channel=2, note=34, velocity=107, time=84),\n",
      "    Message('note_off', channel=4, note=66, velocity=84, time=104),\n",
      "    Message('note_off', channel=4, note=61, velocity=84, time=0),\n",
      "    Message('note_off', channel=4, note=63, velocity=85, time=0),\n",
      "    Message('note_off', channel=4, note=70, velocity=87, time=0),\n",
      "    Message('note_off', channel=3, note=66, velocity=88, time=0),\n",
      "    Message('note_off', channel=3, note=61, velocity=91, time=0),\n",
      "    Message('note_off', channel=3, note=63, velocity=91, time=0),\n",
      "    Message('note_off', channel=3, note=70, velocity=88, time=0),\n",
      "    Message('note_on', channel=9, note=46, velocity=87, time=0),\n",
      "    Message('note_on', channel=2, note=32, velocity=111, time=0),\n",
      "    Message('note_on', channel=15, note=63, velocity=119, time=0),\n",
      "    Message('note_off', channel=9, note=46, velocity=87, time=4),\n",
      "    Message('note_off', channel=2, note=32, velocity=111, time=84),\n",
      "    Message('note_on', channel=2, note=34, velocity=107, time=8),\n",
      "    Message('note_on', channel=3, note=70, velocity=86, time=0),\n",
      "    Message('note_on', channel=3, note=63, velocity=89, time=0),\n",
      "    Message('note_on', channel=3, note=61, velocity=93, time=0),\n",
      "    Message('note_on', channel=3, note=66, velocity=87, time=0),\n",
      "    Message('note_on', channel=4, note=70, velocity=83, time=0),\n",
      "    Message('note_on', channel=4, note=63, velocity=83, time=0),\n",
      "    Message('note_on', channel=4, note=61, velocity=87, time=0),\n",
      "    Message('note_on', channel=4, note=66, velocity=87, time=0),\n",
      "    Message('note_off', channel=15, note=63, velocity=119, time=80),\n",
      "    Message('note_off', channel=2, note=34, velocity=107, time=8),\n",
      "    Message('note_off', channel=4, note=66, velocity=87, time=8),\n",
      "    Message('note_off', channel=4, note=61, velocity=87, time=0),\n",
      "    Message('note_off', channel=4, note=63, velocity=83, time=0),\n",
      "    Message('note_off', channel=4, note=70, velocity=83, time=0),\n",
      "    Message('note_off', channel=3, note=66, velocity=87, time=0),\n",
      "    Message('note_off', channel=3, note=61, velocity=93, time=0),\n",
      "    Message('note_off', channel=3, note=63, velocity=89, time=0),\n",
      "    Message('note_off', channel=3, note=70, velocity=86, time=0),\n",
      "    Message('note_on', channel=9, note=42, velocity=83, time=0),\n",
      "    Message('note_on', channel=9, note=38, velocity=103, time=0),\n",
      "    Message('note_on', channel=9, note=39, velocity=80, time=0),\n",
      "    Message('note_on', channel=15, note=65, velocity=119, time=0),\n",
      "    Message('note_off', channel=9, note=39, velocity=80, time=4),\n",
      "    Message('note_off', channel=9, note=38, velocity=103, time=0),\n",
      "    Message('note_off', channel=9, note=42, velocity=83, time=0),\n",
      "    Message('note_on', channel=2, note=37, velocity=106, time=92),\n",
      "    Message('note_off', channel=15, note=65, velocity=119, time=80),\n",
      "    Message('note_off', channel=2, note=37, velocity=106, time=8),\n",
      "    Message('note_on', channel=9, note=46, velocity=91, time=8),\n",
      "    Message('note_on', channel=9, note=45, velocity=85, time=0),\n",
      "    Message('note_on', channel=2, note=36, velocity=107, time=0),\n",
      "    Message('note_on', channel=3, note=63, velocity=90, time=0),\n",
      "    Message('note_on', channel=3, note=68, velocity=92, time=0),\n",
      "    Message('note_on', channel=3, note=72, velocity=91, time=0),\n",
      "    Message('note_on', channel=4, note=63, velocity=82, time=0),\n",
      "    Message('note_on', channel=4, note=68, velocity=87, time=0),\n",
      "    Message('note_on', channel=4, note=72, velocity=85, time=0),\n",
      "    Message('note_on', channel=15, note=63, velocity=121, time=0),\n",
      "    Message('note_off', channel=9, note=45, velocity=85, time=4),\n",
      "    Message('note_off', channel=9, note=46, velocity=91, time=0),\n",
      "    Message('note_off', channel=2, note=36, velocity=107, time=84),\n",
      "    Message('note_on', channel=9, note=45, velocity=80, time=8),\n",
      "    Message('note_off', channel=9, note=45, velocity=80, time=4),\n",
      "    Message('note_on', channel=9, note=42, velocity=84, time=92),\n",
      "    Message('note_on', channel=9, note=36, velocity=104, time=0),\n",
      "    Message('note_on', channel=9, note=45, velocity=80, time=0),\n",
      "    Message('note_on', channel=9, note=39, velocity=83, time=0),\n",
      "    Message('note_off', channel=9, note=39, velocity=83, time=4),\n",
      "    Message('note_off', channel=9, note=45, velocity=80, time=0),\n",
      "    Message('note_off', channel=9, note=36, velocity=104, time=0),\n",
      "    Message('note_off', channel=9, note=42, velocity=84, time=0),\n",
      "    Message('note_on', channel=9, note=45, velocity=80, time=92),\n",
      "    Message('note_on', channel=9, note=39, velocity=86, time=0),\n",
      "    Message('note_off', channel=9, note=39, velocity=86, time=4),\n",
      "    Message('note_off', channel=9, note=45, velocity=80, time=0),\n",
      "    Message('note_on', channel=9, note=46, velocity=88, time=92),\n",
      "    Message('note_on', channel=9, note=43, velocity=85, time=0),\n",
      "    Message('note_on', channel=7, note=68, velocity=81, time=0),\n",
      "    Message('note_on', channel=7, note=80, velocity=107, time=0),\n",
      "    Message('note_on', channel=7, note=56, velocity=82, time=0),\n",
      "    Message('note_off', channel=9, note=43, velocity=85, time=4),\n",
      "    Message('note_off', channel=9, note=46, velocity=88, time=0),\n",
      "    Message('note_off', channel=7, note=56, velocity=82, time=60),\n",
      "    Message('note_off', channel=7, note=80, velocity=107, time=0),\n",
      "    Message('note_off', channel=7, note=68, velocity=81, time=0),\n",
      "    Message('note_off', channel=15, note=63, velocity=121, time=0),\n",
      "    Message('note_on', channel=9, note=43, velocity=84, time=32),\n",
      "    Message('note_on', channel=7, note=56, velocity=82, time=0),\n",
      "    Message('note_on', channel=7, note=68, velocity=109, time=0),\n",
      "    Message('note_on', channel=7, note=80, velocity=112, time=0),\n",
      "    Message('note_off', channel=9, note=43, velocity=84, time=4),\n",
      "    Message('note_off', channel=7, note=80, velocity=112, time=60),\n",
      "    Message('note_off', channel=7, note=68, velocity=109, time=0),\n",
      "    Message('note_off', channel=7, note=56, velocity=82, time=0),\n",
      "    Message('note_on', channel=9, note=42, velocity=84, time=32),\n",
      "    Message('note_on', channel=9, note=38, velocity=107, time=0),\n",
      "    Message('note_on', channel=9, note=45, velocity=82, time=0),\n",
      "    Message('note_on', channel=9, note=39, velocity=85, time=0),\n",
      "    Message('note_on', channel=15, note=56, velocity=121, time=0),\n",
      "    Message('note_off', channel=9, note=39, velocity=85, time=4),\n",
      "    Message('note_off', channel=9, note=45, velocity=82, time=0),\n",
      "    Message('note_off', channel=9, note=38, velocity=107, time=0),\n",
      "    Message('note_off', channel=9, note=42, velocity=84, time=0),\n",
      "    Message('note_off', channel=15, note=56, velocity=121, time=84),\n",
      "    Message('note_on', channel=9, note=45, velocity=85, time=8),\n",
      "    Message('note_on', channel=9, note=39, velocity=86, time=0),\n",
      "    Message('note_on', channel=15, note=58, velocity=119, time=0),\n",
      "    Message('note_off', channel=9, note=39, velocity=86, time=4),\n",
      "    Message('note_off', channel=9, note=45, velocity=85, time=0),\n",
      "    Message('note_off', channel=15, note=58, velocity=119, time=84),\n",
      "    Message('note_on', channel=9, note=46, velocity=89, time=8),\n",
      "    Message('note_on', channel=9, note=43, velocity=81, time=0),\n",
      "    Message('note_on', channel=2, note=29, velocity=111, time=0),\n",
      "    Message('note_on', channel=15, note=61, velocity=121, time=0),\n",
      "    Message('note_off', channel=9, note=43, velocity=81, time=4),\n",
      "    Message('note_off', channel=9, note=46, velocity=89, time=0),\n",
      "    Message('note_off', channel=15, note=61, velocity=121, time=84),\n",
      "    Message('note_off', channel=2, note=29, velocity=111, time=0),\n",
      "    Message('note_off', channel=3, note=72, velocity=91, time=8),\n",
      "    Message('note_off', channel=3, note=68, velocity=92, time=0),\n",
      "    Message('note_off', channel=3, note=63, velocity=90, time=0),\n",
      "    Message('note_on', channel=9, note=43, velocity=86, time=0),\n",
      "    Message('note_on', channel=2, note=32, velocity=110, time=0),\n",
      "    Message('note_on', channel=15, note=58, velocity=123, time=0),\n",
      "    Message('note_off', channel=9, note=43, velocity=86, time=4),\n",
      "    Message('note_off', channel=15, note=58, velocity=123, time=84),\n",
      "    Message('note_off', channel=2, note=32, velocity=110, time=0),\n",
      "    Message('note_off', channel=4, note=72, velocity=85, time=8),\n",
      "    Message('note_off', channel=4, note=68, velocity=87, time=0),\n",
      "    Message('note_off', channel=4, note=63, velocity=82, time=0),\n",
      "    Message('note_on', channel=9, note=42, velocity=83, time=0),\n",
      "    Message('note_on', channel=9, note=36, velocity=108, time=0),\n",
      "    Message('note_on', channel=2, note=27, velocity=107, time=0),\n",
      "    Message('note_on', channel=3, note=61, velocity=93, time=0),\n",
      "    Message('note_on', channel=3, note=58, velocity=90, time=0),\n",
      "    Message('note_on', channel=3, note=65, velocity=88, time=0),\n",
      "    Message('note_on', channel=8, note=85, velocity=99, time=0),\n",
      "    Message('note_on', channel=13, note=65, velocity=87, time=0),\n",
      "    Message('note_on', channel=13, note=68, velocity=87, time=0),\n",
      "    Message('note_on', channel=13, note=73, velocity=84, time=0),\n",
      "    Message('note_on', channel=15, note=65, velocity=121, time=0),\n",
      "    Message('note_off', channel=9, note=36, velocity=108, time=4),\n",
      "    Message('note_off', channel=9, note=42, velocity=83, time=0),\n",
      "    Message('note_off', channel=2, note=27, velocity=107, time=84),\n",
      "    Message('note_on', channel=9, note=46, velocity=92, time=104),\n",
      "    Message('note_on', channel=2, note=27, velocity=106, time=0),\n",
      "    Message('note_off', channel=9, note=46, velocity=92, time=4),\n",
      "    Message('note_off', channel=15, note=65, velocity=121, time=68),\n",
      "    Message('note_off', channel=2, note=27, velocity=106, time=16),\n",
      "    Message('note_off', channel=13, note=73, velocity=84, time=0),\n",
      "    Message('note_off', channel=13, note=68, velocity=87, time=0),\n",
      "    Message('note_off', channel=13, note=65, velocity=87, time=0),\n",
      "    Message('note_on', channel=2, note=27, velocity=109, time=8),\n",
      "    Message('note_off', channel=2, note=27, velocity=109, time=88),\n",
      "    Message('note_on', channel=9, note=42, velocity=82, time=8),\n",
      "    Message('note_on', channel=9, note=38, velocity=103, time=0),\n",
      "    Message('note_on', channel=9, note=39, velocity=81, time=0),\n",
      "    Message('note_on', channel=13, note=65, velocity=87, time=0),\n",
      "    Message('note_on', channel=13, note=73, velocity=86, time=0),\n",
      "    Message('note_on', channel=13, note=68, velocity=84, time=0),\n",
      "    Message('note_on', channel=15, note=65, velocity=120, time=0),\n",
      "    Message('note_off', channel=9, note=39, velocity=81, time=4),\n",
      "    Message('note_off', channel=9, note=38, velocity=103, time=0),\n",
      "    Message('note_off', channel=9, note=42, velocity=82, time=0),\n",
      "    Message('note_off', channel=3, note=65, velocity=88, time=92),\n",
      "    Message('note_off', channel=3, note=58, velocity=90, time=0),\n",
      "    Message('note_off', channel=3, note=61, velocity=93, time=0),\n",
      "    Message('note_on', channel=2, note=36, velocity=110, time=0),\n",
      "    Message('note_off', channel=8, note=85, velocity=99, time=48),\n",
      "    Message('note_off', channel=15, note=65, velocity=120, time=32),\n",
      "    Message('note_off', channel=2, note=36, velocity=110, time=8),\n",
      "    Message('note_off', channel=13, note=68, velocity=84, time=0),\n",
      "    Message('note_off', channel=13, note=73, velocity=86, time=0),\n",
      "    Message('note_off', channel=13, note=65, velocity=87, time=0),\n",
      "    Message('note_on', channel=9, note=42, velocity=80, time=8),\n",
      "    Message('note_on', channel=2, note=34, velocity=109, time=0),\n",
      "    Message('note_on', channel=3, note=60, velocity=93, time=0),\n",
      "    Message('note_on', channel=3, note=56, velocity=90, time=0),\n",
      "    Message('note_on', channel=3, note=63, velocity=92, time=0),\n",
      "    Message('note_on', channel=8, note=87, velocity=98, time=0),\n",
      "    Message('note_on', channel=13, note=68, velocity=82, time=0),\n",
      "    Message('note_on', channel=13, note=63, velocity=83, time=0),\n",
      "    Message('note_on', channel=13, note=72, velocity=85, time=0),\n",
      "    Message('note_on', channel=15, note=63, velocity=120, time=0),\n",
      "    Message('note_off', channel=9, note=42, velocity=80, time=4),\n",
      "    Message('note_off', channel=2, note=34, velocity=109, time=84),\n",
      "    Message('note_on', channel=9, note=42, velocity=84, time=8),\n",
      "    Message('note_off', channel=9, note=42, velocity=84, time=4),\n",
      "    Message('note_off', channel=13, note=72, velocity=85, time=84),\n",
      "    Message('note_off', channel=13, note=63, velocity=83, time=0),\n",
      "    Message('note_off', channel=13, note=68, velocity=82, time=0),\n",
      "    Message('note_on', channel=9, note=42, velocity=82, time=8),\n",
      "    Message('note_on', channel=9, note=36, velocity=107, time=0),\n",
      "    Message('note_on', channel=2, note=32, velocity=108, time=0),\n",
      "    Message('note_off', channel=9, note=36, velocity=107, time=4),\n",
      "    Message('note_off', channel=9, note=42, velocity=82, time=0),\n",
      "    Message('note_off', channel=2, note=32, velocity=108, time=84),\n",
      "    Message('note_on', channel=9, note=46, velocity=90, time=104),\n",
      "    Message('note_on', channel=2, note=32, velocity=108, time=0),\n",
      "    Message('note_off', channel=9, note=46, velocity=90, time=4),\n",
      "    Message('note_off', channel=2, note=32, velocity=108, time=84),\n",
      "    Message('note_off', channel=8, note=87, velocity=98, time=56),\n",
      "    Message('note_off', channel=15, note=63, velocity=120, time=16),\n",
      "    Message('note_on', channel=9, note=42, velocity=80, time=32),\n",
      "    Message('note_on', channel=9, note=38, velocity=108, time=0),\n",
      "    Message('note_on', channel=9, note=39, velocity=85, time=0),\n",
      "    Message('note_on', channel=8, note=80, velocity=97, time=0),\n",
      "    Message('note_on', channel=15, note=56, velocity=124, time=0),\n",
      "    Message('note_off', channel=9, note=39, velocity=85, time=4),\n",
      "    Message('note_off', channel=9, note=38, velocity=108, time=0),\n",
      "    Message('note_off', channel=9, note=42, velocity=80, time=0),\n",
      "    Message('note_off', channel=15, note=56, velocity=124, time=84),\n",
      "    Message('note_on', channel=15, note=58, velocity=120, time=8),\n",
      "    Message('note_off', channel=15, note=58, velocity=120, time=88),\n",
      "    Message('note_on', channel=9, note=46, velocity=89, time=8),\n",
      "    Message('note_on', channel=2, note=29, velocity=106, time=0),\n",
      "    Message('note_on', channel=15, note=61, velocity=120, time=0),\n",
      "    Message('note_off', channel=9, note=46, velocity=89, time=4),\n",
      "    Message('note_off', channel=15, note=61, velocity=120, time=84),\n",
      "    Message('note_off', channel=2, note=29, velocity=106, time=0),\n",
      "    Message('note_off', channel=3, note=63, velocity=92, time=8),\n",
      "    Message('note_off', channel=3, note=56, velocity=90, time=0),\n",
      "    Message('note_off', channel=3, note=60, velocity=93, time=0),\n",
      "    Message('note_on', channel=2, note=32, velocity=109, time=0),\n",
      "    Message('note_on', channel=15, note=58, velocity=124, time=0),\n",
      "    Message('note_off', channel=8, note=80, velocity=97, time=64),\n",
      "    Message('note_off', channel=15, note=58, velocity=124, time=24),\n",
      "    Message('note_off', channel=2, note=32, velocity=109, time=0),\n",
      "    Message('note_on', channel=9, note=42, velocity=80, time=8),\n",
      "    Message('note_on', channel=9, note=36, velocity=101, time=0),\n",
      "    Message('note_on', channel=2, note=29, velocity=110, time=0),\n",
      "    Message('note_on', channel=3, note=53, velocity=89, time=0),\n",
      "    Message('note_on', channel=3, note=56, velocity=86, time=0),\n",
      "    Message('note_on', channel=3, note=60, velocity=90, time=0),\n",
      "    Message('note_on', channel=8, note=87, velocity=96, time=0),\n",
      "    Message('note_on', channel=13, note=63, velocity=89, time=0),\n",
      "    Message('note_on', channel=13, note=72, velocity=82, time=0),\n",
      "    Message('note_on', channel=13, note=68, velocity=87, time=0),\n",
      "    Message('note_on', channel=15, note=63, velocity=123, time=0),\n",
      "    Message('note_off', channel=9, note=36, velocity=101, time=4),\n",
      "    Message('note_off', channel=9, note=42, velocity=80, time=0),\n",
      "    Message('note_off', channel=2, note=29, velocity=110, time=84),\n",
      "    Message('note_on', channel=9, note=46, velocity=91, time=104),\n",
      "    Message('note_on', channel=2, note=29, velocity=109, time=0),\n",
      "    Message('note_off', channel=9, note=46, velocity=91, time=4),\n",
      "    Message('note_off', channel=15, note=63, velocity=123, time=68),\n",
      "    Message('note_off', channel=2, note=29, velocity=109, time=16),\n",
      "    Message('note_off', channel=13, note=68, velocity=87, time=0),\n",
      "    Message('note_off', channel=13, note=72, velocity=82, time=0),\n",
      "    Message('note_off', channel=13, note=63, velocity=89, time=0),\n",
      "    Message('note_on', channel=2, note=29, velocity=109, time=8),\n",
      "    Message('note_off', channel=2, note=29, velocity=109, time=88),\n",
      "    Message('note_off', channel=3, note=60, velocity=90, time=8),\n",
      "    Message('note_off', channel=3, note=56, velocity=86, time=0),\n",
      "    Message('note_off', channel=3, note=53, velocity=89, time=0),\n",
      "    Message('note_on', channel=9, note=42, velocity=83, time=0),\n",
      "    Message('note_on', channel=9, note=38, velocity=108, time=0),\n",
      "    Message('note_on', channel=9, note=39, velocity=81, time=0),\n",
      "    Message('note_on', channel=13, note=63, velocity=82, time=0),\n",
      "    Message('note_on', channel=13, note=72, velocity=87, time=0),\n",
      "    Message('note_on', channel=13, note=68, velocity=86, time=0),\n",
      "    Message('note_on', channel=15, note=63, velocity=119, time=0),\n",
      "    Message('note_off', channel=9, note=39, velocity=81, time=4),\n",
      "    Message('note_off', channel=9, note=38, velocity=108, time=0),\n",
      "    Message('note_off', channel=9, note=42, velocity=83, time=0),\n",
      "    Message('note_on', channel=2, note=36, velocity=108, time=92),\n",
      "    Message('note_off', channel=8, note=87, velocity=96, time=48),\n",
      "    Message('note_off', channel=15, note=63, velocity=119, time=32),\n",
      "    Message('note_off', channel=2, note=36, velocity=108, time=8),\n",
      "    Message('note_off', channel=13, note=68, velocity=86, time=0),\n",
      "    Message('note_off', channel=13, note=72, velocity=87, time=0),\n",
      "    Message('note_off', channel=13, note=63, velocity=82, time=0),\n",
      "    Message('note_on', channel=9, note=46, velocity=92, time=8),\n",
      "    Message('note_on', channel=2, note=34, velocity=108, time=0),\n",
      "    Message('note_on', channel=3, note=58, velocity=92, time=0),\n",
      "    Message('note_on', channel=3, note=61, velocity=92, time=0),\n",
      "    Message('note_on', channel=3, note=65, velocity=91, time=0),\n",
      "    Message('note_on', channel=8, note=89, velocity=99, time=0),\n",
      "    Message('note_on', channel=13, note=61, velocity=85, time=0),\n",
      "    Message('note_on', channel=13, note=70, velocity=82, time=0),\n",
      "    Message('note_on', channel=13, note=65, velocity=89, time=0),\n",
      "    Message('note_on', channel=15, note=61, velocity=121, time=0),\n",
      "    Message('note_off', channel=9, note=46, velocity=92, time=4),\n",
      "    Message('note_off', channel=2, note=34, velocity=108, time=84),\n",
      "    Message('note_off', channel=13, note=65, velocity=89, time=96),\n",
      "    Message('note_off', channel=13, note=70, velocity=82, time=0),\n",
      "    Message('note_off', channel=13, note=61, velocity=85, time=0),\n",
      "    Message('note_on', channel=9, note=42, velocity=80, time=8),\n",
      "    Message('note_on', channel=9, note=36, velocity=103, time=0),\n",
      "    Message('note_off', channel=9, note=36, velocity=103, time=4),\n",
      "    Message('note_off', channel=9, note=42, velocity=80, time=0),\n",
      "    Message('note_off', channel=15, note=61, velocity=121, time=68),\n",
      "    Message('note_on', channel=15, note=60, velocity=120, time=24),\n",
      "    Message('note_off', channel=15, note=60, velocity=120, time=88),\n",
      "    Message('note_on', channel=9, note=46, velocity=91, time=8),\n",
      "    Message('note_on', channel=2, note=34, velocity=106, time=0),\n",
      "    Message('note_on', channel=15, note=58, velocity=120, time=0),\n",
      "    Message('note_off', channel=9, note=46, velocity=91, time=4),\n",
      "    Message('note_off', channel=2, note=34, velocity=106, time=84),\n",
      "    Message('note_on', channel=2, note=34, velocity=108, time=8),\n",
      "    Message('note_off', channel=8, note=89, velocity=99, time=48),\n",
      "    Message('note_off', channel=15, note=58, velocity=120, time=32),\n",
      "    Message('note_off', channel=2, note=34, velocity=108, time=8),\n",
      "    Message('note_on', channel=9, note=42, velocity=82, time=8),\n",
      "    Message('note_on', channel=9, note=38, velocity=106, time=0),\n",
      "    Message('note_on', channel=9, note=39, velocity=86, time=0),\n",
      "    Message('note_on', channel=2, note=34, velocity=107, time=0),\n",
      "    Message('note_on', channel=8, note=92, velocity=96, time=0),\n",
      "    Message('note_on', channel=15, note=56, velocity=121, time=0),\n",
      "    Message('note_off', channel=9, note=39, velocity=86, time=4),\n",
      "    Message('note_off', channel=9, note=38, velocity=106, time=0),\n",
      "    Message('note_off', channel=9, note=42, velocity=82, time=0),\n",
      "    Message('note_off', channel=15, note=56, velocity=121, time=84),\n",
      "    Message('note_off', channel=8, note=92, velocity=96, time=0),\n",
      "    Message('note_off', channel=2, note=34, velocity=107, time=0),\n",
      "    Message('note_on', channel=2, note=36, velocity=108, time=8),\n",
      "    Message('note_on', channel=8, note=90, velocity=99, time=0),\n",
      "    Message('note_on', channel=15, note=58, velocity=123, time=0),\n",
      "    Message('note_off', channel=15, note=58, velocity=123, time=88),\n",
      "    Message('note_off', channel=8, note=90, velocity=99, time=0),\n",
      "    Message('note_off', channel=2, note=36, velocity=108, time=0),\n",
      "    Message('note_on', channel=9, note=46, velocity=89, time=8),\n",
      "    Message('note_on', channel=8, note=89, velocity=96, time=0),\n",
      "    Message('note_on', channel=15, note=61, velocity=123, time=0),\n",
      "    Message('note_off', channel=9, note=46, velocity=89, time=4),\n",
      "    Message('note_off', channel=15, note=61, velocity=123, time=84),\n",
      "    Message('note_off', channel=8, note=89, velocity=96, time=0),\n",
      "    Message('note_off', channel=3, note=65, velocity=91, time=8),\n",
      "    Message('note_off', channel=3, note=61, velocity=92, time=0),\n",
      "    Message('note_off', channel=3, note=58, velocity=92, time=0),\n",
      "    Message('note_on', channel=2, note=34, velocity=108, time=0),\n",
      "    Message('note_on', channel=8, note=85, velocity=97, time=0),\n",
      "    Message('note_on', channel=15, note=58, velocity=123, time=0),\n",
      "    Message('note_off', channel=15, note=58, velocity=123, time=88),\n",
      "    Message('note_off', channel=2, note=34, velocity=108, time=0),\n",
      "    Message('note_on', channel=9, note=42, velocity=82, time=8),\n",
      "    Message('note_on', channel=9, note=36, velocity=105, time=0),\n",
      "    Message('note_on', channel=2, note=27, velocity=109, time=0),\n",
      "    Message('note_on', channel=3, note=61, velocity=91, time=0),\n",
      "    Message('note_on', channel=3, note=58, velocity=90, time=0),\n",
      "    Message('note_on', channel=3, note=65, velocity=86, time=0),\n",
      "    Message('note_on', channel=15, note=61, velocity=119, time=0),\n",
      "    Message('note_off', channel=9, note=36, velocity=105, time=4),\n",
      "    Message('note_off', channel=9, note=42, velocity=82, time=0),\n",
      "    Message('note_off', channel=2, note=27, velocity=109, time=84),\n",
      "    Message('note_on', channel=9, note=46, velocity=90, time=104),\n",
      "    Message('note_on', channel=2, note=27, velocity=111, time=0),\n",
      "    Message('note_off', channel=9, note=46, velocity=90, time=4),\n",
      "    Message('note_off', channel=2, note=27, velocity=111, time=84),\n",
      "    Message('note_on', channel=2, note=27, velocity=109, time=8),\n",
      "    Message('note_off', channel=15, note=61, velocity=119, time=64),\n",
      "    Message('note_off', channel=2, note=27, velocity=109, time=24),\n",
      "    Message('note_on', channel=9, note=42, velocity=80, time=8),\n",
      "    Message('note_on', channel=9, note=38, velocity=103, time=0),\n",
      "    Message('note_on', channel=9, note=39, velocity=86, time=0),\n",
      "    Message('note_on', channel=15, note=63, velocity=119, time=0),\n",
      "    Message('note_off', channel=9, note=39, velocity=86, time=4),\n",
      "    Message('note_off', channel=9, note=38, velocity=103, time=0),\n",
      "    Message('note_off', channel=9, note=42, velocity=80, time=0),\n",
      "    Message('note_off', channel=3, note=65, velocity=86, time=92),\n",
      "    Message('note_off', channel=3, note=58, velocity=90, time=0),\n",
      "    Message('note_off', channel=3, note=61, velocity=91, time=0),\n",
      "    Message('note_on', channel=2, note=36, velocity=106, time=0),\n",
      "    Message('note_off', channel=8, note=85, velocity=97, time=48),\n",
      "    Message('note_off', channel=15, note=63, velocity=119, time=32),\n",
      "    Message('note_off', channel=2, note=36, velocity=106, time=8),\n",
      "    Message('note_on', channel=9, note=42, velocity=84, time=8),\n",
      "    Message('note_on', channel=2, note=34, velocity=107, time=0),\n",
      "    Message('note_on', channel=3, note=56, velocity=93, time=0),\n",
      "    Message('note_on', channel=3, note=63, velocity=92, time=0),\n",
      "    Message('note_on', channel=3, note=60, velocity=92, time=0),\n",
      "    Message('note_on', channel=8, note=87, velocity=95, time=0),\n",
      "    Message('note_on', channel=15, note=60, velocity=121, time=0),\n",
      "    Message('note_off', channel=9, note=42, velocity=84, time=4),\n",
      "    Message('note_off', channel=2, note=34, velocity=107, time=84),\n",
      "    Message('note_on', channel=9, note=42, velocity=82, time=8),\n",
      "    Message('note_off', channel=9, note=42, velocity=82, time=4),\n",
      "    Message('note_on', channel=9, note=42, velocity=84, time=92),\n",
      "    Message('note_on', channel=9, note=36, velocity=109, time=0),\n",
      "    Message('note_on', channel=2, note=32, velocity=107, time=0),\n",
      "    Message('note_off', channel=9, note=36, velocity=109, time=4),\n",
      "    Message('note_off', channel=9, note=42, velocity=84, time=0),\n",
      "    Message('note_off', channel=15, note=60, velocity=121, time=68),\n",
      "    Message('note_off', channel=2, note=32, velocity=107, time=16),\n",
      "    Message('note_on', channel=15, note=58, velocity=119, time=8),\n",
      "    Message('note_off', channel=15, note=58, velocity=119, time=88),\n",
      "    Message('note_on', channel=9, note=46, velocity=90, time=8),\n",
      "    Message('note_on', channel=2, note=32, velocity=106, time=0),\n",
      "    Message('note_on', channel=15, note=56, velocity=121, time=0),\n",
      "    Message('note_off', channel=9, note=46, velocity=90, time=4),\n",
      "    Message('note_off', channel=2, note=32, velocity=106, time=84),\n",
      "    Message('note_off', channel=8, note=87, velocity=95, time=56),\n",
      "    Message('note_off', channel=15, note=56, velocity=121, time=32),\n",
      "    Message('note_on', channel=9, note=42, velocity=81, time=16),\n",
      "    Message('note_on', channel=9, note=38, velocity=107, time=0),\n",
      "    Message('note_on', channel=9, note=39, velocity=81, time=0),\n",
      "    Message('note_on', channel=8, note=80, velocity=99, time=0),\n",
      "    Message('note_on', channel=15, note=56, velocity=121, time=0),\n",
      "    Message('note_off', channel=9, note=39, velocity=81, time=4),\n",
      "    Message('note_off', channel=9, note=38, velocity=107, time=0),\n",
      "    Message('note_off', channel=9, note=42, velocity=81, time=0),\n",
      "    Message('note_off', channel=15, note=56, velocity=121, time=172),\n",
      "    Message('note_off', channel=3, note=60, velocity=92, time=16),\n",
      "    Message('note_off', channel=3, note=63, velocity=92, time=0),\n",
      "    Message('note_off', channel=3, note=56, velocity=93, time=0),\n",
      "    Message('note_on', channel=9, note=46, velocity=91, time=0),\n",
      "    Message('note_on', channel=2, note=32, velocity=110, time=0),\n",
      "    Message('note_on', channel=15, note=63, velocity=123, time=0),\n",
      "    Message('note_off', channel=9, note=46, velocity=91, time=4),\n",
      "    Message('note_off', channel=2, note=32, velocity=110, time=84),\n",
      "    Message('note_on', channel=2, note=32, velocity=106, time=8),\n",
      "    Message('note_off', channel=2, note=32, velocity=106, time=88),\n",
      "    Message('note_on', channel=9, note=42, velocity=80, time=8),\n",
      "    Message('note_on', channel=9, note=36, velocity=101, time=0),\n",
      "    Message('note_on', channel=2, note=29, velocity=109, time=0),\n",
      "    Message('note_on', channel=3, note=60, velocity=90, time=0),\n",
      "    Message('note_on', channel=3, note=53, velocity=88, time=0),\n",
      "    Message('note_on', channel=3, note=56, velocity=87, time=0),\n",
      "    Message('note_on', channel=13, note=63, velocity=89, time=0),\n",
      "    Message('note_on', channel=13, note=68, velocity=88, time=0),\n",
      "    Message('note_on', channel=13, note=72, velocity=88, time=0),\n",
      "    Message('note_off', channel=9, note=36, velocity=101, time=4),\n",
      "    Message('note_off', channel=9, note=42, velocity=80, time=0),\n",
      "    Message('note_off', channel=2, note=29, velocity=109, time=84),\n",
      "    Message('note_on', channel=9, note=46, velocity=91, time=104),\n",
      "    Message('note_on', channel=2, note=29, velocity=106, time=0),\n",
      "    Message('note_off', channel=9, note=46, velocity=91, time=4),\n",
      "    Message('note_off', channel=2, note=29, velocity=106, time=84),\n",
      "    Message('note_off', channel=13, note=72, velocity=88, time=0),\n",
      "    Message('note_off', channel=13, note=68, velocity=88, time=0),\n",
      "    Message('note_off', channel=13, note=63, velocity=89, time=0),\n",
      "    Message('note_on', channel=2, note=29, velocity=110, time=8),\n",
      "    Message('note_off', channel=15, note=63, velocity=123, time=64),\n",
      "    Message('note_off', channel=2, note=29, velocity=110, time=24),\n",
      "    Message('note_off', channel=3, note=56, velocity=87, time=8),\n",
      "    Message('note_off', channel=3, note=53, velocity=88, time=0),\n",
      "    Message('note_off', channel=3, note=60, velocity=90, time=0),\n",
      "    Message('note_on', channel=9, note=42, velocity=81, time=0),\n",
      "    Message('note_on', channel=9, note=38, velocity=107, time=0),\n",
      "    Message('note_on', channel=9, note=39, velocity=80, time=0),\n",
      "    Message('note_on', channel=13, note=65, velocity=87, time=0),\n",
      "    Message('note_on', channel=13, note=70, velocity=82, time=0),\n",
      "    Message('note_on', channel=13, note=73, velocity=82, time=0),\n",
      "    Message('note_on', channel=15, note=61, velocity=120, time=0),\n",
      "    Message('note_off', channel=9, note=39, velocity=80, time=4),\n",
      "    Message('note_off', channel=9, note=38, velocity=107, time=0),\n",
      "    Message('note_off', channel=9, note=42, velocity=81, time=0),\n",
      "    Message('note_on', channel=2, note=36, velocity=110, time=92),\n",
      "    Message('note_off', channel=2, note=36, velocity=110, time=88),\n",
      "    Message('note_on', channel=9, note=46, velocity=91, time=8),\n",
      "    Message('note_on', channel=2, note=34, velocity=108, time=0),\n",
      "    Message('note_on', channel=3, note=65, velocity=93, time=0),\n",
      "    Message('note_on', channel=3, note=61, velocity=88, time=0),\n",
      "    Message('note_on', channel=3, note=58, velocity=93, time=0),\n",
      "    Message('note_off', channel=9, note=46, velocity=91, time=4),\n",
      "    Message('note_off', channel=2, note=34, velocity=108, time=84),\n",
      "    Message('note_on', channel=9, note=42, velocity=82, time=104),\n",
      "    Message('note_on', channel=9, note=36, velocity=109, time=0),\n",
      "    Message('note_off', channel=9, note=36, velocity=109, time=4),\n",
      "    Message('note_off', channel=9, note=42, velocity=82, time=0),\n",
      "    Message('note_off', channel=8, note=80, velocity=99, time=140),\n",
      "    Message('note_on', channel=9, note=46, velocity=91, time=48),\n",
      "    Message('note_on', channel=2, note=32, velocity=106, time=0),\n",
      "    Message('note_on', channel=7, note=68, velocity=85, time=0),\n",
      "    Message('note_on', channel=7, note=80, velocity=109, time=0),\n",
      "    Message('note_on', channel=7, note=56, velocity=81, time=0),\n",
      "    Message('note_off', channel=9, note=46, velocity=91, time=4),\n",
      "    Message('note_off', channel=7, note=56, velocity=81, time=60),\n",
      "    Message('note_off', channel=7, note=80, velocity=109, time=0),\n",
      "    Message('note_off', channel=7, note=68, velocity=85, time=0),\n",
      "    Message('note_off', channel=2, note=32, velocity=106, time=24),\n",
      "    Message('note_on', channel=7, note=68, velocity=81, time=8),\n",
      "    Message('note_on', channel=7, note=80, velocity=108, time=0),\n",
      "    Message('note_on', channel=7, note=56, velocity=82, time=0),\n",
      "    Message('note_off', channel=7, note=56, velocity=82, time=64),\n",
      "    Message('note_off', channel=7, note=80, velocity=108, time=0),\n",
      "    Message('note_off', channel=7, note=68, velocity=81, time=0),\n",
      "    Message('note_off', channel=15, note=61, velocity=120, time=0),\n",
      "    Message('note_on', channel=9, note=42, velocity=83, time=32),\n",
      "    Message('note_on', channel=9, note=38, velocity=108, time=0),\n",
      "    Message('note_on', channel=9, note=39, velocity=81, time=0),\n",
      "    Message('note_on', channel=2, note=32, velocity=111, time=0),\n",
      "    Message('note_on', channel=8, note=92, velocity=97, time=0),\n",
      "    Message('note_on', channel=15, note=56, velocity=121, time=0),\n",
      "    Message('note_off', channel=9, note=39, velocity=81, time=4),\n",
      "    Message('note_off', channel=9, note=38, velocity=108, time=0),\n",
      "    Message('note_off', channel=9, note=42, velocity=83, time=0),\n",
      "    Message('note_off', channel=15, note=56, velocity=121, time=84),\n",
      "    Message('note_off', channel=8, note=92, velocity=97, time=0),\n",
      "    Message('note_off', channel=2, note=32, velocity=111, time=0),\n",
      "    Message('note_off', channel=13, note=73, velocity=82, time=0),\n",
      "    Message('note_off', channel=13, note=70, velocity=82, time=0),\n",
      "    Message('note_off', channel=13, note=65, velocity=87, time=0),\n",
      "    Message('note_on', channel=2, note=32, velocity=111, time=8),\n",
      "    Message('note_on', channel=8, note=90, velocity=95, time=0),\n",
      "    Message('note_on', channel=15, note=58, velocity=124, time=0),\n",
      "    Message('note_off', channel=15, note=58, velocity=124, time=88),\n",
      "    Message('note_off', channel=8, note=90, velocity=95, time=0),\n",
      "    Message('note_off', channel=2, note=32, velocity=111, time=0),\n",
      "    Message('note_on', channel=9, note=46, velocity=92, time=8),\n",
      "    Message('note_on', channel=8, note=89, velocity=98, time=0),\n",
      "    Message('note_on', channel=15, note=61, velocity=124, time=0),\n",
      "    Message('note_off', channel=9, note=46, velocity=92, time=4),\n",
      "    Message('note_off', channel=15, note=61, velocity=124, time=84),\n",
      "    Message('note_off', channel=8, note=89, velocity=98, time=0),\n",
      "    Message('note_off', channel=3, note=58, velocity=93, time=8),\n",
      "    Message('note_off', channel=3, note=61, velocity=88, time=0),\n",
      "    Message('note_off', channel=3, note=65, velocity=93, time=0),\n",
      "    Message('note_on', channel=2, note=37, velocity=111, time=0),\n",
      "    Message('note_on', channel=8, note=85, velocity=99, time=0),\n",
      "    Message('note_on', channel=15, note=58, velocity=122, time=0),\n",
      "    Message('note_off', channel=15, note=58, velocity=122, time=88),\n",
      "    Message('note_off', channel=2, note=37, velocity=111, time=0),\n",
      "    Message('note_on', channel=9, note=42, velocity=82, time=8),\n",
      "    Message('note_on', channel=9, note=36, velocity=107, time=0),\n",
      "    Message('note_on', channel=2, note=27, velocity=111, time=0),\n",
      "    Message('note_on', channel=3, note=58, velocity=87, time=0),\n",
      "    Message('note_on', channel=3, note=61, velocity=88, time=0),\n",
      "    Message('note_on', channel=3, note=65, velocity=87, time=0),\n",
      "    Message('note_on', channel=13, note=63, velocity=88, time=0),\n",
      "    Message('note_on', channel=13, note=73, velocity=83, time=0),\n",
      "    Message('note_on', channel=13, note=68, velocity=89, time=0),\n",
      "    Message('note_on', channel=15, note=65, velocity=121, time=0),\n",
      "    Message('note_off', channel=9, note=36, velocity=107, time=4),\n",
      "    Message('note_off', channel=9, note=42, velocity=82, time=0),\n",
      "    Message('note_off', channel=2, note=27, velocity=111, time=84),\n",
      "    Message('note_on', channel=9, note=46, velocity=89, time=104),\n",
      "    Message('note_on', channel=2, note=27, velocity=106, time=0),\n",
      "    Message('note_off', channel=9, note=46, velocity=89, time=4),\n",
      "    Message('note_off', channel=15, note=65, velocity=121, time=68),\n",
      "    Message('note_off', channel=2, note=27, velocity=106, time=16),\n",
      "    Message('note_off', channel=13, note=68, velocity=89, time=0),\n",
      "    Message('note_off', channel=13, note=73, velocity=83, time=0),\n",
      "    Message('note_off', channel=13, note=63, velocity=88, time=0),\n",
      "    Message('note_on', channel=2, note=27, velocity=111, time=8),\n",
      "    Message('note_off', channel=2, note=27, velocity=111, time=88),\n",
      "    Message('note_on', channel=9, note=42, velocity=84, time=8),\n",
      "    Message('note_on', channel=9, note=38, velocity=108, time=0),\n",
      "    Message('note_on', channel=9, note=39, velocity=83, time=0),\n",
      "    Message('note_on', channel=13, note=63, velocity=88, time=0),\n",
      "    Message('note_on', channel=13, note=73, velocity=85, time=0),\n",
      "    Message('note_on', channel=13, note=68, velocity=89, time=0),\n",
      "    Message('note_on', channel=15, note=65, velocity=124, time=0),\n",
      "    Message('note_off', channel=9, note=39, velocity=83, time=4),\n",
      "    Message('note_off', channel=9, note=38, velocity=108, time=0),\n",
      "    Message('note_off', channel=9, note=42, velocity=84, time=0),\n",
      "    Message('note_off', channel=3, note=65, velocity=87, time=92),\n",
      "    Message('note_off', channel=3, note=61, velocity=88, time=0),\n",
      "    Message('note_off', channel=3, note=58, velocity=87, time=0),\n",
      "    Message('note_on', channel=2, note=36, velocity=107, time=0),\n",
      "    Message('note_off', channel=8, note=85, velocity=99, time=48),\n",
      "    Message('note_off', channel=15, note=65, velocity=124, time=32),\n",
      "    Message('note_off', channel=2, note=36, velocity=107, time=8),\n",
      "    Message('note_off', channel=13, note=68, velocity=89, time=0),\n",
      "    Message('note_off', channel=13, note=73, velocity=85, time=0),\n",
      "    Message('note_off', channel=13, note=63, velocity=88, time=0),\n",
      "    Message('note_on', channel=9, note=42, velocity=83, time=8),\n",
      "    Message('note_on', channel=2, note=34, velocity=110, time=0),\n",
      "    Message('note_on', channel=3, note=56, velocity=89, time=0),\n",
      "    Message('note_on', channel=3, note=63, velocity=87, time=0),\n",
      "    Message('note_on', channel=3, note=60, velocity=88, time=0),\n",
      "    Message('note_on', channel=8, note=87, velocity=96, time=0),\n",
      "    Message('note_on', channel=13, note=68, velocity=84, time=0),\n",
      "    Message('note_on', channel=13, note=63, velocity=85, time=0),\n",
      "    Message('note_on', channel=13, note=72, velocity=82, time=0),\n",
      "    Message('note_on', channel=15, note=63, velocity=120, time=0),\n",
      "    Message('note_off', channel=9, note=42, velocity=83, time=4),\n",
      "    Message('note_off', channel=2, note=34, velocity=110, time=84),\n",
      "    Message('note_on', channel=9, note=42, velocity=82, time=8),\n",
      "    Message('note_off', channel=9, note=42, velocity=82, time=4),\n",
      "    Message('note_on', channel=9, note=42, velocity=81, time=92),\n",
      "    Message('note_on', channel=9, note=36, velocity=105, time=0),\n",
      "    Message('note_on', channel=2, note=32, velocity=109, time=0),\n",
      "    Message('note_off', channel=9, note=36, velocity=105, time=4),\n",
      "    Message('note_off', channel=9, note=42, velocity=81, time=0),\n",
      "    Message('note_off', channel=2, note=32, velocity=109, time=84),\n",
      "    Message('note_on', channel=9, note=46, velocity=87, time=104),\n",
      "    Message('note_on', channel=2, note=32, velocity=106, time=0),\n",
      "    Message('note_off', channel=9, note=46, velocity=87, time=4),\n",
      "    Message('note_off', channel=2, note=32, velocity=106, time=84),\n",
      "    Message('note_off', channel=8, note=87, velocity=96, time=56),\n",
      "    Message('note_off', channel=15, note=63, velocity=120, time=16),\n",
      "    Message('note_off', channel=13, note=72, velocity=82, time=24),\n",
      "    Message('note_off', channel=13, note=63, velocity=85, time=0),\n",
      "    Message('note_off', channel=13, note=68, velocity=84, time=0),\n",
      "    Message('note_on', channel=9, note=42, velocity=84, time=8),\n",
      "    Message('note_on', channel=9, note=38, velocity=109, time=0),\n",
      "    Message('note_on', channel=9, note=39, velocity=85, time=0),\n",
      "    Message('note_on', channel=8, note=80, velocity=98, time=0),\n",
      "    Message('note_on', channel=15, note=56, velocity=121, time=0),\n",
      "    Message('note_off', channel=9, note=39, velocity=85, time=4),\n",
      "    Message('note_off', channel=9, note=38, velocity=109, time=0),\n",
      "    Message('note_off', channel=9, note=42, velocity=84, time=0),\n",
      "    Message('note_off', channel=15, note=56, velocity=121, time=84),\n",
      "    Message('note_on', channel=15, note=58, velocity=123, time=8),\n",
      "    Message('note_off', channel=15, note=58, velocity=123, time=88),\n",
      "    Message('note_on', channel=9, note=46, velocity=91, time=8),\n",
      "    Message('note_on', channel=2, note=29, velocity=108, time=0),\n",
      "    Message('note_on', channel=15, note=61, velocity=124, time=0),\n",
      "    Message('note_off', channel=9, note=46, velocity=91, time=4),\n",
      "    Message('note_off', channel=15, note=61, velocity=124, time=84),\n",
      "    Message('note_off', channel=2, note=29, velocity=108, time=0),\n",
      "    Message('note_off', channel=3, note=60, velocity=88, time=8),\n",
      "    Message('note_off', channel=3, note=63, velocity=87, time=0),\n",
      "    Message('note_off', channel=3, note=56, velocity=89, time=0),\n",
      "    Message('note_on', channel=2, note=32, velocity=111, time=0),\n",
      "    Message('note_on', channel=15, note=58, velocity=121, time=0),\n",
      "    Message('note_off', channel=8, note=80, velocity=98, time=64),\n",
      "    Message('note_off', channel=15, note=58, velocity=121, time=24),\n",
      "    Message('note_off', channel=2, note=32, velocity=111, time=0),\n",
      "    Message('note_on', channel=9, note=42, velocity=81, time=8),\n",
      "    Message('note_on', channel=9, note=36, velocity=108, time=0),\n",
      "    Message('note_on', channel=2, note=29, velocity=108, time=0),\n",
      "    Message('note_on', channel=3, note=53, velocity=90, time=0),\n",
      "    Message('note_on', channel=3, note=56, velocity=92, time=0),\n",
      "    Message('note_on', channel=3, note=60, velocity=87, time=0),\n",
      "    Message('note_on', channel=8, note=87, velocity=96, time=0),\n",
      "    Message('note_on', channel=13, note=68, velocity=88, time=0),\n",
      "    Message('note_on', channel=13, note=75, velocity=85, time=0),\n",
      "    Message('note_on', channel=13, note=72, velocity=85, time=0),\n",
      "    Message('note_on', channel=15, note=68, velocity=120, time=0),\n",
      "    Message('note_off', channel=9, note=36, velocity=108, time=4),\n",
      "    Message('note_off', channel=9, note=42, velocity=81, time=0),\n",
      "    Message('note_off', channel=2, note=29, velocity=108, time=84),\n",
      "    Message('note_on', channel=9, note=46, velocity=89, time=104),\n",
      "    Message('note_on', channel=2, note=29, velocity=108, time=0),\n",
      "    Message('note_off', channel=9, note=46, velocity=89, time=4),\n",
      "    Message('note_off', channel=2, note=29, velocity=108, time=84),\n",
      "    Message('note_off', channel=13, note=72, velocity=85, time=0),\n",
      "    Message('note_off', channel=13, note=75, velocity=85, time=0),\n",
      "    Message('note_off', channel=13, note=68, velocity=88, time=0),\n",
      "    Message('note_on', channel=2, note=29, velocity=109, time=8),\n",
      "    Message('note_off', channel=15, note=68, velocity=120, time=64),\n",
      "    Message('note_off', channel=2, note=29, velocity=109, time=24),\n",
      "    Message('note_off', channel=3, note=60, velocity=87, time=8),\n",
      "    Message('note_off', channel=3, note=56, velocity=92, time=0),\n",
      "    Message('note_off', channel=3, note=53, velocity=90, time=0),\n",
      "    Message('note_on', channel=9, note=42, velocity=82, time=0),\n",
      "    Message('note_on', channel=9, note=38, velocity=103, time=0),\n",
      "    Message('note_on', channel=9, note=39, velocity=84, time=0),\n",
      "    Message('note_on', channel=13, note=68, velocity=87, time=0),\n",
      "    Message('note_on', channel=13, note=75, velocity=84, time=0),\n",
      "    Message('note_on', channel=13, note=72, velocity=86, time=0),\n",
      "    Message('note_on', channel=15, note=60, velocity=123, time=0),\n",
      "    Message('note_off', channel=9, note=39, velocity=84, time=4),\n",
      "    Message('note_off', channel=9, note=38, velocity=103, time=0),\n",
      "    Message('note_off', channel=9, note=42, velocity=82, time=0),\n",
      "    Message('note_on', channel=2, note=36, velocity=109, time=92),\n",
      "    Message('note_off', channel=8, note=87, velocity=96, time=48),\n",
      "    Message('note_off', channel=15, note=60, velocity=123, time=32),\n",
      "    Message('note_off', channel=2, note=36, velocity=109, time=8),\n",
      "    Message('note_off', channel=13, note=72, velocity=86, time=0),\n",
      "    Message('note_off', channel=13, note=75, velocity=84, time=0),\n",
      "    Message('note_off', channel=13, note=68, velocity=87, time=0),\n",
      "    Message('note_on', channel=9, note=46, velocity=90, time=8),\n",
      "    Message('note_on', channel=2, note=34, velocity=110, time=0),\n",
      "    Message('note_on', channel=3, note=61, velocity=91, time=0),\n",
      "    Message('note_on', channel=3, note=58, velocity=93, time=0),\n",
      "    Message('note_on', channel=3, note=65, velocity=88, time=0),\n",
      "    Message('note_on', channel=8, note=89, velocity=96, time=0),\n",
      "    Message('note_on', channel=13, note=65, velocity=87, time=0),\n",
      "    Message('note_on', channel=13, note=70, velocity=84, time=0),\n",
      "    Message('note_on', channel=13, note=73, velocity=85, time=0),\n",
      "    Message('note_on', channel=15, note=61, velocity=123, time=0),\n",
      "    Message('note_off', channel=9, note=46, velocity=90, time=4),\n",
      "    Message('note_off', channel=2, note=34, velocity=110, time=84),\n",
      "    Message('note_on', channel=9, note=42, velocity=85, time=104),\n",
      "    Message('note_on', channel=9, note=36, velocity=104, time=0),\n",
      "    Message('note_off', channel=9, note=36, velocity=104, time=4),\n",
      "    Message('note_off', channel=9, note=42, velocity=85, time=0),\n",
      "    Message('note_off', channel=15, note=61, velocity=123, time=68),\n",
      "    Message('note_off', channel=13, note=73, velocity=85, time=16),\n",
      "    Message('note_off', channel=13, note=70, velocity=84, time=0),\n",
      "    Message('note_off', channel=13, note=65, velocity=87, time=0),\n",
      "    Message('note_on', channel=13, note=63, velocity=85, time=8),\n",
      "    Message('note_on', channel=13, note=72, velocity=87, time=0),\n",
      "    Message('note_on', channel=13, note=68, velocity=83, time=0),\n",
      "    Message('note_on', channel=15, note=60, velocity=122, time=0),\n",
      "    Message('note_off', channel=15, note=60, velocity=122, time=88),\n",
      "    Message('note_off', channel=13, note=68, velocity=83, time=0),\n",
      "    Message('note_off', channel=13, note=72, velocity=87, time=0),\n",
      "    Message('note_off', channel=13, note=63, velocity=85, time=0),\n",
      "    Message('note_on', channel=9, note=46, velocity=92, time=8),\n",
      "    Message('note_on', channel=2, note=34, velocity=110, time=0),\n",
      "    Message('note_on', channel=13, note=61, velocity=84, time=0),\n",
      "    Message('note_on', channel=13, note=70, velocity=83, time=0),\n",
      "    Message('note_on', channel=13, note=65, velocity=82, time=0),\n",
      "    Message('note_on', channel=15, note=58, velocity=121, time=0),\n",
      "    Message('note_off', channel=9, note=46, velocity=92, time=4),\n",
      "    Message('note_off', channel=2, note=34, velocity=110, time=84),\n",
      "    Message('note_on', channel=2, note=34, velocity=110, time=8),\n",
      "    Message('note_off', channel=8, note=89, velocity=96, time=48),\n",
      "    Message('note_off', channel=15, note=58, velocity=121, time=32),\n",
      "    Message('note_off', channel=2, note=34, velocity=110, time=8),\n",
      "    Message('note_off', channel=13, note=65, velocity=82, time=0),\n",
      "    Message('note_off', channel=13, note=70, velocity=83, time=0),\n",
      "    Message('note_off', channel=13, note=61, velocity=84, time=0),\n",
      "    Message('note_on', channel=9, note=42, velocity=83, time=8),\n",
      "    Message('note_on', channel=9, note=38, velocity=105, time=0),\n",
      "    Message('note_on', channel=9, note=39, velocity=84, time=0),\n",
      "    Message('note_on', channel=2, note=34, velocity=110, time=0),\n",
      "    Message('note_on', channel=8, note=92, velocity=98, time=0),\n",
      "    Message('note_on', channel=15, note=56, velocity=122, time=0),\n",
      "    Message('note_off', channel=9, note=39, velocity=84, time=4),\n",
      "    Message('note_off', channel=9, note=38, velocity=105, time=0),\n",
      "    Message('note_off', channel=9, note=42, velocity=83, time=0),\n",
      "    Message('note_off', channel=15, note=56, velocity=122, time=84),\n",
      "    Message('note_off', channel=8, note=92, velocity=98, time=0),\n",
      "    Message('note_off', channel=2, note=34, velocity=110, time=0),\n",
      "    Message('note_on', channel=2, note=36, velocity=107, time=8),\n",
      "    Message('note_on', channel=8, note=90, velocity=97, time=0),\n",
      "    Message('note_on', channel=15, note=58, velocity=123, time=0),\n",
      "    Message('note_off', channel=15, note=58, velocity=123, time=88),\n",
      "    Message('note_off', channel=8, note=90, velocity=97, time=0),\n",
      "    Message('note_off', channel=2, note=36, velocity=107, time=0),\n",
      "    Message('note_on', channel=9, note=46, velocity=89, time=8),\n",
      "    Message('note_on', channel=8, note=89, velocity=99, time=0),\n",
      "    Message('note_on', channel=15, note=61, velocity=119, time=0),\n",
      "    Message('note_off', channel=9, note=46, velocity=89, time=4),\n",
      "    Message('note_off', channel=15, note=61, velocity=119, time=84),\n",
      "    Message('note_off', channel=8, note=89, velocity=99, time=0),\n",
      "    Message('note_off', channel=3, note=65, velocity=88, time=8),\n",
      "    Message('note_off', channel=3, note=58, velocity=93, time=0),\n",
      "    Message('note_off', channel=3, note=61, velocity=91, time=0),\n",
      "    Message('note_on', channel=2, note=34, velocity=109, time=0),\n",
      "    Message('note_on', channel=8, note=85, velocity=99, time=0),\n",
      "    Message('note_on', channel=15, note=58, velocity=120, time=0),\n",
      "    Message('note_off', channel=15, note=58, velocity=120, time=88),\n",
      "    Message('note_off', channel=2, note=34, velocity=109, time=0),\n",
      "    Message('note_on', channel=9, note=42, velocity=82, time=8),\n",
      "    Message('note_on', channel=9, note=36, velocity=104, time=0),\n",
      "    Message('note_on', channel=2, note=27, velocity=110, time=0),\n",
      "    Message('note_on', channel=3, note=58, velocity=89, time=0),\n",
      "    Message('note_on', channel=3, note=61, velocity=90, time=0),\n",
      "    Message('note_on', channel=3, note=65, velocity=90, time=0),\n",
      "    Message('note_on', channel=15, note=61, velocity=121, time=0),\n",
      "    Message('note_off', channel=9, note=36, velocity=104, time=4),\n",
      "    Message('note_off', channel=9, note=42, velocity=82, time=0),\n",
      "    Message('note_off', channel=2, note=27, velocity=110, time=84),\n",
      "    Message('note_on', channel=9, note=46, velocity=91, time=104),\n",
      "    Message('note_on', channel=2, note=27, velocity=106, time=0),\n",
      "    Message('note_off', channel=9, note=46, velocity=91, time=4),\n",
      "    Message('note_off', channel=2, note=27, velocity=106, time=84),\n",
      "    Message('note_on', channel=2, note=27, velocity=111, time=8),\n",
      "    Message('note_off', channel=15, note=61, velocity=121, time=64),\n",
      "    Message('note_off', channel=2, note=27, velocity=111, time=24),\n",
      "    Message('note_on', channel=9, note=42, velocity=85, time=8),\n",
      "    Message('note_on', channel=9, note=38, velocity=108, time=0),\n",
      "    Message('note_on', channel=9, note=39, velocity=82, time=0),\n",
      "    Message('note_on', channel=15, note=63, velocity=119, time=0),\n",
      "    Message('note_off', channel=9, note=39, velocity=82, time=4),\n",
      "    Message('note_off', channel=9, note=38, velocity=108, time=0),\n",
      "    Message('note_off', channel=9, note=42, velocity=85, time=0),\n",
      "    Message('note_off', channel=3, note=65, velocity=90, time=92),\n",
      "    Message('note_off', channel=3, note=61, velocity=90, time=0),\n",
      "    Message('note_off', channel=3, note=58, velocity=89, time=0),\n",
      "    Message('note_on', channel=2, note=36, velocity=109, time=0),\n",
      "    Message('note_off', channel=8, note=85, velocity=99, time=48),\n",
      "    Message('note_off', channel=15, note=63, velocity=119, time=32),\n",
      "    Message('note_off', channel=2, note=36, velocity=109, time=8),\n",
      "    Message('note_on', channel=9, note=42, velocity=82, time=8),\n",
      "    Message('note_on', channel=2, note=34, velocity=108, time=0),\n",
      "    Message('note_on', channel=3, note=63, velocity=93, time=0),\n",
      "    Message('note_on', channel=3, note=56, velocity=87, time=0),\n",
      "    Message('note_on', channel=3, note=60, velocity=93, time=0),\n",
      "    Message('note_on', channel=8, note=87, velocity=99, time=0),\n",
      "    Message('note_on', channel=15, note=60, velocity=120, time=0),\n",
      "    Message('note_off', channel=9, note=42, velocity=82, time=4),\n",
      "    Message('note_off', channel=2, note=34, velocity=108, time=84),\n",
      "    Message('note_on', channel=9, note=42, velocity=84, time=8),\n",
      "    Message('note_off', channel=9, note=42, velocity=84, time=4),\n",
      "    Message('note_on', channel=9, note=42, velocity=80, time=92),\n",
      "    Message('note_on', channel=9, note=36, velocity=103, time=0),\n",
      "    Message('note_on', channel=2, note=32, velocity=111, time=0),\n",
      "    Message('note_off', channel=9, note=36, velocity=103, time=4),\n",
      "    Message('note_off', channel=9, note=42, velocity=80, time=0),\n",
      "    Message('note_off', channel=15, note=60, velocity=120, time=68),\n",
      "    Message('note_off', channel=2, note=32, velocity=111, time=16),\n",
      "    Message('note_on', channel=15, note=58, velocity=123, time=8),\n",
      "    Message('note_off', channel=15, note=58, velocity=123, time=88),\n",
      "    Message('note_on', channel=9, note=46, velocity=91, time=8),\n",
      "    Message('note_on', channel=2, note=32, velocity=107, time=0),\n",
      "    Message('note_on', channel=15, note=56, velocity=119, time=0),\n",
      "    Message('note_off', channel=9, note=46, velocity=91, time=4),\n",
      "    Message('note_off', channel=2, note=32, velocity=107, time=84),\n",
      "    Message('note_off', channel=8, note=87, velocity=99, time=56),\n",
      "    Message('note_on', channel=9, note=42, velocity=84, time=48),\n",
      "    Message('note_on', channel=9, note=38, velocity=104, time=0),\n",
      "    Message('note_on', channel=9, note=39, velocity=82, time=0),\n",
      "    Message('note_on', channel=8, note=80, velocity=99, time=0),\n",
      "    Message('note_off', channel=9, note=39, velocity=82, time=4),\n",
      "    Message('note_off', channel=9, note=38, velocity=104, time=0),\n",
      "    Message('note_off', channel=9, note=42, velocity=84, time=0),\n",
      "    Message('note_off', channel=15, note=56, velocity=119, time=68),\n",
      "    Message('note_on', channel=9, note=46, velocity=91, time=120),\n",
      "    Message('note_on', channel=2, note=32, velocity=109, time=0),\n",
      "    Message('note_on', channel=15, note=56, velocity=120, time=0),\n",
      "    Message('note_off', channel=9, note=46, velocity=91, time=4),\n",
      "    Message('note_off', channel=2, note=32, velocity=109, time=84),\n",
      "    Message('note_off', channel=3, note=60, velocity=93, time=8),\n",
      "    Message('note_off', channel=3, note=56, velocity=87, time=0),\n",
      "    Message('note_off', channel=3, note=63, velocity=93, time=0),\n",
      "    Message('note_on', channel=2, note=32, velocity=111, time=0),\n",
      "    Message('note_off', channel=15, note=56, velocity=120, time=80),\n",
      "    Message('note_off', channel=2, note=32, velocity=111, time=8),\n",
      "    Message('note_on', channel=9, note=42, velocity=83, time=8),\n",
      "    Message('note_on', channel=9, note=36, velocity=102, time=0),\n",
      "    Message('note_on', channel=2, note=29, velocity=107, time=0),\n",
      "    Message('note_on', channel=3, note=56, velocity=92, time=0),\n",
      "    Message('note_on', channel=3, note=60, velocity=90, time=0),\n",
      "    Message('note_on', channel=3, note=63, velocity=87, time=0),\n",
      "    Message('note_on', channel=13, note=63, velocity=85, time=0),\n",
      "    Message('note_on', channel=13, note=68, velocity=88, time=0),\n",
      "    Message('note_on', channel=13, note=72, velocity=82, time=0),\n",
      "    Message('note_on', channel=15, note=63, velocity=123, time=0),\n",
      "    Message('note_off', channel=9, note=36, velocity=102, time=4),\n",
      "    Message('note_off', channel=9, note=42, velocity=83, time=0),\n",
      "    Message('note_off', channel=2, note=29, velocity=107, time=84),\n",
      "    Message('note_off', channel=3, note=63, velocity=87, time=8),\n",
      "    Message('note_off', channel=3, note=60, velocity=90, time=0),\n",
      "    Message('note_off', channel=3, note=56, velocity=92, time=0),\n",
      "    Message('note_on', channel=9, note=46, velocity=92, time=96),\n",
      "    Message('note_on', channel=2, note=29, velocity=111, time=0),\n",
      "    Message('note_off', channel=9, note=46, velocity=92, time=4),\n",
      "    Message('note_off', channel=2, note=29, velocity=111, time=84),\n",
      "    Message('note_off', channel=13, note=72, velocity=82, time=0),\n",
      "    Message('note_off', channel=13, note=68, velocity=88, time=0),\n",
      "    Message('note_off', channel=13, note=63, velocity=85, time=0),\n",
      "    Message('note_on', channel=2, note=29, velocity=110, time=8),\n",
      "    Message('note_off', channel=15, note=63, velocity=123, time=64),\n",
      "    Message('note_off', channel=2, note=29, velocity=110, time=24),\n",
      "    Message('note_on', channel=9, note=42, velocity=80, time=8),\n",
      "    Message('note_on', channel=9, note=38, velocity=107, time=0),\n",
      "    Message('note_on', channel=9, note=39, velocity=81, time=0),\n",
      "    Message('note_on', channel=3, note=58, velocity=86, time=0),\n",
      "    Message('note_on', channel=3, note=61, velocity=91, time=0),\n",
      "    Message('note_on', channel=3, note=65, velocity=91, time=0),\n",
      "    Message('note_on', channel=13, note=68, velocity=84, time=0),\n",
      "    Message('note_on', channel=13, note=65, velocity=86, time=0),\n",
      "    Message('note_on', channel=13, note=73, velocity=85, time=0),\n",
      "    Message('note_on', channel=15, note=61, velocity=123, time=0),\n",
      "    Message('note_off', channel=9, note=39, velocity=81, time=4),\n",
      "    Message('note_off', channel=9, note=38, velocity=107, time=0),\n",
      "    Message('note_off', channel=9, note=42, velocity=80, time=0),\n",
      "    Message('note_on', channel=2, note=36, velocity=109, time=92),\n",
      "    Message('note_off', channel=2, note=36, velocity=109, time=88),\n",
      "    Message('note_on', channel=9, note=46, velocity=88, time=8),\n",
      "    Message('note_on', channel=2, note=34, velocity=107, time=0),\n",
      "    Message('note_off', channel=9, note=46, velocity=88, time=4),\n",
      "    Message('note_off', channel=2, note=34, velocity=107, time=84),\n",
      "    Message('note_on', channel=9, note=42, velocity=80, time=104),\n",
      "    Message('note_on', channel=9, note=36, velocity=104, time=0),\n",
      "    Message('note_on', channel=9, note=45, velocity=84, time=0),\n",
      "    Message('note_on', channel=9, note=39, velocity=86, time=0),\n",
      "    Message('note_off', channel=9, note=39, velocity=86, time=4),\n",
      "    Message('note_off', channel=9, note=45, velocity=84, time=0),\n",
      "    Message('note_off', channel=9, note=36, velocity=104, time=0),\n",
      "    Message('note_off', channel=9, note=42, velocity=80, time=0),\n",
      "    Message('note_on', channel=9, note=45, velocity=87, time=92),\n",
      "    Message('note_on', channel=9, note=39, velocity=87, time=0),\n",
      "    Message('note_off', channel=9, note=39, velocity=87, time=4),\n",
      "    Message('note_off', channel=9, note=45, velocity=87, time=0),\n",
      "    Message('note_on', channel=9, note=46, velocity=92, time=92),\n",
      "    Message('note_on', channel=9, note=43, velocity=80, time=0),\n",
      "    Message('note_on', channel=2, note=32, velocity=106, time=0),\n",
      "    Message('note_on', channel=7, note=73, velocity=83, time=0),\n",
      "    Message('note_on', channel=7, note=85, velocity=110, time=0),\n",
      "    Message('note_off', channel=9, note=43, velocity=80, time=4),\n",
      "    Message('note_off', channel=9, note=46, velocity=92, time=0),\n",
      "    Message('note_off', channel=7, note=85, velocity=110, time=60),\n",
      "    Message('note_off', channel=7, note=73, velocity=83, time=0),\n",
      "    Message('note_off', channel=2, note=32, velocity=106, time=24),\n",
      "    Message('note_on', channel=9, note=43, velocity=80, time=8),\n",
      "    Message('note_on', channel=7, note=73, velocity=81, time=0),\n",
      "    Message('note_on', channel=7, note=85, velocity=107, time=0),\n",
      "    Message('note_off', channel=9, note=43, velocity=80, time=4),\n",
      "    Message('note_off', channel=7, note=85, velocity=107, time=60),\n",
      "    Message('note_off', channel=7, note=73, velocity=81, time=0),\n",
      "    Message('note_off', channel=13, note=73, velocity=85, time=24),\n",
      "    Message('note_off', channel=13, note=65, velocity=86, time=0),\n",
      "    Message('note_off', channel=13, note=68, velocity=84, time=0),\n",
      "    Message('note_on', channel=9, note=42, velocity=85, time=8),\n",
      "    Message('note_on', channel=9, note=38, velocity=103, time=0),\n",
      "    Message('note_on', channel=9, note=45, velocity=84, time=0),\n",
      "    Message('note_on', channel=9, note=39, velocity=87, time=0),\n",
      "    Message('note_on', channel=2, note=32, velocity=107, time=0),\n",
      "    Message('note_on', channel=7, note=73, velocity=81, time=0),\n",
      "    Message('note_on', channel=7, note=85, velocity=109, time=0),\n",
      "    Message('note_off', channel=9, note=39, velocity=87, time=4),\n",
      "    Message('note_off', channel=9, note=45, velocity=84, time=0),\n",
      "    Message('note_off', channel=9, note=38, velocity=103, time=0),\n",
      "    Message('note_off', channel=9, note=42, velocity=85, time=0),\n",
      "    Message('note_off', channel=8, note=80, velocity=99, time=44),\n",
      "    Message('note_off', channel=7, note=85, velocity=109, time=16),\n",
      "    Message('note_off', channel=7, note=73, velocity=81, time=0),\n",
      "    Message('note_off', channel=15, note=61, velocity=123, time=0),\n",
      "    Message('note_off', channel=2, note=32, velocity=107, time=24),\n",
      "    Message('note_on', channel=9, note=45, velocity=85, time=8),\n",
      "    Message('note_on', channel=9, note=39, velocity=80, time=0),\n",
      "    Message('note_on', channel=2, note=32, velocity=107, time=0),\n",
      "    Message('note_on', channel=7, note=73, velocity=85, time=0),\n",
      "    Message('note_on', channel=7, note=85, velocity=112, time=0),\n",
      "    Message('note_off', channel=9, note=39, velocity=80, time=4),\n",
      "    Message('note_off', channel=9, note=45, velocity=85, time=0),\n",
      "    Message('note_off', channel=7, note=85, velocity=112, time=60),\n",
      "    Message('note_off', channel=7, note=73, velocity=85, time=0),\n",
      "    Message('note_off', channel=2, note=32, velocity=107, time=24),\n",
      "    Message('note_on', channel=9, note=46, velocity=91, time=8),\n",
      "    Message('note_on', channel=9, note=43, velocity=85, time=0),\n",
      "    Message('note_off', channel=9, note=43, velocity=85, time=4),\n",
      "    Message('note_off', channel=9, note=46, velocity=91, time=0),\n",
      "    Message('note_off', channel=3, note=65, velocity=91, time=92),\n",
      "    Message('note_off', channel=3, note=61, velocity=91, time=0),\n",
      "    Message('note_off', channel=3, note=58, velocity=86, time=0),\n",
      "    Message('note_on', channel=9, note=43, velocity=84, time=0),\n",
      "    Message('note_on', channel=2, note=37, velocity=107, time=0),\n",
      "    Message('note_on', channel=7, note=73, velocity=85, time=0),\n",
      "    Message('note_on', channel=7, note=85, velocity=109, time=0),\n",
      "    Message('note_off', channel=9, note=43, velocity=84, time=4),\n",
      "    Message('note_off', channel=7, note=85, velocity=109, time=60),\n",
      "    Message('note_off', channel=7, note=73, velocity=85, time=0),\n",
      "    Message('note_off', channel=2, note=37, velocity=107, time=24),\n",
      "    Message('note_on', channel=9, note=42, velocity=83, time=8),\n",
      "    Message('note_on', channel=9, note=36, velocity=108, time=0),\n",
      "    Message('note_on', channel=2, note=34, velocity=108, time=0),\n",
      "    Message('note_on', channel=3, note=58, velocity=86, time=0),\n",
      "    Message('note_on', channel=3, note=65, velocity=92, time=0),\n",
      "    Message('note_on', channel=3, note=61, velocity=88, time=0),\n",
      "    Message('note_on', channel=3, note=54, velocity=91, time=0),\n",
      "    Message('note_off', channel=9, note=36, velocity=108, time=4),\n",
      "    Message('note_off', channel=9, note=42, velocity=83, time=0),\n",
      "    Message('note_off', channel=2, note=34, velocity=108, time=84),\n",
      "    Message('note_on', channel=9, note=46, velocity=88, time=104),\n",
      "    Message('note_on', channel=2, note=34, velocity=106, time=0),\n",
      "    Message('note_off', channel=9, note=46, velocity=88, time=4),\n",
      "    Message('note_off', channel=2, note=34, velocity=106, time=84),\n",
      "    Message('note_on', channel=2, note=34, velocity=111, time=8),\n",
      "    Message('note_off', channel=2, note=34, velocity=111, time=88),\n",
      "    Message('note_on', channel=9, note=42, velocity=80, time=8),\n",
      "    Message('note_on', channel=9, note=38, velocity=107, time=0),\n",
      "    Message('note_on', channel=9, note=39, velocity=82, time=0),\n",
      "    Message('note_on', channel=15, note=58, velocity=120, time=0),\n",
      "    Message('note_off', channel=9, note=39, velocity=82, time=4),\n",
      "    Message('note_off', channel=9, note=38, velocity=107, time=0),\n",
      "    Message('note_off', channel=9, note=42, velocity=80, time=0),\n",
      "    Message('note_on', channel=2, note=37, velocity=108, time=92),\n",
      "    Message('note_off', channel=15, note=58, velocity=120, time=80),\n",
      "    Message('note_off', channel=2, note=37, velocity=108, time=8),\n",
      "    Message('note_on', channel=9, note=42, velocity=85, time=8),\n",
      "    Message('note_on', channel=2, note=36, velocity=111, time=0),\n",
      "    Message('note_on', channel=15, note=60, velocity=119, time=0),\n",
      "    Message('note_off', channel=9, note=42, velocity=85, time=4),\n",
      "    Message('note_off', channel=2, note=36, velocity=111, time=84),\n",
      "    Message('note_on', channel=9, note=42, velocity=81, time=8),\n",
      "    Message('note_off', channel=9, note=42, velocity=81, time=4),\n",
      "    Message('note_off', channel=15, note=60, velocity=119, time=76),\n",
      "    Message('note_on', channel=9, note=42, velocity=84, time=16),\n",
      "    Message('note_on', channel=9, note=36, velocity=105, time=0),\n",
      "    Message('note_on', channel=2, note=32, velocity=108, time=0),\n",
      "    Message('note_on', channel=15, note=61, velocity=119, time=0),\n",
      "    Message('note_off', channel=9, note=36, velocity=105, time=4),\n",
      "    Message('note_off', channel=9, note=42, velocity=84, time=0),\n",
      "    Message('note_off', channel=15, note=61, velocity=119, time=84),\n",
      "    Message('note_off', channel=2, note=32, velocity=108, time=104),\n",
      "    Message('note_on', channel=9, note=46, velocity=88, time=0),\n",
      "    Message('note_on', channel=2, note=34, velocity=107, time=0),\n",
      "    Message('note_on', channel=15, note=61, velocity=123, time=0),\n",
      "    Message('note_off', channel=9, note=46, velocity=88, time=4),\n",
      "    Message('note_off', channel=2, note=34, velocity=107, time=84),\n",
      "    Message('note_off', channel=15, note=61, velocity=123, time=88),\n",
      "    Message('note_on', channel=9, note=42, velocity=84, time=16),\n",
      "    Message('note_on', channel=9, note=38, velocity=105, time=0),\n",
      "    Message('note_on', channel=9, note=39, velocity=85, time=0),\n",
      "    Message('note_on', channel=15, note=63, velocity=120, time=0),\n",
      "    Message('note_off', channel=9, note=39, velocity=85, time=4),\n",
      "    Message('note_off', channel=9, note=38, velocity=105, time=0),\n",
      "    Message('note_off', channel=9, note=42, velocity=84, time=0),\n",
      "    Message('note_off', channel=15, note=63, velocity=120, time=172),\n",
      "    Message('note_off', channel=3, note=54, velocity=91, time=16),\n",
      "    Message('note_off', channel=3, note=61, velocity=88, time=0),\n",
      "    Message('note_off', channel=3, note=65, velocity=92, time=0),\n",
      "    Message('note_off', channel=3, note=58, velocity=86, time=0),\n",
      "    Message('note_on', channel=9, note=46, velocity=91, time=0),\n",
      "    Message('note_on', channel=2, note=29, velocity=110, time=0),\n",
      "    Message('note_on', channel=15, note=60, velocity=119, time=0),\n",
      "    Message('note_off', channel=9, note=46, velocity=91, time=4),\n",
      "    Message('note_off', channel=2, note=29, velocity=110, time=84),\n",
      "    Message('note_on', channel=2, note=32, velocity=110, time=8),\n",
      "    Message('note_off', channel=2, note=32, velocity=110, time=88),\n",
      "    Message('note_on', channel=9, note=42, velocity=80, time=8),\n",
      "    Message('note_on', channel=9, note=36, velocity=106, time=0),\n",
      "    Message('note_on', channel=2, note=34, velocity=109, time=0),\n",
      "    Message('note_on', channel=3, note=60, velocity=92, time=0),\n",
      "    Message('note_on', channel=3, note=63, velocity=90, time=0),\n",
      "    Message('note_on', channel=3, note=56, velocity=90, time=0),\n",
      "    Message('note_off', channel=9, note=36, velocity=106, time=4),\n",
      "    Message('note_off', channel=9, note=42, velocity=80, time=0),\n",
      "    Message('note_off', channel=15, note=60, velocity=119, time=68),\n",
      "    Message('note_off', channel=2, note=34, velocity=109, time=16),\n",
      "    Message('note_on', channel=15, note=58, velocity=119, time=8),\n",
      "    Message('note_off', channel=15, note=58, velocity=119, time=88),\n",
      "    Message('note_on', channel=9, note=46, velocity=92, time=8),\n",
      "    Message('note_on', channel=2, note=32, velocity=110, time=0),\n",
      "    Message('note_on', channel=15, note=56, velocity=123, time=0),\n",
      "    Message('note_off', channel=9, note=46, velocity=92, time=4),\n",
      "    Message('note_off', channel=2, note=32, velocity=110, time=84),\n",
      "    Message('note_on', channel=2, note=34, velocity=106, time=8),\n",
      "    Message('note_off', channel=2, note=34, velocity=106, time=88),\n",
      "    Message('note_on', channel=9, note=42, velocity=81, time=8),\n",
      "    Message('note_on', channel=9, note=38, velocity=108, time=0),\n",
      "    Message('note_on', channel=9, note=39, velocity=81, time=0),\n",
      "    Message('note_off', channel=9, note=39, velocity=81, time=4),\n",
      "    Message('note_off', channel=9, note=38, velocity=108, time=0),\n",
      "    Message('note_off', channel=9, note=42, velocity=81, time=0),\n",
      "    Message('note_on', channel=2, note=37, velocity=109, time=92),\n",
      "    Message('note_off', channel=2, note=37, velocity=109, time=88),\n",
      "    Message('note_on', channel=9, note=46, velocity=88, time=8),\n",
      "    Message('note_on', channel=2, note=36, velocity=108, time=0),\n",
      "    Message('note_off', channel=9, note=46, velocity=88, time=4),\n",
      "    Message('note_off', channel=2, note=36, velocity=108, time=84),\n",
      "    Message('note_on', channel=9, note=42, velocity=81, time=104),\n",
      "    Message('note_on', channel=9, note=36, velocity=103, time=0),\n",
      "    Message('note_off', channel=9, note=36, velocity=103, time=4),\n",
      "    Message('note_off', channel=9, note=42, velocity=81, time=0),\n",
      "    Message('note_on', channel=9, note=46, velocity=89, time=188),\n",
      "    Message('note_off', channel=9, note=46, velocity=89, time=4),\n",
      "    Message('note_on', channel=9, note=42, velocity=84, time=188),\n",
      "    Message('note_on', channel=9, note=38, velocity=101, time=0),\n",
      "    Message('note_on', channel=9, note=39, velocity=83, time=0),\n",
      "    Message('note_off', channel=9, note=39, velocity=83, time=4),\n",
      "    Message('note_off', channel=9, note=38, velocity=101, time=0),\n",
      "    Message('note_off', channel=9, note=42, velocity=84, time=0),\n",
      "    Message('note_off', channel=3, note=56, velocity=90, time=188),\n",
      "    Message('note_off', channel=3, note=63, velocity=90, time=0),\n",
      "    Message('note_off', channel=3, note=60, velocity=92, time=0),\n",
      "    Message('note_on', channel=9, note=46, velocity=90, time=0),\n",
      "    Message('note_on', channel=2, note=29, velocity=107, time=0),\n",
      "    Message('note_off', channel=9, note=46, velocity=90, time=4),\n",
      "    Message('note_off', channel=15, note=56, velocity=123, time=60),\n",
      "    Message('note_off', channel=2, note=29, velocity=107, time=24),\n",
      "    Message('note_on', channel=2, note=32, velocity=106, time=8),\n",
      "    Message('note_off', channel=2, note=32, velocity=106, time=88),\n",
      "    Message('note_on', channel=9, note=42, velocity=83, time=8),\n",
      "    Message('note_on', channel=9, note=36, velocity=107, time=0),\n",
      "    Message('note_on', channel=2, note=34, velocity=108, time=0),\n",
      "    Message('note_on', channel=3, note=65, velocity=91, time=0),\n",
      "    Message('note_on', channel=3, note=54, velocity=93, time=0),\n",
      "    Message('note_on', channel=3, note=58, velocity=90, time=0),\n",
      "    Message('note_on', channel=3, note=61, velocity=86, time=0),\n",
      "    Message('note_off', channel=9, note=36, velocity=107, time=4),\n",
      "    Message('note_off', channel=9, note=42, velocity=83, time=0),\n",
      "    Message('note_off', channel=2, note=34, velocity=108, time=84),\n",
      "    Message('note_on', channel=9, note=46, velocity=87, time=104),\n",
      "    Message('note_on', channel=2, note=34, velocity=106, time=0),\n",
      "    Message('note_on', channel=15, note=58, velocity=123, time=0),\n",
      "    Message('note_off', channel=9, note=46, velocity=87, time=4),\n",
      "    Message('note_off', channel=15, note=58, velocity=123, time=84),\n",
      "    Message('note_off', channel=2, note=34, velocity=106, time=0),\n",
      "    Message('note_on', channel=2, note=34, velocity=107, time=8),\n",
      "    Message('note_off', channel=2, note=34, velocity=107, time=88),\n",
      "    Message('note_on', channel=9, note=42, velocity=80, time=8),\n",
      "    Message('note_on', channel=9, note=38, velocity=101, time=0),\n",
      "    Message('note_on', channel=9, note=39, velocity=83, time=0),\n",
      "    Message('note_on', channel=15, note=58, velocity=121, time=0),\n",
      "    Message('note_off', channel=9, note=39, velocity=83, time=4),\n",
      "    Message('note_off', channel=9, note=38, velocity=101, time=0),\n",
      "    Message('note_off', channel=9, note=42, velocity=80, time=0),\n",
      "    Message('note_on', channel=2, note=37, velocity=111, time=92),\n",
      "    Message('note_off', channel=15, note=58, velocity=121, time=80),\n",
      "    Message('note_off', channel=2, note=37, velocity=111, time=8),\n",
      "    Message('note_on', channel=9, note=42, velocity=84, time=8),\n",
      "    Message('note_on', channel=2, note=36, velocity=111, time=0),\n",
      "    Message('note_on', channel=15, note=60, velocity=119, time=0),\n",
      "    Message('note_off', channel=9, note=42, velocity=84, time=4),\n",
      "    Message('note_off', channel=2, note=36, velocity=111, time=84),\n",
      "    Message('note_on', channel=9, note=42, velocity=82, time=8),\n",
      "    Message('note_off', channel=9, note=42, velocity=82, time=4),\n",
      "    Message('note_off', channel=15, note=60, velocity=119, time=76),\n",
      "    Message('note_on', channel=9, note=42, velocity=82, time=16),\n",
      "    Message('note_on', channel=9, note=36, velocity=108, time=0),\n",
      "    Message('note_on', channel=2, note=32, velocity=110, time=0),\n",
      "    Message('note_on', channel=15, note=61, velocity=120, time=0),\n",
      "    Message('note_off', channel=9, note=36, velocity=108, time=4),\n",
      "    Message('note_off', channel=9, note=42, velocity=82, time=0),\n",
      "    Message('note_off', channel=15, note=61, velocity=120, time=172),\n",
      "    Message('note_off', channel=2, note=32, velocity=110, time=16),\n",
      "    Message('note_on', channel=9, note=46, velocity=92, time=0),\n",
      "    Message('note_on', channel=2, note=34, velocity=110, time=0),\n",
      "    Message('note_on', channel=15, note=58, velocity=122, time=0),\n",
      "    Message('note_off', channel=9, note=46, velocity=92, time=4),\n",
      "    Message('note_off', channel=2, note=34, velocity=110, time=84),\n",
      "    Message('note_off', channel=15, note=58, velocity=122, time=88),\n",
      "    Message('note_on', channel=9, note=42, velocity=84, time=16),\n",
      "    Message('note_on', channel=9, note=38, velocity=102, time=0),\n",
      "    Message('note_on', channel=9, note=39, velocity=87, time=0),\n",
      "    Message('note_off', channel=9, note=39, velocity=87, time=4),\n",
      "    Message('note_off', channel=9, note=38, velocity=102, time=0),\n",
      "    Message('note_off', channel=9, note=42, velocity=84, time=0),\n",
      "    Message('note_off', channel=3, note=61, velocity=86, time=188),\n",
      "    Message('note_off', channel=3, note=58, velocity=90, time=0),\n",
      "    Message('note_off', channel=3, note=54, velocity=93, time=0),\n",
      "    Message('note_off', channel=3, note=65, velocity=91, time=0),\n",
      "    Message('note_on', channel=9, note=46, velocity=89, time=0),\n",
      "    Message('note_on', channel=2, note=34, velocity=111, time=0),\n",
      "    Message('note_on', channel=15, note=56, velocity=123, time=0),\n",
      "    Message('note_off', channel=9, note=46, velocity=89, time=4),\n",
      "    Message('note_off', channel=2, note=34, velocity=111, time=84),\n",
      "    Message('note_on', channel=2, note=34, velocity=111, time=8),\n",
      "    Message('note_off', channel=15, note=56, velocity=123, time=80),\n",
      "    Message('note_off', channel=2, note=34, velocity=111, time=8),\n",
      "    Message('note_on', channel=9, note=42, velocity=82, time=8),\n",
      "    Message('note_on', channel=9, note=36, velocity=101, time=0),\n",
      "    Message('note_on', channel=2, note=27, velocity=108, time=0),\n",
      "    Message('note_on', channel=3, note=61, velocity=87, time=0),\n",
      "    Message('note_on', channel=3, note=68, velocity=90, time=0),\n",
      "    Message('note_on', channel=3, note=65, velocity=86, time=0),\n",
      "    Message('note_on', channel=3, note=58, velocity=90, time=0),\n",
      "    Message('note_on', channel=15, note=68, velocity=124, time=0),\n",
      "    Message('note_off', channel=9, note=36, velocity=101, time=4),\n",
      "    Message('note_off', channel=9, note=42, velocity=82, time=0),\n",
      "    Message('note_off', channel=2, note=27, velocity=108, time=84),\n",
      "    Message('note_on', channel=9, note=46, velocity=91, time=104),\n",
      "    Message('note_on', channel=2, note=27, velocity=106, time=0),\n",
      "    Message('note_off', channel=9, note=46, velocity=91, time=4),\n",
      "    Message('note_off', channel=15, note=68, velocity=124, time=68),\n",
      "    Message('note_off', channel=2, note=27, velocity=106, time=16),\n",
      "    Message('note_on', channel=2, note=27, velocity=106, time=8),\n",
      "    Message('note_off', channel=2, note=27, velocity=106, time=88),\n",
      "    Message('note_on', channel=9, note=42, velocity=84, time=8),\n",
      "    Message('note_on', channel=9, note=38, velocity=108, time=0),\n",
      "    Message('note_on', channel=9, note=39, velocity=85, time=0),\n",
      "    Message('note_on', channel=15, note=68, velocity=121, time=0),\n",
      "    Message('note_off', channel=9, note=39, velocity=85, time=4),\n",
      "    Message('note_off', channel=9, note=38, velocity=108, time=0),\n",
      "    Message('note_off', channel=9, note=42, velocity=84, time=0),\n",
      "    Message('note_off', channel=3, note=58, velocity=90, time=92),\n",
      "    Message('note_off', channel=3, note=65, velocity=86, time=0),\n",
      "    Message('note_off', channel=3, note=68, velocity=90, time=0),\n",
      "    Message('note_off', channel=3, note=61, velocity=87, time=0),\n",
      "    Message('note_on', channel=2, note=27, velocity=106, time=0),\n",
      "    Message('note_off', channel=15, note=68, velocity=121, time=80),\n",
      "    Message('note_off', channel=2, note=27, velocity=106, time=8),\n",
      "    Message('note_on', channel=9, note=46, velocity=90, time=8),\n",
      "    Message('note_on', channel=2, note=32, velocity=111, time=0),\n",
      "    Message('note_on', channel=3, note=56, velocity=87, time=0),\n",
      "    Message('note_on', channel=3, note=63, velocity=92, time=0),\n",
      "    Message('note_on', channel=3, note=60, velocity=89, time=0),\n",
      "    Message('note_on', channel=15, note=63, velocity=123, time=0),\n",
      "    Message('note_off', channel=9, note=46, velocity=90, time=4),\n",
      "    Message('note_off', channel=2, note=32, velocity=111, time=84),\n",
      "    Message('note_on', channel=9, note=42, velocity=84, time=104),\n",
      "    Message('note_on', channel=9, note=36, velocity=103, time=0),\n",
      "    Message('note_off', channel=9, note=36, velocity=103, time=4),\n",
      "    Message('note_off', channel=9, note=42, velocity=84, time=0),\n",
      "    Message('note_off', channel=15, note=63, velocity=123, time=156),\n",
      "    Message('note_on', channel=9, note=46, velocity=92, time=32),\n",
      "    Message('note_on', channel=2, note=32, velocity=111, time=0),\n",
      "    Message('note_on', channel=15, note=65, velocity=119, time=0),\n",
      "    Message('note_off', channel=9, note=46, velocity=92, time=4),\n",
      "    Message('note_off', channel=2, note=32, velocity=111, time=84),\n",
      "    Message('note_on', channel=2, note=32, velocity=106, time=8),\n",
      "    Message('note_off', channel=15, note=65, velocity=119, time=80),\n",
      "    Message('note_off', channel=2, note=32, velocity=106, time=8),\n",
      "    Message('note_on', channel=9, note=42, velocity=80, time=8),\n",
      "    Message('note_on', channel=9, note=38, velocity=102, time=0),\n",
      "    Message('note_on', channel=9, note=39, velocity=83, time=0),\n",
      "    Message('note_on', channel=2, note=32, velocity=106, time=0),\n",
      "    Message('note_on', channel=15, note=63, velocity=120, time=0),\n",
      "    Message('note_off', channel=9, note=39, velocity=83, time=4),\n",
      "    Message('note_off', channel=9, note=38, velocity=102, time=0),\n",
      "    Message('note_off', channel=9, note=42, velocity=80, time=0),\n",
      "    Message('note_off', channel=2, note=32, velocity=106, time=84),\n",
      "    Message('note_off', channel=15, note=63, velocity=120, time=88),\n",
      "    Message('note_off', channel=3, note=60, velocity=89, time=16),\n",
      "    Message('note_off', channel=3, note=63, velocity=92, time=0),\n",
      "    Message('note_off', channel=3, note=56, velocity=87, time=0),\n",
      "    Message('note_on', channel=9, note=46, velocity=90, time=0),\n",
      "    Message('note_on', channel=2, note=29, velocity=109, time=0),\n",
      "    Message('note_on', channel=15, note=61, velocity=119, time=0),\n",
      "    Message('note_off', channel=9, note=46, velocity=90, time=4),\n",
      "    Message('note_off', channel=2, note=29, velocity=109, time=84),\n",
      "    Message('note_on', channel=2, note=32, velocity=106, time=8),\n",
      "    Message('note_off', channel=15, note=61, velocity=119, time=80),\n",
      "    Message('note_off', channel=2, note=32, velocity=106, time=8),\n",
      "    Message('note_on', channel=9, note=42, velocity=84, time=8),\n",
      "    Message('note_on', channel=9, note=36, velocity=108, time=0),\n",
      "    Message('note_on', channel=2, note=34, velocity=111, time=0),\n",
      "    Message('note_on', channel=3, note=58, velocity=87, time=0),\n",
      "    Message('note_on', channel=3, note=54, velocity=93, time=0),\n",
      "    Message('note_on', channel=3, note=65, velocity=92, time=0),\n",
      "    Message('note_on', channel=3, note=61, velocity=87, time=0),\n",
      "    Message('note_off', channel=9, note=36, velocity=108, time=4),\n",
      "    Message('note_off', channel=9, note=42, velocity=84, time=0),\n",
      "    Message('note_off', channel=2, note=34, velocity=111, time=84),\n",
      "    Message('note_on', channel=9, note=46, velocity=87, time=104),\n",
      "    Message('note_on', channel=2, note=34, velocity=111, time=0),\n",
      "    Message('note_on', channel=15, note=58, velocity=123, time=0),\n",
      "    Message('note_off', channel=9, note=46, velocity=87, time=4),\n",
      "    Message('note_off', channel=15, note=58, velocity=123, time=84),\n",
      "    Message('note_off', channel=2, note=34, velocity=111, time=0),\n",
      "    Message('note_on', channel=2, note=34, velocity=107, time=8),\n",
      "    Message('note_off', channel=2, note=34, velocity=107, time=88),\n",
      "    Message('note_on', channel=9, note=42, velocity=84, time=8),\n",
      "    Message('note_on', channel=9, note=38, velocity=109, time=0),\n",
      "    Message('note_on', channel=9, note=39, velocity=81, time=0),\n",
      "    Message('note_on', channel=15, note=58, velocity=122, time=0),\n",
      "    Message('note_off', channel=9, note=39, velocity=81, time=4),\n",
      "    Message('note_off', channel=9, note=38, velocity=109, time=0),\n",
      "    Message('note_off', channel=9, note=42, velocity=84, time=0),\n",
      "    Message('note_on', channel=2, note=37, velocity=109, time=92),\n",
      "    Message('note_off', channel=15, note=58, velocity=122, time=80),\n",
      "    Message('note_off', channel=2, note=37, velocity=109, time=8),\n",
      "    Message('note_on', channel=9, note=42, velocity=82, time=8),\n",
      "    Message('note_on', channel=2, note=36, velocity=107, time=0),\n",
      "    Message('note_on', channel=15, note=60, velocity=119, time=0),\n",
      "    Message('note_off', channel=9, note=42, velocity=82, time=4),\n",
      "    Message('note_off', channel=2, note=36, velocity=107, time=84),\n",
      "    Message('note_on', channel=9, note=42, velocity=85, time=8),\n",
      "    Message('note_off', channel=9, note=42, velocity=85, time=4),\n",
      "    Message('note_off', channel=15, note=60, velocity=119, time=76),\n",
      "    Message('note_on', channel=9, note=42, velocity=84, time=16),\n",
      "    Message('note_on', channel=9, note=36, velocity=105, time=0),\n",
      "    Message('note_on', channel=2, note=32, velocity=110, time=0),\n",
      "    Message('note_on', channel=15, note=61, velocity=121, time=0),\n",
      "    Message('note_off', channel=9, note=36, velocity=105, time=4),\n",
      "    Message('note_off', channel=9, note=42, velocity=84, time=0),\n",
      "    Message('note_off', channel=15, note=61, velocity=121, time=172),\n",
      "    Message('note_off', channel=2, note=32, velocity=110, time=16),\n",
      "    Message('note_on', channel=9, note=46, velocity=88, time=0),\n",
      "    Message('note_on', channel=2, note=34, velocity=108, time=0),\n",
      "    Message('note_on', channel=15, note=58, velocity=119, time=0),\n",
      "    Message('note_off', channel=9, note=46, velocity=88, time=4),\n",
      "    Message('note_off', channel=2, note=34, velocity=108, time=84),\n",
      "    Message('note_off', channel=15, note=58, velocity=119, time=88),\n",
      "    Message('note_on', channel=9, note=42, velocity=80, time=16),\n",
      "    Message('note_on', channel=9, note=38, velocity=102, time=0),\n",
      "    Message('note_on', channel=9, note=39, velocity=87, time=0),\n",
      "    Message('note_on', channel=15, note=61, velocity=119, time=0),\n",
      "    Message('note_off', channel=9, note=39, velocity=87, time=4),\n",
      "    Message('note_off', channel=9, note=38, velocity=102, time=0),\n",
      "    Message('note_off', channel=9, note=42, velocity=80, time=0),\n",
      "    Message('note_off', channel=15, note=61, velocity=119, time=172),\n",
      "    Message('note_off', channel=3, note=61, velocity=87, time=16),\n",
      "    Message('note_off', channel=3, note=65, velocity=92, time=0),\n",
      "    Message('note_off', channel=3, note=54, velocity=93, time=0),\n",
      "    Message('note_off', channel=3, note=58, velocity=87, time=0),\n",
      "    Message('note_on', channel=9, note=46, velocity=91, time=0),\n",
      "    Message('note_on', channel=2, note=29, velocity=110, time=0),\n",
      "    Message('note_on', channel=15, note=63, velocity=119, time=0),\n",
      "    Message('note_off', channel=9, note=46, velocity=91, time=4),\n",
      "    Message('note_off', channel=2, note=29, velocity=110, time=84),\n",
      "    Message('note_on', channel=2, note=32, velocity=108, time=8),\n",
      "    Message('note_off', channel=15, note=63, velocity=119, time=80),\n",
      "    Message('note_off', channel=2, note=32, velocity=108, time=8),\n",
      "    Message('note_on', channel=9, note=42, velocity=82, time=8),\n",
      "    Message('note_on', channel=9, note=36, velocity=107, time=0),\n",
      "    Message('note_on', channel=2, note=34, velocity=111, time=0),\n",
      "    Message('note_on', channel=3, note=56, velocity=88, time=0),\n",
      "    Message('note_on', channel=3, note=63, velocity=88, time=0),\n",
      "    Message('note_on', channel=3, note=60, velocity=87, time=0),\n",
      "    Message('note_off', channel=9, note=36, velocity=107, time=4),\n",
      "    Message('note_off', channel=9, note=42, velocity=82, time=0),\n",
      "    Message('note_off', channel=2, note=34, velocity=111, time=84),\n",
      "    Message('note_on', channel=9, note=46, velocity=91, time=104),\n",
      "    Message('note_on', channel=2, note=32, velocity=111, time=0),\n",
      "    Message('note_on', channel=15, note=60, velocity=121, time=0),\n",
      "    Message('note_off', channel=9, note=46, velocity=91, time=4),\n",
      "    Message('note_off', channel=2, note=32, velocity=111, time=84),\n",
      "    Message('note_on', channel=2, note=34, velocity=107, time=8),\n",
      "    Message('note_off', channel=15, note=60, velocity=121, time=80),\n",
      "    Message('note_off', channel=2, note=34, velocity=107, time=8),\n",
      "    Message('note_on', channel=9, note=42, velocity=85, time=8),\n",
      "    Message('note_on', channel=9, note=38, velocity=101, time=0),\n",
      "    Message('note_on', channel=9, note=39, velocity=81, time=0),\n",
      "    Message('note_on', channel=15, note=58, velocity=121, time=0),\n",
      "    Message('note_off', channel=9, note=39, velocity=81, time=4),\n",
      "    Message('note_off', channel=9, note=38, velocity=101, time=0),\n",
      "    Message('note_off', channel=9, note=42, velocity=85, time=0),\n",
      "    Message('note_on', channel=2, note=37, velocity=108, time=92),\n",
      "    Message('note_off', channel=15, note=58, velocity=121, time=80),\n",
      "    Message('note_off', channel=2, note=37, velocity=108, time=8),\n",
      "    Message('note_on', channel=9, note=46, velocity=92, time=8),\n",
      "    Message('note_on', channel=2, note=36, velocity=108, time=0),\n",
      "    Message('note_on', channel=15, note=60, velocity=119, time=0),\n",
      "    Message('note_off', channel=9, note=46, velocity=92, time=4),\n",
      "    Message('note_off', channel=2, note=36, velocity=108, time=84),\n",
      "    Message('note_on', channel=9, note=42, velocity=83, time=104),\n",
      "    Message('note_on', channel=9, note=36, velocity=109, time=0),\n",
      "    Message('note_off', channel=9, note=36, velocity=109, time=4),\n",
      "    Message('note_off', channel=9, note=42, velocity=83, time=0),\n",
      "    Message('note_on', channel=15, note=58, velocity=123, time=92),\n",
      "    Message('note_off', channel=15, note=60, velocity=119, time=64),\n",
      "    Message('note_off', channel=15, note=58, velocity=123, time=24),\n",
      "    Message('note_on', channel=9, note=46, velocity=89, time=8),\n",
      "    Message('note_on', channel=15, note=56, velocity=123, time=0),\n",
      "    Message('note_off', channel=9, note=46, velocity=89, time=4),\n",
      "    Message('note_on', channel=9, note=42, velocity=83, time=188),\n",
      "    Message('note_on', channel=9, note=38, velocity=104, time=0),\n",
      "    Message('note_on', channel=9, note=39, velocity=84, time=0),\n",
      "    Message('note_off', channel=9, note=39, velocity=84, time=4),\n",
      "    Message('note_off', channel=9, note=38, velocity=104, time=0),\n",
      "    Message('note_off', channel=9, note=42, velocity=83, time=0),\n",
      "    Message('note_off', channel=3, note=60, velocity=87, time=188),\n",
      "    Message('note_off', channel=3, note=63, velocity=88, time=0),\n",
      "    Message('note_off', channel=3, note=56, velocity=88, time=0),\n",
      "    Message('note_on', channel=9, note=46, velocity=88, time=0),\n",
      "    Message('note_on', channel=2, note=29, velocity=109, time=0),\n",
      "    Message('note_off', channel=9, note=46, velocity=88, time=4),\n",
      "    Message('note_off', channel=2, note=29, velocity=109, time=84),\n",
      "    Message('note_on', channel=2, note=32, velocity=106, time=8),\n",
      "    Message('note_off', channel=15, note=56, velocity=123, time=64),\n",
      "    Message('note_off', channel=2, note=32, velocity=106, time=24),\n",
      "    Message('note_on', channel=9, note=42, velocity=84, time=8),\n",
      "    Message('note_on', channel=9, note=36, velocity=103, time=0),\n",
      "    Message('note_on', channel=2, note=34, velocity=110, time=0),\n",
      "    Message('note_on', channel=3, note=54, velocity=93, time=0),\n",
      "    Message('note_on', channel=3, note=58, velocity=91, time=0),\n",
      "    Message('note_on', channel=3, note=65, velocity=89, time=0),\n",
      "    Message('note_on', channel=3, note=61, velocity=89, time=0),\n",
      "    Message('note_on', channel=7, note=68, velocity=71, time=0),\n",
      "    Message('note_on', channel=7, note=80, velocity=81, time=0),\n",
      "    Message('note_off', channel=9, note=36, velocity=103, time=4),\n",
      "    Message('note_off', channel=9, note=42, velocity=84, time=0),\n",
      "    Message('note_off', channel=2, note=34, velocity=110, time=84),\n",
      "    Message('note_on', channel=9, note=46, velocity=88, time=104),\n",
      "    Message('note_on', channel=2, note=34, velocity=109, time=0),\n",
      "    Message('note_on', channel=15, note=58, velocity=120, time=0),\n",
      "    Message('note_off', channel=9, note=46, velocity=88, time=4),\n",
      "    Message('note_off', channel=15, note=58, velocity=120, time=84),\n",
      "    Message('note_off', channel=2, note=34, velocity=109, time=0),\n",
      "    Message('note_on', channel=2, note=34, velocity=106, time=8),\n",
      "    Message('note_off', channel=2, note=34, velocity=106, time=88),\n",
      "    Message('note_on', channel=9, note=42, velocity=81, time=8),\n",
      "    Message('note_on', channel=9, note=38, velocity=104, time=0),\n",
      "    Message('note_on', channel=9, note=39, velocity=85, time=0),\n",
      "    Message('note_on', channel=15, note=58, velocity=124, time=0),\n",
      "    Message('note_off', channel=9, note=39, velocity=85, time=4),\n",
      "    Message('note_off', channel=9, note=38, velocity=104, time=0),\n",
      "    Message('note_off', channel=9, note=42, velocity=81, time=0),\n",
      "    Message('note_on', channel=2, note=37, velocity=108, time=92),\n",
      "    Message('note_off', channel=15, note=58, velocity=124, time=80),\n",
      "    Message('note_off', channel=2, note=37, velocity=108, time=8),\n",
      "    Message('note_on', channel=9, note=42, velocity=81, time=8),\n",
      "    Message('note_on', channel=2, note=36, velocity=110, time=0),\n",
      "    Message('note_on', channel=15, note=60, velocity=120, time=0),\n",
      "    Message('note_off', channel=9, note=42, velocity=81, time=4),\n",
      "    Message('note_off', channel=2, note=36, velocity=110, time=84),\n",
      "    Message('note_on', channel=9, note=42, velocity=81, time=8),\n",
      "    Message('note_off', channel=9, note=42, velocity=81, time=4),\n",
      "    Message('note_off', channel=15, note=60, velocity=120, time=76),\n",
      "    Message('note_on', channel=9, note=42, velocity=83, time=16),\n",
      "    Message('note_on', channel=9, note=36, velocity=106, time=0),\n",
      "    Message('note_on', channel=2, note=32, velocity=109, time=0),\n",
      "    Message('note_on', channel=15, note=61, velocity=121, time=0),\n",
      "    Message('note_off', channel=9, note=36, velocity=106, time=4),\n",
      "    Message('note_off', channel=9, note=42, velocity=83, time=0),\n",
      "    Message('note_off', channel=15, note=61, velocity=121, time=172),\n",
      "    Message('note_off', channel=2, note=32, velocity=109, time=16),\n",
      "    Message('note_on', channel=9, note=46, velocity=89, time=0),\n",
      "    Message('note_on', channel=2, note=34, velocity=107, time=0),\n",
      "    Message('note_on', channel=15, note=58, velocity=124, time=0),\n",
      "    Message('note_off', channel=9, note=46, velocity=89, time=4),\n",
      "    Message('note_off', channel=2, note=34, velocity=107, time=84),\n",
      "    Message('note_off', channel=15, note=58, velocity=124, time=88),\n",
      "    Message('note_on', channel=9, note=42, velocity=83, time=16),\n",
      "    Message('note_on', channel=9, note=38, velocity=106, time=0),\n",
      "    Message('note_on', channel=9, note=39, velocity=80, time=0),\n",
      "    Message('note_on', channel=15, note=56, velocity=119, time=0),\n",
      "    Message('note_off', channel=9, note=39, velocity=80, time=4),\n",
      "    Message('note_off', channel=9, note=38, velocity=106, time=0),\n",
      "    Message('note_off', channel=9, note=42, velocity=83, time=0),\n",
      "    Message('note_off', channel=15, note=56, velocity=119, time=172),\n",
      "    Message('note_on', channel=9, note=46, velocity=87, time=16),\n",
      "    Message('note_on', channel=2, note=34, velocity=109, time=0),\n",
      "    Message('note_off', channel=9, note=46, velocity=87, time=4),\n",
      "    Message('note_off', channel=2, note=34, velocity=109, time=84),\n",
      "    Message('note_off', channel=3, note=61, velocity=89, time=8),\n",
      "    Message('note_off', channel=3, note=65, velocity=89, time=0),\n",
      "    Message('note_off', channel=3, note=58, velocity=91, time=0),\n",
      "    Message('note_off', channel=3, note=54, velocity=93, time=0),\n",
      "    Message('note_on', channel=2, note=34, velocity=108, time=0),\n",
      "    Message('note_off', channel=2, note=34, velocity=108, time=88),\n",
      "    Message('note_off', channel=7, note=80, velocity=81, time=8),\n",
      "    Message('note_off', channel=7, note=68, velocity=71, time=0),\n",
      "    Message('note_on', channel=9, note=42, velocity=83, time=0),\n",
      "    Message('note_on', channel=9, note=36, velocity=103, time=0),\n",
      "    Message('note_on', channel=2, note=27, velocity=109, time=0),\n",
      "    Message('note_on', channel=3, note=54, velocity=86, time=0),\n",
      "    Message('note_on', channel=3, note=58, velocity=87, time=0),\n",
      "    Message('note_on', channel=3, note=65, velocity=93, time=0),\n",
      "    Message('note_on', channel=3, note=61, velocity=91, time=0),\n",
      "    Message('note_on', channel=15, note=63, velocity=124, time=0),\n",
      "    Message('note_off', channel=9, note=36, velocity=103, time=4),\n",
      "    Message('note_off', channel=9, note=42, velocity=83, time=0),\n",
      "    Message('note_off', channel=2, note=27, velocity=109, time=84),\n",
      "    Message('note_off', channel=15, note=63, velocity=124, time=88),\n",
      "    Message('note_on', channel=9, note=46, velocity=90, time=16),\n",
      "    Message('note_on', channel=2, note=27, velocity=108, time=0),\n",
      "    Message('note_on', channel=7, note=65, velocity=73, time=0),\n",
      "    Message('note_on', channel=7, note=77, velocity=85, time=0),\n",
      "    Message('note_on', channel=15, note=63, velocity=119, time=0),\n",
      "    Message('note_off', channel=9, note=46, velocity=90, time=4),\n",
      "    Message('note_off', channel=15, note=63, velocity=119, time=84),\n",
      "    Message('note_off', channel=2, note=27, velocity=108, time=0),\n",
      "    Message('note_on', channel=2, note=27, velocity=110, time=8),\n",
      "    Message('note_off', channel=2, note=27, velocity=110, time=88),\n",
      "    Message('note_off', channel=7, note=77, velocity=85, time=8),\n",
      "    Message('note_off', channel=7, note=65, velocity=73, time=0),\n",
      "    Message('note_on', channel=9, note=42, velocity=83, time=0),\n",
      "    Message('note_on', channel=9, note=38, velocity=105, time=0),\n",
      "    Message('note_on', channel=9, note=39, velocity=85, time=0),\n",
      "    Message('note_on', channel=15, note=63, velocity=124, time=0),\n",
      "    Message('note_off', channel=9, note=39, velocity=85, time=4),\n",
      "    Message('note_off', channel=9, note=38, velocity=105, time=0),\n",
      "    Message('note_off', channel=9, note=42, velocity=83, time=0),\n",
      "    Message('note_off', channel=3, note=61, velocity=91, time=92),\n",
      "    Message('note_off', channel=3, note=65, velocity=93, time=0),\n",
      "    Message('note_off', channel=3, note=58, velocity=87, time=0),\n",
      "    Message('note_off', channel=3, note=54, velocity=86, time=0),\n",
      "    Message('note_on', channel=2, note=27, velocity=107, time=0),\n",
      "    Message('note_off', channel=15, note=63, velocity=124, time=80),\n",
      "    Message('note_off', channel=2, note=27, velocity=107, time=8),\n",
      "    Message('note_on', channel=9, note=46, velocity=88, time=8),\n",
      "    Message('note_on', channel=2, note=32, velocity=110, time=0),\n",
      "    Message('note_on', channel=3, note=56, velocity=91, time=0),\n",
      "    Message('note_on', channel=3, note=60, velocity=86, time=0),\n",
      "    Message('note_on', channel=3, note=63, velocity=88, time=0),\n",
      "    Message('note_on', channel=7, note=63, velocity=72, time=0),\n",
      "    Message('note_on', channel=7, note=75, velocity=83, time=0),\n",
      "    Message('note_on', channel=15, note=65, velocity=121, time=0),\n",
      "    Message('note_off', channel=9, note=46, velocity=88, time=4),\n",
      "    Message('note_off', channel=2, note=32, velocity=110, time=84),\n",
      "    Message('note_off', channel=15, note=65, velocity=121, time=88),\n",
      "    Message('note_off', channel=7, note=75, velocity=83, time=16),\n",
      "    Message('note_off', channel=7, note=63, velocity=72, time=0),\n",
      "    Message('note_on', channel=9, note=42, velocity=80, time=0),\n",
      "    Message('note_on', channel=9, note=36, velocity=108, time=0),\n",
      "    Message('note_on', channel=15, note=63, velocity=119, time=0),\n",
      "    Message('note_off', channel=9, note=36, velocity=108, time=4),\n",
      "    Message('note_off', channel=9, note=42, velocity=80, time=0),\n",
      "    Message('note_on', channel=9, note=45, velocity=84, time=92),\n",
      "    Message('note_off', channel=9, note=45, velocity=84, time=4),\n",
      "    Message('note_on', channel=9, note=46, velocity=87, time=92),\n",
      "    Message('note_on', channel=9, note=43, velocity=83, time=0),\n",
      "    Message('note_on', channel=2, note=32, velocity=111, time=0),\n",
      "    Message('note_on', channel=7, note=61, velocity=71, time=0),\n",
      "    Message('note_on', channel=7, note=73, velocity=82, time=0),\n",
      "    Message('note_off', channel=9, note=43, velocity=83, time=4),\n",
      "    Message('note_off', channel=9, note=46, velocity=87, time=0),\n",
      "    Message('note_off', channel=2, note=32, velocity=111, time=84),\n",
      "    Message('note_on', channel=9, note=43, velocity=87, time=8),\n",
      "    Message('note_on', channel=2, note=32, velocity=110, time=0),\n",
      "    Message('note_off', channel=9, note=43, velocity=87, time=4),\n",
      "    Message('note_off', channel=2, note=32, velocity=110, time=84),\n",
      "    Message('note_off', channel=7, note=73, velocity=82, time=8),\n",
      "    Message('note_off', channel=7, note=61, velocity=71, time=0),\n",
      "    Message('note_on', channel=9, note=42, velocity=80, time=0),\n",
      "    Message('note_on', channel=9, note=38, velocity=105, time=0),\n",
      "    Message('note_on', channel=9, note=43, velocity=81, time=0),\n",
      "    Message('note_on', channel=9, note=39, velocity=82, time=0),\n",
      "    Message('note_on', channel=2, note=32, velocity=108, time=0),\n",
      "    Message('note_off', channel=9, note=39, velocity=82, time=4),\n",
      "    Message('note_off', channel=9, note=43, velocity=81, time=0),\n",
      "    Message('note_off', channel=9, note=38, velocity=105, time=0),\n",
      "    Message('note_off', channel=9, note=42, velocity=80, time=0),\n",
      "    Message('note_off', channel=2, note=32, velocity=108, time=84),\n",
      "    Message('note_on', channel=9, note=46, velocity=92, time=104),\n",
      "    Message('note_on', channel=2, note=29, velocity=111, time=0),\n",
      "    Message('note_on', channel=7, note=58, velocity=72, time=0),\n",
      "    Message('note_on', channel=7, note=70, velocity=83, time=0),\n",
      "    Message('note_off', channel=9, note=46, velocity=92, time=4),\n",
      "    Message('note_off', channel=15, note=63, velocity=119, time=60),\n",
      "    Message('note_off', channel=2, note=29, velocity=111, time=24),\n",
      "    Message('note_off', channel=3, note=63, velocity=88, time=8),\n",
      "    Message('note_off', channel=3, note=60, velocity=86, time=0),\n",
      "    Message('note_off', channel=3, note=56, velocity=91, time=0),\n",
      "    Message('note_on', channel=2, note=32, velocity=109, time=0),\n",
      "    Message('note_off', channel=2, note=32, velocity=109, time=88),\n",
      "    Message('note_on', channel=9, note=42, velocity=81, time=8),\n",
      "    Message('note_on', channel=9, note=36, velocity=106, time=0),\n",
      "    Message('note_on', channel=2, note=34, velocity=111, time=0),\n",
      "    Message('note_on', channel=3, note=70, velocity=91, time=0),\n",
      "    Message('note_on', channel=3, note=63, velocity=86, time=0),\n",
      "    Message('note_on', channel=3, note=61, velocity=91, time=0),\n",
      "    Message('note_on', channel=3, note=66, velocity=93, time=0),\n",
      "    Message('note_on', channel=4, note=70, velocity=86, time=0),\n",
      "    Message('note_on', channel=4, note=63, velocity=86, time=0),\n",
      "    Message('note_on', channel=4, note=61, velocity=86, time=0),\n",
      "    Message('note_on', channel=4, note=66, velocity=83, time=0),\n",
      "    Message('note_on', channel=15, note=61, velocity=122, time=0),\n",
      "    Message('note_off', channel=9, note=36, velocity=106, time=4),\n",
      "    Message('note_off', channel=9, note=42, velocity=81, time=0),\n",
      "    Message('note_off', channel=2, note=34, velocity=111, time=84),\n",
      "    Message('note_on', channel=9, note=46, velocity=87, time=104),\n",
      "    Message('note_on', channel=2, note=34, velocity=108, time=0),\n",
      "    Message('note_off', channel=9, note=46, velocity=87, time=4),\n",
      "    Message('note_off', channel=2, note=34, velocity=108, time=84),\n",
      "    Message('note_on', channel=2, note=34, velocity=108, time=8),\n",
      "    Message('note_off', channel=2, note=34, velocity=108, time=88),\n",
      "    Message('note_on', channel=9, note=42, velocity=80, time=8),\n",
      "    Message('note_on', channel=9, note=38, velocity=106, time=0),\n",
      "    Message('note_on', channel=9, note=39, velocity=83, time=0),\n",
      "    Message('note_off', channel=9, note=39, velocity=83, time=4),\n",
      "    Message('note_off', channel=9, note=38, velocity=106, time=0),\n",
      "    Message('note_off', channel=9, note=42, velocity=80, time=0),\n",
      "    Message('note_on', channel=2, note=37, velocity=108, time=92),\n",
      "    Message('note_off', channel=2, note=37, velocity=108, time=88),\n",
      "    Message('note_on', channel=9, note=42, velocity=80, time=8),\n",
      "    Message('note_on', channel=2, note=36, velocity=107, time=0),\n",
      "    Message('note_off', channel=9, note=42, velocity=80, time=4),\n",
      "    Message('note_off', channel=2, note=36, velocity=107, time=84),\n",
      "    Message('note_on', channel=9, note=42, velocity=83, time=8),\n",
      "    Message('note_off', channel=9, note=42, velocity=83, time=4),\n",
      "    Message('note_on', channel=9, note=42, velocity=81, time=92),\n",
      "    Message('note_on', channel=9, note=36, velocity=107, time=0),\n",
      "    Message('note_on', channel=2, note=32, velocity=111, time=0),\n",
      "    Message('note_off', channel=9, note=36, velocity=107, time=4),\n",
      "    Message('note_off', channel=9, note=42, velocity=81, time=0),\n",
      "    Message('note_off', channel=15, note=61, velocity=122, time=156),\n",
      "    Message('note_off', channel=2, note=32, velocity=111, time=32),\n",
      "    Message('note_on', channel=9, note=46, velocity=92, time=0),\n",
      "    Message('note_on', channel=2, note=34, velocity=109, time=0),\n",
      "    Message('note_on', channel=15, note=63, velocity=122, time=0),\n",
      "    Message('note_off', channel=9, note=46, velocity=92, time=4),\n",
      "    Message('note_off', channel=2, note=34, velocity=109, time=84),\n",
      "    Message('note_off', channel=15, note=63, velocity=122, time=88),\n",
      "    Message('note_on', channel=9, note=42, velocity=82, time=16),\n",
      "    Message('note_on', channel=9, note=38, velocity=109, time=0),\n",
      "    Message('note_on', channel=9, note=39, velocity=87, time=0),\n",
      "    Message('note_on', channel=15, note=65, velocity=123, time=0),\n",
      "    Message('note_off', channel=9, note=39, velocity=87, time=4),\n",
      "    Message('note_off', channel=9, note=38, velocity=109, time=0),\n",
      "    Message('note_off', channel=9, note=42, velocity=82, time=0),\n",
      "    Message('note_off', channel=15, note=65, velocity=123, time=172),\n",
      "    Message('note_off', channel=7, note=70, velocity=83, time=16),\n",
      "    Message('note_off', channel=7, note=58, velocity=72, time=0),\n",
      "    Message('note_on', channel=9, note=46, velocity=87, time=0),\n",
      "    Message('note_on', channel=2, note=29, velocity=109, time=0),\n",
      "    Message('note_on', channel=15, note=61, velocity=119, time=0),\n",
      "    Message('note_off', channel=9, note=46, velocity=87, time=4),\n",
      "    Message('note_off', channel=2, note=29, velocity=109, time=84),\n",
      "    Message('note_off', channel=4, note=66, velocity=83, time=8),\n",
      "    Message('note_off', channel=4, note=61, velocity=86, time=0),\n",
      "    Message('note_off', channel=4, note=63, velocity=86, time=0),\n",
      "    Message('note_off', channel=4, note=70, velocity=86, time=0),\n",
      "    Message('note_off', channel=3, note=66, velocity=93, time=0),\n",
      "    Message('note_off', channel=3, note=61, velocity=91, time=0),\n",
      "    Message('note_off', channel=3, note=63, velocity=86, time=0),\n",
      "    Message('note_off', channel=3, note=70, velocity=91, time=0),\n",
      "    Message('note_on', channel=2, note=32, velocity=111, time=0),\n",
      "    Message('note_off', channel=15, note=61, velocity=119, time=80),\n",
      "    Message('note_off', channel=2, note=32, velocity=111, time=8),\n",
      "    Message('note_on', channel=9, note=42, velocity=85, time=8),\n",
      "    Message('note_on', channel=9, note=36, velocity=104, time=0),\n",
      "    Message('note_on', channel=2, note=34, velocity=109, time=0),\n",
      "    Message('note_on', channel=3, note=68, velocity=91, time=0),\n",
      "    Message('note_on', channel=3, note=63, velocity=90, time=0),\n",
      "    Message('note_on', channel=3, note=65, velocity=91, time=0),\n",
      "    Message('note_on', channel=3, note=60, velocity=91, time=0),\n",
      "    Message('note_on', channel=4, note=68, velocity=82, time=0),\n",
      "    Message('note_on', channel=4, note=63, velocity=85, time=0),\n",
      "    Message('note_on', channel=4, note=65, velocity=86, time=0),\n",
      "    Message('note_on', channel=4, note=60, velocity=82, time=0),\n",
      "    Message('note_on', channel=15, note=63, velocity=120, time=0),\n",
      "    Message('note_off', channel=9, note=36, velocity=104, time=4),\n",
      "    Message('note_off', channel=9, note=42, velocity=85, time=0),\n",
      "    Message('note_off', channel=15, note=63, velocity=120, time=84),\n",
      "    Message('note_off', channel=2, note=34, velocity=109, time=0),\n",
      "    Message('note_on', channel=9, note=46, velocity=89, time=104),\n",
      "    Message('note_on', channel=2, note=32, velocity=111, time=0),\n",
      "    Message('note_on', channel=15, note=63, velocity=123, time=0),\n",
      "    Message('note_off', channel=9, note=46, velocity=89, time=4),\n",
      "    Message('note_off', channel=15, note=63, velocity=123, time=84),\n",
      "    Message('note_off', channel=2, note=32, velocity=111, time=0),\n",
      "    Message('note_on', channel=2, note=34, velocity=109, time=8),\n",
      "    Message('note_off', channel=2, note=34, velocity=109, time=88),\n",
      "    Message('note_on', channel=9, note=42, velocity=84, time=8),\n",
      "    Message('note_on', channel=9, note=38, velocity=104, time=0),\n",
      "    Message('note_on', channel=9, note=39, velocity=83, time=0),\n",
      "    Message('note_on', channel=15, note=63, velocity=123, time=0),\n",
      "    Message('note_off', channel=9, note=39, velocity=83, time=4),\n",
      "    Message('note_off', channel=9, note=38, velocity=104, time=0),\n",
      "    Message('note_off', channel=9, note=42, velocity=84, time=0),\n",
      "    Message('note_on', channel=2, note=37, velocity=111, time=92),\n",
      "    Message('note_off', channel=15, note=63, velocity=123, time=80),\n",
      "    Message('note_off', channel=2, note=37, velocity=111, time=8),\n",
      "    Message('note_on', channel=9, note=46, velocity=91, time=8),\n",
      "    Message('note_on', channel=2, note=36, velocity=109, time=0),\n",
      "    Message('note_on', channel=15, note=65, velocity=123, time=0),\n",
      "    Message('note_off', channel=9, note=46, velocity=91, time=4),\n",
      "    Message('note_off', channel=2, note=36, velocity=109, time=84),\n",
      "    Message('note_off', channel=15, note=65, velocity=123, time=88),\n",
      "    Message('note_on', channel=9, note=42, velocity=82, time=16),\n",
      "    Message('note_on', channel=9, note=36, velocity=107, time=0),\n",
      "    Message('note_on', channel=15, note=63, velocity=121, time=0),\n",
      "    Message('note_off', channel=9, note=36, velocity=107, time=4),\n",
      "    Message('note_off', channel=9, note=42, velocity=82, time=0),\n",
      "    Message('note_off', channel=15, note=63, velocity=121, time=172),\n",
      "    Message('note_on', channel=9, note=46, velocity=90, time=16),\n",
      "    Message('note_on', channel=15, note=56, velocity=119, time=0),\n",
      "    Message('note_off', channel=9, note=46, velocity=90, time=4),\n",
      "    Message('note_off', channel=15, note=56, velocity=119, time=172),\n",
      "    Message('note_on', channel=9, note=42, velocity=85, time=16),\n",
      "    Message('note_on', channel=9, note=38, velocity=104, time=0),\n",
      "    Message('note_on', channel=9, note=39, velocity=87, time=0),\n",
      "    Message('note_on', channel=15, note=56, velocity=120, time=0),\n",
      "    Message('note_off', channel=9, note=39, velocity=87, time=4),\n",
      "    Message('note_off', channel=9, note=38, velocity=104, time=0),\n",
      "    Message('note_off', channel=9, note=42, velocity=85, time=0),\n",
      "    Message('note_on', channel=9, note=46, velocity=89, time=188),\n",
      "    Message('note_on', channel=2, note=29, velocity=109, time=0),\n",
      "    Message('note_off', channel=9, note=46, velocity=89, time=4),\n",
      "    Message('note_off', channel=2, note=29, velocity=109, time=84),\n",
      "    Message('note_off', channel=4, note=60, velocity=82, time=8),\n",
      "    Message('note_off', channel=4, note=65, velocity=86, time=0),\n",
      "    Message('note_off', channel=4, note=63, velocity=85, time=0),\n",
      "    Message('note_off', channel=4, note=68, velocity=82, time=0),\n",
      "    Message('note_off', channel=3, note=60, velocity=91, time=0),\n",
      "    Message('note_off', channel=3, note=65, velocity=91, time=0),\n",
      "    Message('note_off', channel=3, note=63, velocity=90, time=0),\n",
      "    Message('note_off', channel=3, note=68, velocity=91, time=0),\n",
      "    Message('note_on', channel=2, note=32, velocity=107, time=0),\n",
      "    Message('note_off', channel=15, note=56, velocity=120, time=64),\n",
      "    Message('note_off', channel=2, note=32, velocity=107, time=24),\n",
      "    Message('note_on', channel=9, note=42, velocity=80, time=8),\n",
      "    Message('note_on', channel=9, note=36, velocity=101, time=0),\n",
      "    Message('note_on', channel=2, note=34, velocity=107, time=0),\n",
      "    Message('note_on', channel=3, note=70, velocity=92, time=0),\n",
      "    Message('note_on', channel=3, note=61, velocity=92, time=0),\n",
      "    Message('note_on', channel=3, note=63, velocity=87, time=0),\n",
      "    Message('note_on', channel=3, note=66, velocity=89, time=0),\n",
      "    Message('note_on', channel=4, note=70, velocity=85, time=0),\n",
      "    Message('note_on', channel=4, note=61, velocity=83, time=0),\n",
      "    Message('note_on', channel=4, note=63, velocity=86, time=0),\n",
      "    Message('note_on', channel=4, note=66, velocity=82, time=0),\n",
      "    Message('note_off', channel=9, note=36, velocity=101, time=4),\n",
      "    Message('note_off', channel=9, note=42, velocity=80, time=0),\n",
      "    Message('note_off', channel=2, note=34, velocity=107, time=84),\n",
      "    Message('note_on', channel=9, note=46, velocity=92, time=104),\n",
      "    Message('note_on', channel=2, note=34, velocity=106, time=0),\n",
      "    Message('note_off', channel=9, note=46, velocity=92, time=4),\n",
      "    Message('note_off', channel=2, note=34, velocity=106, time=84),\n",
      "    Message('note_on', channel=2, note=34, velocity=107, time=8),\n",
      "    Message('note_off', channel=2, note=34, velocity=107, time=88),\n",
      "    Message('note_on', channel=9, note=42, velocity=82, time=8),\n",
      "    Message('note_on', channel=9, note=38, velocity=103, time=0),\n",
      "    Message('note_on', channel=9, note=39, velocity=83, time=0),\n",
      "    Message('note_off', channel=9, note=39, velocity=83, time=4),\n",
      "    Message('note_off', channel=9, note=38, velocity=103, time=0),\n",
      "    Message('note_off', channel=9, note=42, velocity=82, time=0),\n",
      "    Message('note_on', channel=2, note=37, velocity=107, time=92),\n",
      "    Message('note_off', channel=2, note=37, velocity=107, time=88),\n",
      "    Message('note_on', channel=9, note=42, velocity=85, time=8),\n",
      "    Message('note_on', channel=2, note=36, velocity=109, time=0),\n",
      "    Message('note_off', channel=9, note=42, velocity=85, time=4),\n",
      "    Message('note_off', channel=2, note=36, velocity=109, time=84),\n",
      "    Message('note_on', channel=9, note=42, velocity=85, time=8),\n",
      "    Message('note_off', channel=9, note=42, velocity=85, time=4),\n",
      "    Message('note_on', channel=9, note=42, velocity=82, time=92),\n",
      "    Message('note_on', channel=9, note=36, velocity=107, time=0),\n",
      "    Message('note_on', channel=2, note=32, velocity=109, time=0),\n",
      "    Message('note_on', channel=15, note=58, velocity=121, time=0),\n",
      "    Message('note_off', channel=9, note=36, velocity=107, time=4),\n",
      "    Message('note_off', channel=9, note=42, velocity=82, time=0),\n",
      "    Message('note_off', channel=2, note=32, velocity=109, time=84),\n",
      "    Message('note_off', channel=15, note=58, velocity=121, time=88),\n",
      "    Message('note_on', channel=9, note=46, velocity=89, time=16),\n",
      "    Message('note_on', channel=2, note=34, velocity=108, time=0),\n",
      "    Message('note_on', channel=15, note=60, velocity=123, time=0),\n",
      "    Message('note_off', channel=9, note=46, velocity=89, time=4),\n",
      "    Message('note_off', channel=2, note=34, velocity=108, time=84),\n",
      "    Message('note_off', channel=15, note=60, velocity=123, time=88),\n",
      "    Message('note_on', channel=9, note=42, velocity=84, time=16),\n",
      "    Message('note_on', channel=9, note=38, velocity=102, time=0),\n",
      "    Message('note_on', channel=9, note=39, velocity=81, time=0),\n",
      "    Message('note_on', channel=15, note=61, velocity=121, time=0),\n",
      "    Message('note_off', channel=9, note=39, velocity=81, time=4),\n",
      "    Message('note_off', channel=9, note=38, velocity=102, time=0),\n",
      "    Message('note_off', channel=9, note=42, velocity=84, time=0),\n",
      "    Message('note_off', channel=15, note=61, velocity=121, time=172),\n",
      "    Message('note_on', channel=9, note=46, velocity=89, time=16),\n",
      "    Message('note_on', channel=2, note=29, velocity=110, time=0),\n",
      "    Message('note_on', channel=15, note=58, velocity=120, time=0),\n",
      "    Message('note_off', channel=9, note=46, velocity=89, time=4),\n",
      "    Message('note_off', channel=2, note=29, velocity=110, time=84),\n",
      "    Message('note_off', channel=4, note=66, velocity=82, time=8),\n",
      "    Message('note_off', channel=4, note=63, velocity=86, time=0),\n",
      "    Message('note_off', channel=4, note=61, velocity=83, time=0),\n",
      "    Message('note_off', channel=4, note=70, velocity=85, time=0),\n",
      "    Message('note_off', channel=3, note=66, velocity=89, time=0),\n",
      "    Message('note_off', channel=3, note=63, velocity=87, time=0),\n",
      "    Message('note_off', channel=3, note=61, velocity=92, time=0),\n",
      "    Message('note_off', channel=3, note=70, velocity=92, time=0),\n",
      "    Message('note_on', channel=2, note=32, velocity=110, time=0),\n",
      "    Message('note_off', channel=15, note=58, velocity=120, time=80),\n",
      "    Message('note_off', channel=2, note=32, velocity=110, time=8),\n",
      "    Message('note_on', channel=9, note=42, velocity=83, time=8),\n",
      "    Message('note_on', channel=9, note=36, velocity=101, time=0),\n",
      "    Message('note_on', channel=2, note=34, velocity=109, time=0),\n",
      "    Message('note_on', channel=3, note=70, velocity=91, time=0),\n",
      "    Message('note_on', channel=3, note=63, velocity=89, time=0),\n",
      "    Message('note_on', channel=3, note=61, velocity=92, time=0),\n",
      "    Message('note_on', channel=3, note=66, velocity=86, time=0),\n",
      "    Message('note_on', channel=4, note=70, velocity=86, time=0),\n",
      "    Message('note_on', channel=4, note=63, velocity=85, time=0),\n",
      "    Message('note_on', channel=4, note=61, velocity=85, time=0),\n",
      "    Message('note_on', channel=4, note=66, velocity=86, time=0),\n",
      "    Message('note_off', channel=9, note=36, velocity=101, time=4),\n",
      "    Message('note_off', channel=9, note=42, velocity=83, time=0),\n",
      "    Message('note_off', channel=2, note=34, velocity=109, time=84),\n",
      "    Message('note_off', channel=4, note=66, velocity=86, time=104),\n",
      "    Message('note_off', channel=4, note=61, velocity=85, time=0),\n",
      "    Message('note_off', channel=4, note=63, velocity=85, time=0),\n",
      "    Message('note_off', channel=4, note=70, velocity=86, time=0),\n",
      "    Message('note_off', channel=3, note=66, velocity=86, time=0),\n",
      "    Message('note_off', channel=3, note=61, velocity=92, time=0),\n",
      "    Message('note_off', channel=3, note=63, velocity=89, time=0),\n",
      "    Message('note_off', channel=3, note=70, velocity=91, time=0),\n",
      "    Message('note_on', channel=9, note=46, velocity=89, time=0),\n",
      "    Message('note_on', channel=2, note=32, velocity=110, time=0),\n",
      "    Message('note_on', channel=15, note=63, velocity=122, time=0),\n",
      "    Message('note_off', channel=9, note=46, velocity=89, time=4),\n",
      "    Message('note_off', channel=2, note=32, velocity=110, time=84),\n",
      "    Message('note_on', channel=2, note=34, velocity=106, time=8),\n",
      "    Message('note_on', channel=3, note=70, velocity=89, time=0),\n",
      "    Message('note_on', channel=3, note=63, velocity=92, time=0),\n",
      "    Message('note_on', channel=3, note=61, velocity=87, time=0),\n",
      "    Message('note_on', channel=3, note=66, velocity=86, time=0),\n",
      "    Message('note_on', channel=4, note=70, velocity=83, time=0),\n",
      "    Message('note_on', channel=4, note=63, velocity=84, time=0),\n",
      "    Message('note_on', channel=4, note=61, velocity=86, time=0),\n",
      "    Message('note_on', channel=4, note=66, velocity=85, time=0),\n",
      "    Message('note_off', channel=15, note=63, velocity=122, time=80),\n",
      "    Message('note_off', channel=2, note=34, velocity=106, time=8),\n",
      "    Message('note_off', channel=4, note=66, velocity=85, time=8),\n",
      "    Message('note_off', channel=4, note=61, velocity=86, time=0),\n",
      "    Message('note_off', channel=4, note=63, velocity=84, time=0),\n",
      "    Message('note_off', channel=4, note=70, velocity=83, time=0),\n",
      "    Message('note_off', channel=3, note=66, velocity=86, time=0),\n",
      "    Message('note_off', channel=3, note=61, velocity=87, time=0),\n",
      "    Message('note_off', channel=3, note=63, velocity=92, time=0),\n",
      "    Message('note_off', channel=3, note=70, velocity=89, time=0),\n",
      "    Message('note_on', channel=9, note=42, velocity=83, time=0),\n",
      "    Message('note_on', channel=9, note=38, velocity=107, time=0),\n",
      "    Message('note_on', channel=9, note=39, velocity=80, time=0),\n",
      "    Message('note_on', channel=15, note=65, velocity=122, time=0),\n",
      "    Message('note_off', channel=9, note=39, velocity=80, time=4),\n",
      "    Message('note_off', channel=9, note=38, velocity=107, time=0),\n",
      "    Message('note_off', channel=9, note=42, velocity=83, time=0),\n",
      "    Message('note_on', channel=2, note=37, velocity=109, time=92),\n",
      "    Message('note_off', channel=15, note=65, velocity=122, time=80),\n",
      "    Message('note_off', channel=2, note=37, velocity=109, time=8),\n",
      "    Message('note_on', channel=9, note=46, velocity=88, time=8),\n",
      "    Message('note_on', channel=9, note=45, velocity=82, time=0),\n",
      "    Message('note_on', channel=2, note=36, velocity=111, time=0),\n",
      "    Message('note_on', channel=3, note=63, velocity=90, time=0),\n",
      "    Message('note_on', channel=3, note=68, velocity=89, time=0),\n",
      "    Message('note_on', channel=3, note=72, velocity=87, time=0),\n",
      "    Message('note_on', channel=4, note=63, velocity=85, time=0),\n",
      "    Message('note_on', channel=4, note=68, velocity=85, time=0),\n",
      "    Message('note_on', channel=4, note=72, velocity=86, time=0),\n",
      "    Message('note_on', channel=15, note=63, velocity=124, time=0),\n",
      "    Message('note_off', channel=9, note=45, velocity=82, time=4),\n",
      "    Message('note_off', channel=9, note=46, velocity=88, time=0),\n",
      "    Message('note_off', channel=2, note=36, velocity=111, time=84),\n",
      "    Message('note_on', channel=9, note=45, velocity=81, time=8),\n",
      "    Message('note_off', channel=9, note=45, velocity=81, time=4),\n",
      "    Message('note_on', channel=9, note=42, velocity=83, time=92),\n",
      "    Message('note_on', channel=9, note=36, velocity=106, time=0),\n",
      "    Message('note_on', channel=9, note=45, velocity=83, time=0),\n",
      "    Message('note_on', channel=9, note=39, velocity=84, time=0),\n",
      "    Message('note_off', channel=9, note=39, velocity=84, time=4),\n",
      "    Message('note_off', channel=9, note=45, velocity=83, time=0),\n",
      "    Message('note_off', channel=9, note=36, velocity=106, time=0),\n",
      "    Message('note_off', channel=9, note=42, velocity=83, time=0),\n",
      "    Message('note_on', channel=9, note=45, velocity=87, time=92),\n",
      "    Message('note_on', channel=9, note=39, velocity=80, time=0),\n",
      "    Message('note_off', channel=9, note=39, velocity=80, time=4),\n",
      "    Message('note_off', channel=9, note=45, velocity=87, time=0),\n",
      "    Message('note_on', channel=9, note=46, velocity=91, time=92),\n",
      "    Message('note_on', channel=9, note=43, velocity=87, time=0),\n",
      "    Message('note_on', channel=7, note=68, velocity=82, time=0),\n",
      "    Message('note_on', channel=7, note=80, velocity=107, time=0),\n",
      "    Message('note_on', channel=7, note=56, velocity=82, time=0),\n",
      "    Message('note_off', channel=9, note=43, velocity=87, time=4),\n",
      "    Message('note_off', channel=9, note=46, velocity=91, time=0),\n",
      "    Message('note_off', channel=7, note=56, velocity=82, time=60),\n",
      "    Message('note_off', channel=7, note=80, velocity=107, time=0),\n",
      "    Message('note_off', channel=7, note=68, velocity=82, time=0),\n",
      "    Message('note_off', channel=15, note=63, velocity=124, time=0),\n",
      "    Message('note_on', channel=9, note=43, velocity=86, time=32),\n",
      "    Message('note_on', channel=7, note=56, velocity=85, time=0),\n",
      "    Message('note_on', channel=7, note=68, velocity=110, time=0),\n",
      "    Message('note_on', channel=7, note=80, velocity=108, time=0),\n",
      "    Message('note_off', channel=9, note=43, velocity=86, time=4),\n",
      "    Message('note_off', channel=7, note=80, velocity=108, time=60),\n",
      "    Message('note_off', channel=7, note=68, velocity=110, time=0),\n",
      "    Message('note_off', channel=7, note=56, velocity=85, time=0),\n",
      "    Message('note_on', channel=9, note=42, velocity=85, time=32),\n",
      "    Message('note_on', channel=9, note=38, velocity=101, time=0),\n",
      "    Message('note_on', channel=9, note=45, velocity=87, time=0),\n",
      "    Message('note_on', channel=9, note=39, velocity=85, time=0),\n",
      "    Message('note_on', channel=15, note=56, velocity=124, time=0),\n",
      "    Message('note_off', channel=9, note=39, velocity=85, time=4),\n",
      "    Message('note_off', channel=9, note=45, velocity=87, time=0),\n",
      "    Message('note_off', channel=9, note=38, velocity=101, time=0),\n",
      "    Message('note_off', channel=9, note=42, velocity=85, time=0),\n",
      "    Message('note_off', channel=15, note=56, velocity=124, time=84),\n",
      "    Message('note_on', channel=9, note=45, velocity=80, time=8),\n",
      "    Message('note_on', channel=9, note=39, velocity=85, time=0),\n",
      "    Message('note_on', channel=15, note=58, velocity=122, time=0),\n",
      "    Message('note_off', channel=9, note=39, velocity=85, time=4),\n",
      "    Message('note_off', channel=9, note=45, velocity=80, time=0),\n",
      "    Message('note_off', channel=15, note=58, velocity=122, time=84),\n",
      "    Message('note_on', channel=9, note=46, velocity=90, time=8),\n",
      "    Message('note_on', channel=9, note=43, velocity=85, time=0),\n",
      "    Message('note_on', channel=2, note=29, velocity=110, time=0),\n",
      "    Message('note_on', channel=15, note=61, velocity=119, time=0),\n",
      "    Message('note_off', channel=9, note=43, velocity=85, time=4),\n",
      "    Message('note_off', channel=9, note=46, velocity=90, time=0),\n",
      "    Message('note_off', channel=15, note=61, velocity=119, time=84),\n",
      "    Message('note_off', channel=2, note=29, velocity=110, time=0),\n",
      "    Message('note_off', channel=3, note=72, velocity=87, time=8),\n",
      "    Message('note_off', channel=3, note=68, velocity=89, time=0),\n",
      "    Message('note_off', channel=3, note=63, velocity=90, time=0),\n",
      "    Message('note_on', channel=9, note=43, velocity=86, time=0),\n",
      "    Message('note_on', channel=2, note=32, velocity=106, time=0),\n",
      "    Message('note_on', channel=15, note=58, velocity=122, time=0),\n",
      "    Message('note_off', channel=9, note=43, velocity=86, time=4),\n",
      "    Message('note_off', channel=15, note=58, velocity=122, time=84),\n",
      "    Message('note_off', channel=2, note=32, velocity=106, time=0),\n",
      "    Message('note_off', channel=4, note=72, velocity=86, time=8),\n",
      "    Message('note_off', channel=4, note=68, velocity=85, time=0),\n",
      "    Message('note_off', channel=4, note=63, velocity=85, time=0),\n",
      "    Message('note_on', channel=9, note=42, velocity=85, time=0),\n",
      "    Message('note_on', channel=9, note=36, velocity=103, time=0),\n",
      "    Message('note_on', channel=2, note=27, velocity=109, time=0),\n",
      "    Message('note_on', channel=3, note=61, velocity=89, time=0),\n",
      "    Message('note_on', channel=3, note=65, velocity=91, time=0),\n",
      "    Message('note_on', channel=3, note=58, velocity=91, time=0),\n",
      "    Message('note_on', channel=8, note=85, velocity=98, time=0),\n",
      "    Message('note_on', channel=13, note=65, velocity=88, time=0),\n",
      "    Message('note_on', channel=13, note=68, velocity=85, time=0),\n",
      "    Message('note_on', channel=13, note=73, velocity=84, time=0),\n",
      "    Message('note_on', channel=15, note=65, velocity=122, time=0),\n",
      "    Message('note_off', channel=9, note=36, velocity=103, time=4),\n",
      "    Message('note_off', channel=9, note=42, velocity=85, time=0),\n",
      "    Message('note_off', channel=2, note=27, velocity=109, time=84),\n",
      "    Message('note_on', channel=9, note=46, velocity=89, time=104),\n",
      "    Message('note_on', channel=2, note=27, velocity=111, time=0),\n",
      "    Message('note_off', channel=9, note=46, velocity=89, time=4),\n",
      "    Message('note_off', channel=15, note=65, velocity=122, time=68),\n",
      "    Message('note_off', channel=2, note=27, velocity=111, time=16),\n",
      "    Message('note_off', channel=13, note=73, velocity=84, time=0),\n",
      "    Message('note_off', channel=13, note=68, velocity=85, time=0),\n",
      "    Message('note_off', channel=13, note=65, velocity=88, time=0),\n",
      "    Message('note_on', channel=2, note=27, velocity=107, time=8),\n",
      "    Message('note_off', channel=2, note=27, velocity=107, time=88),\n",
      "    Message('note_on', channel=9, note=42, velocity=83, time=8),\n",
      "    Message('note_on', channel=9, note=38, velocity=108, time=0),\n",
      "    Message('note_on', channel=9, note=39, velocity=82, time=0),\n",
      "    Message('note_on', channel=13, note=65, velocity=82, time=0),\n",
      "    Message('note_on', channel=13, note=73, velocity=88, time=0),\n",
      "    Message('note_on', channel=13, note=68, velocity=88, time=0),\n",
      "    Message('note_on', channel=15, note=65, velocity=120, time=0),\n",
      "    Message('note_off', channel=9, note=39, velocity=82, time=4),\n",
      "    Message('note_off', channel=9, note=38, velocity=108, time=0),\n",
      "    Message('note_off', channel=9, note=42, velocity=83, time=0),\n",
      "    Message('note_off', channel=3, note=58, velocity=91, time=92),\n",
      "    Message('note_off', channel=3, note=65, velocity=91, time=0),\n",
      "    Message('note_off', channel=3, note=61, velocity=89, time=0),\n",
      "    Message('note_on', channel=2, note=36, velocity=111, time=0),\n",
      "    Message('note_off', channel=8, note=85, velocity=98, time=48),\n",
      "    Message('note_off', channel=15, note=65, velocity=120, time=32),\n",
      "    Message('note_off', channel=2, note=36, velocity=111, time=8),\n",
      "    Message('note_off', channel=13, note=68, velocity=88, time=0),\n",
      "    Message('note_off', channel=13, note=73, velocity=88, time=0),\n",
      "    Message('note_off', channel=13, note=65, velocity=82, time=0),\n",
      "    Message('note_on', channel=9, note=42, velocity=84, time=8),\n",
      "    Message('note_on', channel=2, note=34, velocity=109, time=0),\n",
      "    Message('note_on', channel=3, note=63, velocity=93, time=0),\n",
      "    Message('note_on', channel=3, note=60, velocity=91, time=0),\n",
      "    Message('note_on', channel=3, note=56, velocity=90, time=0),\n",
      "    Message('note_on', channel=8, note=87, velocity=99, time=0),\n",
      "    Message('note_on', channel=13, note=68, velocity=82, time=0),\n",
      "    Message('note_on', channel=13, note=63, velocity=85, time=0),\n",
      "    Message('note_on', channel=13, note=72, velocity=84, time=0),\n",
      "    Message('note_on', channel=15, note=63, velocity=119, time=0),\n",
      "    Message('note_off', channel=9, note=42, velocity=84, time=4),\n",
      "    Message('note_off', channel=2, note=34, velocity=109, time=84),\n",
      "    Message('note_on', channel=9, note=42, velocity=84, time=8),\n",
      "    Message('note_off', channel=9, note=42, velocity=84, time=4),\n",
      "    Message('note_off', channel=13, note=72, velocity=84, time=84),\n",
      "    Message('note_off', channel=13, note=63, velocity=85, time=0),\n",
      "    Message('note_off', channel=13, note=68, velocity=82, time=0),\n",
      "    Message('note_on', channel=9, note=42, velocity=81, time=8),\n",
      "    Message('note_on', channel=9, note=36, velocity=109, time=0),\n",
      "    Message('note_on', channel=2, note=32, velocity=109, time=0),\n",
      "    Message('note_off', channel=9, note=36, velocity=109, time=4),\n",
      "    Message('note_off', channel=9, note=42, velocity=81, time=0),\n",
      "    Message('note_off', channel=2, note=32, velocity=109, time=84),\n",
      "    Message('note_on', channel=9, note=46, velocity=89, time=104),\n",
      "    Message('note_on', channel=2, note=32, velocity=106, time=0),\n",
      "    Message('note_off', channel=9, note=46, velocity=89, time=4),\n",
      "    Message('note_off', channel=2, note=32, velocity=106, time=84),\n",
      "    Message('note_off', channel=8, note=87, velocity=99, time=56),\n",
      "    Message('note_off', channel=15, note=63, velocity=119, time=16),\n",
      "    Message('note_on', channel=9, note=42, velocity=84, time=32),\n",
      "    Message('note_on', channel=9, note=38, velocity=107, time=0),\n",
      "    Message('note_on', channel=9, note=39, velocity=81, time=0),\n",
      "    Message('note_on', channel=8, note=80, velocity=99, time=0),\n",
      "    Message('note_on', channel=15, note=56, velocity=121, time=0),\n",
      "    Message('note_off', channel=9, note=39, velocity=81, time=4),\n",
      "    Message('note_off', channel=9, note=38, velocity=107, time=0),\n",
      "    Message('note_off', channel=9, note=42, velocity=84, time=0),\n",
      "    Message('note_off', channel=15, note=56, velocity=121, time=84),\n",
      "    Message('note_on', channel=15, note=58, velocity=124, time=8),\n",
      "    Message('note_off', channel=15, note=58, velocity=124, time=88),\n",
      "    Message('note_on', channel=9, note=46, velocity=87, time=8),\n",
      "    Message('note_on', channel=2, note=29, velocity=109, time=0),\n",
      "    Message('note_on', channel=15, note=61, velocity=119, time=0),\n",
      "    Message('note_off', channel=9, note=46, velocity=87, time=4),\n",
      "    Message('note_off', channel=15, note=61, velocity=119, time=84),\n",
      "    Message('note_off', channel=2, note=29, velocity=109, time=0),\n",
      "    Message('note_off', channel=3, note=56, velocity=90, time=8),\n",
      "    Message('note_off', channel=3, note=60, velocity=91, time=0),\n",
      "    Message('note_off', channel=3, note=63, velocity=93, time=0),\n",
      "    Message('note_on', channel=2, note=32, velocity=109, time=0),\n",
      "    Message('note_on', channel=15, note=58, velocity=123, time=0),\n",
      "    Message('note_off', channel=8, note=80, velocity=99, time=64),\n",
      "    Message('note_off', channel=15, note=58, velocity=123, time=24),\n",
      "    Message('note_off', channel=2, note=32, velocity=109, time=0),\n",
      "    Message('note_on', channel=9, note=42, velocity=83, time=8),\n",
      "    Message('note_on', channel=9, note=36, velocity=101, time=0),\n",
      "    Message('note_on', channel=2, note=29, velocity=111, time=0),\n",
      "    Message('note_on', channel=3, note=56, velocity=86, time=0),\n",
      "    Message('note_on', channel=3, note=60, velocity=89, time=0),\n",
      "    Message('note_on', channel=3, note=53, velocity=92, time=0),\n",
      "    Message('note_on', channel=8, note=87, velocity=99, time=0),\n",
      "    Message('note_on', channel=13, note=63, velocity=87, time=0),\n",
      "    Message('note_on', channel=13, note=72, velocity=82, time=0),\n",
      "    Message('note_on', channel=13, note=68, velocity=85, time=0),\n",
      "    Message('note_on', channel=15, note=63, velocity=123, time=0),\n",
      "    Message('note_off', channel=9, note=36, velocity=101, time=4),\n",
      "    Message('note_off', channel=9, note=42, velocity=83, time=0),\n",
      "    Message('note_off', channel=2, note=29, velocity=111, time=84),\n",
      "    Message('note_on', channel=9, note=46, velocity=88, time=104),\n",
      "    Message('note_on', channel=2, note=29, velocity=106, time=0),\n",
      "    Message('note_off', channel=9, note=46, velocity=88, time=4),\n",
      "    Message('note_off', channel=15, note=63, velocity=123, time=68),\n",
      "    Message('note_off', channel=2, note=29, velocity=106, time=16),\n",
      "    Message('note_off', channel=13, note=68, velocity=85, time=0),\n",
      "    Message('note_off', channel=13, note=72, velocity=82, time=0),\n",
      "    Message('note_off', channel=13, note=63, velocity=87, time=0),\n",
      "    Message('note_on', channel=2, note=29, velocity=107, time=8),\n",
      "    Message('note_off', channel=2, note=29, velocity=107, time=88),\n",
      "    Message('note_on', channel=9, note=42, velocity=83, time=8),\n",
      "    Message('note_on', channel=9, note=38, velocity=101, time=0),\n",
      "    Message('note_on', channel=9, note=39, velocity=83, time=0),\n",
      "    Message('note_on', channel=13, note=63, velocity=88, time=0),\n",
      "    Message('note_on', channel=13, note=72, velocity=88, time=0),\n",
      "    Message('note_on', channel=13, note=68, velocity=83, time=0),\n",
      "    Message('note_on', channel=15, note=63, velocity=123, time=0),\n",
      "    Message('note_off', channel=9, note=39, velocity=83, time=4),\n",
      "    Message('note_off', channel=9, note=38, velocity=101, time=0),\n",
      "    Message('note_off', channel=9, note=42, velocity=83, time=0),\n",
      "    Message('note_off', channel=3, note=53, velocity=92, time=92),\n",
      "    Message('note_off', channel=3, note=60, velocity=89, time=0),\n",
      "    Message('note_off', channel=3, note=56, velocity=86, time=0),\n",
      "    Message('note_on', channel=2, note=36, velocity=107, time=0),\n",
      "    Message('note_off', channel=8, note=87, velocity=99, time=48),\n",
      "    Message('note_off', channel=15, note=63, velocity=123, time=32),\n",
      "    Message('note_off', channel=2, note=36, velocity=107, time=8),\n",
      "    Message('note_off', channel=13, note=68, velocity=83, time=0),\n",
      "    Message('note_off', channel=13, note=72, velocity=88, time=0),\n",
      "    Message('note_off', channel=13, note=63, velocity=88, time=0),\n",
      "    Message('note_on', channel=9, note=46, velocity=88, time=8),\n",
      "    Message('note_on', channel=2, note=34, velocity=108, time=0),\n",
      "    Message('note_on', channel=3, note=61, velocity=90, time=0),\n",
      "    Message('note_on', channel=3, note=65, velocity=90, time=0),\n",
      "    Message('note_on', channel=3, note=58, velocity=86, time=0),\n",
      "    Message('note_on', channel=8, note=89, velocity=94, time=0),\n",
      "    Message('note_on', channel=13, note=61, velocity=88, time=0),\n",
      "    Message('note_on', channel=13, note=70, velocity=82, time=0),\n",
      "    Message('note_on', channel=13, note=65, velocity=86, time=0),\n",
      "    Message('note_on', channel=15, note=61, velocity=124, time=0),\n",
      "    Message('note_off', channel=9, note=46, velocity=88, time=4),\n",
      "    Message('note_off', channel=2, note=34, velocity=108, time=84),\n",
      "    Message('note_off', channel=13, note=65, velocity=86, time=96),\n",
      "    Message('note_off', channel=13, note=70, velocity=82, time=0),\n",
      "    Message('note_off', channel=13, note=61, velocity=88, time=0),\n",
      "    Message('note_on', channel=9, note=42, velocity=80, time=8),\n",
      "    Message('note_on', channel=9, note=36, velocity=102, time=0),\n",
      "    Message('note_off', channel=9, note=36, velocity=102, time=4),\n",
      "    Message('note_off', channel=9, note=42, velocity=80, time=0),\n",
      "    Message('note_off', channel=15, note=61, velocity=124, time=68),\n",
      "    Message('note_on', channel=15, note=60, velocity=119, time=24),\n",
      "    Message('note_off', channel=15, note=60, velocity=119, time=88),\n",
      "    Message('note_on', channel=9, note=46, velocity=88, time=8),\n",
      "    Message('note_on', channel=2, note=34, velocity=109, time=0),\n",
      "    Message('note_on', channel=15, note=58, velocity=123, time=0),\n",
      "    Message('note_off', channel=9, note=46, velocity=88, time=4),\n",
      "    Message('note_off', channel=2, note=34, velocity=109, time=84),\n",
      "    Message('note_on', channel=2, note=34, velocity=106, time=8),\n",
      "    Message('note_off', channel=8, note=89, velocity=94, time=48),\n",
      "    Message('note_off', channel=15, note=58, velocity=123, time=32),\n",
      "    Message('note_off', channel=2, note=34, velocity=106, time=8),\n",
      "    Message('note_on', channel=9, note=42, velocity=81, time=8),\n",
      "    Message('note_on', channel=9, note=38, velocity=101, time=0),\n",
      "    Message('note_on', channel=9, note=39, velocity=81, time=0),\n",
      "    Message('note_on', channel=2, note=34, velocity=109, time=0),\n",
      "    Message('note_on', channel=8, note=92, velocity=95, time=0),\n",
      "    Message('note_on', channel=15, note=56, velocity=122, time=0),\n",
      "    Message('note_off', channel=9, note=39, velocity=81, time=4),\n",
      "    Message('note_off', channel=9, note=38, velocity=101, time=0),\n",
      "    Message('note_off', channel=9, note=42, velocity=81, time=0),\n",
      "    Message('note_off', channel=15, note=56, velocity=122, time=84),\n",
      "    Message('note_off', channel=8, note=92, velocity=95, time=0),\n",
      "    Message('note_off', channel=2, note=34, velocity=109, time=0),\n",
      "    Message('note_on', channel=2, note=36, velocity=108, time=8),\n",
      "    Message('note_on', channel=8, note=90, velocity=98, time=0),\n",
      "    Message('note_on', channel=15, note=58, velocity=122, time=0),\n",
      "    Message('note_off', channel=15, note=58, velocity=122, time=88),\n",
      "    Message('note_off', channel=8, note=90, velocity=98, time=0),\n",
      "    Message('note_off', channel=2, note=36, velocity=108, time=0),\n",
      "    Message('note_on', channel=9, note=46, velocity=92, time=8),\n",
      "    Message('note_on', channel=8, note=89, velocity=98, time=0),\n",
      "    Message('note_on', channel=15, note=61, velocity=119, time=0),\n",
      "    Message('note_off', channel=9, note=46, velocity=92, time=4),\n",
      "    Message('note_off', channel=15, note=61, velocity=119, time=84),\n",
      "    Message('note_off', channel=8, note=89, velocity=98, time=0),\n",
      "    Message('note_off', channel=3, note=58, velocity=86, time=8),\n",
      "    Message('note_off', channel=3, note=65, velocity=90, time=0),\n",
      "    Message('note_off', channel=3, note=61, velocity=90, time=0),\n",
      "    Message('note_on', channel=2, note=34, velocity=111, time=0),\n",
      "    Message('note_on', channel=8, note=85, velocity=97, time=0),\n",
      "    Message('note_on', channel=15, note=58, velocity=122, time=0),\n",
      "    Message('note_off', channel=15, note=58, velocity=122, time=88),\n",
      "    Message('note_off', channel=2, note=34, velocity=111, time=0),\n",
      "    Message('note_on', channel=9, note=42, velocity=84, time=8),\n",
      "    Message('note_on', channel=9, note=36, velocity=109, time=0),\n",
      "    Message('note_on', channel=2, note=27, velocity=111, time=0),\n",
      "    Message('note_on', channel=3, note=61, velocity=88, time=0),\n",
      "    Message('note_on', channel=3, note=65, velocity=88, time=0),\n",
      "    Message('note_on', channel=3, note=58, velocity=91, time=0),\n",
      "    Message('note_on', channel=15, note=61, velocity=124, time=0),\n",
      "    Message('note_off', channel=9, note=36, velocity=109, time=4),\n",
      "    Message('note_off', channel=9, note=42, velocity=84, time=0),\n",
      "    Message('note_off', channel=2, note=27, velocity=111, time=84),\n",
      "    Message('note_on', channel=9, note=46, velocity=88, time=104),\n",
      "    Message('note_on', channel=2, note=27, velocity=107, time=0),\n",
      "    Message('note_off', channel=9, note=46, velocity=88, time=4),\n",
      "    Message('note_off', channel=2, note=27, velocity=107, time=84),\n",
      "    Message('note_on', channel=2, note=27, velocity=106, time=8),\n",
      "    Message('note_off', channel=15, note=61, velocity=124, time=64),\n",
      "    Message('note_off', channel=2, note=27, velocity=106, time=24),\n",
      "    Message('note_on', channel=9, note=42, velocity=84, time=8),\n",
      "    Message('note_on', channel=9, note=38, velocity=107, time=0),\n",
      "    Message('note_on', channel=9, note=39, velocity=82, time=0),\n",
      "    Message('note_on', channel=15, note=63, velocity=119, time=0),\n",
      "    Message('note_off', channel=9, note=39, velocity=82, time=4),\n",
      "    Message('note_off', channel=9, note=38, velocity=107, time=0),\n",
      "    Message('note_off', channel=9, note=42, velocity=84, time=0),\n",
      "    Message('note_off', channel=3, note=58, velocity=91, time=92),\n",
      "    Message('note_off', channel=3, note=65, velocity=88, time=0),\n",
      "    Message('note_off', channel=3, note=61, velocity=88, time=0),\n",
      "    Message('note_on', channel=2, note=36, velocity=106, time=0),\n",
      "    Message('note_off', channel=8, note=85, velocity=97, time=48),\n",
      "    Message('note_off', channel=15, note=63, velocity=119, time=32),\n",
      "    Message('note_off', channel=2, note=36, velocity=106, time=8),\n",
      "    Message('note_on', channel=9, note=42, velocity=80, time=8),\n",
      "    Message('note_on', channel=2, note=34, velocity=108, time=0),\n",
      "    Message('note_on', channel=3, note=63, velocity=92, time=0),\n",
      "    Message('note_on', channel=3, note=60, velocity=93, time=0),\n",
      "    Message('note_on', channel=3, note=56, velocity=89, time=0),\n",
      "    Message('note_on', channel=8, note=87, velocity=96, time=0),\n",
      "    Message('note_on', channel=15, note=60, velocity=124, time=0),\n",
      "    Message('note_off', channel=9, note=42, velocity=80, time=4),\n",
      "    Message('note_off', channel=2, note=34, velocity=108, time=84),\n",
      "    Message('note_on', channel=9, note=42, velocity=83, time=8),\n",
      "    Message('note_off', channel=9, note=42, velocity=83, time=4),\n",
      "    Message('note_on', channel=9, note=42, velocity=83, time=92),\n",
      "    Message('note_on', channel=9, note=36, velocity=105, time=0),\n",
      "    Message('note_on', channel=2, note=32, velocity=109, time=0),\n",
      "    Message('note_off', channel=9, note=36, velocity=105, time=4),\n",
      "    Message('note_off', channel=9, note=42, velocity=83, time=0),\n",
      "    Message('note_off', channel=15, note=60, velocity=124, time=68),\n",
      "    Message('note_off', channel=2, note=32, velocity=109, time=16),\n",
      "    Message('note_on', channel=15, note=58, velocity=121, time=8),\n",
      "    Message('note_off', channel=15, note=58, velocity=121, time=88),\n",
      "    Message('note_on', channel=9, note=46, velocity=90, time=8),\n",
      "    Message('note_on', channel=2, note=32, velocity=108, time=0),\n",
      "    Message('note_on', channel=15, note=56, velocity=120, time=0),\n",
      "    Message('note_off', channel=9, note=46, velocity=90, time=4),\n",
      "    Message('note_off', channel=2, note=32, velocity=108, time=84),\n",
      "    Message('note_off', channel=8, note=87, velocity=96, time=56),\n",
      "    Message('note_off', channel=15, note=56, velocity=120, time=32),\n",
      "    Message('note_on', channel=9, note=42, velocity=83, time=16),\n",
      "    Message('note_on', channel=9, note=38, velocity=107, time=0),\n",
      "    Message('note_on', channel=9, note=39, velocity=85, time=0),\n",
      "    Message('note_on', channel=8, note=80, velocity=98, time=0),\n",
      "    Message('note_on', channel=15, note=56, velocity=124, time=0),\n",
      "    Message('note_off', channel=9, note=39, velocity=85, time=4),\n",
      "    Message('note_off', channel=9, note=38, velocity=107, time=0),\n",
      "    Message('note_off', channel=9, note=42, velocity=83, time=0),\n",
      "    Message('note_off', channel=15, note=56, velocity=124, time=172),\n",
      "    Message('note_on', channel=9, note=46, velocity=90, time=16),\n",
      "    Message('note_on', channel=2, note=32, velocity=110, time=0),\n",
      "    Message('note_on', channel=15, note=63, velocity=120, time=0),\n",
      "    Message('note_off', channel=9, note=46, velocity=90, time=4),\n",
      "    Message('note_off', channel=2, note=32, velocity=110, time=84),\n",
      "    Message('note_off', channel=3, note=56, velocity=89, time=8),\n",
      "    Message('note_off', channel=3, note=60, velocity=93, time=0),\n",
      "    Message('note_off', channel=3, note=63, velocity=92, time=0),\n",
      "    Message('note_on', channel=2, note=32, velocity=109, time=0),\n",
      "    Message('note_off', channel=2, note=32, velocity=109, time=88),\n",
      "    Message('note_on', channel=9, note=42, velocity=85, time=8),\n",
      "    Message('note_on', channel=9, note=36, velocity=107, time=0),\n",
      "    Message('note_on', channel=2, note=29, velocity=109, time=0),\n",
      "    Message('note_on', channel=3, note=56, velocity=92, time=0),\n",
      "    Message('note_on', channel=3, note=60, velocity=90, time=0),\n",
      "    Message('note_on', channel=3, note=53, velocity=90, time=0),\n",
      "    Message('note_on', channel=13, note=63, velocity=88, time=0),\n",
      "    Message('note_on', channel=13, note=68, velocity=86, time=0),\n",
      "    Message('note_on', channel=13, note=72, velocity=85, time=0),\n",
      "    Message('note_off', channel=9, note=36, velocity=107, time=4),\n",
      "    Message('note_off', channel=9, note=42, velocity=85, time=0),\n",
      "    Message('note_off', channel=2, note=29, velocity=109, time=84),\n",
      "    Message('note_on', channel=9, note=46, velocity=91, time=104),\n",
      "    Message('note_on', channel=2, note=29, velocity=107, time=0),\n",
      "    Message('note_off', channel=9, note=46, velocity=91, time=4),\n",
      "    Message('note_off', channel=2, note=29, velocity=107, time=84),\n",
      "    Message('note_off', channel=13, note=72, velocity=85, time=0),\n",
      "    Message('note_off', channel=13, note=68, velocity=86, time=0),\n",
      "    Message('note_off', channel=13, note=63, velocity=88, time=0),\n",
      "    Message('note_on', channel=2, note=29, velocity=110, time=8),\n",
      "    Message('note_off', channel=15, note=63, velocity=120, time=64),\n",
      "    Message('note_off', channel=2, note=29, velocity=110, time=24),\n",
      "    Message('note_on', channel=9, note=42, velocity=82, time=8),\n",
      "    Message('note_on', channel=9, note=38, velocity=104, time=0),\n",
      "    Message('note_on', channel=9, note=39, velocity=82, time=0),\n",
      "    Message('note_on', channel=13, note=65, velocity=83, time=0),\n",
      "    Message('note_on', channel=13, note=70, velocity=83, time=0),\n",
      "    Message('note_on', channel=13, note=73, velocity=84, time=0),\n",
      "    Message('note_on', channel=15, note=61, velocity=123, time=0),\n",
      "    Message('note_off', channel=9, note=39, velocity=82, time=4),\n",
      "    Message('note_off', channel=9, note=38, velocity=104, time=0),\n",
      "    Message('note_off', channel=9, note=42, velocity=82, time=0),\n",
      "    Message('note_off', channel=3, note=53, velocity=90, time=92),\n",
      "    Message('note_off', channel=3, note=60, velocity=90, time=0),\n",
      "    Message('note_off', channel=3, note=56, velocity=92, time=0),\n",
      "    Message('note_on', channel=2, note=36, velocity=109, time=0),\n",
      "    Message('note_off', channel=2, note=36, velocity=109, time=88),\n",
      "    Message('note_on', channel=9, note=46, velocity=88, time=8),\n",
      "    Message('note_on', channel=2, note=34, velocity=111, time=0),\n",
      "    Message('note_on', channel=3, note=61, velocity=92, time=0),\n",
      "    Message('note_on', channel=3, note=65, velocity=86, time=0),\n",
      "    Message('note_on', channel=3, note=58, velocity=89, time=0),\n",
      "    Message('note_off', channel=9, note=46, velocity=88, time=4),\n",
      "    Message('note_off', channel=2, note=34, velocity=111, time=84),\n",
      "    Message('note_on', channel=9, note=42, velocity=84, time=104),\n",
      "    Message('note_on', channel=9, note=36, velocity=107, time=0),\n",
      "    Message('note_off', channel=9, note=36, velocity=107, time=4),\n",
      "    Message('note_off', channel=9, note=42, velocity=84, time=0),\n",
      "    Message('note_off', channel=8, note=80, velocity=98, time=140),\n",
      "    Message('note_on', channel=9, note=46, velocity=92, time=48),\n",
      "    Message('note_on', channel=2, note=32, velocity=107, time=0),\n",
      "    Message('note_on', channel=7, note=68, velocity=82, time=0),\n",
      "    Message('note_on', channel=7, note=80, velocity=108, time=0),\n",
      "    Message('note_on', channel=7, note=56, velocity=82, time=0),\n",
      "    Message('note_off', channel=9, note=46, velocity=92, time=4),\n",
      "    Message('note_off', channel=7, note=56, velocity=82, time=60),\n",
      "    Message('note_off', channel=7, note=80, velocity=108, time=0),\n",
      "    Message('note_off', channel=7, note=68, velocity=82, time=0),\n",
      "    Message('note_off', channel=2, note=32, velocity=107, time=24),\n",
      "    Message('note_on', channel=7, note=68, velocity=81, time=8),\n",
      "    Message('note_on', channel=7, note=80, velocity=109, time=0),\n",
      "    Message('note_on', channel=7, note=56, velocity=82, time=0),\n",
      "    Message('note_off', channel=7, note=56, velocity=82, time=64),\n",
      "    Message('note_off', channel=7, note=80, velocity=109, time=0),\n",
      "    Message('note_off', channel=7, note=68, velocity=81, time=0),\n",
      "    Message('note_off', channel=15, note=61, velocity=123, time=0),\n",
      "    Message('note_on', channel=9, note=42, velocity=80, time=32),\n",
      "    Message('note_on', channel=9, note=38, velocity=102, time=0),\n",
      "    Message('note_on', channel=9, note=39, velocity=81, time=0),\n",
      "    Message('note_on', channel=2, note=32, velocity=107, time=0),\n",
      "    Message('note_on', channel=8, note=92, velocity=96, time=0),\n",
      "    Message('note_on', channel=15, note=56, velocity=123, time=0),\n",
      "    Message('note_off', channel=9, note=39, velocity=81, time=4),\n",
      "    Message('note_off', channel=9, note=38, velocity=102, time=0),\n",
      "    Message('note_off', channel=9, note=42, velocity=80, time=0),\n",
      "    Message('note_off', channel=15, note=56, velocity=123, time=84),\n",
      "    Message('note_off', channel=8, note=92, velocity=96, time=0),\n",
      "    Message('note_off', channel=2, note=32, velocity=107, time=0),\n",
      "    Message('note_off', channel=13, note=73, velocity=84, time=0),\n",
      "    Message('note_off', channel=13, note=70, velocity=83, time=0),\n",
      "    Message('note_off', channel=13, note=65, velocity=83, time=0),\n",
      "    Message('note_on', channel=2, note=32, velocity=111, time=8),\n",
      "    Message('note_on', channel=8, note=90, velocity=94, time=0),\n",
      "    Message('note_on', channel=15, note=58, velocity=121, time=0),\n",
      "    Message('note_off', channel=15, note=58, velocity=121, time=88),\n",
      "    Message('note_off', channel=8, note=90, velocity=94, time=0),\n",
      "    Message('note_off', channel=2, note=32, velocity=111, time=0),\n",
      "    Message('note_on', channel=9, note=46, velocity=87, time=8),\n",
      "    Message('note_on', channel=8, note=89, velocity=97, time=0),\n",
      "    Message('note_on', channel=15, note=61, velocity=123, time=0),\n",
      "    Message('note_off', channel=9, note=46, velocity=87, time=4),\n",
      "    Message('note_off', channel=15, note=61, velocity=123, time=84),\n",
      "    Message('note_off', channel=8, note=89, velocity=97, time=0),\n",
      "    Message('note_off', channel=3, note=58, velocity=89, time=8),\n",
      "    Message('note_off', channel=3, note=65, velocity=86, time=0),\n",
      "    Message('note_off', channel=3, note=61, velocity=92, time=0),\n",
      "    Message('note_on', channel=2, note=37, velocity=107, time=0),\n",
      "    Message('note_on', channel=8, note=85, velocity=96, time=0),\n",
      "    Message('note_on', channel=15, note=58, velocity=120, time=0),\n",
      "    Message('note_off', channel=15, note=58, velocity=120, time=88),\n",
      "    Message('note_off', channel=2, note=37, velocity=107, time=0),\n",
      "    Message('note_on', channel=9, note=42, velocity=84, time=8),\n",
      "    Message('note_on', channel=9, note=36, velocity=102, time=0),\n",
      "    Message('note_on', channel=2, note=27, velocity=106, time=0),\n",
      "    Message('note_on', channel=3, note=61, velocity=86, time=0),\n",
      "    Message('note_on', channel=3, note=65, velocity=90, time=0),\n",
      "    Message('note_on', channel=3, note=58, velocity=90, time=0),\n",
      "    Message('note_on', channel=13, note=63, velocity=86, time=0),\n",
      "    Message('note_on', channel=13, note=73, velocity=86, time=0),\n",
      "    Message('note_on', channel=13, note=68, velocity=83, time=0),\n",
      "    Message('note_on', channel=15, note=65, velocity=121, time=0),\n",
      "    Message('note_off', channel=9, note=36, velocity=102, time=4),\n",
      "    Message('note_off', channel=9, note=42, velocity=84, time=0),\n",
      "    Message('note_off', channel=2, note=27, velocity=106, time=84),\n",
      "    Message('note_on', channel=9, note=46, velocity=92, time=104),\n",
      "    Message('note_on', channel=2, note=27, velocity=107, time=0),\n",
      "    Message('note_off', channel=9, note=46, velocity=92, time=4),\n",
      "    Message('note_off', channel=15, note=65, velocity=121, time=68),\n",
      "    Message('note_off', channel=2, note=27, velocity=107, time=16),\n",
      "    Message('note_off', channel=13, note=68, velocity=83, time=0),\n",
      "    Message('note_off', channel=13, note=73, velocity=86, time=0),\n",
      "    Message('note_off', channel=13, note=63, velocity=86, time=0),\n",
      "    Message('note_on', channel=2, note=27, velocity=111, time=8),\n",
      "    Message('note_off', channel=2, note=27, velocity=111, time=88),\n",
      "    Message('note_on', channel=9, note=42, velocity=82, time=8),\n",
      "    Message('note_on', channel=9, note=38, velocity=107, time=0),\n",
      "    Message('note_on', channel=9, note=39, velocity=83, time=0),\n",
      "    Message('note_on', channel=13, note=63, velocity=89, time=0),\n",
      "    Message('note_on', channel=13, note=73, velocity=83, time=0),\n",
      "    Message('note_on', channel=13, note=68, velocity=89, time=0),\n",
      "    Message('note_on', channel=15, note=65, velocity=124, time=0),\n",
      "    Message('note_off', channel=9, note=39, velocity=83, time=4),\n",
      "    Message('note_off', channel=9, note=38, velocity=107, time=0),\n",
      "    Message('note_off', channel=9, note=42, velocity=82, time=0),\n",
      "    Message('note_off', channel=3, note=58, velocity=90, time=92),\n",
      "    Message('note_off', channel=3, note=65, velocity=90, time=0),\n",
      "    Message('note_off', channel=3, note=61, velocity=86, time=0),\n",
      "    Message('note_on', channel=2, note=36, velocity=109, time=0),\n",
      "    Message('note_off', channel=8, note=85, velocity=96, time=48),\n",
      "    Message('note_off', channel=15, note=65, velocity=124, time=32),\n",
      "    Message('note_off', channel=2, note=36, velocity=109, time=8),\n",
      "    Message('note_off', channel=13, note=68, velocity=89, time=0),\n",
      "    Message('note_off', channel=13, note=73, velocity=83, time=0),\n",
      "    Message('note_off', channel=13, note=63, velocity=89, time=0),\n",
      "    Message('note_on', channel=9, note=42, velocity=82, time=8),\n",
      "    Message('note_on', channel=2, note=34, velocity=106, time=0),\n",
      "    Message('note_on', channel=3, note=56, velocity=87, time=0),\n",
      "    Message('note_on', channel=3, note=63, velocity=93, time=0),\n",
      "    Message('note_on', channel=3, note=60, velocity=88, time=0),\n",
      "    Message('note_on', channel=8, note=87, velocity=94, time=0),\n",
      "    Message('note_on', channel=13, note=68, velocity=84, time=0),\n",
      "    Message('note_on', channel=13, note=63, velocity=84, time=0),\n",
      "    Message('note_on', channel=13, note=72, velocity=88, time=0),\n",
      "    Message('note_on', channel=15, note=63, velocity=123, time=0),\n",
      "    Message('note_off', channel=9, note=42, velocity=82, time=4),\n",
      "    Message('note_off', channel=2, note=34, velocity=106, time=84),\n",
      "    Message('note_on', channel=9, note=42, velocity=83, time=8),\n",
      "    Message('note_off', channel=9, note=42, velocity=83, time=4),\n",
      "    Message('note_on', channel=9, note=42, velocity=81, time=92),\n",
      "    Message('note_on', channel=9, note=36, velocity=109, time=0),\n",
      "    Message('note_on', channel=2, note=32, velocity=106, time=0),\n",
      "    Message('note_off', channel=9, note=36, velocity=109, time=4),\n",
      "    Message('note_off', channel=9, note=42, velocity=81, time=0),\n",
      "    Message('note_off', channel=2, note=32, velocity=106, time=84),\n",
      "    Message('note_on', channel=9, note=46, velocity=87, time=104),\n",
      "    Message('note_on', channel=2, note=32, velocity=109, time=0),\n",
      "    Message('note_off', channel=9, note=46, velocity=87, time=4),\n",
      "    Message('note_off', channel=2, note=32, velocity=109, time=84),\n",
      "    Message('note_off', channel=8, note=87, velocity=94, time=56),\n",
      "    Message('note_off', channel=15, note=63, velocity=123, time=16),\n",
      "    Message('note_off', channel=13, note=72, velocity=88, time=24),\n",
      "    Message('note_off', channel=13, note=63, velocity=84, time=0),\n",
      "    Message('note_off', channel=13, note=68, velocity=84, time=0),\n",
      "    Message('note_on', channel=9, note=42, velocity=83, time=8),\n",
      "    Message('note_on', channel=9, note=38, velocity=105, time=0),\n",
      "    Message('note_on', channel=9, note=39, velocity=86, time=0),\n",
      "    Message('note_on', channel=8, note=80, velocity=94, time=0),\n",
      "    Message('note_on', channel=15, note=56, velocity=122, time=0),\n",
      "    Message('note_off', channel=9, note=39, velocity=86, time=4),\n",
      "    Message('note_off', channel=9, note=38, velocity=105, time=0),\n",
      "    Message('note_off', channel=9, note=42, velocity=83, time=0),\n",
      "    Message('note_off', channel=15, note=56, velocity=122, time=84),\n",
      "    Message('note_on', channel=15, note=58, velocity=119, time=8),\n",
      "    Message('note_off', channel=15, note=58, velocity=119, time=88),\n",
      "    Message('note_on', channel=9, note=46, velocity=90, time=8),\n",
      "    Message('note_on', channel=2, note=29, velocity=107, time=0),\n",
      "    Message('note_on', channel=15, note=61, velocity=120, time=0),\n",
      "    Message('note_off', channel=9, note=46, velocity=90, time=4),\n",
      "    Message('note_off', channel=15, note=61, velocity=120, time=84),\n",
      "    Message('note_off', channel=2, note=29, velocity=107, time=0),\n",
      "    Message('note_off', channel=3, note=60, velocity=88, time=8),\n",
      "    Message('note_off', channel=3, note=63, velocity=93, time=0),\n",
      "    Message('note_off', channel=3, note=56, velocity=87, time=0),\n",
      "    Message('note_on', channel=2, note=32, velocity=106, time=0),\n",
      "    Message('note_on', channel=15, note=58, velocity=120, time=0),\n",
      "    Message('note_off', channel=8, note=80, velocity=94, time=64),\n",
      "    Message('note_off', channel=15, note=58, velocity=120, time=24),\n",
      "    Message('note_off', channel=2, note=32, velocity=106, time=0),\n",
      "    Message('note_on', channel=9, note=42, velocity=83, time=8),\n",
      "    Message('note_on', channel=9, note=36, velocity=105, time=0),\n",
      "    Message('note_on', channel=2, note=29, velocity=106, time=0),\n",
      "    Message('note_on', channel=3, note=56, velocity=86, time=0),\n",
      "    Message('note_on', channel=3, note=60, velocity=86, time=0),\n",
      "    Message('note_on', channel=3, note=53, velocity=87, time=0),\n",
      "    Message('note_on', channel=8, note=87, velocity=97, time=0),\n",
      "    Message('note_on', channel=13, note=68, velocity=83, time=0),\n",
      "    Message('note_on', channel=13, note=75, velocity=87, time=0),\n",
      "    Message('note_on', channel=13, note=72, velocity=88, time=0),\n",
      "    Message('note_on', channel=15, note=68, velocity=121, time=0),\n",
      "    Message('note_off', channel=9, note=36, velocity=105, time=4),\n",
      "    Message('note_off', channel=9, note=42, velocity=83, time=0),\n",
      "    Message('note_off', channel=2, note=29, velocity=106, time=84),\n",
      "    Message('note_on', channel=9, note=46, velocity=90, time=104),\n",
      "    Message('note_on', channel=2, note=29, velocity=107, time=0),\n",
      "    Message('note_off', channel=9, note=46, velocity=90, time=4),\n",
      "    Message('note_off', channel=2, note=29, velocity=107, time=84),\n",
      "    Message('note_off', channel=13, note=72, velocity=88, time=0),\n",
      "    Message('note_off', channel=13, note=75, velocity=87, time=0),\n",
      "    Message('note_off', channel=13, note=68, velocity=83, time=0),\n",
      "    Message('note_on', channel=2, note=29, velocity=110, time=8),\n",
      "    Message('note_off', channel=15, note=68, velocity=121, time=64),\n",
      "    Message('note_off', channel=2, note=29, velocity=110, time=24),\n",
      "    Message('note_on', channel=9, note=42, velocity=83, time=8),\n",
      "    Message('note_on', channel=9, note=38, velocity=104, time=0),\n",
      "    Message('note_on', channel=9, note=39, velocity=83, time=0),\n",
      "    Message('note_on', channel=13, note=68, velocity=85, time=0),\n",
      "    Message('note_on', channel=13, note=75, velocity=89, time=0),\n",
      "    Message('note_on', channel=13, note=72, velocity=86, time=0),\n",
      "    Message('note_on', channel=15, note=60, velocity=120, time=0),\n",
      "    Message('note_off', channel=9, note=39, velocity=83, time=4),\n",
      "    Message('note_off', channel=9, note=38, velocity=104, time=0),\n",
      "    Message('note_off', channel=9, note=42, velocity=83, time=0),\n",
      "    Message('note_off', channel=3, note=53, velocity=87, time=92),\n",
      "    Message('note_off', channel=3, note=60, velocity=86, time=0),\n",
      "    Message('note_off', channel=3, note=56, velocity=86, time=0),\n",
      "    Message('note_on', channel=2, note=36, velocity=106, time=0),\n",
      "    Message('note_off', channel=8, note=87, velocity=97, time=48),\n",
      "    Message('note_off', channel=15, note=60, velocity=120, time=32),\n",
      "    Message('note_off', channel=2, note=36, velocity=106, time=8),\n",
      "    Message('note_off', channel=13, note=72, velocity=86, time=0),\n",
      "    Message('note_off', channel=13, note=75, velocity=89, time=0),\n",
      "    Message('note_off', channel=13, note=68, velocity=85, time=0),\n",
      "    Message('note_on', channel=9, note=46, velocity=87, time=8),\n",
      "    Message('note_on', channel=2, note=34, velocity=110, time=0),\n",
      "    Message('note_on', channel=3, note=61, velocity=90, time=0),\n",
      "    Message('note_on', channel=3, note=65, velocity=93, time=0),\n",
      "    Message('note_on', channel=3, note=58, velocity=86, time=0),\n",
      "    Message('note_on', channel=8, note=89, velocity=97, time=0),\n",
      "    Message('note_on', channel=13, note=65, velocity=85, time=0),\n",
      "    Message('note_on', channel=13, note=70, velocity=89, time=0),\n",
      "    Message('note_on', channel=13, note=73, velocity=85, time=0),\n",
      "    Message('note_on', channel=15, note=61, velocity=123, time=0),\n",
      "    Message('note_off', channel=9, note=46, velocity=87, time=4),\n",
      "    Message('note_off', channel=2, note=34, velocity=110, time=84),\n",
      "    Message('note_on', channel=9, note=42, velocity=81, time=104),\n",
      "    Message('note_on', channel=9, note=36, velocity=102, time=0),\n",
      "    Message('note_off', channel=9, note=36, velocity=102, time=4),\n",
      "    Message('note_off', channel=9, note=42, velocity=81, time=0),\n",
      "    Message('note_off', channel=15, note=61, velocity=123, time=68),\n",
      "    Message('note_off', channel=13, note=73, velocity=85, time=16),\n",
      "    Message('note_off', channel=13, note=70, velocity=89, time=0),\n",
      "    Message('note_off', channel=13, note=65, velocity=85, time=0),\n",
      "    Message('note_on', channel=13, note=63, velocity=84, time=8),\n",
      "    Message('note_on', channel=13, note=72, velocity=84, time=0),\n",
      "    Message('note_on', channel=13, note=68, velocity=87, time=0),\n",
      "    Message('note_on', channel=15, note=60, velocity=121, time=0),\n",
      "    Message('note_off', channel=15, note=60, velocity=121, time=88),\n",
      "    Message('note_off', channel=13, note=68, velocity=87, time=0),\n",
      "    Message('note_off', channel=13, note=72, velocity=84, time=0),\n",
      "    Message('note_off', channel=13, note=63, velocity=84, time=0),\n",
      "    Message('note_on', channel=9, note=46, velocity=88, time=8),\n",
      "    Message('note_on', channel=2, note=34, velocity=107, time=0),\n",
      "    Message('note_on', channel=13, note=61, velocity=85, time=0),\n",
      "    Message('note_on', channel=13, note=70, velocity=82, time=0),\n",
      "    Message('note_on', channel=13, note=65, velocity=83, time=0),\n",
      "    Message('note_on', channel=15, note=58, velocity=123, time=0),\n",
      "    Message('note_off', channel=9, note=46, velocity=88, time=4),\n",
      "    Message('note_off', channel=2, note=34, velocity=107, time=84),\n",
      "    Message('note_on', channel=2, note=34, velocity=107, time=8),\n",
      "    Message('note_off', channel=8, note=89, velocity=97, time=48),\n",
      "    Message('note_off', channel=15, note=58, velocity=123, time=32),\n",
      "    Message('note_off', channel=2, note=34, velocity=107, time=8),\n",
      "    Message('note_off', channel=13, note=65, velocity=83, time=0),\n",
      "    Message('note_off', channel=13, note=70, velocity=82, time=0),\n",
      "    Message('note_off', channel=13, note=61, velocity=85, time=0),\n",
      "    Message('note_on', channel=9, note=42, velocity=83, time=8),\n",
      "    Message('note_on', channel=9, note=38, velocity=104, time=0),\n",
      "    Message('note_on', channel=9, note=39, velocity=86, time=0),\n",
      "    Message('note_on', channel=2, note=34, velocity=106, time=0),\n",
      "    Message('note_on', channel=8, note=92, velocity=98, time=0),\n",
      "    Message('note_on', channel=15, note=56, velocity=119, time=0),\n",
      "    Message('note_off', channel=9, note=39, velocity=86, time=4),\n",
      "    Message('note_off', channel=9, note=38, velocity=104, time=0),\n",
      "    Message('note_off', channel=9, note=42, velocity=83, time=0),\n",
      "    Message('note_off', channel=15, note=56, velocity=119, time=84),\n",
      "    Message('note_off', channel=8, note=92, velocity=98, time=0),\n",
      "    Message('note_off', channel=2, note=34, velocity=106, time=0),\n",
      "    Message('note_on', channel=2, note=36, velocity=111, time=8),\n",
      "    Message('note_on', channel=8, note=90, velocity=97, time=0),\n",
      "    Message('note_on', channel=15, note=58, velocity=123, time=0),\n",
      "    Message('note_off', channel=15, note=58, velocity=123, time=88),\n",
      "    Message('note_off', channel=8, note=90, velocity=97, time=0),\n",
      "    Message('note_off', channel=2, note=36, velocity=111, time=0),\n",
      "    Message('note_on', channel=9, note=46, velocity=88, time=8),\n",
      "    Message('note_on', channel=8, note=89, velocity=98, time=0),\n",
      "    Message('note_on', channel=15, note=61, velocity=121, time=0),\n",
      "    Message('note_off', channel=9, note=46, velocity=88, time=4),\n",
      "    Message('note_off', channel=15, note=61, velocity=121, time=84),\n",
      "    Message('note_off', channel=8, note=89, velocity=98, time=0),\n",
      "    Message('note_off', channel=3, note=58, velocity=86, time=8),\n",
      "    Message('note_off', channel=3, note=65, velocity=93, time=0),\n",
      "    Message('note_off', channel=3, note=61, velocity=90, time=0),\n",
      "    Message('note_on', channel=2, note=34, velocity=106, time=0),\n",
      "    Message('note_on', channel=8, note=85, velocity=95, time=0),\n",
      "    Message('note_on', channel=15, note=58, velocity=122, time=0),\n",
      "    Message('note_off', channel=15, note=58, velocity=122, time=88),\n",
      "    Message('note_off', channel=2, note=34, velocity=106, time=0),\n",
      "    Message('note_on', channel=9, note=42, velocity=83, time=8),\n",
      "    Message('note_on', channel=9, note=36, velocity=101, time=0),\n",
      "    Message('note_on', channel=2, note=27, velocity=109, time=0),\n",
      "    Message('note_on', channel=3, note=61, velocity=90, time=0),\n",
      "    Message('note_on', channel=3, note=65, velocity=91, time=0),\n",
      "    Message('note_on', channel=3, note=58, velocity=89, time=0),\n",
      "    Message('note_on', channel=15, note=61, velocity=122, time=0),\n",
      "    Message('note_off', channel=9, note=36, velocity=101, time=4),\n",
      "    Message('note_off', channel=9, note=42, velocity=83, time=0),\n",
      "    Message('note_off', channel=2, note=27, velocity=109, time=84),\n",
      "    Message('note_on', channel=9, note=46, velocity=88, time=104),\n",
      "    Message('note_on', channel=2, note=27, velocity=107, time=0),\n",
      "    Message('note_off', channel=9, note=46, velocity=88, time=4),\n",
      "    Message('note_off', channel=2, note=27, velocity=107, time=84),\n",
      "    Message('note_on', channel=2, note=27, velocity=106, time=8),\n",
      "    Message('note_off', channel=15, note=61, velocity=122, time=64),\n",
      "    Message('note_off', channel=2, note=27, velocity=106, time=24),\n",
      "    Message('note_on', channel=9, note=42, velocity=80, time=8),\n",
      "    Message('note_on', channel=9, note=38, velocity=107, time=0),\n",
      "    Message('note_on', channel=9, note=39, velocity=86, time=0),\n",
      "    Message('note_on', channel=15, note=63, velocity=122, time=0),\n",
      "    Message('note_off', channel=9, note=39, velocity=86, time=4),\n",
      "    Message('note_off', channel=9, note=38, velocity=107, time=0),\n",
      "    Message('note_off', channel=9, note=42, velocity=80, time=0),\n",
      "    Message('note_off', channel=3, note=58, velocity=89, time=92),\n",
      "    Message('note_off', channel=3, note=65, velocity=91, time=0),\n",
      "    Message('note_off', channel=3, note=61, velocity=90, time=0),\n",
      "    Message('note_on', channel=2, note=36, velocity=108, time=0),\n",
      "    Message('note_off', channel=8, note=85, velocity=95, time=48),\n",
      "    Message('note_off', channel=15, note=63, velocity=122, time=32),\n",
      "    Message('note_off', channel=2, note=36, velocity=108, time=8),\n",
      "    Message('note_on', channel=9, note=42, velocity=81, time=8),\n",
      "    Message('note_on', channel=2, note=34, velocity=108, time=0),\n",
      "    Message('note_on', channel=3, note=63, velocity=87, time=0),\n",
      "    Message('note_on', channel=3, note=60, velocity=87, time=0),\n",
      "    Message('note_on', channel=3, note=56, velocity=91, time=0),\n",
      "    Message('note_on', channel=8, note=87, velocity=96, time=0),\n",
      "    Message('note_on', channel=15, note=60, velocity=123, time=0),\n",
      "    Message('note_off', channel=9, note=42, velocity=81, time=4),\n",
      "    Message('note_off', channel=2, note=34, velocity=108, time=84),\n",
      "    Message('note_on', channel=9, note=42, velocity=83, time=8),\n",
      "    Message('note_off', channel=9, note=42, velocity=83, time=4),\n",
      "    Message('note_on', channel=9, note=42, velocity=80, time=92),\n",
      "    Message('note_on', channel=9, note=36, velocity=102, time=0),\n",
      "    Message('note_on', channel=2, note=32, velocity=108, time=0),\n",
      "    Message('note_off', channel=9, note=36, velocity=102, time=4),\n",
      "    Message('note_off', channel=9, note=42, velocity=80, time=0),\n",
      "    Message('note_off', channel=15, note=60, velocity=123, time=68),\n",
      "    Message('note_off', channel=2, note=32, velocity=108, time=16),\n",
      "    Message('note_on', channel=15, note=58, velocity=124, time=8),\n",
      "    Message('note_off', channel=15, note=58, velocity=124, time=88),\n",
      "    Message('note_on', channel=9, note=46, velocity=92, time=8),\n",
      "    Message('note_on', channel=2, note=32, velocity=110, time=0),\n",
      "    Message('note_on', channel=15, note=56, velocity=120, time=0),\n",
      "    Message('note_off', channel=9, note=46, velocity=92, time=4),\n",
      "    Message('note_off', channel=2, note=32, velocity=110, time=84),\n",
      "    Message('note_off', channel=8, note=87, velocity=96, time=56),\n",
      "    Message('note_on', channel=9, note=42, velocity=80, time=48),\n",
      "    Message('note_on', channel=9, note=38, velocity=107, time=0),\n",
      "    Message('note_on', channel=9, note=39, velocity=84, time=0),\n",
      "    Message('note_on', channel=8, note=80, velocity=96, time=0),\n",
      "    Message('note_off', channel=9, note=39, velocity=84, time=4),\n",
      "    Message('note_off', channel=9, note=38, velocity=107, time=0),\n",
      "    Message('note_off', channel=9, note=42, velocity=80, time=0),\n",
      "    Message('note_off', channel=15, note=56, velocity=120, time=68),\n",
      "    Message('note_on', channel=9, note=46, velocity=87, time=120),\n",
      "    Message('note_on', channel=2, note=32, velocity=110, time=0),\n",
      "    Message('note_on', channel=15, note=56, velocity=121, time=0),\n",
      "    Message('note_off', channel=9, note=46, velocity=87, time=4),\n",
      "    Message('note_off', channel=2, note=32, velocity=110, time=84),\n",
      "    Message('note_off', channel=3, note=56, velocity=91, time=8),\n",
      "    Message('note_off', channel=3, note=60, velocity=87, time=0),\n",
      "    Message('note_off', channel=3, note=63, velocity=87, time=0),\n",
      "    Message('note_on', channel=2, note=32, velocity=107, time=0),\n",
      "    Message('note_off', channel=15, note=56, velocity=121, time=80),\n",
      "    Message('note_off', channel=2, note=32, velocity=107, time=8),\n",
      "    Message('note_on', channel=9, note=42, velocity=83, time=8),\n",
      "    Message('note_on', channel=9, note=36, velocity=105, time=0),\n",
      "    Message('note_on', channel=2, note=29, velocity=109, time=0),\n",
      "    Message('note_on', channel=3, note=63, velocity=87, time=0),\n",
      "    Message('note_on', channel=3, note=60, velocity=91, time=0),\n",
      "    Message('note_on', channel=3, note=56, velocity=92, time=0),\n",
      "    Message('note_on', channel=13, note=63, velocity=83, time=0),\n",
      "    Message('note_on', channel=13, note=68, velocity=88, time=0),\n",
      "    Message('note_on', channel=13, note=72, velocity=87, time=0),\n",
      "    Message('note_on', channel=15, note=63, velocity=119, time=0),\n",
      "    Message('note_off', channel=9, note=36, velocity=105, time=4),\n",
      "    Message('note_off', channel=9, note=42, velocity=83, time=0),\n",
      "    Message('note_off', channel=2, note=29, velocity=109, time=84),\n",
      "    Message('note_off', channel=3, note=56, velocity=92, time=104),\n",
      "    Message('note_off', channel=3, note=60, velocity=91, time=0),\n",
      "    Message('note_off', channel=3, note=63, velocity=87, time=0),\n",
      "    Message('note_on', channel=9, note=46, velocity=89, time=0),\n",
      "    Message('note_on', channel=2, note=29, velocity=107, time=0),\n",
      "    Message('note_off', channel=9, note=46, velocity=89, time=4),\n",
      "    Message('note_off', channel=2, note=29, velocity=107, time=84),\n",
      "    Message('note_off', channel=13, note=72, velocity=87, time=0),\n",
      "    Message('note_off', channel=13, note=68, velocity=88, time=0),\n",
      "    Message('note_off', channel=13, note=63, velocity=83, time=0),\n",
      "    Message('note_on', channel=2, note=29, velocity=111, time=8),\n",
      "    Message('note_off', channel=15, note=63, velocity=119, time=64),\n",
      "    Message('note_off', channel=2, note=29, velocity=111, time=24),\n",
      "    Message('note_on', channel=9, note=42, velocity=81, time=8),\n",
      "    Message('note_on', channel=9, note=38, velocity=105, time=0),\n",
      "    Message('note_on', channel=9, note=39, velocity=85, time=0),\n",
      "    Message('note_on', channel=3, note=61, velocity=92, time=0),\n",
      "    Message('note_on', channel=3, note=65, velocity=92, time=0),\n",
      "    Message('note_on', channel=3, note=58, velocity=87, time=0),\n",
      "    Message('note_on', channel=13, note=68, velocity=89, time=0),\n",
      "    Message('note_on', channel=13, note=65, velocity=86, time=0),\n",
      "    Message('note_on', channel=13, note=73, velocity=86, time=0),\n",
      "    Message('note_on', channel=15, note=61, velocity=122, time=0),\n",
      "    Message('note_off', channel=9, note=39, velocity=85, time=4),\n",
      "    Message('note_off', channel=9, note=38, velocity=105, time=0),\n",
      "    Message('note_off', channel=9, note=42, velocity=81, time=0),\n",
      "    Message('note_on', channel=2, note=36, velocity=107, time=92),\n",
      "    Message('note_off', channel=2, note=36, velocity=107, time=88),\n",
      "    Message('note_on', channel=9, note=46, velocity=88, time=8),\n",
      "    Message('note_on', channel=2, note=34, velocity=109, time=0),\n",
      "    Message('note_off', channel=9, note=46, velocity=88, time=4),\n",
      "    Message('note_off', channel=2, note=34, velocity=109, time=84),\n",
      "    Message('note_on', channel=9, note=42, velocity=82, time=104),\n",
      "    Message('note_on', channel=9, note=36, velocity=108, time=0),\n",
      "    Message('note_on', channel=9, note=45, velocity=86, time=0),\n",
      "    Message('note_off', channel=9, note=45, velocity=86, time=4),\n",
      "    Message('note_off', channel=9, note=36, velocity=108, time=0),\n",
      "    Message('note_off', channel=9, note=42, velocity=82, time=0),\n",
      "    Message('note_on', channel=9, note=45, velocity=87, time=92),\n",
      "    Message('note_off', channel=9, note=45, velocity=87, time=4),\n",
      "    Message('note_on', channel=9, note=46, velocity=91, time=92),\n",
      "    Message('note_on', channel=9, note=43, velocity=88, time=0),\n",
      "    Message('note_on', channel=2, note=32, velocity=110, time=0),\n",
      "    Message('note_on', channel=7, note=73, velocity=85, time=0),\n",
      "    Message('note_on', channel=7, note=85, velocity=108, time=0),\n",
      "    Message('note_off', channel=9, note=43, velocity=88, time=4),\n",
      "    Message('note_off', channel=9, note=46, velocity=91, time=0),\n",
      "    Message('note_off', channel=7, note=85, velocity=108, time=60),\n",
      "    Message('note_off', channel=7, note=73, velocity=85, time=0),\n",
      "    Message('note_off', channel=2, note=32, velocity=110, time=24),\n",
      "    Message('note_on', channel=9, note=43, velocity=85, time=8),\n",
      "    Message('note_on', channel=7, note=73, velocity=82, time=0),\n",
      "    Message('note_on', channel=7, note=85, velocity=111, time=0),\n",
      "    Message('note_off', channel=9, note=43, velocity=85, time=4),\n",
      "    Message('note_off', channel=7, note=85, velocity=111, time=60),\n",
      "    Message('note_off', channel=7, note=73, velocity=82, time=0),\n",
      "    Message('note_off', channel=13, note=73, velocity=86, time=24),\n",
      "    Message('note_off', channel=13, note=65, velocity=86, time=0),\n",
      "    Message('note_off', channel=13, note=68, velocity=89, time=0),\n",
      "    Message('note_on', channel=9, note=42, velocity=85, time=8),\n",
      "    Message('note_on', channel=9, note=38, velocity=109, time=0),\n",
      "    Message('note_on', channel=9, note=45, velocity=84, time=0),\n",
      "    Message('note_on', channel=9, note=39, velocity=86, time=0),\n",
      "    Message('note_on', channel=2, note=32, velocity=108, time=0),\n",
      "    Message('note_on', channel=7, note=73, velocity=81, time=0),\n",
      "    Message('note_on', channel=7, note=85, velocity=111, time=0),\n",
      "    Message('note_on', channel=15, note=56, velocity=123, time=0),\n",
      "    Message('note_off', channel=9, note=39, velocity=86, time=4),\n",
      "    Message('note_off', channel=9, note=45, velocity=84, time=0),\n",
      "    Message('note_off', channel=9, note=38, velocity=109, time=0),\n",
      "    Message('note_off', channel=9, note=42, velocity=85, time=0),\n",
      "    Message('note_off', channel=8, note=80, velocity=96, time=44),\n",
      "    Message('note_off', channel=7, note=85, velocity=111, time=16),\n",
      "    Message('note_off', channel=7, note=73, velocity=81, time=0),\n",
      "    Message('note_off', channel=15, note=61, velocity=122, time=0),\n",
      "    Message('note_off', channel=15, note=56, velocity=123, time=24),\n",
      "    Message('note_off', channel=2, note=32, velocity=108, time=0),\n",
      "    Message('note_on', channel=9, note=45, velocity=85, time=8),\n",
      "    Message('note_on', channel=2, note=32, velocity=108, time=0),\n",
      "    Message('note_on', channel=7, note=73, velocity=81, time=0),\n",
      "    Message('note_on', channel=7, note=85, velocity=107, time=0),\n",
      "    Message('note_on', channel=15, note=58, velocity=122, time=0),\n",
      "    Message('note_off', channel=9, note=45, velocity=85, time=4),\n",
      "    Message('note_off', channel=7, note=85, velocity=107, time=60),\n",
      "    Message('note_off', channel=7, note=73, velocity=81, time=0),\n",
      "    Message('note_off', channel=15, note=58, velocity=122, time=24),\n",
      "    Message('note_off', channel=2, note=32, velocity=108, time=0),\n",
      "    Message('note_on', channel=9, note=46, velocity=92, time=8),\n",
      "    Message('note_on', channel=9, note=43, velocity=88, time=0),\n",
      "    Message('note_on', channel=15, note=61, velocity=119, time=0),\n",
      "    Message('note_off', channel=9, note=43, velocity=88, time=4),\n",
      "    Message('note_off', channel=9, note=46, velocity=92, time=0),\n",
      "    Message('note_off', channel=15, note=61, velocity=119, time=84),\n",
      "    Message('note_off', channel=3, note=58, velocity=87, time=8),\n",
      "    Message('note_off', channel=3, note=65, velocity=92, time=0),\n",
      "    Message('note_off', channel=3, note=61, velocity=92, time=0),\n",
      "    Message('note_on', channel=9, note=43, velocity=89, time=0),\n",
      "    Message('note_on', channel=2, note=37, velocity=107, time=0),\n",
      "    Message('note_on', channel=7, note=73, velocity=83, time=0),\n",
      "    Message('note_on', channel=7, note=85, velocity=107, time=0),\n",
      "    Message('note_on', channel=15, note=58, velocity=120, time=0),\n",
      "    Message('note_off', channel=9, note=43, velocity=89, time=4),\n",
      "    Message('note_off', channel=7, note=85, velocity=107, time=60),\n",
      "    Message('note_off', channel=7, note=73, velocity=83, time=0),\n",
      "    Message('note_off', channel=15, note=58, velocity=120, time=24),\n",
      "    Message('note_off', channel=2, note=37, velocity=107, time=0),\n",
      "    Message('note_on', channel=9, note=42, velocity=82, time=8),\n",
      "    Message('note_on', channel=9, note=36, velocity=101, time=0),\n",
      "    Message('note_on', channel=2, note=27, velocity=111, time=0),\n",
      "    Message('note_on', channel=3, note=61, velocity=90, time=0),\n",
      "    Message('note_on', channel=3, note=65, velocity=93, time=0),\n",
      "    Message('note_on', channel=3, note=58, velocity=93, time=0),\n",
      "    Message('note_on', channel=8, note=85, velocity=97, time=0),\n",
      "    Message('note_on', channel=13, note=65, velocity=89, time=0),\n",
      "    Message('note_on', channel=13, note=68, velocity=82, time=0),\n",
      "    Message('note_on', channel=13, note=73, velocity=86, time=0),\n",
      "    Message('note_on', channel=15, note=65, velocity=120, time=0),\n",
      "    Message('note_off', channel=9, note=36, velocity=101, time=4),\n",
      "    Message('note_off', channel=9, note=42, velocity=82, time=0),\n",
      "    Message('note_off', channel=2, note=27, velocity=111, time=84),\n",
      "    Message('note_on', channel=9, note=46, velocity=89, time=104),\n",
      "    Message('note_on', channel=2, note=27, velocity=106, time=0),\n",
      "    Message('note_off', channel=9, note=46, velocity=89, time=4),\n",
      "    Message('note_off', channel=15, note=65, velocity=120, time=68),\n",
      "    Message('note_off', channel=2, note=27, velocity=106, time=16),\n",
      "    Message('note_off', channel=13, note=73, velocity=86, time=0),\n",
      "    Message('note_off', channel=13, note=68, velocity=82, time=0),\n",
      "    Message('note_off', channel=13, note=65, velocity=89, time=0),\n",
      "    Message('note_on', channel=2, note=27, velocity=109, time=8),\n",
      "    Message('note_off', channel=2, note=27, velocity=109, time=88),\n",
      "    Message('note_on', channel=9, note=42, velocity=85, time=8),\n",
      "    Message('note_on', channel=9, note=38, velocity=106, time=0),\n",
      "    Message('note_on', channel=9, note=39, velocity=81, time=0),\n",
      "    Message('note_on', channel=13, note=65, velocity=82, time=0),\n",
      "    Message('note_on', channel=13, note=73, velocity=82, time=0),\n",
      "    Message('note_on', channel=13, note=68, velocity=83, time=0),\n",
      "    Message('note_on', channel=15, note=65, velocity=123, time=0),\n",
      "    Message('note_off', channel=9, note=39, velocity=81, time=4),\n",
      "    Message('note_off', channel=9, note=38, velocity=106, time=0),\n",
      "    Message('note_off', channel=9, note=42, velocity=85, time=0),\n",
      "    Message('note_off', channel=3, note=58, velocity=93, time=92),\n",
      "    Message('note_off', channel=3, note=65, velocity=93, time=0),\n",
      "    Message('note_off', channel=3, note=61, velocity=90, time=0),\n",
      "    Message('note_on', channel=2, note=36, velocity=109, time=0),\n",
      "    Message('note_off', channel=8, note=85, velocity=97, time=48),\n",
      "    Message('note_off', channel=15, note=65, velocity=123, time=32),\n",
      "    Message('note_off', channel=2, note=36, velocity=109, time=8),\n",
      "    Message('note_off', channel=13, note=68, velocity=83, time=0),\n",
      "    Message('note_off', channel=13, note=73, velocity=82, time=0),\n",
      "    Message('note_off', channel=13, note=65, velocity=82, time=0),\n",
      "    Message('note_on', channel=9, note=42, velocity=83, time=8),\n",
      "    Message('note_on', channel=2, note=34, velocity=111, time=0),\n",
      "    Message('note_on', channel=3, note=63, velocity=86, time=0),\n",
      "    Message('note_on', channel=3, note=60, velocity=88, time=0),\n",
      "    Message('note_on', channel=3, note=56, velocity=86, time=0),\n",
      "    Message('note_on', channel=8, note=87, velocity=97, time=0),\n",
      "    Message('note_on', channel=13, note=68, velocity=86, time=0),\n",
      "    Message('note_on', channel=13, note=63, velocity=88, time=0),\n",
      "    Message('note_on', channel=13, note=72, velocity=89, time=0),\n",
      "    Message('note_on', channel=15, note=63, velocity=121, time=0),\n",
      "    Message('note_off', channel=9, note=42, velocity=83, time=4),\n",
      "    Message('note_off', channel=2, note=34, velocity=111, time=84),\n",
      "    Message('note_on', channel=9, note=42, velocity=82, time=8),\n",
      "    Message('note_off', channel=9, note=42, velocity=82, time=4),\n",
      "    Message('note_off', channel=13, note=72, velocity=89, time=84),\n",
      "    Message('note_off', channel=13, note=63, velocity=88, time=0),\n",
      "    Message('note_off', channel=13, note=68, velocity=86, time=0),\n",
      "    Message('note_on', channel=9, note=42, velocity=80, time=8),\n",
      "    Message('note_on', channel=9, note=36, velocity=103, time=0),\n",
      "    Message('note_on', channel=2, note=32, velocity=108, time=0),\n",
      "    Message('note_off', channel=9, note=36, velocity=103, time=4),\n",
      "    Message('note_off', channel=9, note=42, velocity=80, time=0),\n",
      "    Message('note_off', channel=2, note=32, velocity=108, time=84),\n",
      "    Message('note_on', channel=9, note=46, velocity=89, time=104),\n",
      "    Message('note_on', channel=2, note=32, velocity=106, time=0),\n",
      "    Message('note_off', channel=9, note=46, velocity=89, time=4),\n",
      "    Message('note_off', channel=2, note=32, velocity=106, time=84),\n",
      "    Message('note_off', channel=8, note=87, velocity=97, time=56),\n",
      "    Message('note_off', channel=15, note=63, velocity=121, time=16),\n",
      "    Message('note_on', channel=9, note=42, velocity=80, time=32),\n",
      "    Message('note_on', channel=9, note=38, velocity=106, time=0),\n",
      "    Message('note_on', channel=9, note=39, velocity=86, time=0),\n",
      "    Message('note_on', channel=8, note=80, velocity=95, time=0),\n",
      "    Message('note_on', channel=15, note=56, velocity=119, time=0),\n",
      "    Message('note_off', channel=9, note=39, velocity=86, time=4),\n",
      "    Message('note_off', channel=9, note=38, velocity=106, time=0),\n",
      "    Message('note_off', channel=9, note=42, velocity=80, time=0),\n",
      "    Message('note_off', channel=15, note=56, velocity=119, time=84),\n",
      "    Message('note_on', channel=15, note=58, velocity=121, time=8),\n",
      "    Message('note_off', channel=15, note=58, velocity=121, time=88),\n",
      "    Message('note_on', channel=9, note=46, velocity=90, time=8),\n",
      "    Message('note_on', channel=2, note=29, velocity=111, time=0),\n",
      "    Message('note_on', channel=15, note=61, velocity=120, time=0),\n",
      "    Message('note_off', channel=9, note=46, velocity=90, time=4),\n",
      "    Message('note_off', channel=15, note=61, velocity=120, time=84),\n",
      "    Message('note_off', channel=2, note=29, velocity=111, time=0),\n",
      "    Message('note_off', channel=3, note=56, velocity=86, time=8),\n",
      "    Message('note_off', channel=3, note=60, velocity=88, time=0),\n",
      "    Message('note_off', channel=3, note=63, velocity=86, time=0),\n",
      "    Message('note_on', channel=2, note=32, velocity=111, time=0),\n",
      "    Message('note_on', channel=15, note=58, velocity=124, time=0),\n",
      "    Message('note_off', channel=8, note=80, velocity=95, time=64),\n",
      "    Message('note_off', channel=15, note=58, velocity=124, time=24),\n",
      "    Message('note_off', channel=2, note=32, velocity=111, time=0),\n",
      "    Message('note_on', channel=9, note=42, velocity=80, time=8),\n",
      "    Message('note_on', channel=9, note=36, velocity=106, time=0),\n",
      "    Message('note_on', channel=2, note=29, velocity=109, time=0),\n",
      "    Message('note_on', channel=3, note=60, velocity=87, time=0),\n",
      "    Message('note_on', channel=3, note=63, velocity=92, time=0),\n",
      "    Message('note_on', channel=3, note=56, velocity=88, time=0),\n",
      "    Message('note_on', channel=8, note=87, velocity=98, time=0),\n",
      "    Message('note_on', channel=13, note=63, velocity=86, time=0),\n",
      "    Message('note_on', channel=13, note=72, velocity=89, time=0),\n",
      "    Message('note_on', channel=13, note=68, velocity=83, time=0),\n",
      "    Message('note_on', channel=15, note=63, velocity=122, time=0),\n",
      "    Message('note_off', channel=9, note=36, velocity=106, time=4),\n",
      "    Message('note_off', channel=9, note=42, velocity=80, time=0),\n",
      "    Message('note_off', channel=2, note=29, velocity=109, time=84),\n",
      "    Message('note_on', channel=9, note=46, velocity=92, time=104),\n",
      "    Message('note_on', channel=2, note=29, velocity=108, time=0),\n",
      "    Message('note_off', channel=9, note=46, velocity=92, time=4),\n",
      "    Message('note_off', channel=15, note=63, velocity=122, time=68),\n",
      "    Message('note_off', channel=2, note=29, velocity=108, time=16),\n",
      "    Message('note_off', channel=13, note=68, velocity=83, time=0),\n",
      "    Message('note_off', channel=13, note=72, velocity=89, time=0),\n",
      "    Message('note_off', channel=13, note=63, velocity=86, time=0),\n",
      "    Message('note_on', channel=2, note=29, velocity=109, time=8),\n",
      "    Message('note_off', channel=2, note=29, velocity=109, time=88),\n",
      "    Message('note_on', channel=9, note=42, velocity=83, time=8),\n",
      "    Message('note_on', channel=9, note=38, velocity=104, time=0),\n",
      "    Message('note_on', channel=9, note=39, velocity=87, time=0),\n",
      "    Message('note_on', channel=13, note=63, velocity=88, time=0),\n",
      "    Message('note_on', channel=13, note=72, velocity=84, time=0),\n",
      "    Message('note_on', channel=13, note=68, velocity=84, time=0),\n",
      "    Message('note_on', channel=15, note=63, velocity=120, time=0),\n",
      "    Message('note_off', channel=9, note=39, velocity=87, time=4),\n",
      "    Message('note_off', channel=9, note=38, velocity=104, time=0),\n",
      "    Message('note_off', channel=9, note=42, velocity=83, time=0),\n",
      "    Message('note_off', channel=3, note=56, velocity=88, time=92),\n",
      "    Message('note_off', channel=3, note=63, velocity=92, time=0),\n",
      "    Message('note_off', channel=3, note=60, velocity=87, time=0),\n",
      "    Message('note_on', channel=2, note=36, velocity=111, time=0),\n",
      "    Message('note_off', channel=8, note=87, velocity=98, time=48),\n",
      "    Message('note_off', channel=15, note=63, velocity=120, time=32),\n",
      "    Message('note_off', channel=2, note=36, velocity=111, time=8),\n",
      "    Message('note_off', channel=13, note=68, velocity=84, time=0),\n",
      "    Message('note_off', channel=13, note=72, velocity=84, time=0),\n",
      "    Message('note_off', channel=13, note=63, velocity=88, time=0),\n",
      "    Message('note_on', channel=9, note=46, velocity=89, time=8),\n",
      "    Message('note_on', channel=2, note=34, velocity=110, time=0),\n",
      "    Message('note_on', channel=3, note=61, velocity=92, time=0),\n",
      "    Message('note_on', channel=3, note=65, velocity=88, time=0),\n",
      "    Message('note_on', channel=3, note=58, velocity=92, time=0),\n",
      "    Message('note_on', channel=8, note=89, velocity=94, time=0),\n",
      "    Message('note_on', channel=13, note=61, velocity=87, time=0),\n",
      "    Message('note_on', channel=13, note=70, velocity=88, time=0),\n",
      "    Message('note_on', channel=13, note=65, velocity=84, time=0),\n",
      "    Message('note_on', channel=15, note=61, velocity=124, time=0),\n",
      "    Message('note_off', channel=9, note=46, velocity=89, time=4),\n",
      "    Message('note_off', channel=2, note=34, velocity=110, time=84),\n",
      "    Message('note_off', channel=13, note=65, velocity=84, time=96),\n",
      "    Message('note_off', channel=13, note=70, velocity=88, time=0),\n",
      "    Message('note_off', channel=13, note=61, velocity=87, time=0),\n",
      "    Message('note_on', channel=9, note=42, velocity=85, time=8),\n",
      "    Message('note_on', channel=9, note=36, velocity=106, time=0),\n",
      "    Message('note_off', channel=9, note=36, velocity=106, time=4),\n",
      "    Message('note_off', channel=9, note=42, velocity=85, time=0),\n",
      "    Message('note_off', channel=15, note=61, velocity=124, time=68),\n",
      "    Message('note_on', channel=15, note=60, velocity=122, time=24),\n",
      "    Message('note_off', channel=15, note=60, velocity=122, time=88),\n",
      "    Message('note_on', channel=9, note=46, velocity=91, time=8),\n",
      "    Message('note_on', channel=2, note=34, velocity=111, time=0),\n",
      "    Message('note_on', channel=15, note=58, velocity=120, time=0),\n",
      "    Message('note_off', channel=9, note=46, velocity=91, time=4),\n",
      "    Message('note_off', channel=2, note=34, velocity=111, time=84),\n",
      "    Message('note_on', channel=2, note=34, velocity=108, time=8),\n",
      "    Message('note_off', channel=8, note=89, velocity=94, time=48),\n",
      "    Message('note_off', channel=15, note=58, velocity=120, time=32),\n",
      "    Message('note_off', channel=2, note=34, velocity=108, time=8),\n",
      "    Message('note_on', channel=9, note=42, velocity=81, time=8),\n",
      "    Message('note_on', channel=9, note=38, velocity=104, time=0),\n",
      "    Message('note_on', channel=9, note=39, velocity=81, time=0),\n",
      "    Message('note_on', channel=2, note=34, velocity=111, time=0),\n",
      "    Message('note_on', channel=8, note=92, velocity=95, time=0),\n",
      "    Message('note_on', channel=15, note=56, velocity=120, time=0),\n",
      "    Message('note_off', channel=9, note=39, velocity=81, time=4),\n",
      "    Message('note_off', channel=9, note=38, velocity=104, time=0),\n",
      "    Message('note_off', channel=9, note=42, velocity=81, time=0),\n",
      "    Message('note_off', channel=15, note=56, velocity=120, time=84),\n",
      "    Message('note_off', channel=8, note=92, velocity=95, time=0),\n",
      "    Message('note_off', channel=2, note=34, velocity=111, time=0),\n",
      "    Message('note_on', channel=2, note=36, velocity=106, time=8),\n",
      "    Message('note_on', channel=8, note=90, velocity=97, time=0),\n",
      "    Message('note_on', channel=15, note=58, velocity=123, time=0),\n",
      "    Message('note_off', channel=15, note=58, velocity=123, time=88),\n",
      "    Message('note_off', channel=8, note=90, velocity=97, time=0),\n",
      "    Message('note_off', channel=2, note=36, velocity=106, time=0),\n",
      "    Message('note_on', channel=9, note=46, velocity=92, time=8),\n",
      "    Message('note_on', channel=8, note=89, velocity=98, time=0),\n",
      "    Message('note_on', channel=15, note=61, velocity=123, time=0),\n",
      "    Message('note_off', channel=9, note=46, velocity=92, time=4),\n",
      "    Message('note_off', channel=15, note=61, velocity=123, time=84),\n",
      "    Message('note_off', channel=8, note=89, velocity=98, time=0),\n",
      "    Message('note_off', channel=3, note=58, velocity=92, time=8),\n",
      "    Message('note_off', channel=3, note=65, velocity=88, time=0),\n",
      "    Message('note_off', channel=3, note=61, velocity=92, time=0),\n",
      "    Message('note_on', channel=2, note=34, velocity=106, time=0),\n",
      "    Message('note_on', channel=8, note=85, velocity=98, time=0),\n",
      "    Message('note_on', channel=15, note=58, velocity=119, time=0),\n",
      "    Message('note_off', channel=15, note=58, velocity=119, time=88),\n",
      "    Message('note_off', channel=2, note=34, velocity=106, time=0),\n",
      "    Message('note_on', channel=9, note=42, velocity=84, time=8),\n",
      "    Message('note_on', channel=9, note=36, velocity=104, time=0),\n",
      "    Message('note_on', channel=2, note=27, velocity=108, time=0),\n",
      "    Message('note_on', channel=3, note=61, velocity=92, time=0),\n",
      "    Message('note_on', channel=3, note=65, velocity=89, time=0),\n",
      "    Message('note_on', channel=3, note=58, velocity=87, time=0),\n",
      "    Message('note_on', channel=15, note=61, velocity=121, time=0),\n",
      "    Message('note_off', channel=9, note=36, velocity=104, time=4),\n",
      "    Message('note_off', channel=9, note=42, velocity=84, time=0),\n",
      "    Message('note_off', channel=2, note=27, velocity=108, time=84),\n",
      "    Message('note_on', channel=9, note=46, velocity=89, time=104),\n",
      "    Message('note_on', channel=2, note=27, velocity=107, time=0),\n",
      "    Message('note_off', channel=9, note=46, velocity=89, time=4),\n",
      "    Message('note_off', channel=2, note=27, velocity=107, time=84),\n",
      "    Message('note_on', channel=2, note=27, velocity=108, time=8),\n",
      "    Message('note_off', channel=15, note=61, velocity=121, time=64),\n",
      "    Message('note_off', channel=2, note=27, velocity=108, time=24),\n",
      "    Message('note_on', channel=9, note=42, velocity=85, time=8),\n",
      "    Message('note_on', channel=9, note=38, velocity=107, time=0),\n",
      "    Message('note_on', channel=9, note=39, velocity=83, time=0),\n",
      "    Message('note_on', channel=15, note=63, velocity=122, time=0),\n",
      "    Message('note_off', channel=9, note=39, velocity=83, time=4),\n",
      "    Message('note_off', channel=9, note=38, velocity=107, time=0),\n",
      "    Message('note_off', channel=9, note=42, velocity=85, time=0),\n",
      "    Message('note_off', channel=3, note=58, velocity=87, time=92),\n",
      "    Message('note_off', channel=3, note=65, velocity=89, time=0),\n",
      "    Message('note_off', channel=3, note=61, velocity=92, time=0),\n",
      "    Message('note_on', channel=2, note=36, velocity=106, time=0),\n",
      "    Message('note_off', channel=8, note=85, velocity=98, time=48),\n",
      "    Message('note_off', channel=15, note=63, velocity=122, time=32),\n",
      "    Message('note_off', channel=2, note=36, velocity=106, time=8),\n",
      "    Message('note_on', channel=9, note=42, velocity=80, time=8),\n",
      "    Message('note_on', channel=2, note=34, velocity=110, time=0),\n",
      "    Message('note_on', channel=3, note=60, velocity=86, time=0),\n",
      "    Message('note_on', channel=3, note=63, velocity=92, time=0),\n",
      "    Message('note_on', channel=3, note=56, velocity=89, time=0),\n",
      "    Message('note_on', channel=8, note=87, velocity=98, time=0),\n",
      "    Message('note_on', channel=15, note=60, velocity=119, time=0),\n",
      "    Message('note_off', channel=9, note=42, velocity=80, time=4),\n",
      "    Message('note_off', channel=2, note=34, velocity=110, time=84),\n",
      "    Message('note_on', channel=9, note=42, velocity=83, time=8),\n",
      "    Message('note_off', channel=9, note=42, velocity=83, time=4),\n",
      "    Message('note_on', channel=9, note=42, velocity=81, time=92),\n",
      "    Message('note_on', channel=9, note=36, velocity=104, time=0),\n",
      "    Message('note_on', channel=2, note=32, velocity=110, time=0),\n",
      "    Message('note_off', channel=9, note=36, velocity=104, time=4),\n",
      "    Message('note_off', channel=9, note=42, velocity=81, time=0),\n",
      "    Message('note_off', channel=15, note=60, velocity=119, time=68),\n",
      "    Message('note_off', channel=2, note=32, velocity=110, time=16),\n",
      "    Message('note_on', channel=15, note=58, velocity=123, time=8),\n",
      "    Message('note_off', channel=15, note=58, velocity=123, time=88),\n",
      "    Message('note_on', channel=9, note=46, velocity=89, time=8),\n",
      "    Message('note_on', channel=2, note=32, velocity=111, time=0),\n",
      "    Message('note_on', channel=15, note=56, velocity=124, time=0),\n",
      "    Message('note_off', channel=9, note=46, velocity=89, time=4),\n",
      "    Message('note_off', channel=15, note=56, velocity=124, time=84),\n",
      "    Message('note_off', channel=2, note=32, velocity=111, time=0),\n",
      "    Message('note_off', channel=8, note=87, velocity=98, time=56),\n",
      "    Message('note_on', channel=9, note=42, velocity=81, time=48),\n",
      "    Message('note_on', channel=9, note=38, velocity=108, time=0),\n",
      "    Message('note_on', channel=9, note=39, velocity=87, time=0),\n",
      "    Message('note_on', channel=8, note=80, velocity=97, time=0),\n",
      "    Message('note_on', channel=15, note=56, velocity=124, time=0),\n",
      "    Message('note_off', channel=9, note=39, velocity=87, time=4),\n",
      "    Message('note_off', channel=9, note=38, velocity=108, time=0),\n",
      "    Message('note_off', channel=9, note=42, velocity=81, time=0),\n",
      "    Message('note_off', channel=15, note=56, velocity=124, time=172),\n",
      "    Message('note_on', channel=9, note=46, velocity=92, time=16),\n",
      "    Message('note_on', channel=2, note=32, velocity=107, time=0),\n",
      "    Message('note_on', channel=15, note=63, velocity=121, time=0),\n",
      "    Message('note_off', channel=9, note=46, velocity=92, time=4),\n",
      "    Message('note_off', channel=2, note=32, velocity=107, time=84),\n",
      "    Message('note_off', channel=3, note=56, velocity=89, time=8),\n",
      "    Message('note_off', channel=3, note=63, velocity=92, time=0),\n",
      "    Message('note_off', channel=3, note=60, velocity=86, time=0),\n",
      "    Message('note_on', channel=2, note=32, velocity=106, time=0),\n",
      "    Message('note_off', channel=2, note=32, velocity=106, time=88),\n",
      "    Message('note_on', channel=9, note=42, velocity=80, time=8),\n",
      "    Message('note_on', channel=9, note=36, velocity=105, time=0),\n",
      "    Message('note_on', channel=2, note=29, velocity=110, time=0),\n",
      "    Message('note_on', channel=3, note=63, velocity=87, time=0),\n",
      "    Message('note_on', channel=3, note=60, velocity=93, time=0),\n",
      "    Message('note_on', channel=3, note=56, velocity=91, time=0),\n",
      "    Message('note_on', channel=13, note=63, velocity=89, time=0),\n",
      "    Message('note_on', channel=13, note=68, velocity=87, time=0),\n",
      "    Message('note_on', channel=13, note=72, velocity=85, time=0),\n",
      "    Message('note_off', channel=9, note=36, velocity=105, time=4),\n",
      "    Message('note_off', channel=9, note=42, velocity=80, time=0),\n",
      "    Message('note_off', channel=2, note=29, velocity=110, time=84),\n",
      "    Message('note_on', channel=9, note=46, velocity=88, time=104),\n",
      "    Message('note_on', channel=2, note=29, velocity=108, time=0),\n",
      "    Message('note_off', channel=9, note=46, velocity=88, time=4),\n",
      "    Message('note_off', channel=2, note=29, velocity=108, time=84),\n",
      "    Message('note_off', channel=13, note=72, velocity=85, time=0),\n",
      "    Message('note_off', channel=13, note=68, velocity=87, time=0),\n",
      "    Message('note_off', channel=13, note=63, velocity=89, time=0),\n",
      "    Message('note_on', channel=2, note=29, velocity=107, time=8),\n",
      "    Message('note_off', channel=15, note=63, velocity=121, time=64),\n",
      "    Message('note_off', channel=2, note=29, velocity=107, time=24),\n",
      "    Message('note_on', channel=9, note=42, velocity=85, time=8),\n",
      "    Message('note_on', channel=9, note=38, velocity=106, time=0),\n",
      "    Message('note_on', channel=9, note=39, velocity=80, time=0),\n",
      "    Message('note_on', channel=13, note=65, velocity=82, time=0),\n",
      "    Message('note_on', channel=13, note=70, velocity=86, time=0),\n",
      "    Message('note_on', channel=13, note=73, velocity=86, time=0),\n",
      "    Message('note_on', channel=15, note=61, velocity=122, time=0),\n",
      "    Message('note_off', channel=9, note=39, velocity=80, time=4),\n",
      "    Message('note_off', channel=9, note=38, velocity=106, time=0),\n",
      "    Message('note_off', channel=9, note=42, velocity=85, time=0),\n",
      "    Message('note_off', channel=3, note=56, velocity=91, time=92),\n",
      "    Message('note_off', channel=3, note=60, velocity=93, time=0),\n",
      "    Message('note_off', channel=3, note=63, velocity=87, time=0),\n",
      "    Message('note_on', channel=2, note=36, velocity=107, time=0),\n",
      "    Message('note_off', channel=2, note=36, velocity=107, time=88),\n",
      "    Message('note_on', channel=9, note=46, velocity=88, time=8),\n",
      "    Message('note_on', channel=2, note=34, velocity=109, time=0),\n",
      "    Message('note_on', channel=3, note=61, velocity=93, time=0),\n",
      "    Message('note_on', channel=3, note=65, velocity=90, time=0),\n",
      "    Message('note_on', channel=3, note=58, velocity=87, time=0),\n",
      "    Message('note_off', channel=9, note=46, velocity=88, time=4),\n",
      "    Message('note_off', channel=2, note=34, velocity=109, time=84),\n",
      "    Message('note_on', channel=9, note=42, velocity=81, time=104),\n",
      "    Message('note_on', channel=9, note=36, velocity=102, time=0),\n",
      "    Message('note_off', channel=9, note=36, velocity=102, time=4),\n",
      "    Message('note_off', channel=9, note=42, velocity=81, time=0),\n",
      "    Message('note_off', channel=8, note=80, velocity=97, time=140),\n",
      "    Message('note_on', channel=9, note=46, velocity=90, time=48),\n",
      "    Message('note_on', channel=2, note=32, velocity=110, time=0),\n",
      "    Message('note_on', channel=7, note=68, velocity=82, time=0),\n",
      "    Message('note_on', channel=7, note=80, velocity=108, time=0),\n",
      "    Message('note_on', channel=7, note=56, velocity=82, time=0),\n",
      "    Message('note_off', channel=9, note=46, velocity=90, time=4),\n",
      "    Message('note_off', channel=7, note=56, velocity=82, time=60),\n",
      "    Message('note_off', channel=7, note=80, velocity=108, time=0),\n",
      "    Message('note_off', channel=7, note=68, velocity=82, time=0),\n",
      "    Message('note_off', channel=15, note=61, velocity=122, time=0),\n",
      "    Message('note_off', channel=2, note=32, velocity=110, time=24),\n",
      "    Message('note_on', channel=7, note=68, velocity=83, time=8),\n",
      "    Message('note_on', channel=7, note=80, velocity=107, time=0),\n",
      "    Message('note_on', channel=7, note=56, velocity=82, time=0),\n",
      "    Message('note_off', channel=7, note=56, velocity=82, time=64),\n",
      "    Message('note_off', channel=7, note=80, velocity=107, time=0),\n",
      "    Message('note_off', channel=7, note=68, velocity=83, time=0),\n",
      "    Message('note_on', channel=9, note=42, velocity=81, time=32),\n",
      "    Message('note_on', channel=9, note=38, velocity=104, time=0),\n",
      "    Message('note_on', channel=9, note=39, velocity=80, time=0),\n",
      "    Message('note_on', channel=2, note=32, velocity=106, time=0),\n",
      "    Message('note_on', channel=8, note=92, velocity=99, time=0),\n",
      "    Message('note_on', channel=15, note=56, velocity=122, time=0),\n",
      "    Message('note_off', channel=9, note=39, velocity=80, time=4),\n",
      "    Message('note_off', channel=9, note=38, velocity=104, time=0),\n",
      "    Message('note_off', channel=9, note=42, velocity=81, time=0),\n",
      "    Message('note_off', channel=15, note=56, velocity=122, time=84),\n",
      "    Message('note_off', channel=8, note=92, velocity=99, time=0),\n",
      "    Message('note_off', channel=2, note=32, velocity=106, time=0),\n",
      "    Message('note_off', channel=13, note=73, velocity=86, time=0),\n",
      "    Message('note_off', channel=13, note=70, velocity=86, time=0),\n",
      "    Message('note_off', channel=13, note=65, velocity=82, time=0),\n",
      "    Message('note_on', channel=2, note=32, velocity=111, time=8),\n",
      "    Message('note_on', channel=8, note=90, velocity=96, time=0),\n",
      "    Message('note_on', channel=15, note=58, velocity=121, time=0),\n",
      "    Message('note_off', channel=15, note=58, velocity=121, time=88),\n",
      "    Message('note_off', channel=8, note=90, velocity=96, time=0),\n",
      "    Message('note_off', channel=2, note=32, velocity=111, time=0),\n",
      "    Message('note_on', channel=9, note=46, velocity=88, time=8),\n",
      "    Message('note_on', channel=8, note=89, velocity=97, time=0),\n",
      "    Message('note_on', channel=15, note=61, velocity=123, time=0),\n",
      "    Message('note_off', channel=9, note=46, velocity=88, time=4),\n",
      "    Message('note_off', channel=15, note=61, velocity=123, time=84),\n",
      "    Message('note_off', channel=8, note=89, velocity=97, time=0),\n",
      "    Message('note_off', channel=3, note=58, velocity=87, time=8),\n",
      "    Message('note_off', channel=3, note=65, velocity=90, time=0),\n",
      "    Message('note_off', channel=3, note=61, velocity=93, time=0),\n",
      "    Message('note_on', channel=2, note=37, velocity=108, time=0),\n",
      "    Message('note_on', channel=8, note=85, velocity=98, time=0),\n",
      "    Message('note_on', channel=15, note=58, velocity=120, time=0),\n",
      "    Message('note_off', channel=15, note=58, velocity=120, time=88),\n",
      "    Message('note_off', channel=2, note=37, velocity=108, time=0),\n",
      "    Message('note_on', channel=9, note=42, velocity=82, time=8),\n",
      "    Message('note_on', channel=9, note=36, velocity=101, time=0),\n",
      "    Message('note_on', channel=2, note=27, velocity=108, time=0),\n",
      "    Message('note_on', channel=3, note=61, velocity=87, time=0),\n",
      "    Message('note_on', channel=3, note=65, velocity=90, time=0),\n",
      "    Message('note_on', channel=3, note=58, velocity=93, time=0),\n",
      "    Message('note_on', channel=13, note=63, velocity=86, time=0),\n",
      "    Message('note_on', channel=13, note=73, velocity=85, time=0),\n",
      "    Message('note_on', channel=13, note=68, velocity=89, time=0),\n",
      "    Message('note_on', channel=15, note=65, velocity=119, time=0),\n",
      "    Message('note_off', channel=9, note=36, velocity=101, time=4),\n",
      "    Message('note_off', channel=9, note=42, velocity=82, time=0),\n",
      "    Message('note_off', channel=2, note=27, velocity=108, time=84),\n",
      "    Message('note_on', channel=9, note=46, velocity=92, time=104),\n",
      "    Message('note_on', channel=2, note=27, velocity=111, time=0),\n",
      "    Message('note_off', channel=9, note=46, velocity=92, time=4),\n",
      "    Message('note_off', channel=15, note=65, velocity=119, time=68),\n",
      "    Message('note_off', channel=2, note=27, velocity=111, time=16),\n",
      "    Message('note_off', channel=13, note=68, velocity=89, time=0),\n",
      "    Message('note_off', channel=13, note=73, velocity=85, time=0),\n",
      "    Message('note_off', channel=13, note=63, velocity=86, time=0),\n",
      "    Message('note_on', channel=2, note=27, velocity=106, time=8),\n",
      "    Message('note_off', channel=2, note=27, velocity=106, time=88),\n",
      "    Message('note_on', channel=9, note=42, velocity=80, time=8),\n",
      "    Message('note_on', channel=9, note=38, velocity=108, time=0),\n",
      "    Message('note_on', channel=9, note=39, velocity=81, time=0),\n",
      "    Message('note_on', channel=13, note=63, velocity=84, time=0),\n",
      "    Message('note_on', channel=13, note=73, velocity=84, time=0),\n",
      "    Message('note_on', channel=13, note=68, velocity=83, time=0),\n",
      "    Message('note_on', channel=15, note=65, velocity=120, time=0),\n",
      "    Message('note_off', channel=9, note=39, velocity=81, time=4),\n",
      "    Message('note_off', channel=9, note=38, velocity=108, time=0),\n",
      "    Message('note_off', channel=9, note=42, velocity=80, time=0),\n",
      "    Message('note_off', channel=3, note=58, velocity=93, time=92),\n",
      "    Message('note_off', channel=3, note=65, velocity=90, time=0),\n",
      "    Message('note_off', channel=3, note=61, velocity=87, time=0),\n",
      "    Message('note_on', channel=2, note=36, velocity=108, time=0),\n",
      "    Message('note_off', channel=8, note=85, velocity=98, time=48),\n",
      "    Message('note_off', channel=15, note=65, velocity=120, time=32),\n",
      "    Message('note_off', channel=2, note=36, velocity=108, time=8),\n",
      "    Message('note_off', channel=13, note=68, velocity=83, time=0),\n",
      "    Message('note_off', channel=13, note=73, velocity=84, time=0),\n",
      "    Message('note_off', channel=13, note=63, velocity=84, time=0),\n",
      "    Message('note_on', channel=9, note=42, velocity=80, time=8),\n",
      "    Message('note_on', channel=2, note=34, velocity=106, time=0),\n",
      "    Message('note_on', channel=3, note=60, velocity=92, time=0),\n",
      "    Message('note_on', channel=3, note=63, velocity=88, time=0),\n",
      "    Message('note_on', channel=3, note=56, velocity=86, time=0),\n",
      "    Message('note_on', channel=8, note=87, velocity=96, time=0),\n",
      "    Message('note_on', channel=13, note=68, velocity=89, time=0),\n",
      "    Message('note_on', channel=13, note=63, velocity=84, time=0),\n",
      "    Message('note_on', channel=13, note=72, velocity=86, time=0),\n",
      "    Message('note_on', channel=15, note=63, velocity=121, time=0),\n",
      "    Message('note_off', channel=9, note=42, velocity=80, time=4),\n",
      "    Message('note_off', channel=2, note=34, velocity=106, time=84),\n",
      "    Message('note_on', channel=9, note=42, velocity=85, time=8),\n",
      "    Message('note_off', channel=9, note=42, velocity=85, time=4),\n",
      "    Message('note_on', channel=9, note=42, velocity=85, time=92),\n",
      "    Message('note_on', channel=9, note=36, velocity=105, time=0),\n",
      "    Message('note_on', channel=2, note=32, velocity=109, time=0),\n",
      "    Message('note_off', channel=9, note=36, velocity=105, time=4),\n",
      "    Message('note_off', channel=9, note=42, velocity=85, time=0),\n",
      "    Message('note_off', channel=2, note=32, velocity=109, time=84),\n",
      "    Message('note_on', channel=9, note=46, velocity=88, time=104),\n",
      "    Message('note_on', channel=2, note=32, velocity=109, time=0),\n",
      "    Message('note_off', channel=9, note=46, velocity=88, time=4),\n",
      "    Message('note_off', channel=2, note=32, velocity=109, time=84),\n",
      "    Message('note_off', channel=8, note=87, velocity=96, time=56),\n",
      "    Message('note_off', channel=15, note=63, velocity=121, time=16),\n",
      "    Message('note_off', channel=13, note=72, velocity=86, time=24),\n",
      "    Message('note_off', channel=13, note=63, velocity=84, time=0),\n",
      "    Message('note_off', channel=13, note=68, velocity=89, time=0),\n",
      "    Message('note_on', channel=9, note=42, velocity=83, time=8),\n",
      "    Message('note_on', channel=9, note=38, velocity=103, time=0),\n",
      "    Message('note_on', channel=9, note=39, velocity=87, time=0),\n",
      "    Message('note_on', channel=8, note=80, velocity=95, time=0),\n",
      "    Message('note_on', channel=15, note=56, velocity=120, time=0),\n",
      "    Message('note_off', channel=9, note=39, velocity=87, time=4),\n",
      "    Message('note_off', channel=9, note=38, velocity=103, time=0),\n",
      "    Message('note_off', channel=9, note=42, velocity=83, time=0),\n",
      "    Message('note_off', channel=15, note=56, velocity=120, time=84),\n",
      "    Message('note_on', channel=15, note=58, velocity=123, time=8),\n",
      "    Message('note_off', channel=15, note=58, velocity=123, time=88),\n",
      "    Message('note_on', channel=9, note=46, velocity=87, time=8),\n",
      "    Message('note_on', channel=2, note=29, velocity=108, time=0),\n",
      "    Message('note_on', channel=15, note=61, velocity=121, time=0),\n",
      "    Message('note_off', channel=9, note=46, velocity=87, time=4),\n",
      "    Message('note_off', channel=15, note=61, velocity=121, time=84),\n",
      "    Message('note_off', channel=2, note=29, velocity=108, time=0),\n",
      "    Message('note_off', channel=3, note=56, velocity=86, time=8),\n",
      "    Message('note_off', channel=3, note=63, velocity=88, time=0),\n",
      "    Message('note_off', channel=3, note=60, velocity=92, time=0),\n",
      "    Message('note_on', channel=2, note=32, velocity=111, time=0),\n",
      "    Message('note_on', channel=15, note=58, velocity=120, time=0),\n",
      "    Message('note_off', channel=8, note=80, velocity=95, time=64),\n",
      "    Message('note_off', channel=15, note=58, velocity=120, time=24),\n",
      "    Message('note_off', channel=2, note=32, velocity=111, time=0),\n",
      "    Message('note_on', channel=9, note=42, velocity=83, time=8),\n",
      "    Message('note_on', channel=9, note=36, velocity=102, time=0),\n",
      "    Message('note_on', channel=2, note=29, velocity=111, time=0),\n",
      "    Message('note_on', channel=3, note=60, velocity=88, time=0),\n",
      "    Message('note_on', channel=3, note=63, velocity=89, time=0),\n",
      "    Message('note_on', channel=3, note=56, velocity=92, time=0),\n",
      "    Message('note_on', channel=8, note=87, velocity=97, time=0),\n",
      "    Message('note_on', channel=13, note=68, velocity=88, time=0),\n",
      "    Message('note_on', channel=13, note=75, velocity=89, time=0),\n",
      "    Message('note_on', channel=13, note=72, velocity=85, time=0),\n",
      "    Message('note_on', channel=15, note=68, velocity=121, time=0),\n",
      "    Message('note_off', channel=9, note=36, velocity=102, time=4),\n",
      "    Message('note_off', channel=9, note=42, velocity=83, time=0),\n",
      "    Message('note_off', channel=2, note=29, velocity=111, time=84),\n",
      "    Message('note_on', channel=9, note=46, velocity=87, time=104),\n",
      "    Message('note_on', channel=2, note=29, velocity=109, time=0),\n",
      "    Message('note_off', channel=9, note=46, velocity=87, time=4),\n",
      "    Message('note_off', channel=2, note=29, velocity=109, time=84),\n",
      "    Message('note_off', channel=13, note=72, velocity=85, time=0),\n",
      "    Message('note_off', channel=13, note=75, velocity=89, time=0),\n",
      "    Message('note_off', channel=13, note=68, velocity=88, time=0),\n",
      "    Message('note_on', channel=2, note=29, velocity=106, time=8),\n",
      "    Message('note_off', channel=15, note=68, velocity=121, time=64),\n",
      "    Message('note_off', channel=2, note=29, velocity=106, time=24),\n",
      "    Message('note_on', channel=9, note=42, velocity=82, time=8),\n",
      "    Message('note_on', channel=9, note=38, velocity=103, time=0),\n",
      "    Message('note_on', channel=9, note=39, velocity=87, time=0),\n",
      "    Message('note_on', channel=13, note=68, velocity=87, time=0),\n",
      "    Message('note_on', channel=13, note=75, velocity=83, time=0),\n",
      "    Message('note_on', channel=13, note=72, velocity=85, time=0),\n",
      "    Message('note_on', channel=15, note=60, velocity=122, time=0),\n",
      "    Message('note_off', channel=9, note=39, velocity=87, time=4),\n",
      "    Message('note_off', channel=9, note=38, velocity=103, time=0),\n",
      "    Message('note_off', channel=9, note=42, velocity=82, time=0),\n",
      "    Message('note_off', channel=3, note=56, velocity=92, time=92),\n",
      "    Message('note_off', channel=3, note=63, velocity=89, time=0),\n",
      "    Message('note_off', channel=3, note=60, velocity=88, time=0),\n",
      "    Message('note_on', channel=2, note=36, velocity=108, time=0),\n",
      "    Message('note_off', channel=8, note=87, velocity=97, time=48),\n",
      "    Message('note_off', channel=15, note=60, velocity=122, time=32),\n",
      "    Message('note_off', channel=2, note=36, velocity=108, time=8),\n",
      "    Message('note_off', channel=13, note=72, velocity=85, time=0),\n",
      "    Message('note_off', channel=13, note=75, velocity=83, time=0),\n",
      "    Message('note_off', channel=13, note=68, velocity=87, time=0),\n",
      "    Message('note_on', channel=9, note=46, velocity=88, time=8),\n",
      "    Message('note_on', channel=2, note=34, velocity=108, time=0),\n",
      "    Message('note_on', channel=3, note=61, velocity=90, time=0),\n",
      "    Message('note_on', channel=3, note=65, velocity=90, time=0),\n",
      "    Message('note_on', channel=3, note=58, velocity=92, time=0),\n",
      "    Message('note_on', channel=8, note=89, velocity=98, time=0),\n",
      "    Message('note_on', channel=13, note=65, velocity=87, time=0),\n",
      "    Message('note_on', channel=13, note=70, velocity=87, time=0),\n",
      "    Message('note_on', channel=13, note=73, velocity=85, time=0),\n",
      "    Message('note_on', channel=15, note=61, velocity=123, time=0),\n",
      "    Message('note_off', channel=9, note=46, velocity=88, time=4),\n",
      "    Message('note_off', channel=2, note=34, velocity=108, time=84),\n",
      "    Message('note_on', channel=9, note=42, velocity=83, time=104),\n",
      "    Message('note_on', channel=9, note=36, velocity=109, time=0),\n",
      "    Message('note_off', channel=9, note=36, velocity=109, time=4),\n",
      "    Message('note_off', channel=9, note=42, velocity=83, time=0),\n",
      "    Message('note_off', channel=15, note=61, velocity=123, time=68),\n",
      "    Message('note_off', channel=13, note=73, velocity=85, time=16),\n",
      "    Message('note_off', channel=13, note=70, velocity=87, time=0),\n",
      "    Message('note_off', channel=13, note=65, velocity=87, time=0),\n",
      "    Message('note_on', channel=13, note=63, velocity=83, time=8),\n",
      "    Message('note_on', channel=13, note=72, velocity=85, time=0),\n",
      "    Message('note_on', channel=13, note=68, velocity=82, time=0),\n",
      "    Message('note_on', channel=15, note=60, velocity=122, time=0),\n",
      "    Message('note_off', channel=15, note=60, velocity=122, time=88),\n",
      "    Message('note_off', channel=13, note=68, velocity=82, time=0),\n",
      "    Message('note_off', channel=13, note=72, velocity=85, time=0),\n",
      "    Message('note_off', channel=13, note=63, velocity=83, time=0),\n",
      "    Message('note_on', channel=9, note=46, velocity=88, time=8),\n",
      "    Message('note_on', channel=2, note=34, velocity=107, time=0),\n",
      "    Message('note_on', channel=13, note=61, velocity=89, time=0),\n",
      "    Message('note_on', channel=13, note=70, velocity=87, time=0),\n",
      "    Message('note_on', channel=13, note=65, velocity=86, time=0),\n",
      "    Message('note_on', channel=15, note=58, velocity=122, time=0),\n",
      "    Message('note_off', channel=9, note=46, velocity=88, time=4),\n",
      "    Message('note_off', channel=2, note=34, velocity=107, time=84),\n",
      "    Message('note_on', channel=2, note=34, velocity=110, time=8),\n",
      "    Message('note_off', channel=8, note=89, velocity=98, time=48),\n",
      "    Message('note_off', channel=15, note=58, velocity=122, time=32),\n",
      "    Message('note_off', channel=2, note=34, velocity=110, time=8),\n",
      "    Message('note_off', channel=13, note=65, velocity=86, time=0),\n",
      "    Message('note_off', channel=13, note=70, velocity=87, time=0),\n",
      "    Message('note_off', channel=13, note=61, velocity=89, time=0),\n",
      "    Message('note_on', channel=9, note=42, velocity=82, time=8),\n",
      "    Message('note_on', channel=9, note=38, velocity=109, time=0),\n",
      "    Message('note_on', channel=9, note=39, velocity=85, time=0),\n",
      "    Message('note_on', channel=2, note=34, velocity=106, time=0),\n",
      "    Message('note_on', channel=8, note=92, velocity=94, time=0),\n",
      "    Message('note_on', channel=15, note=56, velocity=123, time=0),\n",
      "    Message('note_off', channel=9, note=39, velocity=85, time=4),\n",
      "    Message('note_off', channel=9, note=38, velocity=109, time=0),\n",
      "    Message('note_off', channel=9, note=42, velocity=82, time=0),\n",
      "    Message('note_off', channel=15, note=56, velocity=123, time=84),\n",
      "    Message('note_off', channel=8, note=92, velocity=94, time=0),\n",
      "    Message('note_off', channel=2, note=34, velocity=106, time=0),\n",
      "    Message('note_on', channel=2, note=36, velocity=108, time=8),\n",
      "    Message('note_on', channel=8, note=90, velocity=98, time=0),\n",
      "    Message('note_on', channel=15, note=58, velocity=121, time=0),\n",
      "    Message('note_off', channel=15, note=58, velocity=121, time=88),\n",
      "    Message('note_off', channel=8, note=90, velocity=98, time=0),\n",
      "    Message('note_off', channel=2, note=36, velocity=108, time=0),\n",
      "    Message('note_on', channel=9, note=46, velocity=91, time=8),\n",
      "    Message('note_on', channel=8, note=89, velocity=99, time=0),\n",
      "    Message('note_on', channel=15, note=61, velocity=121, time=0),\n",
      "    Message('note_off', channel=9, note=46, velocity=91, time=4),\n",
      "    Message('note_off', channel=15, note=61, velocity=121, time=84),\n",
      "    Message('note_off', channel=8, note=89, velocity=99, time=0),\n",
      "    Message('note_off', channel=3, note=58, velocity=92, time=8),\n",
      "    Message('note_off', channel=3, note=65, velocity=90, time=0),\n",
      "    Message('note_off', channel=3, note=61, velocity=90, time=0),\n",
      "    Message('note_on', channel=2, note=34, velocity=106, time=0),\n",
      "    Message('note_on', channel=8, note=85, velocity=95, time=0),\n",
      "    Message('note_on', channel=15, note=58, velocity=124, time=0),\n",
      "    Message('note_off', channel=15, note=58, velocity=124, time=88),\n",
      "    Message('note_off', channel=2, note=34, velocity=106, time=0),\n",
      "    Message('note_on', channel=9, note=42, velocity=81, time=8),\n",
      "    Message('note_on', channel=9, note=36, velocity=101, time=0),\n",
      "    Message('note_on', channel=2, note=27, velocity=108, time=0),\n",
      "    Message('note_on', channel=3, note=61, velocity=90, time=0),\n",
      "    Message('note_on', channel=3, note=65, velocity=90, time=0),\n",
      "    Message('note_on', channel=3, note=58, velocity=87, time=0),\n",
      "    Message('note_on', channel=15, note=61, velocity=120, time=0),\n",
      "    Message('note_off', channel=9, note=36, velocity=101, time=4),\n",
      "    Message('note_off', channel=9, note=42, velocity=81, time=0),\n",
      "    Message('note_off', channel=2, note=27, velocity=108, time=84),\n",
      "    Message('note_on', channel=9, note=46, velocity=90, time=104),\n",
      "    Message('note_on', channel=2, note=27, velocity=107, time=0),\n",
      "    Message('note_off', channel=9, note=46, velocity=90, time=4),\n",
      "    Message('note_off', channel=2, note=27, velocity=107, time=84),\n",
      "    Message('note_on', channel=2, note=27, velocity=108, time=8),\n",
      "    Message('note_off', channel=15, note=61, velocity=120, time=64),\n",
      "    Message('note_off', channel=2, note=27, velocity=108, time=24),\n",
      "    Message('note_on', channel=9, note=42, velocity=84, time=8),\n",
      "    Message('note_on', channel=9, note=38, velocity=106, time=0),\n",
      "    Message('note_on', channel=9, note=39, velocity=85, time=0),\n",
      "    Message('note_on', channel=15, note=63, velocity=120, time=0),\n",
      "    Message('note_off', channel=9, note=39, velocity=85, time=4),\n",
      "    Message('note_off', channel=9, note=38, velocity=106, time=0),\n",
      "    Message('note_off', channel=9, note=42, velocity=84, time=0),\n",
      "    Message('note_off', channel=3, note=58, velocity=87, time=92),\n",
      "    Message('note_off', channel=3, note=65, velocity=90, time=0),\n",
      "    Message('note_off', channel=3, note=61, velocity=90, time=0),\n",
      "    Message('note_on', channel=2, note=36, velocity=109, time=0),\n",
      "    Message('note_off', channel=8, note=85, velocity=95, time=48),\n",
      "    Message('note_off', channel=15, note=63, velocity=120, time=32),\n",
      "    Message('note_off', channel=2, note=36, velocity=109, time=8),\n",
      "    Message('note_on', channel=9, note=42, velocity=83, time=8),\n",
      "    Message('note_on', channel=2, note=34, velocity=107, time=0),\n",
      "    Message('note_on', channel=3, note=63, velocity=92, time=0),\n",
      "    Message('note_on', channel=3, note=60, velocity=87, time=0),\n",
      "    Message('note_on', channel=3, note=56, velocity=90, time=0),\n",
      "    Message('note_on', channel=8, note=87, velocity=98, time=0),\n",
      "    Message('note_on', channel=15, note=60, velocity=121, time=0),\n",
      "    Message('note_off', channel=9, note=42, velocity=83, time=4),\n",
      "    Message('note_off', channel=2, note=34, velocity=107, time=84),\n",
      "    Message('note_on', channel=9, note=42, velocity=85, time=8),\n",
      "    Message('note_off', channel=9, note=42, velocity=85, time=4),\n",
      "    Message('note_on', channel=9, note=42, velocity=84, time=92),\n",
      "    Message('note_on', channel=9, note=36, velocity=104, time=0),\n",
      "    Message('note_on', channel=2, note=32, velocity=111, time=0),\n",
      "    Message('note_off', channel=9, note=36, velocity=104, time=4),\n",
      "    Message('note_off', channel=9, note=42, velocity=84, time=0),\n",
      "    Message('note_off', channel=15, note=60, velocity=121, time=68),\n",
      "    Message('note_off', channel=2, note=32, velocity=111, time=16),\n",
      "    Message('note_on', channel=15, note=58, velocity=124, time=8),\n",
      "    Message('note_off', channel=15, note=58, velocity=124, time=88),\n",
      "    Message('note_on', channel=9, note=46, velocity=89, time=8),\n",
      "    Message('note_on', channel=2, note=32, velocity=109, time=0),\n",
      "    Message('note_on', channel=15, note=56, velocity=123, time=0),\n",
      "    Message('note_off', channel=9, note=46, velocity=89, time=4),\n",
      "    Message('note_off', channel=2, note=32, velocity=109, time=84),\n",
      "    Message('note_off', channel=8, note=87, velocity=98, time=56),\n",
      "    Message('note_on', channel=9, note=42, velocity=84, time=48),\n",
      "    Message('note_on', channel=9, note=38, velocity=101, time=0),\n",
      "    Message('note_on', channel=9, note=39, velocity=83, time=0),\n",
      "    Message('note_on', channel=8, note=80, velocity=97, time=0),\n",
      "    Message('note_off', channel=9, note=39, velocity=83, time=4),\n",
      "    Message('note_off', channel=9, note=38, velocity=101, time=0),\n",
      "    Message('note_off', channel=9, note=42, velocity=84, time=0),\n",
      "    Message('note_off', channel=15, note=56, velocity=123, time=68),\n",
      "    Message('note_on', channel=9, note=46, velocity=90, time=120),\n",
      "    Message('note_on', channel=2, note=32, velocity=108, time=0),\n",
      "    Message('note_on', channel=15, note=56, velocity=120, time=0),\n",
      "    Message('note_off', channel=9, note=46, velocity=90, time=4),\n",
      "    Message('note_off', channel=2, note=32, velocity=108, time=84),\n",
      "    Message('note_off', channel=3, note=56, velocity=90, time=8),\n",
      "    Message('note_off', channel=3, note=60, velocity=87, time=0),\n",
      "    Message('note_off', channel=3, note=63, velocity=92, time=0),\n",
      "    Message('note_on', channel=2, note=32, velocity=107, time=0),\n",
      "    Message('note_off', channel=15, note=56, velocity=120, time=80),\n",
      "    Message('note_off', channel=2, note=32, velocity=107, time=8),\n",
      "    Message('note_on', channel=9, note=42, velocity=84, time=8),\n",
      "    Message('note_on', channel=9, note=36, velocity=106, time=0),\n",
      "    Message('note_on', channel=2, note=29, velocity=111, time=0),\n",
      "    Message('note_on', channel=3, note=63, velocity=89, time=0),\n",
      "    Message('note_on', channel=3, note=60, velocity=93, time=0),\n",
      "    Message('note_on', channel=3, note=56, velocity=90, time=0),\n",
      "    Message('note_on', channel=13, note=63, velocity=83, time=0),\n",
      "    Message('note_on', channel=13, note=68, velocity=82, time=0),\n",
      "    Message('note_on', channel=13, note=72, velocity=84, time=0),\n",
      "    Message('note_on', channel=15, note=63, velocity=123, time=0),\n",
      "    Message('note_off', channel=9, note=36, velocity=106, time=4),\n",
      "    Message('note_off', channel=9, note=42, velocity=84, time=0),\n",
      "    Message('note_off', channel=2, note=29, velocity=111, time=84),\n",
      "    Message('note_off', channel=15, note=63, velocity=123, time=88),\n",
      "    Message('note_off', channel=3, note=56, velocity=90, time=16),\n",
      "    Message('note_off', channel=3, note=60, velocity=93, time=0),\n",
      "    Message('note_off', channel=3, note=63, velocity=89, time=0),\n",
      "    Message('note_on', channel=9, note=46, velocity=92, time=0),\n",
      "    Message('note_on', channel=9, note=45, velocity=85, time=0),\n",
      "    Message('note_on', channel=2, note=29, velocity=110, time=0),\n",
      "    Message('note_on', channel=15, note=61, velocity=119, time=0),\n",
      "    Message('note_off', channel=9, note=45, velocity=85, time=4),\n",
      "    Message('note_off', channel=9, note=46, velocity=92, time=0),\n",
      "    Message('note_off', channel=15, note=61, velocity=119, time=84),\n",
      "    Message('note_off', channel=2, note=29, velocity=110, time=0),\n",
      "    Message('note_off', channel=13, note=72, velocity=84, time=0),\n",
      "    Message('note_off', channel=13, note=68, velocity=82, time=0),\n",
      "    Message('note_off', channel=13, note=63, velocity=83, time=0),\n",
      "    Message('note_on', channel=2, note=29, velocity=106, time=8),\n",
      "    Message('note_off', channel=2, note=29, velocity=106, time=88),\n",
      "    Message('note_on', channel=9, note=42, velocity=82, time=8),\n",
      "    Message('note_on', channel=9, note=38, velocity=102, time=0),\n",
      "    Message('note_on', channel=9, note=39, velocity=84, time=0),\n",
      "    Message('note_on', channel=3, note=61, velocity=93, time=0),\n",
      "    Message('note_on', channel=3, note=65, velocity=91, time=0),\n",
      "    Message('note_on', channel=3, note=58, velocity=92, time=0),\n",
      "    Message('note_on', channel=13, note=68, velocity=84, time=0),\n",
      "    Message('note_on', channel=13, note=65, velocity=89, time=0),\n",
      "    Message('note_on', channel=13, note=73, velocity=85, time=0),\n",
      "    Message('note_on', channel=15, note=61, velocity=119, time=0),\n",
      "    Message('note_off', channel=9, note=39, velocity=84, time=4),\n",
      "    Message('note_off', channel=9, note=38, velocity=102, time=0),\n",
      "    Message('note_off', channel=9, note=42, velocity=82, time=0),\n",
      "    Message('note_on', channel=2, note=36, velocity=108, time=92),\n",
      "    Message('note_off', channel=2, note=36, velocity=108, time=88),\n",
      "    Message('note_on', channel=9, note=46, velocity=89, time=8),\n",
      "    Message('note_on', channel=2, note=34, velocity=110, time=0),\n",
      "    Message('note_off', channel=9, note=46, velocity=89, time=4),\n",
      "    Message('note_off', channel=2, note=34, velocity=110, time=84),\n",
      "    Message('note_on', channel=9, note=42, velocity=81, time=104),\n",
      "    Message('note_on', channel=9, note=36, velocity=109, time=0),\n",
      "    Message('note_on', channel=9, note=39, velocity=81, time=0),\n",
      "    Message('note_off', channel=9, note=39, velocity=81, time=4),\n",
      "    Message('note_off', channel=9, note=36, velocity=109, time=0),\n",
      "    Message('note_off', channel=9, note=42, velocity=81, time=0),\n",
      "    Message('note_on', channel=9, note=39, velocity=80, time=92),\n",
      "    Message('note_off', channel=9, note=39, velocity=80, time=4),\n",
      "    Message('note_on', channel=9, note=46, velocity=92, time=92),\n",
      "    Message('note_on', channel=2, note=32, velocity=110, time=0),\n",
      "    Message('note_on', channel=7, note=73, velocity=82, time=0),\n",
      "    Message('note_on', channel=7, note=85, velocity=109, time=0),\n",
      "    Message('note_off', channel=9, note=46, velocity=92, time=4),\n",
      "    Message('note_off', channel=7, note=85, velocity=109, time=60),\n",
      "    Message('note_off', channel=7, note=73, velocity=82, time=0),\n",
      "    Message('note_off', channel=2, note=32, velocity=110, time=24),\n",
      "    Message('note_on', channel=7, note=73, velocity=81, time=8),\n",
      "    Message('note_on', channel=7, note=85, velocity=110, time=0),\n",
      "    Message('note_off', channel=7, note=85, velocity=110, time=64),\n",
      "    Message('note_off', channel=7, note=73, velocity=81, time=0),\n",
      "    Message('note_off', channel=13, note=73, velocity=85, time=24),\n",
      "    Message('note_off', channel=13, note=65, velocity=89, time=0),\n",
      "    Message('note_off', channel=13, note=68, velocity=84, time=0),\n",
      "    Message('note_on', channel=9, note=42, velocity=85, time=8),\n",
      "    Message('note_on', channel=9, note=38, velocity=108, time=0),\n",
      "    Message('note_on', channel=9, note=39, velocity=86, time=0),\n",
      "    Message('note_on', channel=2, note=32, velocity=106, time=0),\n",
      "    Message('note_on', channel=7, note=73, velocity=85, time=0),\n",
      "    Message('note_on', channel=7, note=85, velocity=107, time=0),\n",
      "    Message('note_off', channel=9, note=39, velocity=86, time=4),\n",
      "    Message('note_off', channel=9, note=38, velocity=108, time=0),\n",
      "    Message('note_off', channel=9, note=42, velocity=85, time=0),\n",
      "    Message('note_off', channel=8, note=80, velocity=97, time=44),\n",
      "    Message('note_off', channel=7, note=85, velocity=107, time=16),\n",
      "    Message('note_off', channel=7, note=73, velocity=85, time=0),\n",
      "    Message('note_off', channel=15, note=61, velocity=119, time=0),\n",
      "    Message('note_off', channel=2, note=32, velocity=106, time=24),\n",
      "    Message('note_on', channel=9, note=39, velocity=86, time=8),\n",
      "    Message('note_on', channel=2, note=32, velocity=107, time=0),\n",
      "    Message('note_on', channel=7, note=73, velocity=82, time=0),\n",
      "    Message('note_on', channel=7, note=85, velocity=109, time=0),\n",
      "    Message('note_off', channel=9, note=39, velocity=86, time=4),\n",
      "    Message('note_off', channel=7, note=85, velocity=109, time=60),\n",
      "    Message('note_off', channel=7, note=73, velocity=82, time=0),\n",
      "    Message('note_off', channel=2, note=32, velocity=107, time=24),\n",
      "    Message('note_on', channel=9, note=46, velocity=89, time=8),\n",
      "    Message('note_on', channel=9, note=45, velocity=85, time=0),\n",
      "    Message('note_off', channel=9, note=45, velocity=85, time=4),\n",
      "    Message('note_off', channel=9, note=46, velocity=89, time=0),\n",
      "    Message('note_on', channel=9, note=45, velocity=81, time=92),\n",
      "    Message('note_on', channel=2, note=37, velocity=106, time=0),\n",
      "    Message('note_on', channel=7, note=73, velocity=82, time=0),\n",
      "    Message('note_on', channel=7, note=85, velocity=108, time=0),\n",
      "    Message('note_off', channel=9, note=45, velocity=81, time=4),\n",
      "    Message('note_off', channel=7, note=85, velocity=108, time=60),\n",
      "    Message('note_off', channel=7, note=73, velocity=82, time=0),\n",
      "    Message('note_off', channel=2, note=37, velocity=106, time=24),\n",
      "    Message('note_off', channel=3, note=58, velocity=92, time=8),\n",
      "    Message('note_off', channel=3, note=65, velocity=91, time=0),\n",
      "    Message('note_off', channel=3, note=61, velocity=93, time=0),\n",
      "    Message('note_on', channel=9, note=42, velocity=80, time=0),\n",
      "    Message('note_on', channel=9, note=36, velocity=104, time=0),\n",
      "    Message('note_on', channel=2, note=39, velocity=110, time=0),\n",
      "    Message('note_on', channel=6, note=58, velocity=85, time=0),\n",
      "    Message('note_on', channel=6, note=61, velocity=86, time=0),\n",
      "    Message('note_on', channel=6, note=65, velocity=87, time=0),\n",
      "    Message('note_on', channel=13, note=68, velocity=87, time=0),\n",
      "    Message('note_off', channel=9, note=36, velocity=104, time=4),\n",
      "    Message('note_off', channel=9, note=42, velocity=80, time=0),\n",
      "    Message('note_off', channel=2, note=39, velocity=110, time=84),\n",
      "    Message('note_off', channel=6, note=65, velocity=87, time=80),\n",
      "    Message('note_off', channel=6, note=61, velocity=86, time=0),\n",
      "    Message('note_off', channel=6, note=58, velocity=85, time=0),\n",
      "    Message('note_on', channel=9, note=46, velocity=91, time=24),\n",
      "    Message('note_on', channel=2, note=37, velocity=106, time=0),\n",
      "    Message('note_off', channel=9, note=46, velocity=91, time=4),\n",
      "    Message('note_off', channel=2, note=37, velocity=106, time=84),\n",
      "    Message('note_on', channel=2, note=39, velocity=106, time=8),\n",
      "    Message('note_on', channel=6, note=65, velocity=84, time=0),\n",
      "    Message('note_on', channel=6, note=61, velocity=84, time=0),\n",
      "    Message('note_on', channel=6, note=58, velocity=88, time=0),\n",
      "    Message('note_off', channel=6, note=58, velocity=88, time=48),\n",
      "    Message('note_off', channel=6, note=61, velocity=84, time=0),\n",
      "    Message('note_off', channel=6, note=65, velocity=84, time=0),\n",
      "    Message('note_off', channel=2, note=39, velocity=106, time=40),\n",
      "    Message('note_on', channel=9, note=42, velocity=81, time=8),\n",
      "    Message('note_on', channel=9, note=38, velocity=106, time=0),\n",
      "    Message('note_on', channel=9, note=39, velocity=82, time=0),\n",
      "    Message('note_off', channel=9, note=39, velocity=82, time=4),\n",
      "    Message('note_off', channel=9, note=38, velocity=106, time=0),\n",
      "    Message('note_off', channel=9, note=42, velocity=81, time=0),\n",
      "    Message('note_on', channel=2, note=42, velocity=108, time=92),\n",
      "    Message('note_off', channel=2, note=42, velocity=108, time=88),\n",
      "    Message('note_on', channel=9, note=42, velocity=85, time=8),\n",
      "    Message('note_on', channel=2, note=41, velocity=106, time=0),\n",
      "    Message('note_on', channel=6, note=58, velocity=84, time=0),\n",
      "    Message('note_on', channel=6, note=65, velocity=87, time=0),\n",
      "    Message('note_on', channel=6, note=61, velocity=87, time=0),\n",
      "    Message('note_off', channel=9, note=42, velocity=85, time=4),\n",
      "    Message('note_off', channel=6, note=61, velocity=87, time=44),\n",
      "    Message('note_off', channel=6, note=65, velocity=87, time=0),\n",
      "    Message('note_off', channel=6, note=58, velocity=84, time=0),\n",
      "    Message('note_off', channel=2, note=41, velocity=106, time=40),\n",
      "    Message('note_on', channel=9, note=42, velocity=81, time=8),\n",
      "    Message('note_off', channel=9, note=42, velocity=81, time=4),\n",
      "    Message('note_on', channel=9, note=42, velocity=80, time=92),\n",
      "    Message('note_on', channel=9, note=36, velocity=107, time=0),\n",
      "    Message('note_on', channel=2, note=37, velocity=106, time=0),\n",
      "    Message('note_on', channel=6, note=58, velocity=88, time=0),\n",
      "    Message('note_on', channel=6, note=61, velocity=84, time=0),\n",
      "    Message('note_on', channel=6, note=65, velocity=88, time=0),\n",
      "    Message('note_off', channel=9, note=36, velocity=107, time=4),\n",
      "    Message('note_off', channel=9, note=42, velocity=80, time=0),\n",
      "    Message('note_on', channel=5, note=41, velocity=79, time=92),\n",
      "    Message('note_off', channel=5, note=41, velocity=79, time=40),\n",
      "    Message('note_off', channel=6, note=65, velocity=88, time=32),\n",
      "    Message('note_off', channel=6, note=61, velocity=84, time=0),\n",
      "    Message('note_off', channel=6, note=58, velocity=88, time=0),\n",
      "    Message('note_off', channel=2, note=37, velocity=106, time=24),\n",
      "    Message('note_on', channel=9, note=46, velocity=88, time=0),\n",
      "    Message('note_on', channel=2, note=39, velocity=111, time=0),\n",
      "    Message('note_on', channel=5, note=41, velocity=80, time=0),\n",
      "    Message('note_off', channel=9, note=46, velocity=88, time=4),\n",
      "    Message('note_off', channel=5, note=41, velocity=80, time=36),\n",
      "    Message('note_off', channel=2, note=39, velocity=111, time=48),\n",
      "    Message('note_on', channel=5, note=41, velocity=81, time=8),\n",
      "    Message('note_on', channel=6, note=61, velocity=84, time=0),\n",
      "    Message('note_on', channel=6, note=58, velocity=88, time=0),\n",
      "    Message('note_on', channel=6, note=65, velocity=86, time=0),\n",
      "    Message('note_off', channel=5, note=41, velocity=81, time=40),\n",
      "    Message('note_off', channel=6, note=65, velocity=86, time=8),\n",
      "    Message('note_off', channel=6, note=58, velocity=88, time=0),\n",
      "    Message('note_off', channel=6, note=61, velocity=84, time=0),\n",
      "    Message('note_on', channel=9, note=42, velocity=82, time=48),\n",
      "    Message('note_on', channel=9, note=38, velocity=108, time=0),\n",
      "    Message('note_on', channel=9, note=39, velocity=84, time=0),\n",
      "    Message('note_on', channel=5, note=44, velocity=80, time=0),\n",
      "    Message('note_off', channel=9, note=39, velocity=84, time=4),\n",
      "    Message('note_off', channel=9, note=38, velocity=108, time=0),\n",
      "    Message('note_off', channel=9, note=42, velocity=82, time=0),\n",
      "    Message('note_off', channel=5, note=44, velocity=80, time=36),\n",
      "    Message('note_off', channel=13, note=68, velocity=87, time=48),\n",
      "    Message('note_on', channel=5, note=46, velocity=80, time=8),\n",
      "    Message('note_on', channel=13, note=66, velocity=89, time=0),\n",
      "    Message('note_off', channel=5, note=46, velocity=80, time=40),\n",
      "    Message('note_off', channel=13, note=66, velocity=89, time=48),\n",
      "    Message('note_on', channel=9, note=46, velocity=87, time=8),\n",
      "    Message('note_on', channel=2, note=29, velocity=111, time=0),\n",
      "    Message('note_on', channel=6, note=58, velocity=84, time=0),\n",
      "    Message('note_on', channel=6, note=61, velocity=84, time=0),\n",
      "    Message('note_on', channel=6, note=65, velocity=86, time=0),\n",
      "    Message('note_on', channel=13, note=65, velocity=87, time=0),\n",
      "    Message('note_off', channel=9, note=46, velocity=87, time=4),\n",
      "    Message('note_off', channel=6, note=65, velocity=86, time=44),\n",
      "    Message('note_off', channel=6, note=61, velocity=84, time=0),\n",
      "    Message('note_off', channel=6, note=58, velocity=84, time=0),\n",
      "    Message('note_off', channel=13, note=65, velocity=87, time=40),\n",
      "    Message('note_off', channel=2, note=29, velocity=111, time=0),\n",
      "    Message('note_on', channel=2, note=32, velocity=107, time=8),\n",
      "    Message('note_on', channel=5, note=46, velocity=80, time=0),\n",
      "    Message('note_on', channel=13, note=63, velocity=89, time=0),\n",
      "    Message('note_off', channel=5, note=46, velocity=80, time=40),\n",
      "    Message('note_off', channel=13, note=63, velocity=89, time=48),\n",
      "    Message('note_off', channel=2, note=32, velocity=107, time=0),\n",
      "    Message('note_on', channel=9, note=42, velocity=84, time=8),\n",
      "    Message('note_on', channel=9, note=36, velocity=107, time=0),\n",
      "    Message('note_on', channel=2, note=34, velocity=111, time=0),\n",
      "    Message('note_on', channel=13, note=65, velocity=89, time=0),\n",
      "    Message('note_on', channel=14, note=65, velocity=81, time=0),\n",
      "    Message('note_on', channel=14, note=68, velocity=78, time=0),\n",
      "    Message('note_on', channel=14, note=73, velocity=79, time=0),\n",
      "    Message('note_off', channel=9, note=36, velocity=107, time=4),\n",
      "    Message('note_off', channel=9, note=42, velocity=84, time=0),\n",
      "    Message('note_off', channel=2, note=34, velocity=111, time=84),\n",
      "    Message('note_off', channel=13, note=65, velocity=89, time=96),\n",
      "    Message('note_on', channel=9, note=46, velocity=89, time=8),\n",
      "    Message('note_on', channel=2, note=32, velocity=106, time=0),\n",
      "    Message('note_on', channel=6, note=58, velocity=84, time=0),\n",
      "    Message('note_on', channel=6, note=61, velocity=88, time=0),\n",
      "    Message('note_on', channel=6, note=65, velocity=85, time=0),\n",
      "    Message('note_off', channel=9, note=46, velocity=89, time=4),\n",
      "    Message('note_off', channel=6, note=65, velocity=85, time=44),\n",
      "    Message('note_off', channel=6, note=61, velocity=88, time=0),\n",
      "    Message('note_off', channel=6, note=58, velocity=84, time=0),\n",
      "    Message('note_off', channel=14, note=73, velocity=79, time=32),\n",
      "    Message('note_off', channel=14, note=68, velocity=78, time=0),\n",
      "    Message('note_off', channel=14, note=65, velocity=81, time=0),\n",
      "    Message('note_off', channel=2, note=32, velocity=106, time=8),\n",
      "    Message('note_on', channel=2, note=34, velocity=109, time=8),\n",
      "    Message('note_on', channel=6, note=58, velocity=86, time=0),\n",
      "    Message('note_on', channel=6, note=61, velocity=86, time=0),\n",
      "    Message('note_on', channel=6, note=65, velocity=86, time=0),\n",
      "    Message('note_on', channel=14, note=65, velocity=78, time=0),\n",
      "    Message('note_on', channel=14, note=68, velocity=80, time=0),\n",
      "    Message('note_on', channel=14, note=73, velocity=76, time=0),\n",
      "    Message('note_off', channel=6, note=65, velocity=86, time=48),\n",
      "    Message('note_off', channel=6, note=61, velocity=86, time=0),\n",
      "    Message('note_off', channel=6, note=58, velocity=86, time=0),\n",
      "    Message('note_off', channel=2, note=34, velocity=109, time=40),\n",
      "    Message('note_on', channel=9, note=42, velocity=85, time=8),\n",
      "    Message('note_on', channel=9, note=38, velocity=101, time=0),\n",
      "    Message('note_on', channel=9, note=39, velocity=86, time=0),\n",
      "    Message('note_on', channel=6, note=61, velocity=87, time=0),\n",
      "    Message('note_on', channel=6, note=58, velocity=88, time=0),\n",
      "    Message('note_on', channel=6, note=65, velocity=87, time=0),\n",
      "    Message('note_off', channel=9, note=39, velocity=86, time=4),\n",
      "    Message('note_off', channel=9, note=38, velocity=101, time=0),\n",
      "    Message('note_off', channel=9, note=42, velocity=85, time=0),\n",
      "    Message('note_on', channel=2, note=37, velocity=111, time=92),\n",
      "    Message('note_off', channel=6, note=65, velocity=87, time=72),\n",
      "    Message('note_off', channel=6, note=58, velocity=88, time=0),\n",
      "    Message('note_off', channel=6, note=61, velocity=87, time=0),\n",
      "    Message('note_off', channel=14, note=73, velocity=76, time=8),\n",
      "    Message('note_off', channel=14, note=68, velocity=80, time=0),\n",
      "    Message('note_off', channel=14, note=65, velocity=78, time=0),\n",
      "    Message('note_off', channel=2, note=37, velocity=111, time=8),\n",
      "    Message('note_on', channel=9, note=46, velocity=87, time=8),\n",
      "    Message('note_on', channel=2, note=36, velocity=106, time=0),\n",
      "    Message('note_on', channel=6, note=56, velocity=88, time=0),\n",
      "    Message('note_on', channel=6, note=60, velocity=87, time=0),\n",
      "    Message('note_on', channel=6, note=63, velocity=84, time=0),\n",
      "    Message('note_on', channel=14, note=72, velocity=79, time=0),\n",
      "    Message('note_on', channel=14, note=68, velocity=79, time=0),\n",
      "    Message('note_on', channel=14, note=63, velocity=78, time=0),\n",
      "    Message('note_off', channel=9, note=46, velocity=87, time=4),\n",
      "    Message('note_off', channel=6, note=63, velocity=84, time=44),\n",
      "    Message('note_off', channel=6, note=60, velocity=87, time=0),\n",
      "    Message('note_off', channel=6, note=56, velocity=88, time=0),\n",
      "    Message('note_off', channel=2, note=36, velocity=106, time=40),\n",
      "    Message('note_on', channel=9, note=42, velocity=81, time=104),\n",
      "    Message('note_on', channel=9, note=36, velocity=105, time=0),\n",
      "    Message('note_off', channel=9, note=36, velocity=105, time=4),\n",
      "    Message('note_off', channel=9, note=42, velocity=81, time=0),\n",
      "    Message('note_off', channel=14, note=63, velocity=78, time=76),\n",
      "    Message('note_off', channel=14, note=68, velocity=79, time=0),\n",
      "    Message('note_off', channel=14, note=72, velocity=79, time=0),\n",
      "    Message('note_on', channel=5, note=46, velocity=79, time=16),\n",
      "    Message('note_off', channel=5, note=46, velocity=79, time=40),\n",
      "    Message('note_on', channel=9, note=46, velocity=91, time=56),\n",
      "    Message('note_on', channel=5, note=46, velocity=81, time=0),\n",
      "    Message('note_off', channel=9, note=46, velocity=91, time=4),\n",
      "    Message('note_off', channel=5, note=46, velocity=81, time=36),\n",
      "    Message('note_on', channel=5, note=46, velocity=82, time=56),\n",
      "    Message('note_off', channel=5, note=46, velocity=82, time=40),\n",
      "    Message('note_on', channel=9, note=42, velocity=80, time=56),\n",
      "    Message('note_on', channel=9, note=38, velocity=109, time=0),\n",
      "    Message('note_on', channel=9, note=39, velocity=83, time=0),\n",
      "    Message('note_on', channel=5, note=49, velocity=80, time=0),\n",
      "    Message('note_off', channel=9, note=39, velocity=83, time=4),\n",
      "    Message('note_off', channel=9, note=38, velocity=109, time=0),\n",
      "    Message('note_off', channel=9, note=42, velocity=80, time=0),\n",
      "    Message('note_off', channel=5, note=49, velocity=80, time=36),\n",
      "    Message('note_on', channel=5, note=51, velocity=79, time=56),\n",
      "    Message('note_off', channel=5, note=51, velocity=79, time=40),\n",
      "    Message('note_on', channel=9, note=46, velocity=91, time=56),\n",
      "    Message('note_on', channel=2, note=34, velocity=110, time=0),\n",
      "    Message('note_off', channel=9, note=46, velocity=91, time=4),\n",
      "    Message('note_off', channel=2, note=34, velocity=110, time=84),\n",
      "    Message('note_on', channel=2, note=37, velocity=106, time=8),\n",
      "    Message('note_on', channel=5, note=51, velocity=79, time=0),\n",
      "    Message('note_off', channel=5, note=51, velocity=79, time=40),\n",
      "    Message('note_off', channel=2, note=37, velocity=106, time=48),\n",
      "    Message('note_on', channel=9, note=42, velocity=84, time=8),\n",
      "    Message('note_on', channel=9, note=36, velocity=103, time=0),\n",
      "    Message('note_on', channel=2, note=39, velocity=107, time=0),\n",
      "    Message('note_on', channel=6, note=58, velocity=86, time=0),\n",
      "    Message('note_on', channel=6, note=61, velocity=87, time=0),\n",
      "    Message('note_on', channel=6, note=65, velocity=85, time=0),\n",
      "    Message('note_on', channel=13, note=68, velocity=83, time=0),\n",
      "    Message('note_off', channel=9, note=36, velocity=103, time=4),\n",
      "    Message('note_off', channel=9, note=42, velocity=84, time=0),\n",
      "    Message('note_off', channel=2, note=39, velocity=107, time=84),\n",
      "    Message('note_off', channel=6, note=65, velocity=85, time=80),\n",
      "    Message('note_off', channel=6, note=61, velocity=87, time=0),\n",
      "    Message('note_off', channel=6, note=58, velocity=86, time=0),\n",
      "    Message('note_on', channel=9, note=46, velocity=89, time=24),\n",
      "    Message('note_on', channel=2, note=37, velocity=111, time=0),\n",
      "    Message('note_off', channel=9, note=46, velocity=89, time=4),\n",
      "    Message('note_off', channel=2, note=37, velocity=111, time=84),\n",
      "    Message('note_on', channel=2, note=39, velocity=110, time=8),\n",
      "    Message('note_on', channel=6, note=65, velocity=85, time=0),\n",
      "    Message('note_on', channel=6, note=61, velocity=86, time=0),\n",
      "    Message('note_on', channel=6, note=58, velocity=88, time=0),\n",
      "    Message('note_off', channel=6, note=58, velocity=88, time=48),\n",
      "    Message('note_off', channel=6, note=61, velocity=86, time=0),\n",
      "    Message('note_off', channel=6, note=65, velocity=85, time=0),\n",
      "    Message('note_off', channel=2, note=39, velocity=110, time=40),\n",
      "    Message('note_on', channel=9, note=42, velocity=83, time=8),\n",
      "    Message('note_on', channel=9, note=38, velocity=103, time=0),\n",
      "    Message('note_on', channel=9, note=39, velocity=85, time=0),\n",
      "    Message('note_off', channel=9, note=39, velocity=85, time=4),\n",
      "    Message('note_off', channel=9, note=38, velocity=103, time=0),\n",
      "    Message('note_off', channel=9, note=42, velocity=83, time=0),\n",
      "    Message('note_on', channel=2, note=42, velocity=108, time=92),\n",
      "    Message('note_off', channel=2, note=42, velocity=108, time=88),\n",
      "    Message('note_on', channel=9, note=42, velocity=83, time=8),\n",
      "    Message('note_on', channel=2, note=41, velocity=109, time=0),\n",
      "    Message('note_on', channel=6, note=58, velocity=87, time=0),\n",
      "    Message('note_on', channel=6, note=65, velocity=86, time=0),\n",
      "    Message('note_on', channel=6, note=61, velocity=88, time=0),\n",
      "    Message('note_off', channel=9, note=42, velocity=83, time=4),\n",
      "    Message('note_off', channel=6, note=61, velocity=88, time=44),\n",
      "    Message('note_off', channel=6, note=65, velocity=86, time=0),\n",
      "    Message('note_off', channel=6, note=58, velocity=87, time=0),\n",
      "    Message('note_off', channel=2, note=41, velocity=109, time=40),\n",
      "    Message('note_on', channel=9, note=42, velocity=83, time=8),\n",
      "    Message('note_off', channel=9, note=42, velocity=83, time=4),\n",
      "    Message('note_on', channel=9, note=42, velocity=81, time=92),\n",
      "    Message('note_on', channel=9, note=36, velocity=101, time=0),\n",
      "    Message('note_on', channel=2, note=37, velocity=107, time=0),\n",
      "    Message('note_on', channel=6, note=58, velocity=86, time=0),\n",
      "    Message('note_on', channel=6, note=61, velocity=87, time=0),\n",
      "    Message('note_on', channel=6, note=65, velocity=86, time=0),\n",
      "    Message('note_off', channel=9, note=36, velocity=101, time=4),\n",
      "    Message('note_off', channel=9, note=42, velocity=81, time=0),\n",
      "    Message('note_on', channel=5, note=41, velocity=79, time=92),\n",
      "    Message('note_off', channel=5, note=41, velocity=79, time=40),\n",
      "    Message('note_off', channel=6, note=65, velocity=86, time=32),\n",
      "    Message('note_off', channel=6, note=61, velocity=87, time=0),\n",
      "    Message('note_off', channel=6, note=58, velocity=86, time=0),\n",
      "    Message('note_off', channel=2, note=37, velocity=107, time=24),\n",
      "    Message('note_on', channel=9, note=46, velocity=92, time=0),\n",
      "    Message('note_on', channel=2, note=39, velocity=107, time=0),\n",
      "    Message('note_on', channel=5, note=41, velocity=80, time=0),\n",
      "    Message('note_off', channel=9, note=46, velocity=92, time=4),\n",
      "    Message('note_off', channel=5, note=41, velocity=80, time=36),\n",
      "    Message('note_off', channel=2, note=39, velocity=107, time=48),\n",
      "    Message('note_on', channel=5, note=41, velocity=81, time=8),\n",
      "    Message('note_on', channel=6, note=61, velocity=85, time=0),\n",
      "    Message('note_on', channel=6, note=58, velocity=84, time=0),\n",
      "    Message('note_on', channel=6, note=65, velocity=88, time=0),\n",
      "    Message('note_off', channel=5, note=41, velocity=81, time=40),\n",
      "    Message('note_off', channel=6, note=65, velocity=88, time=8),\n",
      "    Message('note_off', channel=6, note=58, velocity=84, time=0),\n",
      "    Message('note_off', channel=6, note=61, velocity=85, time=0),\n",
      "    Message('note_on', channel=9, note=42, velocity=85, time=48),\n",
      "    Message('note_on', channel=9, note=38, velocity=107, time=0),\n",
      "    Message('note_on', channel=9, note=39, velocity=82, time=0),\n",
      "    Message('note_on', channel=5, note=44, velocity=82, time=0),\n",
      "    Message('note_off', channel=9, note=39, velocity=82, time=4),\n",
      "    Message('note_off', channel=9, note=38, velocity=107, time=0),\n",
      "    Message('note_off', channel=9, note=42, velocity=85, time=0),\n",
      "    Message('note_off', channel=5, note=44, velocity=82, time=36),\n",
      "    Message('note_off', channel=13, note=68, velocity=83, time=48),\n",
      "    Message('note_on', channel=5, note=46, velocity=79, time=8),\n",
      "    Message('note_on', channel=13, note=66, velocity=86, time=0),\n",
      "    Message('note_off', channel=5, note=46, velocity=79, time=40),\n",
      "    Message('note_off', channel=13, note=66, velocity=86, time=48),\n",
      "    Message('note_on', channel=9, note=46, velocity=87, time=8),\n",
      "    Message('note_on', channel=2, note=29, velocity=111, time=0),\n",
      "    Message('note_on', channel=6, note=58, velocity=86, time=0),\n",
      "    Message('note_on', channel=6, note=61, velocity=87, time=0),\n",
      "    Message('note_on', channel=6, note=65, velocity=84, time=0),\n",
      "    Message('note_on', channel=13, note=65, velocity=84, time=0),\n",
      "    Message('note_off', channel=9, note=46, velocity=87, time=4),\n",
      "    Message('note_off', channel=6, note=65, velocity=84, time=44),\n",
      "    Message('note_off', channel=6, note=61, velocity=87, time=0),\n",
      "    Message('note_off', channel=6, note=58, velocity=86, time=0),\n",
      "    Message('note_off', channel=13, note=65, velocity=84, time=40),\n",
      "    Message('note_off', channel=2, note=29, velocity=111, time=0),\n",
      "    Message('note_on', channel=2, note=32, velocity=107, time=8),\n",
      "    Message('note_on', channel=5, note=46, velocity=80, time=0),\n",
      "    Message('note_on', channel=13, note=63, velocity=83, time=0),\n",
      "    Message('note_off', channel=5, note=46, velocity=80, time=40),\n",
      "    Message('note_off', channel=13, note=63, velocity=83, time=48),\n",
      "    Message('note_off', channel=2, note=32, velocity=107, time=0),\n",
      "    Message('note_on', channel=9, note=42, velocity=85, time=8),\n",
      "    Message('note_on', channel=9, note=36, velocity=101, time=0),\n",
      "    Message('note_on', channel=2, note=34, velocity=111, time=0),\n",
      "    Message('note_on', channel=13, note=65, velocity=89, time=0),\n",
      "    Message('note_on', channel=14, note=65, velocity=78, time=0),\n",
      "    Message('note_on', channel=14, note=68, velocity=81, time=0),\n",
      "    Message('note_on', channel=14, note=73, velocity=76, time=0),\n",
      "    Message('note_off', channel=9, note=36, velocity=101, time=4),\n",
      "    Message('note_off', channel=9, note=42, velocity=85, time=0),\n",
      "    Message('note_off', channel=2, note=34, velocity=111, time=84),\n",
      "    Message('note_off', channel=13, note=65, velocity=89, time=96),\n",
      "    Message('note_on', channel=9, note=46, velocity=87, time=8),\n",
      "    Message('note_on', channel=2, note=32, velocity=108, time=0),\n",
      "    Message('note_on', channel=6, note=58, velocity=84, time=0),\n",
      "    Message('note_on', channel=6, note=61, velocity=87, time=0),\n",
      "    Message('note_on', channel=6, note=65, velocity=85, time=0),\n",
      "    Message('note_off', channel=9, note=46, velocity=87, time=4),\n",
      "    Message('note_off', channel=6, note=65, velocity=85, time=44),\n",
      "    Message('note_off', channel=6, note=61, velocity=87, time=0),\n",
      "    Message('note_off', channel=6, note=58, velocity=84, time=0),\n",
      "    Message('note_off', channel=14, note=73, velocity=76, time=32),\n",
      "    Message('note_off', channel=14, note=68, velocity=81, time=0),\n",
      "    Message('note_off', channel=14, note=65, velocity=78, time=0),\n",
      "    Message('note_off', channel=2, note=32, velocity=108, time=8),\n",
      "    Message('note_on', channel=2, note=34, velocity=108, time=8),\n",
      "    Message('note_on', channel=6, note=58, velocity=86, time=0),\n",
      "    Message('note_on', channel=6, note=61, velocity=85, time=0),\n",
      "    Message('note_on', channel=6, note=65, velocity=87, time=0),\n",
      "    Message('note_on', channel=14, note=65, velocity=77, time=0),\n",
      "    Message('note_on', channel=14, note=68, velocity=82, time=0),\n",
      "    Message('note_on', channel=14, note=73, velocity=82, time=0),\n",
      "    Message('note_off', channel=6, note=65, velocity=87, time=48),\n",
      "    Message('note_off', channel=6, note=61, velocity=85, time=0),\n",
      "    Message('note_off', channel=6, note=58, velocity=86, time=0),\n",
      "    Message('note_off', channel=2, note=34, velocity=108, time=40),\n",
      "    Message('note_on', channel=9, note=42, velocity=85, time=8),\n",
      "    Message('note_on', channel=9, note=38, velocity=106, time=0),\n",
      "    Message('note_on', channel=9, note=39, velocity=80, time=0),\n",
      "    Message('note_on', channel=6, note=61, velocity=88, time=0),\n",
      "    Message('note_on', channel=6, note=58, velocity=84, time=0),\n",
      "    Message('note_on', channel=6, note=65, velocity=86, time=0),\n",
      "    Message('note_off', channel=9, note=39, velocity=80, time=4),\n",
      "    Message('note_off', channel=9, note=38, velocity=106, time=0),\n",
      "    Message('note_off', channel=9, note=42, velocity=85, time=0),\n",
      "    Message('note_on', channel=2, note=37, velocity=110, time=92),\n",
      "    Message('note_off', channel=6, note=65, velocity=86, time=72),\n",
      "    Message('note_off', channel=6, note=58, velocity=84, time=0),\n",
      "    Message('note_off', channel=6, note=61, velocity=88, time=0),\n",
      "    Message('note_off', channel=14, note=73, velocity=82, time=8),\n",
      "    Message('note_off', channel=14, note=68, velocity=82, time=0),\n",
      "    Message('note_off', channel=14, note=65, velocity=77, time=0),\n",
      "    Message('note_off', channel=2, note=37, velocity=110, time=8),\n",
      "    Message('note_on', channel=9, note=46, velocity=92, time=8),\n",
      "    Message('note_on', channel=2, note=36, velocity=109, time=0),\n",
      "    Message('note_on', channel=6, note=56, velocity=88, time=0),\n",
      "    Message('note_on', channel=6, note=60, velocity=85, time=0),\n",
      "    Message('note_on', channel=6, note=63, velocity=88, time=0),\n",
      "    Message('note_on', channel=14, note=72, velocity=78, time=0),\n",
      "    Message('note_on', channel=14, note=68, velocity=77, time=0),\n",
      "    Message('note_on', channel=14, note=63, velocity=78, time=0),\n",
      "    Message('note_off', channel=9, note=46, velocity=92, time=4),\n",
      "    Message('note_off', channel=6, note=63, velocity=88, time=44),\n",
      "    Message('note_off', channel=6, note=60, velocity=85, time=0),\n",
      "    Message('note_off', channel=6, note=56, velocity=88, time=0),\n",
      "    Message('note_off', channel=2, note=36, velocity=109, time=40),\n",
      "    Message('note_on', channel=9, note=42, velocity=85, time=104),\n",
      "    Message('note_on', channel=9, note=36, velocity=106, time=0),\n",
      "    Message('note_off', channel=9, note=36, velocity=106, time=4),\n",
      "    Message('note_off', channel=9, note=42, velocity=85, time=0),\n",
      "    Message('note_off', channel=14, note=63, velocity=78, time=76),\n",
      "    Message('note_off', channel=14, note=68, velocity=77, time=0),\n",
      "    Message('note_off', channel=14, note=72, velocity=78, time=0),\n",
      "    Message('note_on', channel=5, note=46, velocity=79, time=16),\n",
      "    Message('note_off', channel=5, note=46, velocity=79, time=40),\n",
      "    Message('note_on', channel=9, note=46, velocity=87, time=56),\n",
      "    Message('note_on', channel=5, note=46, velocity=80, time=0),\n",
      "    Message('note_off', channel=9, note=46, velocity=87, time=4),\n",
      "    Message('note_off', channel=5, note=46, velocity=80, time=36),\n",
      "    Message('note_on', channel=5, note=46, velocity=80, time=56),\n",
      "    Message('note_off', channel=5, note=46, velocity=80, time=40),\n",
      "    Message('note_on', channel=9, note=42, velocity=83, time=56),\n",
      "    Message('note_on', channel=9, note=38, velocity=101, time=0),\n",
      "    Message('note_on', channel=9, note=39, velocity=83, time=0),\n",
      "    Message('note_on', channel=5, note=49, velocity=82, time=0),\n",
      "    Message('note_off', channel=9, note=39, velocity=83, time=4),\n",
      "    Message('note_off', channel=9, note=38, velocity=101, time=0),\n",
      "    Message('note_off', channel=9, note=42, velocity=83, time=0),\n",
      "    Message('note_off', channel=5, note=49, velocity=82, time=36),\n",
      "    Message('note_on', channel=5, note=51, velocity=80, time=56),\n",
      "    Message('note_off', channel=5, note=51, velocity=80, time=40),\n",
      "    Message('note_on', channel=9, note=46, velocity=89, time=56),\n",
      "    Message('note_on', channel=2, note=34, velocity=109, time=0),\n",
      "    Message('note_off', channel=9, note=46, velocity=89, time=4),\n",
      "    Message('note_off', channel=2, note=34, velocity=109, time=84),\n",
      "    Message('note_on', channel=2, note=37, velocity=109, time=8),\n",
      "    Message('note_on', channel=5, note=51, velocity=79, time=0),\n",
      "    Message('note_off', channel=5, note=51, velocity=79, time=40),\n",
      "    Message('note_off', channel=2, note=37, velocity=109, time=48),\n",
      "    Message('note_on', channel=9, note=42, velocity=80, time=8),\n",
      "    Message('note_on', channel=9, note=36, velocity=106, time=0),\n",
      "    Message('note_on', channel=2, note=39, velocity=109, time=0),\n",
      "    Message('note_on', channel=6, note=58, velocity=84, time=0),\n",
      "    Message('note_on', channel=6, note=61, velocity=88, time=0),\n",
      "    Message('note_on', channel=6, note=65, velocity=86, time=0),\n",
      "    Message('note_on', channel=13, note=68, velocity=84, time=0),\n",
      "    Message('note_off', channel=9, note=36, velocity=106, time=4),\n",
      "    Message('note_off', channel=9, note=42, velocity=80, time=0),\n",
      "    Message('note_off', channel=2, note=39, velocity=109, time=84),\n",
      "    Message('note_off', channel=6, note=65, velocity=86, time=80),\n",
      "    Message('note_off', channel=6, note=61, velocity=88, time=0),\n",
      "    Message('note_off', channel=6, note=58, velocity=84, time=0),\n",
      "    Message('note_on', channel=9, note=46, velocity=92, time=24),\n",
      "    Message('note_on', channel=2, note=37, velocity=110, time=0),\n",
      "    Message('note_on', channel=15, note=56, velocity=123, time=0),\n",
      "    Message('note_off', channel=9, note=46, velocity=92, time=4),\n",
      "    Message('note_off', channel=15, note=56, velocity=123, time=84),\n",
      "    Message('note_off', channel=2, note=37, velocity=110, time=0),\n",
      "    Message('note_on', channel=2, note=39, velocity=108, time=8),\n",
      "    Message('note_on', channel=6, note=65, velocity=84, time=0),\n",
      "    Message('note_on', channel=6, note=61, velocity=87, time=0),\n",
      "    Message('note_on', channel=6, note=58, velocity=88, time=0),\n",
      "    Message('note_on', channel=15, note=58, velocity=119, time=0),\n",
      "    Message('note_off', channel=6, note=58, velocity=88, time=48),\n",
      "    Message('note_off', channel=6, note=61, velocity=87, time=0),\n",
      "    Message('note_off', channel=6, note=65, velocity=84, time=0),\n",
      "    Message('note_off', channel=15, note=58, velocity=119, time=40),\n",
      "    Message('note_off', channel=2, note=39, velocity=108, time=0),\n",
      "    Message('note_on', channel=9, note=42, velocity=80, time=8),\n",
      "    Message('note_on', channel=9, note=38, velocity=103, time=0),\n",
      "    Message('note_on', channel=9, note=39, velocity=82, time=0),\n",
      "    Message('note_on', channel=15, note=61, velocity=124, time=0),\n",
      "    Message('note_off', channel=9, note=39, velocity=82, time=4),\n",
      "    Message('note_off', channel=9, note=38, velocity=103, time=0),\n",
      "    Message('note_off', channel=9, note=42, velocity=80, time=0),\n",
      "    Message('note_off', channel=15, note=61, velocity=124, time=84),\n",
      "    Message('note_on', channel=2, note=42, velocity=110, time=8),\n",
      "    Message('note_on', channel=15, note=58, velocity=124, time=0),\n",
      "    Message('note_off', channel=15, note=58, velocity=124, time=88),\n",
      "    Message('note_off', channel=2, note=42, velocity=110, time=0),\n",
      "    Message('note_on', channel=9, note=42, velocity=83, time=8),\n",
      "    Message('note_on', channel=2, note=41, velocity=109, time=0),\n",
      "    Message('note_on', channel=6, note=58, velocity=87, time=0),\n",
      "    Message('note_on', channel=6, note=65, velocity=87, time=0),\n",
      "    Message('note_on', channel=6, note=61, velocity=88, time=0),\n",
      "    Message('note_on', channel=15, note=65, velocity=119, time=0),\n",
      "    Message('note_off', channel=9, note=42, velocity=83, time=4),\n",
      "    Message('note_off', channel=6, note=61, velocity=88, time=44),\n",
      "    Message('note_off', channel=6, note=65, velocity=87, time=0),\n",
      "    Message('note_off', channel=6, note=58, velocity=87, time=0),\n",
      "    Message('note_off', channel=15, note=65, velocity=119, time=40),\n",
      "    Message('note_off', channel=2, note=41, velocity=109, time=0),\n",
      "    Message('note_on', channel=9, note=42, velocity=85, time=8),\n",
      "    Message('note_off', channel=9, note=42, velocity=85, time=4),\n",
      "    Message('note_on', channel=9, note=42, velocity=85, time=92),\n",
      "    Message('note_on', channel=9, note=36, velocity=103, time=0),\n",
      "    Message('note_on', channel=2, note=37, velocity=108, time=0),\n",
      "    Message('note_on', channel=6, note=58, velocity=87, time=0),\n",
      "    Message('note_on', channel=6, note=61, velocity=87, time=0),\n",
      "    Message('note_on', channel=6, note=65, velocity=85, time=0),\n",
      "    Message('note_on', channel=15, note=56, velocity=120, time=0),\n",
      "    Message('note_off', channel=9, note=36, velocity=103, time=4),\n",
      "    Message('note_off', channel=9, note=42, velocity=85, time=0),\n",
      "    Message('note_off', channel=15, note=56, velocity=120, time=84),\n",
      "    Message('note_on', channel=5, note=41, velocity=79, time=8),\n",
      "    Message('note_on', channel=15, note=58, velocity=119, time=0),\n",
      "    Message('note_off', channel=5, note=41, velocity=79, time=40),\n",
      "    Message('note_off', channel=6, note=65, velocity=85, time=32),\n",
      "    Message('note_off', channel=6, note=61, velocity=87, time=0),\n",
      "    Message('note_off', channel=6, note=58, velocity=87, time=0),\n",
      "    Message('note_off', channel=15, note=58, velocity=119, time=16),\n",
      "    Message('note_off', channel=2, note=37, velocity=108, time=8),\n",
      "    Message('note_on', channel=9, note=46, velocity=89, time=0),\n",
      "    Message('note_on', channel=2, note=39, velocity=108, time=0),\n",
      "    Message('note_on', channel=5, note=41, velocity=80, time=0),\n",
      "    Message('note_on', channel=15, note=61, velocity=122, time=0),\n",
      "    Message('note_off', channel=9, note=46, velocity=89, time=4),\n",
      "    Message('note_off', channel=5, note=41, velocity=80, time=36),\n",
      "    Message('note_off', channel=15, note=61, velocity=122, time=48),\n",
      "    Message('note_off', channel=2, note=39, velocity=108, time=0),\n",
      "    Message('note_on', channel=5, note=41, velocity=79, time=8),\n",
      "    Message('note_on', channel=6, note=61, velocity=86, time=0),\n",
      "    Message('note_on', channel=6, note=58, velocity=84, time=0),\n",
      "    Message('note_on', channel=6, note=65, velocity=87, time=0),\n",
      "    Message('note_on', channel=15, note=58, velocity=120, time=0),\n",
      "    Message('note_off', channel=5, note=41, velocity=79, time=40),\n",
      "    Message('note_off', channel=6, note=65, velocity=87, time=8),\n",
      "    Message('note_off', channel=6, note=58, velocity=84, time=0),\n",
      "    Message('note_off', channel=6, note=61, velocity=86, time=0),\n",
      "    Message('note_off', channel=15, note=58, velocity=120, time=40),\n",
      "    Message('note_on', channel=9, note=42, velocity=81, time=8),\n",
      "    Message('note_on', channel=9, note=38, velocity=109, time=0),\n",
      "    Message('note_on', channel=9, note=39, velocity=85, time=0),\n",
      "    Message('note_on', channel=5, note=44, velocity=80, time=0),\n",
      "    Message('note_on', channel=15, note=65, velocity=120, time=0),\n",
      "    Message('note_off', channel=9, note=39, velocity=85, time=4),\n",
      "    Message('note_off', channel=9, note=38, velocity=109, time=0),\n",
      "    Message('note_off', channel=9, note=42, velocity=81, time=0),\n",
      "    Message('note_off', channel=5, note=44, velocity=80, time=36),\n",
      "    Message('note_off', channel=13, note=68, velocity=84, time=48),\n",
      "    Message('note_on', channel=5, note=46, velocity=79, time=8),\n",
      "    Message('note_on', channel=13, note=66, velocity=86, time=0),\n",
      "    Message('note_off', channel=5, note=46, velocity=79, time=40),\n",
      "    Message('note_off', channel=15, note=65, velocity=120, time=40),\n",
      "    Message('note_off', channel=13, note=66, velocity=86, time=8),\n",
      "    Message('note_on', channel=9, note=46, velocity=92, time=8),\n",
      "    Message('note_on', channel=2, note=29, velocity=110, time=0),\n",
      "    Message('note_on', channel=6, note=58, velocity=85, time=0),\n",
      "    Message('note_on', channel=6, note=61, velocity=86, time=0),\n",
      "    Message('note_on', channel=6, note=65, velocity=85, time=0),\n",
      "    Message('note_on', channel=13, note=65, velocity=86, time=0),\n",
      "    Message('note_off', channel=9, note=46, velocity=92, time=4),\n",
      "    Message('note_off', channel=6, note=65, velocity=85, time=44),\n",
      "    Message('note_off', channel=6, note=61, velocity=86, time=0),\n",
      "    Message('note_off', channel=6, note=58, velocity=85, time=0),\n",
      "    Message('note_off', channel=13, note=65, velocity=86, time=40),\n",
      "    Message('note_off', channel=2, note=29, velocity=110, time=0),\n",
      "    Message('note_on', channel=2, note=32, velocity=108, time=8),\n",
      "    Message('note_on', channel=5, note=46, velocity=79, time=0),\n",
      "    Message('note_on', channel=13, note=63, velocity=88, time=0),\n",
      "    Message('note_off', channel=5, note=46, velocity=79, time=40),\n",
      "    Message('note_off', channel=13, note=63, velocity=88, time=48),\n",
      "    Message('note_off', channel=2, note=32, velocity=108, time=0),\n",
      "    Message('note_on', channel=9, note=42, velocity=85, time=8),\n",
      "    Message('note_on', channel=9, note=36, velocity=103, time=0),\n",
      "    Message('note_on', channel=2, note=34, velocity=108, time=0),\n",
      "    Message('note_on', channel=13, note=65, velocity=85, time=0),\n",
      "    Message('note_on', channel=14, note=65, velocity=77, time=0),\n",
      "    Message('note_on', channel=14, note=68, velocity=81, time=0),\n",
      "    Message('note_on', channel=14, note=73, velocity=78, time=0),\n",
      "    Message('note_off', channel=9, note=36, velocity=103, time=4),\n",
      "    Message('note_off', channel=9, note=42, velocity=85, time=0),\n",
      "    Message('note_off', channel=2, note=34, velocity=108, time=84),\n",
      "    Message('note_off', channel=13, note=65, velocity=85, time=96),\n",
      "    Message('note_on', channel=9, note=46, velocity=87, time=8),\n",
      "    Message('note_on', channel=2, note=32, velocity=109, time=0),\n",
      "    Message('note_on', channel=6, note=58, velocity=85, time=0),\n",
      "    Message('note_on', channel=6, note=61, velocity=86, time=0),\n",
      "    Message('note_on', channel=6, note=65, velocity=85, time=0),\n",
      "    Message('note_off', channel=9, note=46, velocity=87, time=4),\n",
      "    Message('note_off', channel=6, note=65, velocity=85, time=44),\n",
      "    Message('note_off', channel=6, note=61, velocity=86, time=0),\n",
      "    Message('note_off', channel=6, note=58, velocity=85, time=0),\n",
      "    Message('note_off', channel=14, note=73, velocity=78, time=32),\n",
      "    Message('note_off', channel=14, note=68, velocity=81, time=0),\n",
      "    Message('note_off', channel=14, note=65, velocity=77, time=0),\n",
      "    Message('note_off', channel=2, note=32, velocity=109, time=8),\n",
      "    Message('note_on', channel=2, note=34, velocity=110, time=8),\n",
      "    Message('note_on', channel=6, note=58, velocity=87, time=0),\n",
      "    Message('note_on', channel=6, note=61, velocity=86, time=0),\n",
      "    Message('note_on', channel=6, note=65, velocity=85, time=0),\n",
      "    Message('note_on', channel=14, note=65, velocity=79, time=0),\n",
      "    Message('note_on', channel=14, note=68, velocity=79, time=0),\n",
      "    Message('note_on', channel=14, note=73, velocity=83, time=0),\n",
      "    Message('note_off', channel=6, note=65, velocity=85, time=48),\n",
      "    Message('note_off', channel=6, note=61, velocity=86, time=0),\n",
      "    Message('note_off', channel=6, note=58, velocity=87, time=0),\n",
      "    Message('note_off', channel=2, note=34, velocity=110, time=40),\n",
      "    Message('note_on', channel=9, note=42, velocity=85, time=8),\n",
      "    Message('note_on', channel=9, note=38, velocity=106, time=0),\n",
      "    Message('note_on', channel=9, note=39, velocity=81, time=0),\n",
      "    Message('note_on', channel=6, note=61, velocity=85, time=0),\n",
      "    Message('note_on', channel=6, note=58, velocity=88, time=0),\n",
      "    Message('note_on', channel=6, note=65, velocity=87, time=0),\n",
      "    Message('note_off', channel=9, note=39, velocity=81, time=4),\n",
      "    Message('note_off', channel=9, note=38, velocity=106, time=0),\n",
      "    Message('note_off', channel=9, note=42, velocity=85, time=0),\n",
      "    Message('note_on', channel=2, note=37, velocity=111, time=92),\n",
      "    Message('note_off', channel=6, note=65, velocity=87, time=72),\n",
      "    Message('note_off', channel=6, note=58, velocity=88, time=0),\n",
      "    Message('note_off', channel=6, note=61, velocity=85, time=0),\n",
      "    Message('note_off', channel=14, note=73, velocity=83, time=8),\n",
      "    Message('note_off', channel=14, note=68, velocity=79, time=0),\n",
      "    Message('note_off', channel=14, note=65, velocity=79, time=0),\n",
      "    Message('note_off', channel=2, note=37, velocity=111, time=8),\n",
      "    Message('note_on', channel=9, note=46, velocity=90, time=8),\n",
      "    Message('note_on', channel=2, note=36, velocity=106, time=0),\n",
      "    Message('note_on', channel=6, note=56, velocity=84, time=0),\n",
      "    Message('note_on', channel=6, note=60, velocity=84, time=0),\n",
      "    Message('note_on', channel=6, note=63, velocity=88, time=0),\n",
      "    Message('note_on', channel=14, note=72, velocity=78, time=0),\n",
      "    Message('note_on', channel=14, note=68, velocity=81, time=0),\n",
      "    Message('note_on', channel=14, note=63, velocity=81, time=0),\n",
      "    Message('note_off', channel=9, note=46, velocity=90, time=4),\n",
      "    Message('note_off', channel=6, note=63, velocity=88, time=44),\n",
      "    Message('note_off', channel=6, note=60, velocity=84, time=0),\n",
      "    Message('note_off', channel=6, note=56, velocity=84, time=0),\n",
      "    Message('note_off', channel=2, note=36, velocity=106, time=40),\n",
      "    Message('note_on', channel=9, note=42, velocity=85, time=104),\n",
      "    Message('note_on', channel=9, note=36, velocity=103, time=0),\n",
      "    Message('note_off', channel=9, note=36, velocity=103, time=4),\n",
      "    Message('note_off', channel=9, note=42, velocity=85, time=0),\n",
      "    Message('note_off', channel=14, note=63, velocity=81, time=76),\n",
      "    Message('note_off', channel=14, note=68, velocity=81, time=0),\n",
      "    Message('note_off', channel=14, note=72, velocity=78, time=0),\n",
      "    Message('note_on', channel=5, note=46, velocity=82, time=16),\n",
      "    Message('note_off', channel=5, note=46, velocity=82, time=40),\n",
      "    Message('note_on', channel=9, note=46, velocity=87, time=56),\n",
      "    Message('note_on', channel=5, note=46, velocity=80, time=0),\n",
      "    Message('note_off', channel=9, note=46, velocity=87, time=4),\n",
      "    Message('note_off', channel=5, note=46, velocity=80, time=36),\n",
      "    Message('note_on', channel=5, note=46, velocity=79, time=56),\n",
      "    Message('note_off', channel=5, note=46, velocity=79, time=40),\n",
      "    Message('note_on', channel=9, note=42, velocity=81, time=56),\n",
      "    Message('note_on', channel=9, note=38, velocity=103, time=0),\n",
      "    Message('note_on', channel=9, note=39, velocity=86, time=0),\n",
      "    Message('note_on', channel=5, note=49, velocity=82, time=0),\n",
      "    Message('note_off', channel=9, note=39, velocity=86, time=4),\n",
      "    Message('note_off', channel=9, note=38, velocity=103, time=0),\n",
      "    Message('note_off', channel=9, note=42, velocity=81, time=0),\n",
      "    Message('note_off', channel=5, note=49, velocity=82, time=36),\n",
      "    Message('note_on', channel=5, note=51, velocity=82, time=56),\n",
      "    Message('note_off', channel=5, note=51, velocity=82, time=40),\n",
      "    Message('note_on', channel=9, note=46, velocity=90, time=56),\n",
      "    Message('note_on', channel=2, note=34, velocity=109, time=0),\n",
      "    Message('note_off', channel=9, note=46, velocity=90, time=4),\n",
      "    Message('note_off', channel=2, note=34, velocity=109, time=84),\n",
      "    Message('note_on', channel=2, note=37, velocity=110, time=8),\n",
      "    Message('note_on', channel=5, note=51, velocity=81, time=0),\n",
      "    Message('note_off', channel=5, note=51, velocity=81, time=40),\n",
      "    Message('note_off', channel=2, note=37, velocity=110, time=48),\n",
      "    Message('note_on', channel=9, note=42, velocity=81, time=8),\n",
      "    Message('note_on', channel=9, note=36, velocity=102, time=0),\n",
      "    Message('note_on', channel=2, note=39, velocity=110, time=0),\n",
      "    Message('note_on', channel=6, note=58, velocity=86, time=0),\n",
      "    Message('note_on', channel=6, note=61, velocity=85, time=0),\n",
      "    Message('note_on', channel=6, note=65, velocity=85, time=0),\n",
      "    Message('note_on', channel=13, note=68, velocity=87, time=0),\n",
      "    Message('note_off', channel=9, note=36, velocity=102, time=4),\n",
      "    Message('note_off', channel=9, note=42, velocity=81, time=0),\n",
      "    Message('note_off', channel=2, note=39, velocity=110, time=84),\n",
      "    Message('note_off', channel=6, note=65, velocity=85, time=80),\n",
      "    Message('note_off', channel=6, note=61, velocity=85, time=0),\n",
      "    Message('note_off', channel=6, note=58, velocity=86, time=0),\n",
      "    Message('note_on', channel=9, note=46, velocity=89, time=24),\n",
      "    Message('note_on', channel=2, note=37, velocity=106, time=0),\n",
      "    Message('note_on', channel=15, note=56, velocity=123, time=0),\n",
      "    Message('note_off', channel=9, note=46, velocity=89, time=4),\n",
      "    Message('note_off', channel=15, note=56, velocity=123, time=84),\n",
      "    Message('note_off', channel=2, note=37, velocity=106, time=0),\n",
      "    Message('note_on', channel=2, note=39, velocity=110, time=8),\n",
      "    Message('note_on', channel=6, note=65, velocity=88, time=0),\n",
      "    Message('note_on', channel=6, note=61, velocity=87, time=0),\n",
      "    Message('note_on', channel=6, note=58, velocity=88, time=0),\n",
      "    Message('note_on', channel=15, note=58, velocity=124, time=0),\n",
      "    Message('note_off', channel=6, note=58, velocity=88, time=48),\n",
      "    Message('note_off', channel=6, note=61, velocity=87, time=0),\n",
      "    Message('note_off', channel=6, note=65, velocity=88, time=0),\n",
      "    Message('note_off', channel=15, note=58, velocity=124, time=40),\n",
      "    Message('note_off', channel=2, note=39, velocity=110, time=0),\n",
      "    Message('note_on', channel=9, note=42, velocity=80, time=8),\n",
      "    Message('note_on', channel=9, note=38, velocity=101, time=0),\n",
      "    Message('note_on', channel=9, note=39, velocity=81, time=0),\n",
      "    Message('note_on', channel=15, note=61, velocity=122, time=0),\n",
      "    Message('note_off', channel=9, note=39, velocity=81, time=4),\n",
      "    Message('note_off', channel=9, note=38, velocity=101, time=0),\n",
      "    Message('note_off', channel=9, note=42, velocity=80, time=0),\n",
      "    Message('note_off', channel=15, note=61, velocity=122, time=84),\n",
      "    Message('note_on', channel=2, note=42, velocity=111, time=8),\n",
      "    Message('note_on', channel=15, note=58, velocity=123, time=0),\n",
      "    Message('note_off', channel=15, note=58, velocity=123, time=88),\n",
      "    Message('note_off', channel=2, note=42, velocity=111, time=0),\n",
      "    Message('note_on', channel=9, note=42, velocity=84, time=8),\n",
      "    Message('note_on', channel=2, note=41, velocity=110, time=0),\n",
      "    Message('note_on', channel=6, note=58, velocity=86, time=0),\n",
      "    Message('note_on', channel=6, note=65, velocity=84, time=0),\n",
      "    Message('note_on', channel=6, note=61, velocity=85, time=0),\n",
      "    Message('note_on', channel=15, note=65, velocity=122, time=0),\n",
      "    Message('note_off', channel=9, note=42, velocity=84, time=4),\n",
      "    Message('note_off', channel=6, note=61, velocity=85, time=44),\n",
      "    Message('note_off', channel=6, note=65, velocity=84, time=0),\n",
      "    Message('note_off', channel=6, note=58, velocity=86, time=0),\n",
      "    Message('note_off', channel=15, note=65, velocity=122, time=40),\n",
      "    Message('note_off', channel=2, note=41, velocity=110, time=0),\n",
      "    Message('note_on', channel=9, note=42, velocity=83, time=8),\n",
      "    Message('note_off', channel=9, note=42, velocity=83, time=4),\n",
      "    Message('note_on', channel=9, note=42, velocity=84, time=92),\n",
      "    Message('note_on', channel=9, note=36, velocity=102, time=0),\n",
      "    Message('note_on', channel=2, note=37, velocity=106, time=0),\n",
      "    Message('note_on', channel=6, note=58, velocity=85, time=0),\n",
      "    Message('note_on', channel=6, note=61, velocity=87, time=0),\n",
      "    Message('note_on', channel=6, note=65, velocity=88, time=0),\n",
      "    Message('note_on', channel=15, note=56, velocity=120, time=0),\n",
      "    Message('note_off', channel=9, note=36, velocity=102, time=4),\n",
      "    Message('note_off', channel=9, note=42, velocity=84, time=0),\n",
      "    Message('note_off', channel=15, note=56, velocity=120, time=84),\n",
      "    Message('note_on', channel=5, note=41, velocity=79, time=8),\n",
      "    Message('note_on', channel=15, note=58, velocity=120, time=0),\n",
      "    Message('note_off', channel=5, note=41, velocity=79, time=40),\n",
      "    Message('note_off', channel=6, note=65, velocity=88, time=32),\n",
      "    Message('note_off', channel=6, note=61, velocity=87, time=0),\n",
      "    Message('note_off', channel=6, note=58, velocity=85, time=0),\n",
      "    Message('note_off', channel=15, note=58, velocity=120, time=16),\n",
      "    Message('note_off', channel=2, note=37, velocity=106, time=8),\n",
      "    Message('note_on', channel=9, note=46, velocity=92, time=0),\n",
      "    Message('note_on', channel=2, note=39, velocity=107, time=0),\n",
      "    Message('note_on', channel=5, note=41, velocity=82, time=0),\n",
      "    Message('note_on', channel=15, note=61, velocity=119, time=0),\n",
      "    Message('note_off', channel=9, note=46, velocity=92, time=4),\n",
      "    Message('note_off', channel=5, note=41, velocity=82, time=36),\n",
      "    Message('note_off', channel=15, note=61, velocity=119, time=48),\n",
      "    Message('note_off', channel=2, note=39, velocity=107, time=0),\n",
      "    Message('note_on', channel=5, note=41, velocity=82, time=8),\n",
      "    Message('note_on', channel=6, note=61, velocity=85, time=0),\n",
      "    Message('note_on', channel=6, note=58, velocity=88, time=0),\n",
      "    Message('note_on', channel=6, note=65, velocity=85, time=0),\n",
      "    Message('note_on', channel=15, note=58, velocity=123, time=0),\n",
      "    Message('note_off', channel=5, note=41, velocity=82, time=40),\n",
      "    Message('note_off', channel=6, note=65, velocity=85, time=8),\n",
      "    Message('note_off', channel=6, note=58, velocity=88, time=0),\n",
      "    Message('note_off', channel=6, note=61, velocity=85, time=0),\n",
      "    Message('note_off', channel=15, note=58, velocity=123, time=40),\n",
      "    Message('note_on', channel=9, note=42, velocity=85, time=8),\n",
      "    Message('note_on', channel=9, note=38, velocity=107, time=0),\n",
      "    Message('note_on', channel=9, note=39, velocity=83, time=0),\n",
      "    Message('note_on', channel=5, note=44, velocity=81, time=0),\n",
      "    Message('note_on', channel=15, note=65, velocity=123, time=0),\n",
      "    Message('note_off', channel=9, note=39, velocity=83, time=4),\n",
      "    Message('note_off', channel=9, note=38, velocity=107, time=0),\n",
      "    Message('note_off', channel=9, note=42, velocity=85, time=0),\n",
      "    Message('note_off', channel=5, note=44, velocity=81, time=36),\n",
      "    Message('note_off', channel=13, note=68, velocity=87, time=48),\n",
      "    Message('note_on', channel=5, note=46, velocity=80, time=8),\n",
      "    Message('note_on', channel=13, note=66, velocity=84, time=0),\n",
      "    Message('note_off', channel=5, note=46, velocity=80, time=40),\n",
      "    Message('note_off', channel=15, note=65, velocity=123, time=40),\n",
      "    Message('note_off', channel=13, note=66, velocity=84, time=8),\n",
      "    Message('note_on', channel=9, note=46, velocity=90, time=8),\n",
      "    Message('note_on', channel=2, note=29, velocity=109, time=0),\n",
      "    Message('note_on', channel=6, note=58, velocity=85, time=0),\n",
      "    Message('note_on', channel=6, note=61, velocity=87, time=0),\n",
      "    Message('note_on', channel=6, note=65, velocity=84, time=0),\n",
      "    Message('note_on', channel=13, note=65, velocity=89, time=0),\n",
      "    Message('note_off', channel=9, note=46, velocity=90, time=4),\n",
      "    Message('note_off', channel=6, note=65, velocity=84, time=44),\n",
      "    Message('note_off', channel=6, note=61, velocity=87, time=0),\n",
      "    Message('note_off', channel=6, note=58, velocity=85, time=0),\n",
      "    Message('note_off', channel=13, note=65, velocity=89, time=40),\n",
      "    Message('note_off', channel=2, note=29, velocity=109, time=0),\n",
      "    Message('note_on', channel=2, note=32, velocity=109, time=8),\n",
      "    Message('note_on', channel=5, note=46, velocity=80, time=0),\n",
      "    Message('note_on', channel=13, note=63, velocity=86, time=0),\n",
      "    Message('note_off', channel=5, note=46, velocity=80, time=40),\n",
      "    Message('note_off', channel=13, note=63, velocity=86, time=48),\n",
      "    Message('note_off', channel=2, note=32, velocity=109, time=0),\n",
      "    Message('note_on', channel=9, note=42, velocity=80, time=8),\n",
      "    Message('note_on', channel=9, note=36, velocity=105, time=0),\n",
      "    Message('note_on', channel=2, note=34, velocity=109, time=0),\n",
      "    Message('note_on', channel=13, note=65, velocity=83, time=0),\n",
      "    Message('note_on', channel=14, note=65, velocity=82, time=0),\n",
      "    Message('note_on', channel=14, note=68, velocity=80, time=0),\n",
      "    Message('note_on', channel=14, note=73, velocity=83, time=0),\n",
      "    Message('note_off', channel=9, note=36, velocity=105, time=4),\n",
      "    Message('note_off', channel=9, note=42, velocity=80, time=0),\n",
      "    Message('note_off', channel=2, note=34, velocity=109, time=84),\n",
      "    Message('note_on', channel=9, note=45, velocity=87, time=8),\n",
      "    Message('note_off', channel=9, note=45, velocity=87, time=4),\n",
      "    Message('note_off', channel=13, note=65, velocity=83, time=84),\n",
      "    Message('note_on', channel=9, note=46, velocity=92, time=8),\n",
      "    Message('note_on', channel=2, note=32, velocity=111, time=0),\n",
      "    Message('note_on', channel=6, note=58, velocity=84, time=0),\n",
      "    Message('note_on', channel=6, note=61, velocity=87, time=0),\n",
      "    Message('note_on', channel=6, note=65, velocity=88, time=0),\n",
      "    Message('note_off', channel=9, note=46, velocity=92, time=4),\n",
      "    Message('note_off', channel=6, note=65, velocity=88, time=44),\n",
      "    Message('note_off', channel=6, note=61, velocity=87, time=0),\n",
      "    Message('note_off', channel=6, note=58, velocity=84, time=0),\n",
      "    Message('note_off', channel=14, note=73, velocity=83, time=32),\n",
      "    Message('note_off', channel=14, note=68, velocity=80, time=0),\n",
      "    Message('note_off', channel=14, note=65, velocity=82, time=0),\n",
      "    Message('note_off', channel=2, note=32, velocity=111, time=8),\n",
      "    Message('note_on', channel=2, note=34, velocity=111, time=8),\n",
      "    Message('note_on', channel=6, note=58, velocity=88, time=0),\n",
      "    Message('note_on', channel=6, note=61, velocity=86, time=0),\n",
      "    Message('note_on', channel=6, note=65, velocity=86, time=0),\n",
      "    Message('note_on', channel=14, note=65, velocity=79, time=0),\n",
      "    Message('note_on', channel=14, note=68, velocity=80, time=0),\n",
      "    Message('note_on', channel=14, note=73, velocity=81, time=0),\n",
      "    Message('note_off', channel=6, note=65, velocity=86, time=48),\n",
      "    Message('note_off', channel=6, note=61, velocity=86, time=0),\n",
      "    Message('note_off', channel=6, note=58, velocity=88, time=0),\n",
      "    Message('note_off', channel=2, note=34, velocity=111, time=40),\n",
      "    Message('note_on', channel=9, note=42, velocity=83, time=8),\n",
      "    Message('note_on', channel=9, note=38, velocity=101, time=0),\n",
      "    Message('note_on', channel=9, note=45, velocity=80, time=0),\n",
      "    Message('note_on', channel=9, note=39, velocity=82, time=0),\n",
      "    Message('note_on', channel=6, note=61, velocity=88, time=0),\n",
      "    Message('note_on', channel=6, note=58, velocity=88, time=0),\n",
      "    Message('note_on', channel=6, note=65, velocity=85, time=0),\n",
      "    Message('note_off', channel=9, note=39, velocity=82, time=4),\n",
      "    Message('note_off', channel=9, note=45, velocity=80, time=0),\n",
      "    Message('note_off', channel=9, note=38, velocity=101, time=0),\n",
      "    Message('note_off', channel=9, note=42, velocity=83, time=0),\n",
      "    Message('note_on', channel=2, note=37, velocity=108, time=92),\n",
      "    Message('note_off', channel=6, note=65, velocity=85, time=72),\n",
      "    Message('note_off', channel=6, note=58, velocity=88, time=0),\n",
      "    Message('note_off', channel=6, note=61, velocity=88, time=0),\n",
      "    Message('note_off', channel=14, note=73, velocity=81, time=8),\n",
      "    Message('note_off', channel=14, note=68, velocity=80, time=0),\n",
      "    Message('note_off', channel=14, note=65, velocity=79, time=0),\n",
      "    Message('note_off', channel=2, note=37, velocity=108, time=8),\n",
      "    Message('note_on', channel=9, note=46, velocity=90, time=8),\n",
      "    Message('note_on', channel=2, note=36, velocity=110, time=0),\n",
      "    Message('note_on', channel=6, note=56, velocity=87, time=0),\n",
      "    Message('note_on', channel=6, note=60, velocity=86, time=0),\n",
      "    Message('note_on', channel=6, note=63, velocity=85, time=0),\n",
      "    Message('note_on', channel=14, note=72, velocity=80, time=0),\n",
      "    Message('note_on', channel=14, note=68, velocity=83, time=0),\n",
      "    Message('note_on', channel=14, note=63, velocity=81, time=0),\n",
      "    Message('note_off', channel=9, note=46, velocity=90, time=4),\n",
      "    Message('note_off', channel=6, note=63, velocity=85, time=44),\n",
      "    Message('note_off', channel=6, note=60, velocity=86, time=0),\n",
      "    Message('note_off', channel=6, note=56, velocity=87, time=0),\n",
      "    Message('note_off', channel=2, note=36, velocity=110, time=40),\n",
      "    Message('note_on', channel=9, note=42, velocity=82, time=104),\n",
      "    Message('note_on', channel=9, note=36, velocity=104, time=0),\n",
      "    Message('note_on', channel=9, note=45, velocity=83, time=0),\n",
      "    Message('note_on', channel=9, note=39, velocity=84, time=0),\n",
      "    Message('note_off', channel=9, note=39, velocity=84, time=4),\n",
      "    Message('note_off', channel=9, note=45, velocity=83, time=0),\n",
      "    Message('note_off', channel=9, note=36, velocity=104, time=0),\n",
      "    Message('note_off', channel=9, note=42, velocity=82, time=0),\n",
      "    Message('note_off', channel=14, note=63, velocity=81, time=76),\n",
      "    Message('note_off', channel=14, note=68, velocity=83, time=0),\n",
      "    Message('note_off', channel=14, note=72, velocity=80, time=0),\n",
      "    Message('note_on', channel=9, note=45, velocity=82, time=16),\n",
      "    Message('note_on', channel=9, note=39, velocity=80, time=0),\n",
      "    Message('note_on', channel=5, note=46, velocity=82, time=0),\n",
      "    Message('note_off', channel=9, note=39, velocity=80, time=4),\n",
      "    Message('note_off', channel=9, note=45, velocity=82, time=0),\n",
      "    Message('note_off', channel=5, note=46, velocity=82, time=36),\n",
      "    Message('note_on', channel=9, note=46, velocity=87, time=56),\n",
      "    Message('note_on', channel=9, note=43, velocity=81, time=0),\n",
      "    Message('note_on', channel=9, note=39, velocity=82, time=0),\n",
      "    Message('note_on', channel=5, note=46, velocity=80, time=0),\n",
      "    Message('note_off', channel=9, note=39, velocity=82, time=4),\n",
      "    Message('note_off', channel=9, note=43, velocity=81, time=0),\n",
      "    Message('note_off', channel=9, note=46, velocity=87, time=0),\n",
      "    Message('note_off', channel=5, note=46, velocity=80, time=36),\n",
      "    Message('note_on', channel=9, note=43, velocity=83, time=56),\n",
      "    Message('note_on', channel=9, note=39, velocity=86, time=0),\n",
      "    Message('note_on', channel=5, note=46, velocity=82, time=0),\n",
      "    Message('note_off', channel=9, note=39, velocity=86, time=4),\n",
      "    Message('note_off', channel=9, note=43, velocity=83, time=0),\n",
      "    Message('note_off', channel=5, note=46, velocity=82, time=36),\n",
      "    Message('note_on', channel=9, note=42, velocity=84, time=56),\n",
      "    Message('note_on', channel=9, note=38, velocity=107, time=0),\n",
      "    Message('note_on', channel=9, note=45, velocity=80, time=0),\n",
      "    Message('note_on', channel=9, note=39, velocity=82, time=0),\n",
      "    Message('note_on', channel=5, note=49, velocity=82, time=0),\n",
      "    Message('note_off', channel=9, note=39, velocity=82, time=4),\n",
      "    Message('note_off', channel=9, note=45, velocity=80, time=0),\n",
      "    Message('note_off', channel=9, note=38, velocity=107, time=0),\n",
      "    Message('note_off', channel=9, note=42, velocity=84, time=0),\n",
      "    Message('note_off', channel=5, note=49, velocity=82, time=36),\n",
      "    Message('note_on', channel=9, note=45, velocity=80, time=56),\n",
      "    Message('note_on', channel=5, note=51, velocity=81, time=0),\n",
      "    Message('note_off', channel=9, note=45, velocity=80, time=4),\n",
      "    Message('note_off', channel=5, note=51, velocity=81, time=36),\n",
      "    Message('note_on', channel=9, note=46, velocity=88, time=56),\n",
      "    Message('note_on', channel=9, note=43, velocity=86, time=0),\n",
      "    Message('note_on', channel=2, note=34, velocity=109, time=0),\n",
      "    Message('note_off', channel=9, note=43, velocity=86, time=4),\n",
      "    Message('note_off', channel=9, note=46, velocity=88, time=0),\n",
      "    Message('note_off', channel=2, note=34, velocity=109, time=84),\n",
      "    Message('note_on', channel=9, note=43, velocity=84, time=8),\n",
      "    Message('note_on', channel=2, note=37, velocity=106, time=0),\n",
      "    Message('note_off', channel=9, note=43, velocity=84, time=4),\n",
      "    Message('note_off', channel=2, note=37, velocity=106, time=84),\n",
      "    Message('note_on', channel=9, note=42, velocity=80, time=8),\n",
      "    Message('note_on', channel=9, note=36, velocity=108, time=0),\n",
      "    Message('note_off', channel=9, note=36, velocity=108, time=4),\n",
      "    Message('note_off', channel=9, note=42, velocity=80, time=0),\n",
      "    Message('note_on', channel=9, note=46, velocity=88, time=188),\n",
      "    Message('note_on', channel=15, note=61, velocity=123, time=0),\n",
      "    Message('note_off', channel=9, note=46, velocity=88, time=4),\n",
      "    Message('note_off', channel=15, note=61, velocity=123, time=172),\n",
      "    Message('note_on', channel=9, note=42, velocity=81, time=16),\n",
      "    Message('note_on', channel=9, note=38, velocity=103, time=0),\n",
      "    Message('note_on', channel=9, note=39, velocity=82, time=0),\n",
      "    Message('note_on', channel=15, note=61, velocity=122, time=0),\n",
      "    Message('note_off', channel=9, note=39, velocity=82, time=4),\n",
      "    Message('note_off', channel=9, note=38, velocity=103, time=0),\n",
      "    Message('note_off', channel=9, note=42, velocity=81, time=0),\n",
      "    Message('note_off', channel=15, note=61, velocity=122, time=172),\n",
      "    Message('note_on', channel=9, note=42, velocity=84, time=16),\n",
      "    Message('note_on', channel=15, note=58, velocity=120, time=0),\n",
      "    Message('note_off', channel=9, note=42, velocity=84, time=4),\n",
      "    Message('note_on', channel=9, note=42, velocity=85, time=92),\n",
      "    Message('note_off', channel=9, note=42, velocity=85, time=4),\n",
      "    Message('note_off', channel=15, note=58, velocity=120, time=76),\n",
      "    Message('note_on', channel=9, note=42, velocity=82, time=16),\n",
      "    Message('note_on', channel=9, note=36, velocity=109, time=0),\n",
      "    Message('note_on', channel=15, note=61, velocity=123, time=0),\n",
      "    Message('note_off', channel=9, note=36, velocity=109, time=4),\n",
      "    Message('note_off', channel=9, note=42, velocity=82, time=0),\n",
      "    Message('note_off', channel=15, note=61, velocity=123, time=172),\n",
      "    Message('note_on', channel=9, note=46, velocity=91, time=16),\n",
      "    Message('note_on', channel=15, note=63, velocity=124, time=0),\n",
      "    Message('note_off', channel=9, note=46, velocity=91, time=4),\n",
      "    Message('note_on', channel=9, note=42, velocity=80, time=188),\n",
      "    Message('note_on', channel=9, note=38, velocity=101, time=0),\n",
      "    Message('note_on', channel=9, note=39, velocity=86, time=0),\n",
      "    Message('note_off', channel=9, note=39, velocity=86, time=4),\n",
      "    Message('note_off', channel=9, note=38, velocity=101, time=0),\n",
      "    Message('note_off', channel=9, note=42, velocity=80, time=0),\n",
      "    Message('note_off', channel=15, note=63, velocity=124, time=156),\n",
      "    Message('note_on', channel=9, note=46, velocity=91, time=32),\n",
      "    Message('note_off', channel=9, note=46, velocity=91, time=4),\n",
      "    Message('note_on', channel=9, note=42, velocity=82, time=188),\n",
      "    Message('note_on', channel=9, note=36, velocity=106, time=0),\n",
      "    Message('note_off', channel=9, note=36, velocity=106, time=4),\n",
      "    Message('note_off', channel=9, note=42, velocity=82, time=0),\n",
      "    Message('note_on', channel=9, note=46, velocity=89, time=188),\n",
      "    Message('note_on', channel=15, note=60, velocity=122, time=0),\n",
      "    Message('note_off', channel=9, note=46, velocity=89, time=4),\n",
      "    Message('note_off', channel=15, note=60, velocity=122, time=172),\n",
      "    Message('note_on', channel=9, note=42, velocity=83, time=16),\n",
      "    Message('note_on', channel=9, note=38, velocity=108, time=0),\n",
      "    Message('note_on', channel=9, note=39, velocity=80, time=0),\n",
      "    Message('note_on', channel=15, note=58, velocity=122, time=0),\n",
      "    Message('note_off', channel=9, note=39, velocity=80, time=4),\n",
      "    Message('note_off', channel=9, note=38, velocity=108, time=0),\n",
      "    Message('note_off', channel=9, note=42, velocity=83, time=0),\n",
      "    Message('note_off', channel=15, note=58, velocity=122, time=172),\n",
      "    Message('note_on', channel=9, note=46, velocity=87, time=16),\n",
      "    Message('note_on', channel=15, note=60, velocity=122, time=0),\n",
      "    Message('note_off', channel=9, note=46, velocity=87, time=4),\n",
      "    Message('note_on', channel=9, note=42, velocity=83, time=188),\n",
      "    Message('note_on', channel=9, note=36, velocity=109, time=0),\n",
      "    Message('note_off', channel=9, note=36, velocity=109, time=4),\n",
      "    Message('note_off', channel=9, note=42, velocity=83, time=0),\n",
      "    Message('note_off', channel=15, note=60, velocity=122, time=68),\n",
      "    Message('note_on', channel=15, note=58, velocity=124, time=24),\n",
      "    Message('note_off', channel=15, note=58, velocity=124, time=88),\n",
      "    Message('note_on', channel=9, note=46, velocity=90, time=8),\n",
      "    Message('note_on', channel=15, note=56, velocity=124, time=0),\n",
      "    Message('note_off', channel=9, note=46, velocity=90, time=4),\n",
      "    Message('note_on', channel=9, note=42, velocity=84, time=188),\n",
      "    Message('note_on', channel=9, note=38, velocity=108, time=0),\n",
      "    Message('note_on', channel=9, note=39, velocity=84, time=0),\n",
      "    Message('note_off', channel=9, note=39, velocity=84, time=4),\n",
      "    Message('note_off', channel=9, note=38, velocity=108, time=0),\n",
      "    Message('note_off', channel=9, note=42, velocity=84, time=0),\n",
      "    Message('note_on', channel=9, note=46, velocity=88, time=188),\n",
      "    Message('note_off', channel=9, note=46, velocity=88, time=4),\n",
      "    Message('note_off', channel=15, note=56, velocity=124, time=60),\n",
      "    Message('note_on', channel=9, note=42, velocity=81, time=128),\n",
      "    Message('note_on', channel=9, note=36, velocity=109, time=0),\n",
      "    Message('note_off', channel=9, note=36, velocity=109, time=4),\n",
      "    Message('note_off', channel=9, note=42, velocity=81, time=0),\n",
      "    Message('note_on', channel=9, note=46, velocity=88, time=188),\n",
      "    Message('note_on', channel=15, note=58, velocity=120, time=0),\n",
      "    Message('note_off', channel=9, note=46, velocity=88, time=4),\n",
      "    Message('note_off', channel=15, note=58, velocity=120, time=84),\n",
      "    Message('note_on', channel=9, note=42, velocity=84, time=104),\n",
      "    Message('note_on', channel=9, note=38, velocity=106, time=0),\n",
      "    Message('note_on', channel=9, note=39, velocity=85, time=0),\n",
      "    Message('note_on', channel=15, note=58, velocity=120, time=0),\n",
      "    Message('note_off', channel=9, note=39, velocity=85, time=4),\n",
      "    Message('note_off', channel=9, note=38, velocity=106, time=0),\n",
      "    Message('note_off', channel=9, note=42, velocity=84, time=0),\n",
      "    Message('note_off', channel=15, note=58, velocity=120, time=172),\n",
      "    Message('note_on', channel=9, note=42, velocity=82, time=16),\n",
      "    Message('note_on', channel=15, note=60, velocity=123, time=0),\n",
      "    Message('note_off', channel=9, note=42, velocity=82, time=4),\n",
      "    Message('note_on', channel=9, note=42, velocity=84, time=92),\n",
      "    Message('note_off', channel=9, note=42, velocity=84, time=4),\n",
      "    Message('note_off', channel=15, note=60, velocity=123, time=76),\n",
      "    Message('note_on', channel=9, note=42, velocity=83, time=16),\n",
      "    Message('note_on', channel=9, note=36, velocity=106, time=0),\n",
      "    Message('note_on', channel=15, note=61, velocity=120, time=0),\n",
      "    Message('note_off', channel=9, note=36, velocity=106, time=4),\n",
      "    Message('note_off', channel=9, note=42, velocity=83, time=0),\n",
      "    Message('note_off', channel=15, note=61, velocity=120, time=172),\n",
      "    Message('note_on', channel=9, note=46, velocity=90, time=16),\n",
      "    Message('note_on', channel=15, note=58, velocity=119, time=0),\n",
      "    Message('note_off', channel=9, note=46, velocity=90, time=4),\n",
      "    Message('note_off', channel=15, note=58, velocity=119, time=172),\n",
      "    Message('note_on', channel=9, note=42, velocity=83, time=16),\n",
      "    Message('note_on', channel=9, note=38, velocity=102, time=0),\n",
      "    Message('note_on', channel=9, note=39, velocity=84, time=0),\n",
      "    Message('note_on', channel=15, note=56, velocity=124, time=0),\n",
      "    Message('note_off', channel=9, note=39, velocity=84, time=4),\n",
      "    Message('note_off', channel=9, note=38, velocity=102, time=0),\n",
      "    Message('note_off', channel=9, note=42, velocity=83, time=0),\n",
      "    Message('note_on', channel=9, note=46, velocity=87, time=188),\n",
      "    Message('note_off', channel=9, note=46, velocity=87, time=4),\n",
      "    Message('note_off', channel=15, note=56, velocity=124, time=156),\n",
      "    Message('note_on', channel=9, note=42, velocity=82, time=32),\n",
      "    Message('note_on', channel=9, note=36, velocity=109, time=0),\n",
      "    Message('note_on', channel=10, note=54, velocity=60, time=0),\n",
      "    Message('note_on', channel=10, note=58, velocity=61, time=0),\n",
      "    Message('note_on', channel=10, note=65, velocity=58, time=0),\n",
      "    Message('note_on', channel=10, note=61, velocity=60, time=0),\n",
      "    Message('note_off', channel=9, note=36, velocity=109, time=4),\n",
      "    Message('note_off', channel=9, note=42, velocity=82, time=0),\n",
      "    Message('note_on', channel=9, note=46, velocity=88, time=188),\n",
      "    Message('note_on', channel=15, note=68, velocity=122, time=0),\n",
      "    Message('note_off', channel=9, note=46, velocity=88, time=4),\n",
      "    Message('note_off', channel=15, note=68, velocity=122, time=84),\n",
      "    Message('note_on', channel=9, note=42, velocity=82, time=104),\n",
      "    Message('note_on', channel=9, note=38, velocity=103, time=0),\n",
      "    Message('note_on', channel=9, note=39, velocity=82, time=0),\n",
      "    Message('note_on', channel=15, note=68, velocity=122, time=0),\n",
      "    Message('note_off', channel=9, note=39, velocity=82, time=4),\n",
      "    Message('note_off', channel=9, note=38, velocity=103, time=0),\n",
      "    Message('note_off', channel=9, note=42, velocity=82, time=0),\n",
      "    Message('note_off', channel=10, note=61, velocity=60, time=92),\n",
      "    Message('note_off', channel=10, note=65, velocity=58, time=0),\n",
      "    Message('note_off', channel=10, note=58, velocity=61, time=0),\n",
      "    Message('note_off', channel=10, note=54, velocity=60, time=0),\n",
      "    Message('note_off', channel=15, note=68, velocity=122, time=80),\n",
      "    Message('note_on', channel=9, note=46, velocity=87, time=16),\n",
      "    Message('note_on', channel=10, note=53, velocity=61, time=0),\n",
      "    Message('note_on', channel=10, note=60, velocity=61, time=0),\n",
      "    Message('note_on', channel=10, note=56, velocity=61, time=0),\n",
      "    Message('note_on', channel=10, note=63, velocity=57, time=0),\n",
      "    Message('note_on', channel=15, note=63, velocity=123, time=0),\n",
      "    Message('note_off', channel=9, note=46, velocity=87, time=4),\n",
      "    Message('note_on', channel=9, note=42, velocity=80, time=188),\n",
      "    Message('note_on', channel=9, note=36, velocity=106, time=0),\n",
      "    Message('note_off', channel=9, note=36, velocity=106, time=4),\n",
      "    Message('note_off', channel=9, note=42, velocity=80, time=0),\n",
      "    Message('note_off', channel=15, note=63, velocity=123, time=156),\n",
      "    Message('note_on', channel=9, note=46, velocity=90, time=32),\n",
      "    Message('note_on', channel=15, note=65, velocity=123, time=0),\n",
      "    Message('note_off', channel=9, note=46, velocity=90, time=4),\n",
      "    Message('note_off', channel=15, note=65, velocity=123, time=172),\n",
      "    Message('note_on', channel=9, note=42, velocity=85, time=16),\n",
      "    Message('note_on', channel=9, note=38, velocity=109, time=0),\n",
      "    Message('note_on', channel=9, note=39, velocity=87, time=0),\n",
      "    Message('note_on', channel=15, note=63, velocity=119, time=0),\n",
      "    Message('note_off', channel=9, note=39, velocity=87, time=4),\n",
      "    Message('note_off', channel=9, note=38, velocity=109, time=0),\n",
      "    Message('note_off', channel=9, note=42, velocity=85, time=0),\n",
      "    Message('note_off', channel=15, note=63, velocity=119, time=172),\n",
      "    Message('note_on', channel=9, note=46, velocity=87, time=16),\n",
      "    Message('note_on', channel=15, note=61, velocity=123, time=0),\n",
      "    Message('note_off', channel=9, note=46, velocity=87, time=4),\n",
      "    Message('note_off', channel=15, note=61, velocity=123, time=172),\n",
      "    Message('note_off', channel=10, note=63, velocity=57, time=16),\n",
      "    Message('note_off', channel=10, note=56, velocity=61, time=0),\n",
      "    Message('note_off', channel=10, note=60, velocity=61, time=0),\n",
      "    Message('note_off', channel=10, note=53, velocity=61, time=0),\n",
      "    Message('note_on', channel=9, note=42, velocity=85, time=0),\n",
      "    Message('note_on', channel=9, note=36, velocity=101, time=0),\n",
      "    Message('note_off', channel=9, note=36, velocity=101, time=4),\n",
      "    Message('note_off', channel=9, note=42, velocity=85, time=0),\n",
      "    Message('note_on', channel=9, note=46, velocity=88, time=188),\n",
      "    Message('note_on', channel=15, note=61, velocity=119, time=0),\n",
      "    Message('note_off', channel=9, note=46, velocity=88, time=4),\n",
      "    Message('note_off', channel=15, note=61, velocity=119, time=172),\n",
      "    Message('note_on', channel=9, note=42, velocity=80, time=16),\n",
      "    Message('note_on', channel=9, note=38, velocity=103, time=0),\n",
      "    Message('note_on', channel=9, note=39, velocity=80, time=0),\n",
      "    Message('note_on', channel=15, note=61, velocity=122, time=0),\n",
      "    Message('note_off', channel=9, note=39, velocity=80, time=4),\n",
      "    Message('note_off', channel=9, note=38, velocity=103, time=0),\n",
      "    Message('note_off', channel=9, note=42, velocity=80, time=0),\n",
      "    Message('note_off', channel=15, note=61, velocity=122, time=172),\n",
      "    Message('note_on', channel=9, note=42, velocity=83, time=16),\n",
      "    Message('note_on', channel=15, note=58, velocity=119, time=0),\n",
      "    Message('note_off', channel=9, note=42, velocity=83, time=4),\n",
      "    Message('note_on', channel=9, note=42, velocity=84, time=92),\n",
      "    Message('note_off', channel=9, note=42, velocity=84, time=4),\n",
      "    Message('note_off', channel=15, note=58, velocity=119, time=76),\n",
      "    Message('note_on', channel=9, note=42, velocity=85, time=16),\n",
      "    Message('note_on', channel=9, note=36, velocity=109, time=0),\n",
      "    Message('note_on', channel=15, note=61, velocity=123, time=0),\n",
      "    Message('note_off', channel=9, note=36, velocity=109, time=4),\n",
      "    Message('note_off', channel=9, note=42, velocity=85, time=0),\n",
      "    Message('note_off', channel=15, note=61, velocity=123, time=172),\n",
      "    Message('note_on', channel=9, note=46, velocity=90, time=16),\n",
      "    Message('note_on', channel=15, note=58, velocity=121, time=0),\n",
      "    Message('note_off', channel=9, note=46, velocity=90, time=4),\n",
      "    Message('note_off', channel=15, note=58, velocity=121, time=172),\n",
      "    Message('note_on', channel=9, note=42, velocity=84, time=16),\n",
      "    Message('note_on', channel=9, note=38, velocity=102, time=0),\n",
      "    Message('note_on', channel=9, note=39, velocity=84, time=0),\n",
      "    Message('note_on', channel=15, note=61, velocity=122, time=0),\n",
      "    Message('note_off', channel=9, note=39, velocity=84, time=4),\n",
      "    Message('note_off', channel=9, note=38, velocity=102, time=0),\n",
      "    Message('note_off', channel=9, note=42, velocity=84, time=0),\n",
      "    Message('note_off', channel=15, note=61, velocity=122, time=172),\n",
      "    Message('note_on', channel=9, note=46, velocity=92, time=16),\n",
      "    Message('note_on', channel=15, note=63, velocity=119, time=0),\n",
      "    Message('note_off', channel=9, note=46, velocity=92, time=4),\n",
      "    Message('note_off', channel=15, note=63, velocity=119, time=172),\n",
      "    Message('note_on', channel=9, note=42, velocity=83, time=16),\n",
      "    Message('note_on', channel=9, note=36, velocity=102, time=0),\n",
      "    Message('note_off', channel=9, note=36, velocity=102, time=4),\n",
      "    Message('note_off', channel=9, note=42, velocity=83, time=0),\n",
      "    Message('note_on', channel=9, note=46, velocity=90, time=188),\n",
      "    Message('note_on', channel=15, note=60, velocity=120, time=0),\n",
      "    Message('note_off', channel=9, note=46, velocity=90, time=4),\n",
      "    Message('note_off', channel=15, note=60, velocity=120, time=172),\n",
      "    Message('note_on', channel=9, note=42, velocity=85, time=16),\n",
      "    Message('note_on', channel=9, note=38, velocity=106, time=0),\n",
      "    Message('note_on', channel=9, note=39, velocity=87, time=0),\n",
      "    Message('note_on', channel=15, note=58, velocity=122, time=0),\n",
      "    Message('note_off', channel=9, note=39, velocity=87, time=4),\n",
      "    Message('note_off', channel=9, note=38, velocity=106, time=0),\n",
      "    Message('note_off', channel=9, note=42, velocity=85, time=0),\n",
      "    Message('note_off', channel=15, note=58, velocity=122, time=172),\n",
      "    Message('note_on', channel=9, note=46, velocity=87, time=16),\n",
      "    Message('note_on', channel=15, note=60, velocity=124, time=0),\n",
      "    Message('note_off', channel=9, note=46, velocity=87, time=4),\n",
      "    Message('note_on', channel=9, note=42, velocity=85, time=188),\n",
      "    Message('note_on', channel=9, note=36, velocity=108, time=0),\n",
      "    Message('note_off', channel=9, note=36, velocity=108, time=4),\n",
      "    Message('note_off', channel=9, note=42, velocity=85, time=0),\n",
      "    Message('note_off', channel=15, note=60, velocity=124, time=68),\n",
      "    Message('note_on', channel=15, note=58, velocity=123, time=24),\n",
      "    Message('note_off', channel=15, note=58, velocity=123, time=88),\n",
      "    Message('note_on', channel=9, note=46, velocity=90, time=8),\n",
      "    Message('note_on', channel=15, note=56, velocity=123, time=0),\n",
      "    Message('note_off', channel=9, note=46, velocity=90, time=4),\n",
      "    Message('note_on', channel=9, note=42, velocity=83, time=188),\n",
      "    Message('note_on', channel=9, note=38, velocity=106, time=0),\n",
      "    Message('note_on', channel=9, note=39, velocity=87, time=0),\n",
      "    Message('note_off', channel=9, note=39, velocity=87, time=4),\n",
      "    Message('note_off', channel=9, note=38, velocity=106, time=0),\n",
      "    Message('note_off', channel=9, note=42, velocity=83, time=0),\n",
      "    Message('note_on', channel=9, note=46, velocity=88, time=188),\n",
      "    Message('note_off', channel=9, note=46, velocity=88, time=4),\n",
      "    Message('note_off', channel=15, note=56, velocity=123, time=60),\n",
      "    Message('note_on', channel=9, note=42, velocity=82, time=128),\n",
      "    Message('note_on', channel=9, note=36, velocity=101, time=0),\n",
      "    Message('note_off', channel=9, note=36, velocity=101, time=4),\n",
      "    Message('note_off', channel=9, note=42, velocity=82, time=0),\n",
      "    Message('note_on', channel=9, note=46, velocity=90, time=188),\n",
      "    Message('note_on', channel=15, note=58, velocity=124, time=0),\n",
      "    Message('note_off', channel=9, note=46, velocity=90, time=4),\n",
      "    Message('note_off', channel=15, note=58, velocity=124, time=172),\n",
      "    Message('note_on', channel=9, note=42, velocity=83, time=16),\n",
      "    Message('note_on', channel=9, note=38, velocity=108, time=0),\n",
      "    Message('note_on', channel=9, note=39, velocity=84, time=0),\n",
      "    Message('note_on', channel=15, note=58, velocity=124, time=0),\n",
      "    Message('note_off', channel=9, note=39, velocity=84, time=4),\n",
      "    Message('note_off', channel=9, note=38, velocity=108, time=0),\n",
      "    Message('note_off', channel=9, note=42, velocity=83, time=0),\n",
      "    Message('note_off', channel=15, note=58, velocity=124, time=172),\n",
      "    Message('note_on', channel=9, note=42, velocity=84, time=16),\n",
      "    Message('note_on', channel=15, note=60, velocity=119, time=0),\n",
      "    Message('note_off', channel=9, note=42, velocity=84, time=4),\n",
      "    Message('note_on', channel=9, note=42, velocity=85, time=92),\n",
      "    Message('note_off', channel=9, note=42, velocity=85, time=4),\n",
      "    Message('note_off', channel=15, note=60, velocity=119, time=76),\n",
      "    Message('note_on', channel=9, note=42, velocity=85, time=16),\n",
      "    Message('note_on', channel=9, note=36, velocity=103, time=0),\n",
      "    Message('note_on', channel=15, note=61, velocity=122, time=0),\n",
      "    Message('note_off', channel=9, note=36, velocity=103, time=4),\n",
      "    Message('note_off', channel=9, note=42, velocity=85, time=0),\n",
      "    Message('note_off', channel=15, note=61, velocity=122, time=172),\n",
      "    Message('note_on', channel=9, note=46, velocity=88, time=16),\n",
      "    Message('note_on', channel=15, note=58, velocity=119, time=0),\n",
      "    Message('note_off', channel=9, note=46, velocity=88, time=4),\n",
      "    Message('note_off', channel=15, note=58, velocity=119, time=172),\n",
      "    Message('note_on', channel=9, note=42, velocity=84, time=16),\n",
      "    Message('note_on', channel=9, note=38, velocity=104, time=0),\n",
      "    Message('note_on', channel=9, note=39, velocity=81, time=0),\n",
      "    Message('note_on', channel=15, note=56, velocity=124, time=0),\n",
      "    Message('note_off', channel=9, note=39, velocity=81, time=4),\n",
      "    Message('note_off', channel=9, note=38, velocity=104, time=0),\n",
      "    Message('note_off', channel=9, note=42, velocity=84, time=0),\n",
      "    Message('note_on', channel=9, note=46, velocity=89, time=188),\n",
      "    Message('note_off', channel=9, note=46, velocity=89, time=4),\n",
      "    Message('note_off', channel=15, note=56, velocity=124, time=156),\n",
      "    Message('note_on', channel=9, note=42, velocity=84, time=32),\n",
      "    Message('note_on', channel=9, note=36, velocity=109, time=0),\n",
      "    Message('note_on', channel=10, note=65, velocity=61, time=0),\n",
      "    Message('note_on', channel=10, note=54, velocity=60, time=0),\n",
      "    Message('note_on', channel=10, note=58, velocity=61, time=0),\n",
      "    Message('note_on', channel=10, note=61, velocity=60, time=0),\n",
      "    Message('note_off', channel=9, note=36, velocity=109, time=4),\n",
      "    Message('note_off', channel=9, note=42, velocity=84, time=0),\n",
      "    Message('note_on', channel=9, note=46, velocity=92, time=188),\n",
      "    Message('note_on', channel=15, note=63, velocity=120, time=0),\n",
      "    Message('note_off', channel=9, note=46, velocity=92, time=4),\n",
      "    Message('note_off', channel=15, note=63, velocity=120, time=172),\n",
      "    Message('note_on', channel=9, note=42, velocity=80, time=16),\n",
      "    Message('note_on', channel=9, note=38, velocity=105, time=0),\n",
      "    Message('note_on', channel=9, note=39, velocity=81, time=0),\n",
      "    Message('note_on', channel=15, note=65, velocity=120, time=0),\n",
      "    Message('note_off', channel=9, note=39, velocity=81, time=4),\n",
      "    Message('note_off', channel=9, note=38, velocity=105, time=0),\n",
      "    Message('note_off', channel=9, note=42, velocity=80, time=0),\n",
      "    Message('note_off', channel=10, note=61, velocity=60, time=92),\n",
      "    Message('note_off', channel=10, note=58, velocity=61, time=0),\n",
      "    Message('note_off', channel=10, note=54, velocity=60, time=0),\n",
      "    Message('note_off', channel=10, note=65, velocity=61, time=0),\n",
      "    Message('note_off', channel=15, note=65, velocity=120, time=80),\n",
      "    Message('note_on', channel=9, note=46, velocity=91, time=16),\n",
      "    Message('note_on', channel=10, note=53, velocity=59, time=0),\n",
      "    Message('note_on', channel=10, note=56, velocity=62, time=0),\n",
      "    Message('note_on', channel=10, note=60, velocity=58, time=0),\n",
      "    Message('note_on', channel=10, note=63, velocity=60, time=0),\n",
      "    Message('note_on', channel=15, note=65, velocity=119, time=0),\n",
      "    Message('note_off', channel=9, note=46, velocity=91, time=4),\n",
      "    Message('note_on', channel=9, note=42, velocity=80, time=188),\n",
      "    Message('note_on', channel=9, note=36, velocity=105, time=0),\n",
      "    Message('note_on', channel=9, note=45, velocity=82, time=0),\n",
      "    Message('note_off', channel=9, note=45, velocity=82, time=4),\n",
      "    Message('note_off', channel=9, note=36, velocity=105, time=0),\n",
      "    Message('note_off', channel=9, note=42, velocity=80, time=0),\n",
      "    Message('note_on', channel=9, note=45, velocity=83, time=92),\n",
      "    Message('note_off', channel=9, note=45, velocity=83, time=4),\n",
      "    Message('note_off', channel=15, note=65, velocity=119, time=60),\n",
      "    Message('note_on', channel=9, note=46, velocity=87, time=32),\n",
      "    Message('note_on', channel=9, note=43, velocity=87, time=0),\n",
      "    Message('note_on', channel=15, note=63, velocity=124, time=0),\n",
      "    Message('note_off', channel=9, note=43, velocity=87, time=4),\n",
      "    Message('note_off', channel=9, note=46, velocity=87, time=0),\n",
      "    Message('note_on', channel=9, note=43, velocity=86, time=92),\n",
      "    Message('note_off', channel=9, note=43, velocity=86, time=4),\n",
      "    Message('note_on', channel=9, note=42, velocity=81, time=92),\n",
      "    Message('note_on', channel=9, note=38, velocity=101, time=0),\n",
      "    Message('note_on', channel=9, note=45, velocity=84, time=0),\n",
      "    Message('note_on', channel=9, note=39, velocity=83, time=0),\n",
      "    Message('note_off', channel=9, note=39, velocity=83, time=4),\n",
      "    Message('note_off', channel=9, note=45, velocity=84, time=0),\n",
      "    Message('note_off', channel=9, note=38, velocity=101, time=0),\n",
      "    Message('note_off', channel=9, note=42, velocity=81, time=0),\n",
      "    Message('note_on', channel=9, note=45, velocity=86, time=92),\n",
      "    Message('note_off', channel=9, note=45, velocity=86, time=4),\n",
      "    Message('note_off', channel=15, note=63, velocity=124, time=60),\n",
      "    Message('note_on', channel=9, note=46, velocity=90, time=32),\n",
      "    Message('note_on', channel=9, note=43, velocity=86, time=0),\n",
      "    Message('note_off', channel=9, note=43, velocity=86, time=4),\n",
      "    Message('note_off', channel=9, note=46, velocity=90, time=0),\n",
      "    Message('note_off', channel=10, note=63, velocity=60, time=92),\n",
      "    Message('note_off', channel=10, note=60, velocity=58, time=0),\n",
      "    Message('note_off', channel=10, note=56, velocity=62, time=0),\n",
      "    Message('note_off', channel=10, note=53, velocity=59, time=0),\n",
      "    Message('note_on', channel=9, note=43, velocity=82, time=0),\n",
      "    Message('note_off', channel=9, note=43, velocity=82, time=4),\n",
      "    Message('note_on', channel=9, note=42, velocity=83, time=92),\n",
      "    Message('note_on', channel=9, note=36, velocity=109, time=0),\n",
      "    Message('note_on', channel=2, note=34, velocity=111, time=0),\n",
      "    Message('note_on', channel=3, note=66, velocity=91, time=0),\n",
      "    Message('note_on', channel=3, note=70, velocity=92, time=0),\n",
      "    Message('note_on', channel=3, note=61, velocity=87, time=0),\n",
      "    Message('note_on', channel=3, note=63, velocity=90, time=0),\n",
      "    Message('note_on', channel=4, note=70, velocity=84, time=0),\n",
      "    Message('note_on', channel=4, note=63, velocity=82, time=0),\n",
      "    Message('note_on', channel=4, note=61, velocity=84, time=0),\n",
      "    Message('note_on', channel=4, note=66, velocity=87, time=0),\n",
      "    Message('note_on', channel=8, note=82, velocity=98, time=0),\n",
      "    Message('note_on', channel=15, note=61, velocity=119, time=0),\n",
      "    Message('note_off', channel=9, note=36, velocity=109, time=4),\n",
      "    Message('note_off', channel=9, note=42, velocity=83, time=0),\n",
      "    Message('note_off', channel=2, note=34, velocity=111, time=84),\n",
      "    Message('note_on', channel=9, note=46, velocity=91, time=104),\n",
      "    Message('note_on', channel=2, note=34, velocity=111, time=0),\n",
      "    Message('note_off', channel=9, note=46, velocity=91, time=4),\n",
      "    Message('note_off', channel=2, note=34, velocity=111, time=84),\n",
      "    Message('note_on', channel=2, note=34, velocity=107, time=8),\n",
      "    Message('note_off', channel=2, note=34, velocity=107, time=88),\n",
      "    Message('note_on', channel=9, note=42, velocity=82, time=8),\n",
      "    Message('note_on', channel=9, note=38, velocity=105, time=0),\n",
      "    Message('note_on', channel=9, note=39, velocity=81, time=0),\n",
      "    Message('note_off', channel=9, note=39, velocity=81, time=4),\n",
      "    Message('note_off', channel=9, note=38, velocity=105, time=0),\n",
      "    Message('note_off', channel=9, note=42, velocity=82, time=0),\n",
      "    Message('note_on', channel=2, note=37, velocity=111, time=92),\n",
      "    Message('note_off', channel=2, note=37, velocity=111, time=88),\n",
      "    Message('note_on', channel=9, note=42, velocity=80, time=8),\n",
      "    Message('note_on', channel=2, note=36, velocity=111, time=0),\n",
      "    Message('note_off', channel=9, note=42, velocity=80, time=4),\n",
      "    Message('note_off', channel=2, note=36, velocity=111, time=84),\n",
      "    Message('note_on', channel=9, note=42, velocity=84, time=8),\n",
      "    Message('note_off', channel=9, note=42, velocity=84, time=4),\n",
      "    Message('note_on', channel=9, note=42, velocity=81, time=92),\n",
      "    Message('note_on', channel=9, note=36, velocity=108, time=0),\n",
      "    Message('note_on', channel=2, note=32, velocity=106, time=0),\n",
      "    Message('note_off', channel=9, note=36, velocity=108, time=4),\n",
      "    Message('note_off', channel=9, note=42, velocity=81, time=0),\n",
      "    Message('note_off', channel=15, note=61, velocity=119, time=60),\n",
      "    Message('note_off', channel=2, note=32, velocity=106, time=128),\n",
      "    Message('note_on', channel=9, note=46, velocity=92, time=0),\n",
      "    Message('note_on', channel=2, note=34, velocity=109, time=0),\n",
      "    Message('note_on', channel=15, note=63, velocity=122, time=0),\n",
      "    Message('note_off', channel=9, note=46, velocity=92, time=4),\n",
      "    Message('note_off', channel=2, note=34, velocity=109, time=84),\n",
      "    Message('note_off', channel=15, note=63, velocity=122, time=88),\n",
      "    Message('note_on', channel=9, note=42, velocity=82, time=16),\n",
      "    Message('note_on', channel=9, note=38, velocity=108, time=0),\n",
      "    Message('note_on', channel=9, note=39, velocity=80, time=0),\n",
      "    Message('note_on', channel=15, note=65, velocity=122, time=0),\n",
      "    Message('note_off', channel=9, note=39, velocity=80, time=4),\n",
      "    Message('note_off', channel=9, note=38, velocity=108, time=0),\n",
      "    Message('note_off', channel=9, note=42, velocity=82, time=0),\n",
      "    Message('note_off', channel=15, note=65, velocity=122, time=172),\n",
      "    Message('note_on', channel=9, note=46, velocity=90, time=16),\n",
      "    Message('note_on', channel=2, note=29, velocity=106, time=0),\n",
      "    Message('note_on', channel=15, note=61, velocity=122, time=0),\n",
      "    Message('note_off', channel=9, note=46, velocity=90, time=4),\n",
      "    Message('note_off', channel=2, note=29, velocity=106, time=84),\n",
      "    Message('note_off', channel=4, note=66, velocity=87, time=8),\n",
      "    Message('note_off', channel=4, note=61, velocity=84, time=0),\n",
      "    Message('note_off', channel=4, note=63, velocity=82, time=0),\n",
      "    Message('note_off', channel=4, note=70, velocity=84, time=0),\n",
      "    Message('note_off', channel=3, note=63, velocity=90, time=0),\n",
      "    Message('note_off', channel=3, note=61, velocity=87, time=0),\n",
      "    Message('note_off', channel=3, note=70, velocity=92, time=0),\n",
      "    Message('note_off', channel=3, note=66, velocity=91, time=0),\n",
      "    Message('note_on', channel=2, note=32, velocity=110, time=0),\n",
      "    Message('note_off', channel=8, note=82, velocity=98, time=48),\n",
      "    Message('note_off', channel=15, note=61, velocity=122, time=32),\n",
      "    Message('note_off', channel=2, note=32, velocity=110, time=8),\n",
      "    Message('note_on', channel=9, note=42, velocity=84, time=8),\n",
      "    Message('note_on', channel=9, note=36, velocity=102, time=0),\n",
      "    Message('note_on', channel=2, note=34, velocity=108, time=0),\n",
      "    Message('note_on', channel=3, note=65, velocity=90, time=0),\n",
      "    Message('note_on', channel=3, note=68, velocity=89, time=0),\n",
      "    Message('note_on', channel=3, note=60, velocity=93, time=0),\n",
      "    Message('note_on', channel=3, note=63, velocity=93, time=0),\n",
      "    Message('note_on', channel=4, note=68, velocity=83, time=0),\n",
      "    Message('note_on', channel=4, note=63, velocity=85, time=0),\n",
      "    Message('note_on', channel=4, note=65, velocity=85, time=0),\n",
      "    Message('note_on', channel=4, note=60, velocity=87, time=0),\n",
      "    Message('note_on', channel=8, note=87, velocity=97, time=0),\n",
      "    Message('note_on', channel=15, note=63, velocity=123, time=0),\n",
      "    Message('note_off', channel=9, note=36, velocity=102, time=4),\n",
      "    Message('note_off', channel=9, note=42, velocity=84, time=0),\n",
      "    Message('note_off', channel=2, note=34, velocity=108, time=84),\n",
      "    Message('note_off', channel=15, note=63, velocity=123, time=88),\n",
      "    Message('note_on', channel=9, note=46, velocity=89, time=16),\n",
      "    Message('note_on', channel=2, note=32, velocity=111, time=0),\n",
      "    Message('note_on', channel=15, note=63, velocity=124, time=0),\n",
      "    Message('note_off', channel=9, note=46, velocity=89, time=4),\n",
      "    Message('note_off', channel=2, note=32, velocity=111, time=84),\n",
      "    Message('note_on', channel=2, note=34, velocity=106, time=8),\n",
      "    Message('note_off', channel=15, note=63, velocity=124, time=72),\n",
      "    Message('note_off', channel=2, note=34, velocity=106, time=16),\n",
      "    Message('note_on', channel=9, note=42, velocity=81, time=8),\n",
      "    Message('note_on', channel=9, note=38, velocity=104, time=0),\n",
      "    Message('note_on', channel=9, note=39, velocity=83, time=0),\n",
      "    Message('note_on', channel=15, note=63, velocity=120, time=0),\n",
      "    Message('note_off', channel=9, note=39, velocity=83, time=4),\n",
      "    Message('note_off', channel=9, note=38, velocity=104, time=0),\n",
      "    Message('note_off', channel=9, note=42, velocity=81, time=0),\n",
      "    Message('note_on', channel=2, note=37, velocity=109, time=92),\n",
      "    Message('note_off', channel=15, note=63, velocity=120, time=80),\n",
      "    Message('note_off', channel=2, note=37, velocity=109, time=8),\n",
      "    Message('note_on', channel=9, note=46, velocity=91, time=8),\n",
      "    Message('note_on', channel=2, note=36, velocity=109, time=0),\n",
      "    Message('note_on', channel=15, note=65, velocity=124, time=0),\n",
      "    Message('note_off', channel=9, note=46, velocity=91, time=4),\n",
      "    Message('note_off', channel=2, note=36, velocity=109, time=84),\n",
      "    Message('note_off', channel=8, note=87, velocity=97, time=56),\n",
      "    Message('note_off', channel=15, note=65, velocity=124, time=32),\n",
      "    Message('note_on', channel=9, note=42, velocity=80, time=16),\n",
      "    Message('note_on', channel=9, note=36, velocity=104, time=0),\n",
      "    Message('note_on', channel=8, note=89, velocity=94, time=0),\n",
      "    Message('note_on', channel=15, note=63, velocity=120, time=0),\n",
      "    Message('note_off', channel=9, note=36, velocity=104, time=4),\n",
      "    Message('note_off', channel=9, note=42, velocity=80, time=0),\n",
      "    Message('note_off', channel=15, note=63, velocity=120, time=172),\n",
      "    Message('note_on', channel=9, note=46, velocity=88, time=16),\n",
      "    Message('note_on', channel=15, note=56, velocity=123, time=0),\n",
      "    Message('note_off', channel=9, note=46, velocity=88, time=4),\n",
      "    Message('note_off', channel=15, note=56, velocity=123, time=172),\n",
      "    Message('note_on', channel=9, note=42, velocity=83, time=16),\n",
      "    Message('note_on', channel=9, note=38, velocity=103, time=0),\n",
      "    Message('note_on', channel=9, note=39, velocity=85, time=0),\n",
      "    Message('note_on', channel=15, note=56, velocity=122, time=0),\n",
      "    Message('note_off', channel=9, note=39, velocity=85, time=4),\n",
      "    Message('note_off', channel=9, note=38, velocity=103, time=0),\n",
      "    Message('note_off', channel=9, note=42, velocity=83, time=0),\n",
      "    Message('note_on', channel=9, note=46, velocity=87, time=188),\n",
      "    Message('note_on', channel=2, note=29, velocity=106, time=0),\n",
      "    Message('note_off', channel=9, note=46, velocity=87, time=4),\n",
      "    Message('note_off', channel=2, note=29, velocity=106, time=84),\n",
      "    Message('note_off', channel=4, note=60, velocity=87, time=8),\n",
      "    Message('note_off', channel=4, note=65, velocity=85, time=0),\n",
      "    Message('note_off', channel=4, note=63, velocity=85, time=0),\n",
      "    Message('note_off', channel=4, note=68, velocity=83, time=0),\n",
      "    Message('note_off', channel=3, note=63, velocity=93, time=0),\n",
      "    Message('note_off', channel=3, note=60, velocity=93, time=0),\n",
      "    Message('note_off', channel=3, note=68, velocity=89, time=0),\n",
      "    Message('note_off', channel=3, note=65, velocity=90, time=0),\n",
      "    Message('note_on', channel=2, note=32, velocity=107, time=0),\n",
      "    Message('note_off', channel=8, note=89, velocity=94, time=48),\n",
      "    Message('note_off', channel=2, note=32, velocity=107, time=40),\n",
      "    Message('note_on', channel=9, note=42, velocity=85, time=8),\n",
      "    Message('note_on', channel=9, note=36, velocity=107, time=0),\n",
      "    Message('note_on', channel=2, note=34, velocity=111, time=0),\n",
      "    Message('note_on', channel=3, note=66, velocity=92, time=0),\n",
      "    Message('note_on', channel=3, note=63, velocity=92, time=0),\n",
      "    Message('note_on', channel=3, note=70, velocity=86, time=0),\n",
      "    Message('note_on', channel=3, note=61, velocity=92, time=0),\n",
      "    Message('note_on', channel=4, note=70, velocity=84, time=0),\n",
      "    Message('note_on', channel=4, note=61, velocity=83, time=0),\n",
      "    Message('note_on', channel=4, note=63, velocity=84, time=0),\n",
      "    Message('note_on', channel=4, note=66, velocity=85, time=0),\n",
      "    Message('note_on', channel=8, note=82, velocity=95, time=0),\n",
      "    Message('note_off', channel=9, note=36, velocity=107, time=4),\n",
      "    Message('note_off', channel=9, note=42, velocity=85, time=0),\n",
      "    Message('note_off', channel=2, note=34, velocity=111, time=84),\n",
      "    Message('note_on', channel=9, note=46, velocity=92, time=104),\n",
      "    Message('note_on', channel=2, note=34, velocity=106, time=0),\n",
      "    Message('note_off', channel=9, note=46, velocity=92, time=4),\n",
      "    Message('note_off', channel=2, note=34, velocity=106, time=84),\n",
      "    Message('note_on', channel=2, note=34, velocity=111, time=8),\n",
      "    Message('note_off', channel=15, note=56, velocity=122, time=64),\n",
      "    Message('note_off', channel=2, note=34, velocity=111, time=24),\n",
      "    Message('note_on', channel=9, note=42, velocity=83, time=8),\n",
      "    Message('note_on', channel=9, note=38, velocity=102, time=0),\n",
      "    Message('note_on', channel=9, note=39, velocity=80, time=0),\n",
      "    Message('note_off', channel=9, note=39, velocity=80, time=4),\n",
      "    Message('note_off', channel=9, note=38, velocity=102, time=0),\n",
      "    Message('note_off', channel=9, note=42, velocity=83, time=0),\n",
      "    Message('note_on', channel=2, note=37, velocity=111, time=92),\n",
      "    Message('note_off', channel=2, note=37, velocity=111, time=88),\n",
      "    Message('note_on', channel=9, note=42, velocity=83, time=8),\n",
      "    Message('note_on', channel=2, note=36, velocity=108, time=0),\n",
      "    Message('note_off', channel=9, note=42, velocity=83, time=4),\n",
      "    Message('note_off', channel=2, note=36, velocity=108, time=84),\n",
      "    Message('note_on', channel=9, note=42, velocity=80, time=8),\n",
      "    Message('note_off', channel=9, note=42, velocity=80, time=4),\n",
      "    Message('note_on', channel=9, note=42, velocity=82, time=92),\n",
      "    Message('note_on', channel=9, note=36, velocity=104, time=0),\n",
      "    Message('note_on', channel=2, note=32, velocity=108, time=0),\n",
      "    Message('note_on', channel=15, note=58, velocity=123, time=0),\n",
      "    Message('note_off', channel=9, note=36, velocity=104, time=4),\n",
      "    Message('note_off', channel=9, note=42, velocity=82, time=0),\n",
      "    Message('note_off', channel=2, note=32, velocity=108, time=84),\n",
      "    Message('note_off', channel=15, note=58, velocity=123, time=88),\n",
      "    Message('note_on', channel=9, note=46, velocity=91, time=16),\n",
      "    Message('note_on', channel=2, note=34, velocity=110, time=0),\n",
      "    Message('note_on', channel=15, note=60, velocity=124, time=0),\n",
      "    Message('note_off', channel=9, note=46, velocity=91, time=4),\n",
      "    Message('note_off', channel=2, note=34, velocity=110, time=84),\n",
      "    Message('note_off', channel=15, note=60, velocity=124, time=88),\n",
      "    Message('note_on', channel=9, note=42, velocity=81, time=16),\n",
      "    Message('note_on', channel=9, note=38, velocity=104, time=0),\n",
      "    Message('note_on', channel=9, note=39, velocity=83, time=0),\n",
      "    Message('note_on', channel=15, note=61, velocity=122, time=0),\n",
      "    Message('note_off', channel=9, note=39, velocity=83, time=4),\n",
      "    Message('note_off', channel=9, note=38, velocity=104, time=0),\n",
      "    Message('note_off', channel=9, note=42, velocity=81, time=0),\n",
      "    Message('note_off', channel=15, note=61, velocity=122, time=172),\n",
      "    Message('note_on', channel=9, note=46, velocity=87, time=16),\n",
      "    Message('note_on', channel=2, note=29, velocity=109, time=0),\n",
      "    Message('note_on', channel=15, note=58, velocity=123, time=0),\n",
      "    Message('note_off', channel=9, note=46, velocity=87, time=4),\n",
      "    Message('note_off', channel=2, note=29, velocity=109, time=84),\n",
      "    Message('note_off', channel=4, note=66, velocity=85, time=8),\n",
      "    Message('note_off', channel=4, note=63, velocity=84, time=0),\n",
      "    Message('note_off', channel=4, note=61, velocity=83, time=0),\n",
      "    Message('note_off', channel=4, note=70, velocity=84, time=0),\n",
      "    Message('note_off', channel=3, note=61, velocity=92, time=0),\n",
      "    Message('note_off', channel=3, note=70, velocity=86, time=0),\n",
      "    Message('note_off', channel=3, note=63, velocity=92, time=0),\n",
      "    Message('note_off', channel=3, note=66, velocity=92, time=0),\n",
      "    Message('note_on', channel=2, note=32, velocity=108, time=0),\n",
      "    Message('note_off', channel=8, note=82, velocity=95, time=48),\n",
      "    Message('note_off', channel=15, note=58, velocity=123, time=32),\n",
      "    Message('note_off', channel=2, note=32, velocity=108, time=8),\n",
      "    Message('note_on', channel=9, note=42, velocity=84, time=8),\n",
      "    Message('note_on', channel=9, note=36, velocity=103, time=0),\n",
      "    Message('note_on', channel=2, note=34, velocity=111, time=0),\n",
      "    Message('note_on', channel=3, note=66, velocity=90, time=0),\n",
      "    Message('note_on', channel=3, note=70, velocity=87, time=0),\n",
      "    Message('note_on', channel=3, note=61, velocity=92, time=0),\n",
      "    Message('note_on', channel=3, note=63, velocity=89, time=0),\n",
      "    Message('note_on', channel=4, note=70, velocity=84, time=0),\n",
      "    Message('note_on', channel=4, note=63, velocity=86, time=0),\n",
      "    Message('note_on', channel=4, note=61, velocity=85, time=0),\n",
      "    Message('note_on', channel=4, note=66, velocity=85, time=0),\n",
      "    Message('note_off', channel=9, note=36, velocity=103, time=4),\n",
      "    Message('note_off', channel=9, note=42, velocity=84, time=0),\n",
      "    Message('note_off', channel=2, note=34, velocity=111, time=84),\n",
      "    Message('note_off', channel=3, note=63, velocity=89, time=8),\n",
      "    Message('note_off', channel=3, note=61, velocity=92, time=0),\n",
      "    Message('note_off', channel=3, note=70, velocity=87, time=0),\n",
      "    Message('note_off', channel=3, note=66, velocity=90, time=0),\n",
      "    Message('note_off', channel=4, note=66, velocity=85, time=96),\n",
      "    Message('note_off', channel=4, note=61, velocity=85, time=0),\n",
      "    Message('note_off', channel=4, note=63, velocity=86, time=0),\n",
      "    Message('note_off', channel=4, note=70, velocity=84, time=0),\n",
      "    Message('note_on', channel=9, note=46, velocity=92, time=0),\n",
      "    Message('note_on', channel=2, note=32, velocity=109, time=0),\n",
      "    Message('note_on', channel=15, note=63, velocity=120, time=0),\n",
      "    Message('note_off', channel=9, note=46, velocity=92, time=4),\n",
      "    Message('note_off', channel=2, note=32, velocity=109, time=84),\n",
      "    Message('note_on', channel=2, note=34, velocity=106, time=8),\n",
      "    Message('note_on', channel=3, note=66, velocity=86, time=0),\n",
      "    Message('note_on', channel=3, note=70, velocity=86, time=0),\n",
      "    Message('note_on', channel=3, note=63, velocity=90, time=0),\n",
      "    Message('note_on', channel=3, note=61, velocity=93, time=0),\n",
      "    Message('note_on', channel=4, note=70, velocity=86, time=0),\n",
      "    Message('note_on', channel=4, note=63, velocity=87, time=0),\n",
      "    Message('note_on', channel=4, note=61, velocity=82, time=0),\n",
      "    Message('note_on', channel=4, note=66, velocity=84, time=0),\n",
      "    Message('note_off', channel=15, note=63, velocity=120, time=80),\n",
      "    Message('note_off', channel=2, note=34, velocity=106, time=8),\n",
      "    Message('note_off', channel=4, note=66, velocity=84, time=8),\n",
      "    Message('note_off', channel=4, note=61, velocity=82, time=0),\n",
      "    Message('note_off', channel=4, note=63, velocity=87, time=0),\n",
      "    Message('note_off', channel=4, note=70, velocity=86, time=0),\n",
      "    Message('note_off', channel=3, note=61, velocity=93, time=0),\n",
      "    Message('note_off', channel=3, note=63, velocity=90, time=0),\n",
      "    Message('note_off', channel=3, note=70, velocity=86, time=0),\n",
      "    Message('note_off', channel=3, note=66, velocity=86, time=0),\n",
      "    Message('note_on', channel=9, note=42, velocity=83, time=0),\n",
      "    Message('note_on', channel=9, note=38, velocity=103, time=0),\n",
      "    Message('note_on', channel=9, note=39, velocity=86, time=0),\n",
      "    Message('note_on', channel=15, note=65, velocity=122, time=0),\n",
      "    Message('note_off', channel=9, note=39, velocity=86, time=4),\n",
      "    Message('note_off', channel=9, note=38, velocity=103, time=0),\n",
      "    Message('note_off', channel=9, note=42, velocity=83, time=0),\n",
      "    Message('note_on', channel=9, note=45, velocity=86, time=92),\n",
      "    Message('note_on', channel=2, note=37, velocity=111, time=0),\n",
      "    Message('note_off', channel=9, note=45, velocity=86, time=4),\n",
      "    Message('note_off', channel=15, note=65, velocity=122, time=76),\n",
      "    Message('note_off', channel=2, note=37, velocity=111, time=8),\n",
      "    Message('note_on', channel=9, note=46, velocity=90, time=8),\n",
      "    Message('note_on', channel=9, note=45, velocity=81, time=0),\n",
      "    Message('note_on', channel=2, note=36, velocity=107, time=0),\n",
      "    Message('note_on', channel=3, note=68, velocity=87, time=0),\n",
      "    Message('note_on', channel=3, note=72, velocity=88, time=0),\n",
      "    Message('note_on', channel=3, note=63, velocity=92, time=0),\n",
      "    Message('note_on', channel=4, note=63, velocity=86, time=0),\n",
      "    Message('note_on', channel=4, note=68, velocity=86, time=0),\n",
      "    Message('note_on', channel=4, note=72, velocity=83, time=0),\n",
      "    Message('note_on', channel=15, note=63, velocity=120, time=0),\n",
      "    Message('note_off', channel=9, note=45, velocity=81, time=4),\n",
      "    Message('note_off', channel=9, note=46, velocity=90, time=0),\n",
      "    Message('note_off', channel=2, note=36, velocity=107, time=84),\n",
      "    Message('note_on', channel=9, note=42, velocity=84, time=104),\n",
      "    Message('note_on', channel=9, note=36, velocity=102, time=0),\n",
      "    Message('note_on', channel=9, note=39, velocity=87, time=0),\n",
      "    Message('note_off', channel=9, note=39, velocity=87, time=4),\n",
      "    Message('note_off', channel=9, note=36, velocity=102, time=0),\n",
      "    Message('note_off', channel=9, note=42, velocity=84, time=0),\n",
      "    Message('note_on', channel=9, note=45, velocity=81, time=92),\n",
      "    Message('note_on', channel=9, note=39, velocity=85, time=0),\n",
      "    Message('note_off', channel=9, note=39, velocity=85, time=4),\n",
      "    Message('note_off', channel=9, note=45, velocity=81, time=0),\n",
      "    Message('note_on', channel=9, note=46, velocity=91, time=92),\n",
      "    Message('note_on', channel=9, note=45, velocity=82, time=0),\n",
      "    Message('note_on', channel=7, note=56, velocity=82, time=0),\n",
      "    Message('note_on', channel=7, note=68, velocity=111, time=0),\n",
      "    Message('note_on', channel=7, note=80, velocity=109, time=0),\n",
      "    Message('note_off', channel=9, note=45, velocity=82, time=4),\n",
      "    Message('note_off', channel=9, note=46, velocity=91, time=0),\n",
      "    Message('note_off', channel=7, note=80, velocity=109, time=60),\n",
      "    Message('note_off', channel=7, note=68, velocity=111, time=0),\n",
      "    Message('note_off', channel=7, note=56, velocity=82, time=0),\n",
      "    Message('note_on', channel=7, note=68, velocity=83, time=32),\n",
      "    Message('note_on', channel=7, note=80, velocity=112, time=0),\n",
      "    Message('note_on', channel=7, note=56, velocity=81, time=0),\n",
      "    Message('note_off', channel=7, note=56, velocity=81, time=64),\n",
      "    Message('note_off', channel=7, note=80, velocity=112, time=0),\n",
      "    Message('note_off', channel=7, note=68, velocity=83, time=0),\n",
      "    Message('note_off', channel=15, note=63, velocity=120, time=0),\n",
      "    Message('note_on', channel=9, note=42, velocity=82, time=32),\n",
      "    Message('note_on', channel=9, note=38, velocity=105, time=0),\n",
      "    Message('note_on', channel=9, note=45, velocity=81, time=0),\n",
      "    Message('note_on', channel=9, note=39, velocity=83, time=0),\n",
      "    Message('note_on', channel=15, note=56, velocity=120, time=0),\n",
      "    Message('note_off', channel=9, note=39, velocity=83, time=4),\n",
      "    Message('note_off', channel=9, note=45, velocity=81, time=0),\n",
      "    Message('note_off', channel=9, note=38, velocity=105, time=0),\n",
      "    Message('note_off', channel=9, note=42, velocity=82, time=0),\n",
      "    Message('note_off', channel=15, note=56, velocity=120, time=84),\n",
      "    Message('note_on', channel=9, note=45, velocity=87, time=8),\n",
      "    Message('note_on', channel=9, note=39, velocity=82, time=0),\n",
      "    Message('note_on', channel=15, note=58, velocity=119, time=0),\n",
      "    Message('note_off', channel=9, note=39, velocity=82, time=4),\n",
      "    Message('note_off', channel=9, note=45, velocity=87, time=0),\n",
      "    Message('note_off', channel=15, note=58, velocity=119, time=84),\n",
      "    Message('note_on', channel=9, note=46, velocity=91, time=8),\n",
      "    Message('note_on', channel=9, note=43, velocity=83, time=0),\n",
      "    Message('note_on', channel=2, note=29, velocity=108, time=0),\n",
      "    Message('note_on', channel=15, note=61, velocity=120, time=0),\n",
      "    Message('note_off', channel=9, note=43, velocity=83, time=4),\n",
      "    Message('note_off', channel=9, note=46, velocity=91, time=0),\n",
      "    Message('note_off', channel=15, note=61, velocity=120, time=84),\n",
      "    Message('note_off', channel=2, note=29, velocity=108, time=0),\n",
      "    Message('note_off', channel=3, note=63, velocity=92, time=8),\n",
      "    Message('note_off', channel=3, note=72, velocity=88, time=0),\n",
      "    Message('note_off', channel=3, note=68, velocity=87, time=0),\n",
      "    Message('note_on', channel=9, note=43, velocity=86, time=0),\n",
      "    Message('note_on', channel=2, note=32, velocity=109, time=0),\n",
      "    Message('note_on', channel=15, note=58, velocity=120, time=0),\n",
      "    Message('note_off', channel=9, note=43, velocity=86, time=4),\n",
      "    Message('note_off', channel=15, note=58, velocity=120, time=84),\n",
      "    Message('note_off', channel=2, note=32, velocity=109, time=0),\n",
      "    Message('note_off', channel=4, note=72, velocity=83, time=8),\n",
      "    Message('note_off', channel=4, note=68, velocity=86, time=0),\n",
      "    Message('note_off', channel=4, note=63, velocity=86, time=0),\n",
      "    Message('note_on', channel=9, note=42, velocity=80, time=0),\n",
      "    Message('note_on', channel=9, note=36, velocity=102, time=0),\n",
      "    Message('note_on', channel=2, note=27, velocity=111, time=0),\n",
      "    Message('note_on', channel=3, note=61, velocity=92, time=0),\n",
      "    Message('note_on', channel=3, note=58, velocity=86, time=0),\n",
      "    Message('note_on', channel=3, note=65, velocity=88, time=0),\n",
      "    Message('note_on', channel=8, note=85, velocity=99, time=0),\n",
      "    Message('note_on', channel=13, note=65, velocity=83, time=0),\n",
      "    Message('note_on', channel=13, note=68, velocity=89, time=0),\n",
      "    Message('note_on', channel=13, note=73, velocity=82, time=0),\n",
      "    Message('note_on', channel=15, note=65, velocity=121, time=0),\n",
      "    Message('note_off', channel=9, note=36, velocity=102, time=4),\n",
      "    Message('note_off', channel=9, note=42, velocity=80, time=0),\n",
      "    Message('note_off', channel=2, note=27, velocity=111, time=84),\n",
      "    Message('note_on', channel=9, note=46, velocity=89, time=104),\n",
      "    Message('note_on', channel=2, note=27, velocity=108, time=0),\n",
      "    Message('note_off', channel=9, note=46, velocity=89, time=4),\n",
      "    Message('note_off', channel=15, note=65, velocity=121, time=68),\n",
      "    Message('note_off', channel=2, note=27, velocity=108, time=16),\n",
      "    Message('note_off', channel=13, note=73, velocity=82, time=0),\n",
      "    Message('note_off', channel=13, note=68, velocity=89, time=0),\n",
      "    Message('note_off', channel=13, note=65, velocity=83, time=0),\n",
      "    Message('note_on', channel=2, note=27, velocity=111, time=8),\n",
      "    Message('note_off', channel=2, note=27, velocity=111, time=88),\n",
      "    Message('note_on', channel=9, note=42, velocity=82, time=8),\n",
      "    Message('note_on', channel=9, note=38, velocity=107, time=0),\n",
      "    Message('note_on', channel=9, note=39, velocity=86, time=0),\n",
      "    Message('note_on', channel=13, note=65, velocity=87, time=0),\n",
      "    Message('note_on', channel=13, note=73, velocity=89, time=0),\n",
      "    Message('note_on', channel=13, note=68, velocity=89, time=0),\n",
      "    Message('note_on', channel=15, note=65, velocity=120, time=0),\n",
      "    Message('note_off', channel=9, note=39, velocity=86, time=4),\n",
      "    Message('note_off', channel=9, note=38, velocity=107, time=0),\n",
      "    Message('note_off', channel=9, note=42, velocity=82, time=0),\n",
      "    Message('note_off', channel=3, note=65, velocity=88, time=92),\n",
      "    Message('note_off', channel=3, note=58, velocity=86, time=0),\n",
      "    Message('note_off', channel=3, note=61, velocity=92, time=0),\n",
      "    Message('note_on', channel=2, note=36, velocity=109, time=0),\n",
      "    Message('note_off', channel=8, note=85, velocity=99, time=48),\n",
      "    Message('note_off', channel=15, note=65, velocity=120, time=32),\n",
      "    Message('note_off', channel=2, note=36, velocity=109, time=8),\n",
      "    Message('note_off', channel=13, note=68, velocity=89, time=0),\n",
      "    Message('note_off', channel=13, note=73, velocity=89, time=0),\n",
      "    Message('note_off', channel=13, note=65, velocity=87, time=0),\n",
      "    Message('note_on', channel=9, note=42, velocity=81, time=8),\n",
      "    Message('note_on', channel=2, note=34, velocity=108, time=0),\n",
      "    Message('note_on', channel=3, note=60, velocity=93, time=0),\n",
      "    Message('note_on', channel=3, note=56, velocity=86, time=0),\n",
      "    Message('note_on', channel=3, note=63, velocity=93, time=0),\n",
      "    Message('note_on', channel=8, note=87, velocity=98, time=0),\n",
      "    Message('note_on', channel=13, note=68, velocity=86, time=0),\n",
      "    Message('note_on', channel=13, note=63, velocity=83, time=0),\n",
      "    Message('note_on', channel=13, note=72, velocity=88, time=0),\n",
      "    Message('note_on', channel=15, note=63, velocity=120, time=0),\n",
      "    Message('note_off', channel=9, note=42, velocity=81, time=4),\n",
      "    Message('note_off', channel=2, note=34, velocity=108, time=84),\n",
      "    Message('note_on', channel=9, note=42, velocity=84, time=8),\n",
      "    Message('note_off', channel=9, note=42, velocity=84, time=4),\n",
      "    Message('note_off', channel=13, note=72, velocity=88, time=84),\n",
      "    Message('note_off', channel=13, note=63, velocity=83, time=0),\n",
      "    Message('note_off', channel=13, note=68, velocity=86, time=0),\n",
      "    Message('note_on', channel=9, note=42, velocity=85, time=8),\n",
      "    Message('note_on', channel=9, note=36, velocity=102, time=0),\n",
      "    Message('note_on', channel=2, note=32, velocity=109, time=0),\n",
      "    Message('note_off', channel=9, note=36, velocity=102, time=4),\n",
      "    Message('note_off', channel=9, note=42, velocity=85, time=0),\n",
      "    Message('note_off', channel=2, note=32, velocity=109, time=84),\n",
      "    Message('note_on', channel=9, note=46, velocity=90, time=104),\n",
      "    Message('note_on', channel=2, note=32, velocity=110, time=0),\n",
      "    Message('note_off', channel=9, note=46, velocity=90, time=4),\n",
      "    Message('note_off', channel=2, note=32, velocity=110, time=84),\n",
      "    Message('note_off', channel=8, note=87, velocity=98, time=56),\n",
      "    Message('note_off', channel=15, note=63, velocity=120, time=16),\n",
      "    Message('note_on', channel=9, note=42, velocity=85, time=32),\n",
      "    Message('note_on', channel=9, note=38, velocity=102, time=0),\n",
      "    Message('note_on', channel=9, note=39, velocity=84, time=0),\n",
      "    Message('note_on', channel=8, note=80, velocity=94, time=0),\n",
      "    Message('note_on', channel=15, note=56, velocity=119, time=0),\n",
      "    Message('note_off', channel=9, note=39, velocity=84, time=4),\n",
      "    Message('note_off', channel=9, note=38, velocity=102, time=0),\n",
      "    Message('note_off', channel=9, note=42, velocity=85, time=0),\n",
      "    Message('note_off', channel=15, note=56, velocity=119, time=84),\n",
      "    Message('note_on', channel=15, note=58, velocity=123, time=8),\n",
      "    Message('note_off', channel=15, note=58, velocity=123, time=88),\n",
      "    Message('note_on', channel=9, note=46, velocity=91, time=8),\n",
      "    Message('note_on', channel=2, note=29, velocity=107, time=0),\n",
      "    Message('note_on', channel=15, note=61, velocity=122, time=0),\n",
      "    Message('note_off', channel=9, note=46, velocity=91, time=4),\n",
      "    Message('note_off', channel=15, note=61, velocity=122, time=84),\n",
      "    Message('note_off', channel=2, note=29, velocity=107, time=0),\n",
      "    Message('note_off', channel=3, note=63, velocity=93, time=8),\n",
      "    Message('note_off', channel=3, note=56, velocity=86, time=0),\n",
      "    Message('note_off', channel=3, note=60, velocity=93, time=0),\n",
      "    Message('note_on', channel=2, note=32, velocity=106, time=0),\n",
      "    Message('note_on', channel=15, note=58, velocity=121, time=0),\n",
      "    Message('note_off', channel=8, note=80, velocity=94, time=64),\n",
      "    Message('note_off', channel=15, note=58, velocity=121, time=24),\n",
      "    Message('note_off', channel=2, note=32, velocity=106, time=0),\n",
      "    Message('note_on', channel=9, note=42, velocity=82, time=8),\n",
      "    Message('note_on', channel=9, note=36, velocity=104, time=0),\n",
      "    Message('note_on', channel=2, note=29, velocity=107, time=0),\n",
      "    Message('note_on', channel=3, note=53, velocity=90, time=0),\n",
      "    Message('note_on', channel=3, note=56, velocity=93, time=0),\n",
      "    Message('note_on', channel=3, note=60, velocity=86, time=0),\n",
      "    Message('note_on', channel=8, note=87, velocity=95, time=0),\n",
      "    Message('note_on', channel=13, note=63, velocity=83, time=0),\n",
      "    Message('note_on', channel=13, note=72, velocity=86, time=0),\n",
      "    Message('note_on', channel=13, note=68, velocity=84, time=0),\n",
      "    Message('note_on', channel=15, note=63, velocity=120, time=0),\n",
      "    Message('note_off', channel=9, note=36, velocity=104, time=4),\n",
      "    Message('note_off', channel=9, note=42, velocity=82, time=0),\n",
      "    Message('note_off', channel=2, note=29, velocity=107, time=84),\n",
      "    Message('note_on', channel=9, note=46, velocity=89, time=104),\n",
      "    Message('note_on', channel=2, note=29, velocity=111, time=0),\n",
      "    Message('note_off', channel=9, note=46, velocity=89, time=4),\n",
      "    Message('note_off', channel=15, note=63, velocity=120, time=68),\n",
      "    Message('note_off', channel=2, note=29, velocity=111, time=16),\n",
      "    Message('note_off', channel=13, note=68, velocity=84, time=0),\n",
      "    Message('note_off', channel=13, note=72, velocity=86, time=0),\n",
      "    Message('note_off', channel=13, note=63, velocity=83, time=0),\n",
      "    Message('note_on', channel=2, note=29, velocity=108, time=8),\n",
      "    Message('note_off', channel=2, note=29, velocity=108, time=88),\n",
      "    Message('note_off', channel=3, note=60, velocity=86, time=8),\n",
      "    Message('note_off', channel=3, note=56, velocity=93, time=0),\n",
      "    Message('note_off', channel=3, note=53, velocity=90, time=0),\n",
      "    Message('note_on', channel=9, note=42, velocity=82, time=0),\n",
      "    Message('note_on', channel=9, note=38, velocity=109, time=0),\n",
      "    Message('note_on', channel=9, note=39, velocity=82, time=0),\n",
      "    Message('note_on', channel=13, note=63, velocity=84, time=0),\n",
      "    Message('note_on', channel=13, note=72, velocity=88, time=0),\n",
      "    Message('note_on', channel=13, note=68, velocity=85, time=0),\n",
      "    Message('note_on', channel=15, note=63, velocity=119, time=0),\n",
      "    Message('note_off', channel=9, note=39, velocity=82, time=4),\n",
      "    Message('note_off', channel=9, note=38, velocity=109, time=0),\n",
      "    Message('note_off', channel=9, note=42, velocity=82, time=0),\n",
      "    Message('note_on', channel=2, note=36, velocity=107, time=92),\n",
      "    Message('note_off', channel=8, note=87, velocity=95, time=48),\n",
      "    Message('note_off', channel=15, note=63, velocity=119, time=32),\n",
      "    Message('note_off', channel=2, note=36, velocity=107, time=8),\n",
      "    Message('note_off', channel=13, note=68, velocity=85, time=0),\n",
      "    Message('note_off', channel=13, note=72, velocity=88, time=0),\n",
      "    Message('note_off', channel=13, note=63, velocity=84, time=0),\n",
      "    Message('note_on', channel=9, note=46, velocity=88, time=8),\n",
      "    Message('note_on', channel=2, note=34, velocity=107, time=0),\n",
      "    Message('note_on', channel=3, note=58, velocity=88, time=0),\n",
      "    Message('note_on', channel=3, note=61, velocity=87, time=0),\n",
      "    Message('note_on', channel=3, note=65, velocity=87, time=0),\n",
      "    Message('note_on', channel=8, note=89, velocity=95, time=0),\n",
      "    Message('note_on', channel=13, note=61, velocity=88, time=0),\n",
      "    Message('note_on', channel=13, note=70, velocity=84, time=0),\n",
      "    Message('note_on', channel=13, note=65, velocity=83, time=0),\n",
      "    Message('note_on', channel=15, note=61, velocity=121, time=0),\n",
      "    Message('note_off', channel=9, note=46, velocity=88, time=4),\n",
      "    Message('note_off', channel=2, note=34, velocity=107, time=84),\n",
      "    Message('note_off', channel=13, note=65, velocity=83, time=96),\n",
      "    Message('note_off', channel=13, note=70, velocity=84, time=0),\n",
      "    Message('note_off', channel=13, note=61, velocity=88, time=0),\n",
      "    Message('note_on', channel=9, note=42, velocity=84, time=8),\n",
      "    Message('note_on', channel=9, note=36, velocity=104, time=0),\n",
      "    Message('note_off', channel=9, note=36, velocity=104, time=4),\n",
      "    Message('note_off', channel=9, note=42, velocity=84, time=0),\n",
      "    Message('note_off', channel=15, note=61, velocity=121, time=68),\n",
      "    Message('note_on', channel=15, note=60, velocity=122, time=24),\n",
      "    Message('note_off', channel=15, note=60, velocity=122, time=88),\n",
      "    Message('note_on', channel=9, note=46, velocity=89, time=8),\n",
      "    Message('note_on', channel=2, note=34, velocity=107, time=0),\n",
      "    Message('note_on', channel=15, note=58, velocity=120, time=0),\n",
      "    Message('note_off', channel=9, note=46, velocity=89, time=4),\n",
      "    Message('note_off', channel=2, note=34, velocity=107, time=84),\n",
      "    Message('note_on', channel=2, note=34, velocity=111, time=8),\n",
      "    Message('note_off', channel=8, note=89, velocity=95, time=48),\n",
      "    Message('note_off', channel=15, note=58, velocity=120, time=32),\n",
      "    Message('note_off', channel=2, note=34, velocity=111, time=8),\n",
      "    Message('note_on', channel=9, note=42, velocity=81, time=8),\n",
      "    Message('note_on', channel=9, note=38, velocity=107, time=0),\n",
      "    Message('note_on', channel=9, note=39, velocity=87, time=0),\n",
      "    Message('note_on', channel=2, note=34, velocity=107, time=0),\n",
      "    Message('note_on', channel=8, note=92, velocity=95, time=0),\n",
      "    Message('note_on', channel=15, note=56, velocity=120, time=0),\n",
      "    Message('note_off', channel=9, note=39, velocity=87, time=4),\n",
      "    Message('note_off', channel=9, note=38, velocity=107, time=0),\n",
      "    Message('note_off', channel=9, note=42, velocity=81, time=0),\n",
      "    Message('note_off', channel=15, note=56, velocity=120, time=84),\n",
      "    Message('note_off', channel=8, note=92, velocity=95, time=0),\n",
      "    Message('note_off', channel=2, note=34, velocity=107, time=0),\n",
      "    Message('note_on', channel=2, note=36, velocity=111, time=8),\n",
      "    Message('note_on', channel=8, note=90, velocity=95, time=0),\n",
      "    Message('note_on', channel=15, note=58, velocity=123, time=0),\n",
      "    Message('note_off', channel=15, note=58, velocity=123, time=88),\n",
      "    Message('note_off', channel=8, note=90, velocity=95, time=0),\n",
      "    Message('note_off', channel=2, note=36, velocity=111, time=0),\n",
      "    Message('note_on', channel=9, note=46, velocity=88, time=8),\n",
      "    Message('note_on', channel=8, note=89, velocity=99, time=0),\n",
      "    Message('note_on', channel=15, note=61, velocity=122, time=0),\n",
      "    Message('note_off', channel=9, note=46, velocity=88, time=4),\n",
      "    Message('note_off', channel=15, note=61, velocity=122, time=84),\n",
      "    Message('note_off', channel=8, note=89, velocity=99, time=0),\n",
      "    Message('note_off', channel=3, note=65, velocity=87, time=8),\n",
      "    Message('note_off', channel=3, note=61, velocity=87, time=0),\n",
      "    Message('note_off', channel=3, note=58, velocity=88, time=0),\n",
      "    Message('note_on', channel=2, note=34, velocity=110, time=0),\n",
      "    Message('note_on', channel=8, note=85, velocity=95, time=0),\n",
      "    Message('note_on', channel=15, note=58, velocity=124, time=0),\n",
      "    Message('note_off', channel=15, note=58, velocity=124, time=88),\n",
      "    Message('note_off', channel=2, note=34, velocity=110, time=0),\n",
      "    Message('note_on', channel=9, note=42, velocity=82, time=8),\n",
      "    Message('note_on', channel=9, note=36, velocity=103, time=0),\n",
      "    Message('note_on', channel=2, note=27, velocity=107, time=0),\n",
      "    Message('note_on', channel=3, note=61, velocity=88, time=0),\n",
      "    Message('note_on', channel=3, note=58, velocity=88, time=0),\n",
      "    Message('note_on', channel=3, note=65, velocity=93, time=0),\n",
      "    Message('note_on', channel=15, note=61, velocity=124, time=0),\n",
      "    Message('note_off', channel=9, note=36, velocity=103, time=4),\n",
      "    Message('note_off', channel=9, note=42, velocity=82, time=0),\n",
      "    Message('note_off', channel=2, note=27, velocity=107, time=84),\n",
      "    Message('note_on', channel=9, note=46, velocity=91, time=104),\n",
      "    Message('note_on', channel=2, note=27, velocity=111, time=0),\n",
      "    Message('note_off', channel=9, note=46, velocity=91, time=4),\n",
      "    Message('note_off', channel=2, note=27, velocity=111, time=84),\n",
      "    Message('note_on', channel=2, note=27, velocity=110, time=8),\n",
      "    Message('note_off', channel=15, note=61, velocity=124, time=64),\n",
      "    Message('note_off', channel=2, note=27, velocity=110, time=24),\n",
      "    Message('note_on', channel=9, note=42, velocity=83, time=8),\n",
      "    Message('note_on', channel=9, note=38, velocity=108, time=0),\n",
      "    Message('note_on', channel=9, note=39, velocity=81, time=0),\n",
      "    Message('note_on', channel=15, note=63, velocity=120, time=0),\n",
      "    Message('note_off', channel=9, note=39, velocity=81, time=4),\n",
      "    Message('note_off', channel=9, note=38, velocity=108, time=0),\n",
      "    Message('note_off', channel=9, note=42, velocity=83, time=0),\n",
      "    Message('note_off', channel=3, note=65, velocity=93, time=92),\n",
      "    Message('note_off', channel=3, note=58, velocity=88, time=0),\n",
      "    Message('note_off', channel=3, note=61, velocity=88, time=0),\n",
      "    Message('note_on', channel=2, note=36, velocity=109, time=0),\n",
      "    Message('note_off', channel=8, note=85, velocity=95, time=48),\n",
      "    Message('note_off', channel=15, note=63, velocity=120, time=32),\n",
      "    Message('note_off', channel=2, note=36, velocity=109, time=8),\n",
      "    Message('note_on', channel=9, note=42, velocity=82, time=8),\n",
      "    Message('note_on', channel=2, note=34, velocity=111, time=0),\n",
      "    Message('note_on', channel=3, note=56, velocity=87, time=0),\n",
      "    Message('note_on', channel=3, note=63, velocity=88, time=0),\n",
      "    Message('note_on', channel=3, note=60, velocity=90, time=0),\n",
      "    Message('note_on', channel=8, note=87, velocity=95, time=0),\n",
      "    Message('note_on', channel=15, note=60, velocity=119, time=0),\n",
      "    Message('note_off', channel=9, note=42, velocity=82, time=4),\n",
      "    Message('note_off', channel=2, note=34, velocity=111, time=84),\n",
      "    Message('note_on', channel=9, note=42, velocity=85, time=8),\n",
      "    Message('note_off', channel=9, note=42, velocity=85, time=4),\n",
      "    Message('note_on', channel=9, note=42, velocity=82, time=92),\n",
      "    Message('note_on', channel=9, note=36, velocity=102, time=0),\n",
      "    Message('note_on', channel=2, note=32, velocity=109, time=0),\n",
      "    Message('note_off', channel=9, note=36, velocity=102, time=4),\n",
      "    Message('note_off', channel=9, note=42, velocity=82, time=0),\n",
      "    Message('note_off', channel=15, note=60, velocity=119, time=68),\n",
      "    Message('note_off', channel=2, note=32, velocity=109, time=16),\n",
      "    Message('note_on', channel=15, note=58, velocity=123, time=8),\n",
      "    Message('note_off', channel=15, note=58, velocity=123, time=88),\n",
      "    Message('note_on', channel=9, note=46, velocity=88, time=8),\n",
      "    Message('note_on', channel=2, note=32, velocity=111, time=0),\n",
      "    Message('note_on', channel=15, note=56, velocity=120, time=0),\n",
      "    Message('note_off', channel=9, note=46, velocity=88, time=4),\n",
      "    Message('note_off', channel=2, note=32, velocity=111, time=84),\n",
      "    Message('note_off', channel=8, note=87, velocity=95, time=56),\n",
      "    Message('note_off', channel=15, note=56, velocity=120, time=32),\n",
      "    Message('note_on', channel=9, note=42, velocity=84, time=16),\n",
      "    Message('note_on', channel=9, note=38, velocity=103, time=0),\n",
      "    Message('note_on', channel=9, note=39, velocity=86, time=0),\n",
      "    Message('note_on', channel=8, note=80, velocity=98, time=0),\n",
      "    Message('note_on', channel=15, note=56, velocity=120, time=0),\n",
      "    Message('note_off', channel=9, note=39, velocity=86, time=4),\n",
      "    Message('note_off', channel=9, note=38, velocity=103, time=0),\n",
      "    Message('note_off', channel=9, note=42, velocity=84, time=0),\n",
      "    Message('note_off', channel=15, note=56, velocity=120, time=172),\n",
      "    Message('note_off', channel=3, note=60, velocity=90, time=16),\n",
      "    Message('note_off', channel=3, note=63, velocity=88, time=0),\n",
      "    Message('note_off', channel=3, note=56, velocity=87, time=0),\n",
      "    Message('note_on', channel=9, note=46, velocity=91, time=0),\n",
      "    Message('note_on', channel=2, note=32, velocity=111, time=0),\n",
      "    Message('note_on', channel=15, note=63, velocity=124, time=0),\n",
      "    Message('note_off', channel=9, note=46, velocity=91, time=4),\n",
      "    Message('note_off', channel=2, note=32, velocity=111, time=84),\n",
      "    Message('note_on', channel=2, note=32, velocity=109, time=8),\n",
      "    Message('note_off', channel=2, note=32, velocity=109, time=88),\n",
      "    Message('note_on', channel=9, note=42, velocity=82, time=8),\n",
      "    Message('note_on', channel=9, note=36, velocity=103, time=0),\n",
      "    Message('note_on', channel=2, note=29, velocity=110, time=0),\n",
      "    Message('note_on', channel=3, note=60, velocity=91, time=0),\n",
      "    Message('note_on', channel=3, note=53, velocity=90, time=0),\n",
      "    Message('note_on', channel=3, note=56, velocity=92, time=0),\n",
      "    Message('note_on', channel=13, note=63, velocity=88, time=0),\n",
      "    Message('note_on', channel=13, note=68, velocity=87, time=0),\n",
      "    Message('note_on', channel=13, note=72, velocity=85, time=0),\n",
      "    Message('note_off', channel=9, note=36, velocity=103, time=4),\n",
      "    Message('note_off', channel=9, note=42, velocity=82, time=0),\n",
      "    Message('note_off', channel=2, note=29, velocity=110, time=84),\n",
      "    Message('note_on', channel=9, note=46, velocity=92, time=104),\n",
      "    Message('note_on', channel=2, note=29, velocity=109, time=0),\n",
      "    Message('note_off', channel=9, note=46, velocity=92, time=4),\n",
      "    Message('note_off', channel=2, note=29, velocity=109, time=84),\n",
      "    Message('note_off', channel=13, note=72, velocity=85, time=0),\n",
      "    Message('note_off', channel=13, note=68, velocity=87, time=0),\n",
      "    Message('note_off', channel=13, note=63, velocity=88, time=0),\n",
      "    Message('note_on', channel=2, note=29, velocity=111, time=8),\n",
      "    Message('note_off', channel=15, note=63, velocity=124, time=64),\n",
      "    Message('note_off', channel=2, note=29, velocity=111, time=24),\n",
      "    Message('note_off', channel=3, note=56, velocity=92, time=8),\n",
      "    Message('note_off', channel=3, note=53, velocity=90, time=0),\n",
      "    Message('note_off', channel=3, note=60, velocity=91, time=0),\n",
      "    Message('note_on', channel=9, note=42, velocity=83, time=0),\n",
      "    Message('note_on', channel=9, note=38, velocity=108, time=0),\n",
      "    Message('note_on', channel=9, note=39, velocity=86, time=0),\n",
      "    Message('note_on', channel=13, note=65, velocity=89, time=0),\n",
      "    Message('note_on', channel=13, note=70, velocity=83, time=0),\n",
      "    Message('note_on', channel=13, note=73, velocity=87, time=0),\n",
      "    Message('note_on', channel=15, note=61, velocity=124, time=0),\n",
      "    Message('note_off', channel=9, note=39, velocity=86, time=4),\n",
      "    Message('note_off', channel=9, note=38, velocity=108, time=0),\n",
      "    Message('note_off', channel=9, note=42, velocity=83, time=0),\n",
      "    Message('note_on', channel=2, note=36, velocity=107, time=92),\n",
      "    Message('note_off', channel=2, note=36, velocity=107, time=88),\n",
      "    Message('note_on', channel=9, note=46, velocity=88, time=8),\n",
      "    Message('note_on', channel=2, note=34, velocity=106, time=0),\n",
      "    Message('note_on', channel=3, note=65, velocity=88, time=0),\n",
      "    Message('note_on', channel=3, note=61, velocity=93, time=0),\n",
      "    Message('note_on', channel=3, note=58, velocity=93, time=0),\n",
      "    Message('note_off', channel=9, note=46, velocity=88, time=4),\n",
      "    Message('note_off', channel=2, note=34, velocity=106, time=84),\n",
      "    Message('note_on', channel=9, note=42, velocity=82, time=104),\n",
      "    Message('note_on', channel=9, note=36, velocity=102, time=0),\n",
      "    Message('note_off', channel=9, note=36, velocity=102, time=4),\n",
      "    Message('note_off', channel=9, note=42, velocity=82, time=0),\n",
      "    Message('note_off', channel=8, note=80, velocity=98, time=140),\n",
      "    Message('note_on', channel=9, note=46, velocity=91, time=48),\n",
      "    Message('note_on', channel=2, note=32, velocity=106, time=0),\n",
      "    Message('note_on', channel=7, note=68, velocity=81, time=0),\n",
      "    Message('note_on', channel=7, note=80, velocity=108, time=0),\n",
      "    Message('note_on', channel=7, note=56, velocity=82, time=0),\n",
      "    Message('note_off', channel=9, note=46, velocity=91, time=4),\n",
      "    Message('note_off', channel=7, note=56, velocity=82, time=60),\n",
      "    Message('note_off', channel=7, note=80, velocity=108, time=0),\n",
      "    Message('note_off', channel=7, note=68, velocity=81, time=0),\n",
      "    Message('note_off', channel=2, note=32, velocity=106, time=24),\n",
      "    Message('note_on', channel=7, note=68, velocity=81, time=8),\n",
      "    Message('note_on', channel=7, note=80, velocity=110, time=0),\n",
      "    Message('note_on', channel=7, note=56, velocity=83, time=0),\n",
      "    Message('note_off', channel=7, note=56, velocity=83, time=64),\n",
      "    Message('note_off', channel=7, note=80, velocity=110, time=0),\n",
      "    Message('note_off', channel=7, note=68, velocity=81, time=0),\n",
      "    Message('note_off', channel=15, note=61, velocity=124, time=0),\n",
      "    Message('note_on', channel=9, note=42, velocity=83, time=32),\n",
      "    Message('note_on', channel=9, note=38, velocity=102, time=0),\n",
      "    Message('note_on', channel=9, note=39, velocity=86, time=0),\n",
      "    Message('note_on', channel=2, note=32, velocity=106, time=0),\n",
      "    Message('note_on', channel=8, note=92, velocity=98, time=0),\n",
      "    Message('note_on', channel=15, note=56, velocity=120, time=0),\n",
      "    Message('note_off', channel=9, note=39, velocity=86, time=4),\n",
      "    Message('note_off', channel=9, note=38, velocity=102, time=0),\n",
      "    Message('note_off', channel=9, note=42, velocity=83, time=0),\n",
      "    Message('note_off', channel=15, note=56, velocity=120, time=84),\n",
      "    Message('note_off', channel=8, note=92, velocity=98, time=0),\n",
      "    Message('note_off', channel=2, note=32, velocity=106, time=0),\n",
      "    Message('note_off', channel=13, note=73, velocity=87, time=0),\n",
      "    Message('note_off', channel=13, note=70, velocity=83, time=0),\n",
      "    Message('note_off', channel=13, note=65, velocity=89, time=0),\n",
      "    Message('note_on', channel=2, note=32, velocity=107, time=8),\n",
      "    Message('note_on', channel=8, note=90, velocity=99, time=0),\n",
      "    Message('note_on', channel=15, note=58, velocity=120, time=0),\n",
      "    Message('note_off', channel=15, note=58, velocity=120, time=88),\n",
      "    Message('note_off', channel=8, note=90, velocity=99, time=0),\n",
      "    Message('note_off', channel=2, note=32, velocity=107, time=0),\n",
      "    Message('note_on', channel=9, note=46, velocity=90, time=8),\n",
      "    Message('note_on', channel=8, note=89, velocity=96, time=0),\n",
      "    Message('note_on', channel=15, note=61, velocity=121, time=0),\n",
      "    Message('note_off', channel=9, note=46, velocity=90, time=4),\n",
      "    Message('note_off', channel=15, note=61, velocity=121, time=84),\n",
      "    Message('note_off', channel=8, note=89, velocity=96, time=0),\n",
      "    Message('note_off', channel=3, note=58, velocity=93, time=8),\n",
      "    Message('note_off', channel=3, note=61, velocity=93, time=0),\n",
      "    Message('note_off', channel=3, note=65, velocity=88, time=0),\n",
      "    Message('note_on', channel=2, note=37, velocity=108, time=0),\n",
      "    Message('note_on', channel=8, note=85, velocity=95, time=0),\n",
      "    Message('note_on', channel=15, note=58, velocity=120, time=0),\n",
      "    Message('note_off', channel=15, note=58, velocity=120, time=88),\n",
      "    Message('note_off', channel=2, note=37, velocity=108, time=0),\n",
      "    Message('note_on', channel=9, note=42, velocity=85, time=8),\n",
      "    Message('note_on', channel=9, note=36, velocity=109, time=0),\n",
      "    Message('note_on', channel=2, note=27, velocity=107, time=0),\n",
      "    Message('note_on', channel=3, note=58, velocity=91, time=0),\n",
      "    Message('note_on', channel=3, note=61, velocity=90, time=0),\n",
      "    Message('note_on', channel=3, note=65, velocity=92, time=0),\n",
      "    Message('note_on', channel=13, note=63, velocity=83, time=0),\n",
      "    Message('note_on', channel=13, note=73, velocity=89, time=0),\n",
      "    Message('note_on', channel=13, note=68, velocity=82, time=0),\n",
      "    Message('note_on', channel=15, note=65, velocity=123, time=0),\n",
      "    Message('note_off', channel=9, note=36, velocity=109, time=4),\n",
      "    Message('note_off', channel=9, note=42, velocity=85, time=0),\n",
      "    Message('note_off', channel=2, note=27, velocity=107, time=84),\n",
      "    Message('note_on', channel=9, note=46, velocity=89, time=104),\n",
      "    Message('note_on', channel=2, note=27, velocity=110, time=0),\n",
      "    Message('note_off', channel=9, note=46, velocity=89, time=4),\n",
      "    Message('note_off', channel=15, note=65, velocity=123, time=68),\n",
      "    Message('note_off', channel=2, note=27, velocity=110, time=16),\n",
      "    Message('note_off', channel=13, note=68, velocity=82, time=0),\n",
      "    Message('note_off', channel=13, note=73, velocity=89, time=0),\n",
      "    Message('note_off', channel=13, note=63, velocity=83, time=0),\n",
      "    Message('note_on', channel=2, note=27, velocity=107, time=8),\n",
      "    Message('note_off', channel=2, note=27, velocity=107, time=88),\n",
      "    Message('note_on', channel=9, note=42, velocity=84, time=8),\n",
      "    Message('note_on', channel=9, note=38, velocity=103, time=0),\n",
      "    Message('note_on', channel=9, note=39, velocity=86, time=0),\n",
      "    Message('note_on', channel=13, note=63, velocity=85, time=0),\n",
      "    Message('note_on', channel=13, note=73, velocity=85, time=0),\n",
      "    Message('note_on', channel=13, note=68, velocity=89, time=0),\n",
      "    Message('note_on', channel=15, note=65, velocity=124, time=0),\n",
      "    Message('note_off', channel=9, note=39, velocity=86, time=4),\n",
      "    Message('note_off', channel=9, note=38, velocity=103, time=0),\n",
      "    Message('note_off', channel=9, note=42, velocity=84, time=0),\n",
      "    Message('note_off', channel=3, note=65, velocity=92, time=92),\n",
      "    Message('note_off', channel=3, note=61, velocity=90, time=0),\n",
      "    Message('note_off', channel=3, note=58, velocity=91, time=0),\n",
      "    Message('note_on', channel=2, note=36, velocity=107, time=0),\n",
      "    Message('note_off', channel=8, note=85, velocity=95, time=48),\n",
      "    Message('note_off', channel=15, note=65, velocity=124, time=32),\n",
      "    Message('note_off', channel=2, note=36, velocity=107, time=8),\n",
      "    Message('note_off', channel=13, note=68, velocity=89, time=0),\n",
      "    Message('note_off', channel=13, note=73, velocity=85, time=0),\n",
      "    Message('note_off', channel=13, note=63, velocity=85, time=0),\n",
      "    Message('note_on', channel=9, note=42, velocity=82, time=8),\n",
      "    Message('note_on', channel=2, note=34, velocity=110, time=0),\n",
      "    Message('note_on', channel=3, note=56, velocity=87, time=0),\n",
      "    Message('note_on', channel=3, note=63, velocity=92, time=0),\n",
      "    Message('note_on', channel=3, note=60, velocity=86, time=0),\n",
      "    Message('note_on', channel=8, note=87, velocity=99, time=0),\n",
      "    Message('note_on', channel=13, note=68, velocity=88, time=0),\n",
      "    Message('note_on', channel=13, note=63, velocity=88, time=0),\n",
      "    Message('note_on', channel=13, note=72, velocity=88, time=0),\n",
      "    Message('note_on', channel=15, note=63, velocity=122, time=0),\n",
      "    Message('note_off', channel=9, note=42, velocity=82, time=4),\n",
      "    Message('note_off', channel=2, note=34, velocity=110, time=84),\n",
      "    Message('note_on', channel=9, note=42, velocity=80, time=8),\n",
      "    Message('note_off', channel=9, note=42, velocity=80, time=4),\n",
      "    Message('note_on', channel=9, note=42, velocity=83, time=92),\n",
      "    Message('note_on', channel=9, note=36, velocity=105, time=0),\n",
      "    Message('note_on', channel=2, note=32, velocity=110, time=0),\n",
      "    Message('note_off', channel=9, note=36, velocity=105, time=4),\n",
      "    Message('note_off', channel=9, note=42, velocity=83, time=0),\n",
      "    Message('note_off', channel=2, note=32, velocity=110, time=84),\n",
      "    Message('note_on', channel=9, note=46, velocity=89, time=104),\n",
      "    Message('note_on', channel=2, note=32, velocity=108, time=0),\n",
      "    Message('note_off', channel=9, note=46, velocity=89, time=4),\n",
      "    Message('note_off', channel=2, note=32, velocity=108, time=84),\n",
      "    Message('note_off', channel=8, note=87, velocity=99, time=56),\n",
      "    Message('note_off', channel=15, note=63, velocity=122, time=16),\n",
      "    Message('note_off', channel=13, note=72, velocity=88, time=24),\n",
      "    Message('note_off', channel=13, note=63, velocity=88, time=0),\n",
      "    Message('note_off', channel=13, note=68, velocity=88, time=0),\n",
      "    Message('note_on', channel=9, note=42, velocity=83, time=8),\n",
      "    Message('note_on', channel=9, note=38, velocity=102, time=0),\n",
      "    Message('note_on', channel=9, note=39, velocity=80, time=0),\n",
      "    Message('note_on', channel=8, note=80, velocity=99, time=0),\n",
      "    Message('note_on', channel=15, note=56, velocity=124, time=0),\n",
      "    Message('note_off', channel=9, note=39, velocity=80, time=4),\n",
      "    Message('note_off', channel=9, note=38, velocity=102, time=0),\n",
      "    Message('note_off', channel=9, note=42, velocity=83, time=0),\n",
      "    Message('note_off', channel=15, note=56, velocity=124, time=84),\n",
      "    Message('note_on', channel=15, note=58, velocity=123, time=8),\n",
      "    Message('note_off', channel=15, note=58, velocity=123, time=88),\n",
      "    Message('note_on', channel=9, note=46, velocity=87, time=8),\n",
      "    Message('note_on', channel=2, note=29, velocity=108, time=0),\n",
      "    Message('note_on', channel=15, note=61, velocity=124, time=0),\n",
      "    Message('note_off', channel=9, note=46, velocity=87, time=4),\n",
      "    Message('note_off', channel=15, note=61, velocity=124, time=84),\n",
      "    Message('note_off', channel=2, note=29, velocity=108, time=0),\n",
      "    Message('note_off', channel=3, note=60, velocity=86, time=8),\n",
      "    Message('note_off', channel=3, note=63, velocity=92, time=0),\n",
      "    Message('note_off', channel=3, note=56, velocity=87, time=0),\n",
      "    Message('note_on', channel=2, note=32, velocity=107, time=0),\n",
      "    Message('note_on', channel=15, note=58, velocity=124, time=0),\n",
      "    Message('note_off', channel=8, note=80, velocity=99, time=64),\n",
      "    Message('note_off', channel=15, note=58, velocity=124, time=24),\n",
      "    Message('note_off', channel=2, note=32, velocity=107, time=0),\n",
      "    Message('note_on', channel=9, note=42, velocity=80, time=8),\n",
      "    Message('note_on', channel=9, note=36, velocity=103, time=0),\n",
      "    Message('note_on', channel=2, note=29, velocity=108, time=0),\n",
      "    Message('note_on', channel=3, note=53, velocity=86, time=0),\n",
      "    Message('note_on', channel=3, note=56, velocity=89, time=0),\n",
      "    Message('note_on', channel=3, note=60, velocity=93, time=0),\n",
      "    Message('note_on', channel=8, note=87, velocity=96, time=0),\n",
      "    Message('note_on', channel=13, note=68, velocity=87, time=0),\n",
      "    Message('note_on', channel=13, note=75, velocity=86, time=0),\n",
      "    Message('note_on', channel=13, note=72, velocity=84, time=0),\n",
      "    Message('note_on', channel=15, note=68, velocity=123, time=0),\n",
      "    Message('note_off', channel=9, note=36, velocity=103, time=4),\n",
      "    Message('note_off', channel=9, note=42, velocity=80, time=0),\n",
      "    Message('note_off', channel=2, note=29, velocity=108, time=84),\n",
      "    Message('note_on', channel=9, note=46, velocity=90, time=104),\n",
      "    Message('note_on', channel=2, note=29, velocity=106, time=0),\n",
      "    Message('note_off', channel=9, note=46, velocity=90, time=4),\n",
      "    Message('note_off', channel=2, note=29, velocity=106, time=84),\n",
      "    Message('note_off', channel=13, note=72, velocity=84, time=0),\n",
      "    Message('note_off', channel=13, note=75, velocity=86, time=0),\n",
      "    Message('note_off', channel=13, note=68, velocity=87, time=0),\n",
      "    Message('note_on', channel=2, note=29, velocity=111, time=8),\n",
      "    Message('note_off', channel=15, note=68, velocity=123, time=64),\n",
      "    Message('note_off', channel=2, note=29, velocity=111, time=24),\n",
      "    Message('note_off', channel=3, note=60, velocity=93, time=8),\n",
      "    Message('note_off', channel=3, note=56, velocity=89, time=0),\n",
      "    Message('note_off', channel=3, note=53, velocity=86, time=0),\n",
      "    Message('note_on', channel=9, note=42, velocity=85, time=0),\n",
      "    Message('note_on', channel=9, note=38, velocity=107, time=0),\n",
      "    Message('note_on', channel=9, note=39, velocity=86, time=0),\n",
      "    Message('note_on', channel=13, note=68, velocity=86, time=0),\n",
      "    Message('note_on', channel=13, note=75, velocity=86, time=0),\n",
      "    Message('note_on', channel=13, note=72, velocity=82, time=0),\n",
      "    Message('note_on', channel=15, note=60, velocity=123, time=0),\n",
      "    Message('note_off', channel=9, note=39, velocity=86, time=4),\n",
      "    Message('note_off', channel=9, note=38, velocity=107, time=0),\n",
      "    Message('note_off', channel=9, note=42, velocity=85, time=0),\n",
      "    Message('note_on', channel=2, note=36, velocity=109, time=92),\n",
      "    Message('note_off', channel=8, note=87, velocity=96, time=48),\n",
      "    Message('note_off', channel=15, note=60, velocity=123, time=32),\n",
      "    Message('note_off', channel=2, note=36, velocity=109, time=8),\n",
      "    Message('note_off', channel=13, note=72, velocity=82, time=0),\n",
      "    Message('note_off', channel=13, note=75, velocity=86, time=0),\n",
      "    Message('note_off', channel=13, note=68, velocity=86, time=0),\n",
      "    Message('note_on', channel=9, note=46, velocity=89, time=8),\n",
      "    Message('note_on', channel=2, note=34, velocity=106, time=0),\n",
      "    Message('note_on', channel=3, note=61, velocity=86, time=0),\n",
      "    Message('note_on', channel=3, note=58, velocity=89, time=0),\n",
      "    Message('note_on', channel=3, note=65, velocity=92, time=0),\n",
      "    Message('note_on', channel=8, note=89, velocity=96, time=0),\n",
      "    Message('note_on', channel=13, note=65, velocity=87, time=0),\n",
      "    Message('note_on', channel=13, note=70, velocity=84, time=0),\n",
      "    Message('note_on', channel=13, note=73, velocity=86, time=0),\n",
      "    Message('note_on', channel=15, note=61, velocity=121, time=0),\n",
      "    Message('note_off', channel=9, note=46, velocity=89, time=4),\n",
      "    Message('note_off', channel=2, note=34, velocity=106, time=84),\n",
      "    Message('note_on', channel=9, note=42, velocity=81, time=104),\n",
      "    Message('note_on', channel=9, note=36, velocity=105, time=0),\n",
      "    Message('note_off', channel=9, note=36, velocity=105, time=4),\n",
      "    Message('note_off', channel=9, note=42, velocity=81, time=0),\n",
      "    Message('note_off', channel=15, note=61, velocity=121, time=68),\n",
      "    Message('note_off', channel=13, note=73, velocity=86, time=16),\n",
      "    Message('note_off', channel=13, note=70, velocity=84, time=0),\n",
      "    Message('note_off', channel=13, note=65, velocity=87, time=0),\n",
      "    Message('note_on', channel=13, note=63, velocity=89, time=8),\n",
      "    Message('note_on', channel=13, note=72, velocity=82, time=0),\n",
      "    Message('note_on', channel=13, note=68, velocity=82, time=0),\n",
      "    Message('note_on', channel=15, note=60, velocity=121, time=0),\n",
      "    Message('note_off', channel=15, note=60, velocity=121, time=88),\n",
      "    Message('note_off', channel=13, note=68, velocity=82, time=0),\n",
      "    Message('note_off', channel=13, note=72, velocity=82, time=0),\n",
      "    Message('note_off', channel=13, note=63, velocity=89, time=0),\n",
      "    Message('note_on', channel=9, note=46, velocity=88, time=8),\n",
      "    Message('note_on', channel=2, note=34, velocity=109, time=0),\n",
      "    Message('note_on', channel=13, note=61, velocity=88, time=0),\n",
      "    Message('note_on', channel=13, note=70, velocity=82, time=0),\n",
      "    Message('note_on', channel=13, note=65, velocity=85, time=0),\n",
      "    Message('note_on', channel=15, note=58, velocity=123, time=0),\n",
      "    Message('note_off', channel=9, note=46, velocity=88, time=4),\n",
      "    Message('note_off', channel=2, note=34, velocity=109, time=84),\n",
      "    Message('note_on', channel=2, note=34, velocity=108, time=8),\n",
      "    Message('note_off', channel=8, note=89, velocity=96, time=48),\n",
      "    Message('note_off', channel=15, note=58, velocity=123, time=32),\n",
      "    Message('note_off', channel=2, note=34, velocity=108, time=8),\n",
      "    Message('note_off', channel=13, note=65, velocity=85, time=0),\n",
      "    Message('note_off', channel=13, note=70, velocity=82, time=0),\n",
      "    Message('note_off', channel=13, note=61, velocity=88, time=0),\n",
      "    Message('note_on', channel=9, note=42, velocity=83, time=8),\n",
      "    Message('note_on', channel=9, note=38, velocity=109, time=0),\n",
      "    Message('note_on', channel=9, note=39, velocity=83, time=0),\n",
      "    Message('note_on', channel=2, note=34, velocity=109, time=0),\n",
      "    Message('note_on', channel=8, note=92, velocity=99, time=0),\n",
      "    Message('note_on', channel=15, note=56, velocity=119, time=0),\n",
      "    Message('note_off', channel=9, note=39, velocity=83, time=4),\n",
      "    Message('note_off', channel=9, note=38, velocity=109, time=0),\n",
      "    Message('note_off', channel=9, note=42, velocity=83, time=0),\n",
      "    Message('note_off', channel=15, note=56, velocity=119, time=84),\n",
      "    Message('note_off', channel=8, note=92, velocity=99, time=0),\n",
      "    Message('note_off', channel=2, note=34, velocity=109, time=0),\n",
      "    Message('note_on', channel=2, note=36, velocity=111, time=8),\n",
      "    Message('note_on', channel=8, note=90, velocity=98, time=0),\n",
      "    Message('note_on', channel=15, note=58, velocity=119, time=0),\n",
      "    Message('note_off', channel=15, note=58, velocity=119, time=88),\n",
      "    Message('note_off', channel=8, note=90, velocity=98, time=0),\n",
      "    Message('note_off', channel=2, note=36, velocity=111, time=0),\n",
      "    Message('note_on', channel=9, note=46, velocity=91, time=8),\n",
      "    Message('note_on', channel=8, note=89, velocity=94, time=0),\n",
      "    Message('note_on', channel=15, note=61, velocity=122, time=0),\n",
      "    Message('note_off', channel=9, note=46, velocity=91, time=4),\n",
      "    Message('note_off', channel=15, note=61, velocity=122, time=84),\n",
      "    Message('note_off', channel=8, note=89, velocity=94, time=0),\n",
      "    Message('note_off', channel=3, note=65, velocity=92, time=8),\n",
      "    Message('note_off', channel=3, note=58, velocity=89, time=0),\n",
      "    Message('note_off', channel=3, note=61, velocity=86, time=0),\n",
      "    Message('note_on', channel=2, note=34, velocity=110, time=0),\n",
      "    Message('note_on', channel=8, note=85, velocity=94, time=0),\n",
      "    Message('note_on', channel=15, note=58, velocity=121, time=0),\n",
      "    Message('note_off', channel=15, note=58, velocity=121, time=88),\n",
      "    Message('note_off', channel=2, note=34, velocity=110, time=0),\n",
      "    Message('note_on', channel=9, note=42, velocity=83, time=8),\n",
      "    Message('note_on', channel=9, note=36, velocity=104, time=0),\n",
      "    Message('note_on', channel=2, note=27, velocity=107, time=0),\n",
      "    Message('note_on', channel=3, note=58, velocity=88, time=0),\n",
      "    Message('note_on', channel=3, note=61, velocity=93, time=0),\n",
      "    Message('note_on', channel=3, note=65, velocity=90, time=0),\n",
      "    Message('note_on', channel=15, note=61, velocity=122, time=0),\n",
      "    Message('note_off', channel=9, note=36, velocity=104, time=4),\n",
      "    Message('note_off', channel=9, note=42, velocity=83, time=0),\n",
      "    Message('note_off', channel=2, note=27, velocity=107, time=84),\n",
      "    Message('note_on', channel=9, note=46, velocity=90, time=104),\n",
      "    Message('note_on', channel=2, note=27, velocity=108, time=0),\n",
      "    Message('note_off', channel=9, note=46, velocity=90, time=4),\n",
      "    Message('note_off', channel=2, note=27, velocity=108, time=84),\n",
      "    Message('note_on', channel=2, note=27, velocity=110, time=8),\n",
      "    Message('note_off', channel=15, note=61, velocity=122, time=64),\n",
      "    Message('note_off', channel=2, note=27, velocity=110, time=24),\n",
      "    Message('note_on', channel=9, note=42, velocity=81, time=8),\n",
      "    Message('note_on', channel=9, note=38, velocity=108, time=0),\n",
      "    Message('note_on', channel=9, note=39, velocity=84, time=0),\n",
      "    Message('note_on', channel=15, note=63, velocity=119, time=0),\n",
      "    Message('note_off', channel=9, note=39, velocity=84, time=4),\n",
      "    Message('note_off', channel=9, note=38, velocity=108, time=0),\n",
      "    Message('note_off', channel=9, note=42, velocity=81, time=0),\n",
      "    Message('note_off', channel=3, note=65, velocity=90, time=92),\n",
      "    Message('note_off', channel=3, note=61, velocity=93, time=0),\n",
      "    Message('note_off', channel=3, note=58, velocity=88, time=0),\n",
      "    Message('note_on', channel=2, note=36, velocity=106, time=0),\n",
      "    Message('note_off', channel=8, note=85, velocity=94, time=48),\n",
      "    Message('note_off', channel=15, note=63, velocity=119, time=32),\n",
      "    Message('note_off', channel=2, note=36, velocity=106, time=8),\n",
      "    Message('note_on', channel=9, note=42, velocity=80, time=8),\n",
      "    Message('note_on', channel=2, note=34, velocity=106, time=0),\n",
      "    Message('note_on', channel=3, note=63, velocity=90, time=0),\n",
      "    Message('note_on', channel=3, note=56, velocity=90, time=0),\n",
      "    Message('note_on', channel=3, note=60, velocity=93, time=0),\n",
      "    Message('note_on', channel=8, note=87, velocity=96, time=0),\n",
      "    Message('note_on', channel=15, note=60, velocity=119, time=0),\n",
      "    Message('note_off', channel=9, note=42, velocity=80, time=4),\n",
      "    Message('note_off', channel=2, note=34, velocity=106, time=84),\n",
      "    Message('note_on', channel=9, note=42, velocity=83, time=8),\n",
      "    Message('note_off', channel=9, note=42, velocity=83, time=4),\n",
      "    Message('note_on', channel=9, note=42, velocity=81, time=92),\n",
      "    Message('note_on', channel=9, note=36, velocity=108, time=0),\n",
      "    Message('note_on', channel=2, note=32, velocity=106, time=0),\n",
      "    Message('note_off', channel=9, note=36, velocity=108, time=4),\n",
      "    Message('note_off', channel=9, note=42, velocity=81, time=0),\n",
      "    Message('note_off', channel=15, note=60, velocity=119, time=68),\n",
      "    Message('note_off', channel=2, note=32, velocity=106, time=16),\n",
      "    Message('note_on', channel=15, note=58, velocity=121, time=8),\n",
      "    Message('note_off', channel=15, note=58, velocity=121, time=88),\n",
      "    Message('note_on', channel=9, note=46, velocity=87, time=8),\n",
      "    Message('note_on', channel=2, note=32, velocity=107, time=0),\n",
      "    Message('note_on', channel=15, note=56, velocity=123, time=0),\n",
      "    Message('note_off', channel=9, note=46, velocity=87, time=4),\n",
      "    Message('note_off', channel=2, note=32, velocity=107, time=84),\n",
      "    Message('note_off', channel=8, note=87, velocity=96, time=56),\n",
      "    Message('note_on', channel=9, note=42, velocity=83, time=48),\n",
      "    Message('note_on', channel=9, note=38, velocity=106, time=0),\n",
      "    Message('note_on', channel=9, note=39, velocity=86, time=0),\n",
      "    Message('note_on', channel=8, note=80, velocity=96, time=0),\n",
      "    Message('note_off', channel=9, note=39, velocity=86, time=4),\n",
      "    Message('note_off', channel=9, note=38, velocity=106, time=0),\n",
      "    Message('note_off', channel=9, note=42, velocity=83, time=0),\n",
      "    Message('note_off', channel=15, note=56, velocity=123, time=68),\n",
      "    Message('note_on', channel=9, note=46, velocity=89, time=120),\n",
      "    Message('note_on', channel=2, note=32, velocity=108, time=0),\n",
      "    Message('note_on', channel=15, note=56, velocity=119, time=0),\n",
      "    Message('note_off', channel=9, note=46, velocity=89, time=4),\n",
      "    Message('note_off', channel=2, note=32, velocity=108, time=84),\n",
      "    Message('note_off', channel=3, note=60, velocity=93, time=8),\n",
      "    Message('note_off', channel=3, note=56, velocity=90, time=0),\n",
      "    Message('note_off', channel=3, note=63, velocity=90, time=0),\n",
      "    Message('note_on', channel=2, note=32, velocity=107, time=0),\n",
      "    Message('note_off', channel=15, note=56, velocity=119, time=80),\n",
      "    Message('note_off', channel=2, note=32, velocity=107, time=8),\n",
      "    Message('note_on', channel=9, note=42, velocity=80, time=8),\n",
      "    Message('note_on', channel=9, note=36, velocity=108, time=0),\n",
      "    Message('note_on', channel=2, note=29, velocity=106, time=0),\n",
      "    Message('note_on', channel=3, note=56, velocity=86, time=0),\n",
      "    Message('note_on', channel=3, note=60, velocity=88, time=0),\n",
      "    Message('note_on', channel=3, note=63, velocity=88, time=0),\n",
      "    Message('note_on', channel=13, note=63, velocity=88, time=0),\n",
      "    Message('note_on', channel=13, note=68, velocity=85, time=0),\n",
      "    Message('note_on', channel=13, note=72, velocity=88, time=0),\n",
      "    Message('note_on', channel=15, note=63, velocity=120, time=0),\n",
      "    Message('note_off', channel=9, note=36, velocity=108, time=4),\n",
      "    Message('note_off', channel=9, note=42, velocity=80, time=0),\n",
      "    Message('note_off', channel=2, note=29, velocity=106, time=84),\n",
      "    Message('note_off', channel=3, note=63, velocity=88, time=8),\n",
      "    Message('note_off', channel=3, note=60, velocity=88, time=0),\n",
      "    Message('note_off', channel=3, note=56, velocity=86, time=0),\n",
      "    Message('note_on', channel=9, note=46, velocity=91, time=96),\n",
      "    Message('note_on', channel=2, note=29, velocity=108, time=0),\n",
      "    Message('note_off', channel=9, note=46, velocity=91, time=4),\n",
      "    Message('note_off', channel=2, note=29, velocity=108, time=84),\n",
      "    Message('note_off', channel=13, note=72, velocity=88, time=0),\n",
      "    Message('note_off', channel=13, note=68, velocity=85, time=0),\n",
      "    Message('note_off', channel=13, note=63, velocity=88, time=0),\n",
      "    Message('note_on', channel=2, note=29, velocity=111, time=8),\n",
      "    Message('note_off', channel=15, note=63, velocity=120, time=64),\n",
      "    Message('note_off', channel=2, note=29, velocity=111, time=24),\n",
      "    Message('note_on', channel=9, note=42, velocity=84, time=8),\n",
      "    Message('note_on', channel=9, note=38, velocity=101, time=0),\n",
      "    Message('note_on', channel=9, note=39, velocity=87, time=0),\n",
      "    Message('note_on', channel=3, note=58, velocity=91, time=0),\n",
      "    Message('note_on', channel=3, note=61, velocity=91, time=0),\n",
      "    Message('note_on', channel=3, note=65, velocity=92, time=0),\n",
      "    Message('note_on', channel=13, note=68, velocity=83, time=0),\n",
      "    Message('note_on', channel=13, note=65, velocity=82, time=0),\n",
      "    Message('note_on', channel=13, note=73, velocity=86, time=0),\n",
      "    Message('note_on', channel=15, note=61, velocity=122, time=0),\n",
      "    Message('note_off', channel=9, note=39, velocity=87, time=4),\n",
      "    Message('note_off', channel=9, note=38, velocity=101, time=0),\n",
      "    Message('note_off', channel=9, note=42, velocity=84, time=0),\n",
      "    Message('note_on', channel=2, note=36, velocity=107, time=92),\n",
      "    Message('note_off', channel=2, note=36, velocity=107, time=88),\n",
      "    Message('note_on', channel=9, note=46, velocity=91, time=8),\n",
      "    Message('note_on', channel=2, note=34, velocity=109, time=0),\n",
      "    Message('note_off', channel=9, note=46, velocity=91, time=4),\n",
      "    Message('note_off', channel=2, note=34, velocity=109, time=84),\n",
      "    Message('note_on', channel=9, note=42, velocity=84, time=104),\n",
      "    Message('note_on', channel=9, note=36, velocity=104, time=0),\n",
      "    Message('note_on', channel=9, note=45, velocity=83, time=0),\n",
      "    Message('note_off', channel=9, note=45, velocity=83, time=4),\n",
      "    Message('note_off', channel=9, note=36, velocity=104, time=0),\n",
      "    Message('note_off', channel=9, note=42, velocity=84, time=0),\n",
      "    Message('note_on', channel=9, note=45, velocity=84, time=92),\n",
      "    Message('note_off', channel=9, note=45, velocity=84, time=4),\n",
      "    Message('note_on', channel=9, note=46, velocity=90, time=92),\n",
      "    Message('note_on', channel=9, note=43, velocity=85, time=0),\n",
      "    Message('note_on', channel=2, note=32, velocity=111, time=0),\n",
      "    Message('note_on', channel=7, note=73, velocity=81, time=0),\n",
      "    Message('note_on', channel=7, note=85, velocity=108, time=0),\n",
      "    Message('note_off', channel=9, note=43, velocity=85, time=4),\n",
      "    Message('note_off', channel=9, note=46, velocity=90, time=0),\n",
      "    Message('note_off', channel=7, note=85, velocity=108, time=60),\n",
      "    Message('note_off', channel=7, note=73, velocity=81, time=0),\n",
      "    Message('note_off', channel=2, note=32, velocity=111, time=24),\n",
      "    Message('note_on', channel=9, note=43, velocity=83, time=8),\n",
      "    Message('note_on', channel=7, note=73, velocity=81, time=0),\n",
      "    Message('note_on', channel=7, note=85, velocity=111, time=0),\n",
      "    Message('note_off', channel=9, note=43, velocity=83, time=4),\n",
      "    Message('note_off', channel=7, note=85, velocity=111, time=60),\n",
      "    Message('note_off', channel=7, note=73, velocity=81, time=0),\n",
      "    Message('note_off', channel=13, note=73, velocity=86, time=24),\n",
      "    Message('note_off', channel=13, note=65, velocity=82, time=0),\n",
      "    Message('note_off', channel=13, note=68, velocity=83, time=0),\n",
      "    Message('note_on', channel=9, note=42, velocity=85, time=8),\n",
      "    Message('note_on', channel=9, note=38, velocity=109, time=0),\n",
      "    Message('note_on', channel=9, note=45, velocity=86, time=0),\n",
      "    Message('note_on', channel=9, note=39, velocity=85, time=0),\n",
      "    Message('note_on', channel=2, note=32, velocity=108, time=0),\n",
      "    Message('note_on', channel=7, note=73, velocity=82, time=0),\n",
      "    Message('note_on', channel=7, note=85, velocity=110, time=0),\n",
      "    Message('note_on', channel=15, note=56, velocity=122, time=0),\n",
      "    Message('note_off', channel=9, note=39, velocity=85, time=4),\n",
      "    Message('note_off', channel=9, note=45, velocity=86, time=0),\n",
      "    Message('note_off', channel=9, note=38, velocity=109, time=0),\n",
      "    Message('note_off', channel=9, note=42, velocity=85, time=0),\n",
      "    Message('note_off', channel=8, note=80, velocity=96, time=44),\n",
      "    Message('note_off', channel=7, note=85, velocity=110, time=16),\n",
      "    Message('note_off', channel=7, note=73, velocity=82, time=0),\n",
      "    Message('note_off', channel=15, note=61, velocity=122, time=0),\n",
      "    Message('note_off', channel=15, note=56, velocity=122, time=24),\n",
      "    Message('note_off', channel=2, note=32, velocity=108, time=0),\n",
      "    Message('note_on', channel=9, note=45, velocity=85, time=8),\n",
      "    Message('note_on', channel=2, note=32, velocity=107, time=0),\n",
      "    Message('note_on', channel=7, note=73, velocity=82, time=0),\n",
      "    Message('note_on', channel=7, note=85, velocity=107, time=0),\n",
      "    Message('note_on', channel=15, note=58, velocity=123, time=0),\n",
      "    Message('note_off', channel=9, note=45, velocity=85, time=4),\n",
      "    Message('note_off', channel=7, note=85, velocity=107, time=60),\n",
      "    Message('note_off', channel=7, note=73, velocity=82, time=0),\n",
      "    Message('note_off', channel=15, note=58, velocity=123, time=24),\n",
      "    Message('note_off', channel=2, note=32, velocity=107, time=0),\n",
      "    Message('note_on', channel=9, note=46, velocity=92, time=8),\n",
      "    Message('note_on', channel=9, note=43, velocity=82, time=0),\n",
      "    Message('note_on', channel=15, note=61, velocity=120, time=0),\n",
      "    Message('note_off', channel=9, note=43, velocity=82, time=4),\n",
      "    Message('note_off', channel=9, note=46, velocity=92, time=0),\n",
      "    Message('note_off', channel=15, note=61, velocity=120, time=84),\n",
      "    Message('note_off', channel=3, note=65, velocity=92, time=8),\n",
      "    Message('note_off', channel=3, note=61, velocity=91, time=0),\n",
      "    Message('note_off', channel=3, note=58, velocity=91, time=0),\n",
      "    Message('note_on', channel=9, note=43, velocity=80, time=0),\n",
      "    Message('note_on', channel=2, note=37, velocity=110, time=0),\n",
      "    Message('note_on', channel=7, note=73, velocity=82, time=0),\n",
      "    Message('note_on', channel=7, note=85, velocity=110, time=0),\n",
      "    Message('note_on', channel=15, note=58, velocity=121, time=0),\n",
      "    Message('note_off', channel=9, note=43, velocity=80, time=4),\n",
      "    Message('note_off', channel=7, note=85, velocity=110, time=60),\n",
      "    Message('note_off', channel=7, note=73, velocity=82, time=0),\n",
      "    Message('note_off', channel=15, note=58, velocity=121, time=24),\n",
      "    Message('note_off', channel=2, note=37, velocity=110, time=0),\n",
      "    Message('note_on', channel=9, note=42, velocity=81, time=8),\n",
      "    Message('note_on', channel=9, note=36, velocity=106, time=0),\n",
      "    Message('note_on', channel=2, note=27, velocity=107, time=0),\n",
      "    Message('note_on', channel=3, note=61, velocity=93, time=0),\n",
      "    Message('note_on', channel=3, note=65, velocity=92, time=0),\n",
      "    Message('note_on', channel=3, note=58, velocity=92, time=0),\n",
      "    Message('note_on', channel=8, note=85, velocity=98, time=0),\n",
      "    Message('note_on', channel=13, note=65, velocity=83, time=0),\n",
      "    Message('note_on', channel=13, note=68, velocity=85, time=0),\n",
      "    Message('note_on', channel=13, note=73, velocity=88, time=0),\n",
      "    Message('note_on', channel=15, note=65, velocity=122, time=0),\n",
      "    Message('note_off', channel=9, note=36, velocity=106, time=4),\n",
      "    Message('note_off', channel=9, note=42, velocity=81, time=0),\n",
      "    Message('note_off', channel=2, note=27, velocity=107, time=84),\n",
      "    Message('note_on', channel=9, note=46, velocity=92, time=104),\n",
      "    Message('note_on', channel=2, note=27, velocity=111, time=0),\n",
      "    Message('note_off', channel=9, note=46, velocity=92, time=4),\n",
      "    Message('note_off', channel=15, note=65, velocity=122, time=68),\n",
      "    Message('note_off', channel=2, note=27, velocity=111, time=16),\n",
      "    Message('note_off', channel=13, note=73, velocity=88, time=0),\n",
      "    Message('note_off', channel=13, note=68, velocity=85, time=0),\n",
      "    Message('note_off', channel=13, note=65, velocity=83, time=0),\n",
      "    Message('note_on', channel=2, note=27, velocity=108, time=8),\n",
      "    Message('note_off', channel=2, note=27, velocity=108, time=88),\n",
      "    Message('note_on', channel=9, note=42, velocity=83, time=8),\n",
      "    Message('note_on', channel=9, note=38, velocity=102, time=0),\n",
      "    Message('note_on', channel=9, note=39, velocity=84, time=0),\n",
      "    Message('note_on', channel=13, note=65, velocity=88, time=0),\n",
      "    Message('note_on', channel=13, note=73, velocity=82, time=0),\n",
      "    Message('note_on', channel=13, note=68, velocity=82, time=0),\n",
      "    Message('note_on', channel=15, note=65, velocity=119, time=0),\n",
      "    Message('note_off', channel=9, note=39, velocity=84, time=4),\n",
      "    Message('note_off', channel=9, note=38, velocity=102, time=0),\n",
      "    Message('note_off', channel=9, note=42, velocity=83, time=0),\n",
      "    Message('note_off', channel=3, note=58, velocity=92, time=92),\n",
      "    Message('note_off', channel=3, note=65, velocity=92, time=0),\n",
      "    Message('note_off', channel=3, note=61, velocity=93, time=0),\n",
      "    Message('note_on', channel=2, note=36, velocity=107, time=0),\n",
      "    Message('note_off', channel=8, note=85, velocity=98, time=48),\n",
      "    Message('note_off', channel=15, note=65, velocity=119, time=32),\n",
      "    Message('note_off', channel=2, note=36, velocity=107, time=8),\n",
      "    Message('note_off', channel=13, note=68, velocity=82, time=0),\n",
      "    Message('note_off', channel=13, note=73, velocity=82, time=0),\n",
      "    Message('note_off', channel=13, note=65, velocity=88, time=0),\n",
      "    Message('note_on', channel=9, note=42, velocity=85, time=8),\n",
      "    Message('note_on', channel=2, note=34, velocity=108, time=0),\n",
      "    Message('note_on', channel=3, note=63, velocity=91, time=0),\n",
      "    Message('note_on', channel=3, note=60, velocity=86, time=0),\n",
      "    Message('note_on', channel=3, note=56, velocity=91, time=0),\n",
      "    Message('note_on', channel=8, note=87, velocity=96, time=0),\n",
      "    Message('note_on', channel=13, note=68, velocity=83, time=0),\n",
      "    Message('note_on', channel=13, note=63, velocity=83, time=0),\n",
      "    Message('note_on', channel=13, note=72, velocity=84, time=0),\n",
      "    Message('note_on', channel=15, note=63, velocity=124, time=0),\n",
      "    Message('note_off', channel=9, note=42, velocity=85, time=4),\n",
      "    Message('note_off', channel=2, note=34, velocity=108, time=84),\n",
      "    Message('note_on', channel=9, note=42, velocity=84, time=8),\n",
      "    Message('note_off', channel=9, note=42, velocity=84, time=4),\n",
      "    Message('note_off', channel=13, note=72, velocity=84, time=84),\n",
      "    Message('note_off', channel=13, note=63, velocity=83, time=0),\n",
      "    Message('note_off', channel=13, note=68, velocity=83, time=0),\n",
      "    Message('note_on', channel=9, note=42, velocity=85, time=8),\n",
      "    Message('note_on', channel=9, note=36, velocity=101, time=0),\n",
      "    Message('note_on', channel=2, note=32, velocity=110, time=0),\n",
      "    Message('note_off', channel=9, note=36, velocity=101, time=4),\n",
      "    Message('note_off', channel=9, note=42, velocity=85, time=0),\n",
      "    Message('note_off', channel=2, note=32, velocity=110, time=84),\n",
      "    Message('note_on', channel=9, note=46, velocity=91, time=104),\n",
      "    Message('note_on', channel=2, note=32, velocity=108, time=0),\n",
      "    Message('note_off', channel=9, note=46, velocity=91, time=4),\n",
      "    Message('note_off', channel=2, note=32, velocity=108, time=84),\n",
      "    Message('note_off', channel=8, note=87, velocity=96, time=56),\n",
      "    Message('note_off', channel=15, note=63, velocity=124, time=16),\n",
      "    Message('note_on', channel=9, note=42, velocity=83, time=32),\n",
      "    Message('note_on', channel=9, note=38, velocity=101, time=0),\n",
      "    Message('note_on', channel=9, note=39, velocity=85, time=0),\n",
      "    Message('note_on', channel=8, note=80, velocity=96, time=0),\n",
      "    Message('note_on', channel=15, note=56, velocity=120, time=0),\n",
      "    Message('note_off', channel=9, note=39, velocity=85, time=4),\n",
      "    Message('note_off', channel=9, note=38, velocity=101, time=0),\n",
      "    Message('note_off', channel=9, note=42, velocity=83, time=0),\n",
      "    Message('note_off', channel=15, note=56, velocity=120, time=84),\n",
      "    Message('note_on', channel=15, note=58, velocity=121, time=8),\n",
      "    Message('note_off', channel=15, note=58, velocity=121, time=88),\n",
      "    Message('note_on', channel=9, note=46, velocity=92, time=8),\n",
      "    Message('note_on', channel=2, note=29, velocity=111, time=0),\n",
      "    Message('note_on', channel=15, note=61, velocity=123, time=0),\n",
      "    Message('note_off', channel=9, note=46, velocity=92, time=4),\n",
      "    Message('note_off', channel=15, note=61, velocity=123, time=84),\n",
      "    Message('note_off', channel=2, note=29, velocity=111, time=0),\n",
      "    Message('note_off', channel=3, note=56, velocity=91, time=8),\n",
      "    Message('note_off', channel=3, note=60, velocity=86, time=0),\n",
      "    Message('note_off', channel=3, note=63, velocity=91, time=0),\n",
      "    Message('note_on', channel=2, note=32, velocity=106, time=0),\n",
      "    Message('note_on', channel=15, note=58, velocity=122, time=0),\n",
      "    Message('note_off', channel=8, note=80, velocity=96, time=64),\n",
      "    Message('note_off', channel=15, note=58, velocity=122, time=24),\n",
      "    Message('note_off', channel=2, note=32, velocity=106, time=0),\n",
      "    Message('note_on', channel=9, note=42, velocity=81, time=8),\n",
      "    Message('note_on', channel=9, note=36, velocity=109, time=0),\n",
      "    Message('note_on', channel=2, note=29, velocity=110, time=0),\n",
      "    Message('note_on', channel=3, note=60, velocity=89, time=0),\n",
      "    Message('note_on', channel=3, note=63, velocity=88, time=0),\n",
      "    Message('note_on', channel=3, note=56, velocity=86, time=0),\n",
      "    Message('note_on', channel=8, note=87, velocity=94, time=0),\n",
      "    Message('note_on', channel=13, note=63, velocity=88, time=0),\n",
      "    Message('note_on', channel=13, note=72, velocity=82, time=0),\n",
      "    Message('note_on', channel=13, note=68, velocity=87, time=0),\n",
      "    Message('note_on', channel=15, note=63, velocity=119, time=0),\n",
      "    Message('note_off', channel=9, note=36, velocity=109, time=4),\n",
      "    Message('note_off', channel=9, note=42, velocity=81, time=0),\n",
      "    Message('note_off', channel=2, note=29, velocity=110, time=84),\n",
      "    Message('note_on', channel=9, note=46, velocity=91, time=104),\n",
      "    Message('note_on', channel=2, note=29, velocity=109, time=0),\n",
      "    Message('note_off', channel=9, note=46, velocity=91, time=4),\n",
      "    Message('note_off', channel=15, note=63, velocity=119, time=68),\n",
      "    Message('note_off', channel=2, note=29, velocity=109, time=16),\n",
      "    Message('note_off', channel=13, note=68, velocity=87, time=0),\n",
      "    Message('note_off', channel=13, note=72, velocity=82, time=0),\n",
      "    Message('note_off', channel=13, note=63, velocity=88, time=0),\n",
      "    Message('note_on', channel=2, note=29, velocity=108, time=8),\n",
      "    Message('note_off', channel=2, note=29, velocity=108, time=88),\n",
      "    Message('note_on', channel=9, note=42, velocity=81, time=8),\n",
      "    Message('note_on', channel=9, note=38, velocity=104, time=0),\n",
      "    Message('note_on', channel=9, note=39, velocity=86, time=0),\n",
      "    Message('note_on', channel=13, note=63, velocity=88, time=0),\n",
      "    Message('note_on', channel=13, note=72, velocity=84, time=0),\n",
      "    Message('note_on', channel=13, note=68, velocity=87, time=0),\n",
      "    Message('note_on', channel=15, note=63, velocity=121, time=0),\n",
      "    Message('note_off', channel=9, note=39, velocity=86, time=4),\n",
      "    Message('note_off', channel=9, note=38, velocity=104, time=0),\n",
      "    Message('note_off', channel=9, note=42, velocity=81, time=0),\n",
      "    Message('note_off', channel=3, note=56, velocity=86, time=92),\n",
      "    Message('note_off', channel=3, note=63, velocity=88, time=0),\n",
      "    Message('note_off', channel=3, note=60, velocity=89, time=0),\n",
      "    Message('note_on', channel=2, note=36, velocity=110, time=0),\n",
      "    Message('note_off', channel=8, note=87, velocity=94, time=48),\n",
      "    Message('note_off', channel=15, note=63, velocity=121, time=32),\n",
      "    Message('note_off', channel=2, note=36, velocity=110, time=8),\n",
      "    Message('note_off', channel=13, note=68, velocity=87, time=0),\n",
      "    Message('note_off', channel=13, note=72, velocity=84, time=0),\n",
      "    Message('note_off', channel=13, note=63, velocity=88, time=0),\n",
      "    Message('note_on', channel=9, note=46, velocity=90, time=8),\n",
      "    Message('note_on', channel=2, note=34, velocity=107, time=0),\n",
      "    Message('note_on', channel=3, note=61, velocity=92, time=0),\n",
      "    Message('note_on', channel=3, note=65, velocity=87, time=0),\n",
      "    Message('note_on', channel=3, note=58, velocity=89, time=0),\n",
      "    Message('note_on', channel=8, note=89, velocity=99, time=0),\n",
      "    Message('note_on', channel=13, note=61, velocity=86, time=0),\n",
      "    Message('note_on', channel=13, note=70, velocity=89, time=0),\n",
      "    Message('note_on', channel=13, note=65, velocity=88, time=0),\n",
      "    Message('note_on', channel=15, note=61, velocity=121, time=0),\n",
      "    Message('note_off', channel=9, note=46, velocity=90, time=4),\n",
      "    Message('note_off', channel=2, note=34, velocity=107, time=84),\n",
      "    Message('note_off', channel=13, note=65, velocity=88, time=96),\n",
      "    Message('note_off', channel=13, note=70, velocity=89, time=0),\n",
      "    Message('note_off', channel=13, note=61, velocity=86, time=0),\n",
      "    Message('note_on', channel=9, note=42, velocity=80, time=8),\n",
      "    Message('note_on', channel=9, note=36, velocity=101, time=0),\n",
      "    Message('note_off', channel=9, note=36, velocity=101, time=4),\n",
      "    Message('note_off', channel=9, note=42, velocity=80, time=0),\n",
      "    Message('note_off', channel=15, note=61, velocity=121, time=68),\n",
      "    Message('note_on', channel=15, note=60, velocity=122, time=24),\n",
      "    Message('note_off', channel=15, note=60, velocity=122, time=88),\n",
      "    Message('note_on', channel=9, note=46, velocity=90, time=8),\n",
      "    Message('note_on', channel=2, note=34, velocity=111, time=0),\n",
      "    Message('note_on', channel=15, note=58, velocity=119, time=0),\n",
      "    Message('note_off', channel=9, note=46, velocity=90, time=4),\n",
      "    Message('note_off', channel=2, note=34, velocity=111, time=84),\n",
      "    Message('note_on', channel=2, note=34, velocity=110, time=8),\n",
      "    Message('note_off', channel=8, note=89, velocity=99, time=48),\n",
      "    Message('note_off', channel=15, note=58, velocity=119, time=32),\n",
      "    Message('note_off', channel=2, note=34, velocity=110, time=8),\n",
      "    Message('note_on', channel=9, note=42, velocity=80, time=8),\n",
      "    Message('note_on', channel=9, note=38, velocity=105, time=0),\n",
      "    Message('note_on', channel=9, note=39, velocity=85, time=0),\n",
      "    Message('note_on', channel=2, note=34, velocity=109, time=0),\n",
      "    Message('note_on', channel=8, note=92, velocity=99, time=0),\n",
      "    Message('note_on', channel=15, note=56, velocity=121, time=0),\n",
      "    Message('note_off', channel=9, note=39, velocity=85, time=4),\n",
      "    Message('note_off', channel=9, note=38, velocity=105, time=0),\n",
      "    Message('note_off', channel=9, note=42, velocity=80, time=0),\n",
      "    Message('note_off', channel=15, note=56, velocity=121, time=84),\n",
      "    Message('note_off', channel=8, note=92, velocity=99, time=0),\n",
      "    Message('note_off', channel=2, note=34, velocity=109, time=0),\n",
      "    Message('note_on', channel=2, note=36, velocity=108, time=8),\n",
      "    Message('note_on', channel=8, note=90, velocity=96, time=0),\n",
      "    Message('note_on', channel=15, note=58, velocity=121, time=0),\n",
      "    Message('note_off', channel=15, note=58, velocity=121, time=88),\n",
      "    Message('note_off', channel=8, note=90, velocity=96, time=0),\n",
      "    Message('note_off', channel=2, note=36, velocity=108, time=0),\n",
      "    Message('note_on', channel=9, note=46, velocity=87, time=8),\n",
      "    Message('note_on', channel=8, note=89, velocity=98, time=0),\n",
      "    Message('note_on', channel=15, note=61, velocity=119, time=0),\n",
      "    Message('note_off', channel=9, note=46, velocity=87, time=4),\n",
      "    Message('note_off', channel=15, note=61, velocity=119, time=84),\n",
      "    Message('note_off', channel=8, note=89, velocity=98, time=0),\n",
      "    Message('note_off', channel=3, note=58, velocity=89, time=8),\n",
      "    Message('note_off', channel=3, note=65, velocity=87, time=0),\n",
      "    Message('note_off', channel=3, note=61, velocity=92, time=0),\n",
      "    Message('note_on', channel=2, note=34, velocity=108, time=0),\n",
      "    Message('note_on', channel=8, note=85, velocity=99, time=0),\n",
      "    Message('note_on', channel=15, note=58, velocity=124, time=0),\n",
      "    Message('note_off', channel=15, note=58, velocity=124, time=88),\n",
      "    Message('note_off', channel=2, note=34, velocity=108, time=0),\n",
      "    Message('note_on', channel=9, note=42, velocity=84, time=8),\n",
      "    Message('note_on', channel=9, note=36, velocity=103, time=0),\n",
      "    Message('note_on', channel=2, note=27, velocity=107, time=0),\n",
      "    Message('note_on', channel=3, note=61, velocity=89, time=0),\n",
      "    Message('note_on', channel=3, note=65, velocity=93, time=0),\n",
      "    Message('note_on', channel=3, note=58, velocity=93, time=0),\n",
      "    Message('note_on', channel=15, note=61, velocity=124, time=0),\n",
      "    Message('note_off', channel=9, note=36, velocity=103, time=4),\n",
      "    Message('note_off', channel=9, note=42, velocity=84, time=0),\n",
      "    Message('note_off', channel=2, note=27, velocity=107, time=84),\n",
      "    Message('note_on', channel=9, note=46, velocity=89, time=104),\n",
      "    Message('note_on', channel=2, note=27, velocity=110, time=0),\n",
      "    Message('note_off', channel=9, note=46, velocity=89, time=4),\n",
      "    Message('note_off', channel=2, note=27, velocity=110, time=84),\n",
      "    Message('note_on', channel=2, note=27, velocity=108, time=8),\n",
      "    Message('note_off', channel=15, note=61, velocity=124, time=64),\n",
      "    Message('note_off', channel=2, note=27, velocity=108, time=24),\n",
      "    Message('note_on', channel=9, note=42, velocity=85, time=8),\n",
      "    Message('note_on', channel=9, note=38, velocity=102, time=0),\n",
      "    Message('note_on', channel=9, note=39, velocity=85, time=0),\n",
      "    Message('note_on', channel=15, note=63, velocity=119, time=0),\n",
      "    Message('note_off', channel=9, note=39, velocity=85, time=4),\n",
      "    Message('note_off', channel=9, note=38, velocity=102, time=0),\n",
      "    Message('note_off', channel=9, note=42, velocity=85, time=0),\n",
      "    Message('note_off', channel=3, note=58, velocity=93, time=92),\n",
      "    Message('note_off', channel=3, note=65, velocity=93, time=0),\n",
      "    Message('note_off', channel=3, note=61, velocity=89, time=0),\n",
      "    Message('note_on', channel=2, note=36, velocity=108, time=0),\n",
      "    Message('note_off', channel=8, note=85, velocity=99, time=48),\n",
      "    Message('note_off', channel=15, note=63, velocity=119, time=32),\n",
      "    Message('note_off', channel=2, note=36, velocity=108, time=8),\n",
      "    Message('note_on', channel=9, note=42, velocity=81, time=8),\n",
      "    Message('note_on', channel=2, note=34, velocity=107, time=0),\n",
      "    Message('note_on', channel=3, note=60, velocity=93, time=0),\n",
      "    Message('note_on', channel=3, note=63, velocity=90, time=0),\n",
      "    Message('note_on', channel=3, note=56, velocity=92, time=0),\n",
      "    Message('note_on', channel=8, note=87, velocity=96, time=0),\n",
      "    Message('note_on', channel=15, note=60, velocity=122, time=0),\n",
      "    Message('note_off', channel=9, note=42, velocity=81, time=4),\n",
      "    Message('note_off', channel=2, note=34, velocity=107, time=84),\n",
      "    Message('note_on', channel=9, note=42, velocity=81, time=8),\n",
      "    Message('note_off', channel=9, note=42, velocity=81, time=4),\n",
      "    Message('note_on', channel=9, note=42, velocity=81, time=92),\n",
      "    Message('note_on', channel=9, note=36, velocity=109, time=0),\n",
      "    Message('note_on', channel=2, note=32, velocity=109, time=0),\n",
      "    Message('note_off', channel=9, note=36, velocity=109, time=4),\n",
      "    Message('note_off', channel=9, note=42, velocity=81, time=0),\n",
      "    Message('note_off', channel=15, note=60, velocity=122, time=68),\n",
      "    Message('note_off', channel=2, note=32, velocity=109, time=16),\n",
      "    Message('note_on', channel=15, note=58, velocity=120, time=8),\n",
      "    Message('note_off', channel=15, note=58, velocity=120, time=88),\n",
      "    Message('note_on', channel=9, note=46, velocity=92, time=8),\n",
      "    Message('note_on', channel=2, note=32, velocity=106, time=0),\n",
      "    Message('note_on', channel=15, note=56, velocity=123, time=0),\n",
      "    Message('note_off', channel=9, note=46, velocity=92, time=4),\n",
      "    Message('note_off', channel=15, note=56, velocity=123, time=84),\n",
      "    Message('note_off', channel=2, note=32, velocity=106, time=0),\n",
      "    Message('note_off', channel=8, note=87, velocity=96, time=56),\n",
      "    Message('note_on', channel=9, note=42, velocity=80, time=48),\n",
      "    Message('note_on', channel=9, note=38, velocity=103, time=0),\n",
      "    Message('note_on', channel=9, note=39, velocity=87, time=0),\n",
      "    Message('note_on', channel=8, note=80, velocity=97, time=0),\n",
      "    Message('note_on', channel=15, note=56, velocity=122, time=0),\n",
      "    Message('note_off', channel=9, note=39, velocity=87, time=4),\n",
      "    Message('note_off', channel=9, note=38, velocity=103, time=0),\n",
      "    Message('note_off', channel=9, note=42, velocity=80, time=0),\n",
      "    Message('note_off', channel=15, note=56, velocity=122, time=172),\n",
      "    Message('note_on', channel=9, note=46, velocity=87, time=16),\n",
      "    Message('note_on', channel=2, note=32, velocity=106, time=0),\n",
      "    Message('note_on', channel=15, note=63, velocity=120, time=0),\n",
      "    Message('note_off', channel=9, note=46, velocity=87, time=4),\n",
      "    Message('note_off', channel=2, note=32, velocity=106, time=84),\n",
      "    Message('note_off', channel=3, note=56, velocity=92, time=8),\n",
      "    Message('note_off', channel=3, note=63, velocity=90, time=0),\n",
      "    Message('note_off', channel=3, note=60, velocity=93, time=0),\n",
      "    Message('note_on', channel=2, note=32, velocity=107, time=0),\n",
      "    Message('note_off', channel=2, note=32, velocity=107, time=88),\n",
      "    Message('note_on', channel=9, note=42, velocity=80, time=8),\n",
      "    Message('note_on', channel=9, note=36, velocity=101, time=0),\n",
      "    Message('note_on', channel=2, note=29, velocity=106, time=0),\n",
      "    Message('note_on', channel=3, note=63, velocity=90, time=0),\n",
      "    Message('note_on', channel=3, note=60, velocity=87, time=0),\n",
      "    Message('note_on', channel=3, note=56, velocity=92, time=0),\n",
      "    Message('note_on', channel=13, note=63, velocity=87, time=0),\n",
      "    Message('note_on', channel=13, note=68, velocity=83, time=0),\n",
      "    Message('note_on', channel=13, note=72, velocity=85, time=0),\n",
      "    Message('note_off', channel=9, note=36, velocity=101, time=4),\n",
      "    Message('note_off', channel=9, note=42, velocity=80, time=0),\n",
      "    Message('note_off', channel=2, note=29, velocity=106, time=84),\n",
      "    Message('note_on', channel=9, note=46, velocity=89, time=104),\n",
      "    Message('note_on', channel=2, note=29, velocity=106, time=0),\n",
      "    Message('note_off', channel=9, note=46, velocity=89, time=4),\n",
      "    Message('note_off', channel=2, note=29, velocity=106, time=84),\n",
      "    Message('note_off', channel=13, note=72, velocity=85, time=0),\n",
      "    Message('note_off', channel=13, note=68, velocity=83, time=0),\n",
      "    Message('note_off', channel=13, note=63, velocity=87, time=0),\n",
      "    Message('note_on', channel=2, note=29, velocity=109, time=8),\n",
      "    Message('note_off', channel=15, note=63, velocity=120, time=64),\n",
      "    Message('note_off', channel=2, note=29, velocity=109, time=24),\n",
      "    Message('note_on', channel=9, note=42, velocity=82, time=8),\n",
      "    Message('note_on', channel=9, note=38, velocity=106, time=0),\n",
      "    Message('note_on', channel=9, note=39, velocity=86, time=0),\n",
      "    Message('note_on', channel=13, note=65, velocity=87, time=0),\n",
      "    Message('note_on', channel=13, note=70, velocity=89, time=0),\n",
      "    Message('note_on', channel=13, note=73, velocity=84, time=0),\n",
      "    Message('note_on', channel=15, note=61, velocity=124, time=0),\n",
      "    Message('note_off', channel=9, note=39, velocity=86, time=4),\n",
      "    Message('note_off', channel=9, note=38, velocity=106, time=0),\n",
      "    Message('note_off', channel=9, note=42, velocity=82, time=0),\n",
      "    Message('note_off', channel=3, note=56, velocity=92, time=92),\n",
      "    Message('note_off', channel=3, note=60, velocity=87, time=0),\n",
      "    Message('note_off', channel=3, note=63, velocity=90, time=0),\n",
      "    Message('note_on', channel=2, note=36, velocity=108, time=0),\n",
      "    Message('note_off', channel=2, note=36, velocity=108, time=88),\n",
      "    Message('note_on', channel=9, note=46, velocity=92, time=8),\n",
      "    Message('note_on', channel=2, note=34, velocity=106, time=0),\n",
      "    Message('note_on', channel=3, note=61, velocity=88, time=0),\n",
      "    Message('note_on', channel=3, note=65, velocity=91, time=0),\n",
      "    Message('note_on', channel=3, note=58, velocity=88, time=0),\n",
      "    Message('note_off', channel=9, note=46, velocity=92, time=4),\n",
      "    Message('note_off', channel=2, note=34, velocity=106, time=84),\n",
      "    Message('note_on', channel=9, note=42, velocity=80, time=104),\n",
      "    Message('note_on', channel=9, note=36, velocity=102, time=0),\n",
      "    Message('note_off', channel=9, note=36, velocity=102, time=4),\n",
      "    Message('note_off', channel=9, note=42, velocity=80, time=0),\n",
      "    Message('note_off', channel=8, note=80, velocity=97, time=140),\n",
      "    Message('note_on', channel=9, note=46, velocity=90, time=48),\n",
      "    Message('note_on', channel=2, note=32, velocity=109, time=0),\n",
      "    Message('note_on', channel=7, note=68, velocity=85, time=0),\n",
      "    Message('note_on', channel=7, note=80, velocity=108, time=0),\n",
      "    Message('note_on', channel=7, note=56, velocity=81, time=0),\n",
      "    Message('note_off', channel=9, note=46, velocity=90, time=4),\n",
      "    Message('note_off', channel=7, note=56, velocity=81, time=60),\n",
      "    Message('note_off', channel=7, note=80, velocity=108, time=0),\n",
      "    Message('note_off', channel=7, note=68, velocity=85, time=0),\n",
      "    Message('note_off', channel=15, note=61, velocity=124, time=0),\n",
      "    Message('note_off', channel=2, note=32, velocity=109, time=24),\n",
      "    Message('note_on', channel=7, note=68, velocity=82, time=8),\n",
      "    Message('note_on', channel=7, note=80, velocity=107, time=0),\n",
      "    Message('note_on', channel=7, note=56, velocity=81, time=0),\n",
      "    Message('note_off', channel=7, note=56, velocity=81, time=64),\n",
      "    Message('note_off', channel=7, note=80, velocity=107, time=0),\n",
      "    Message('note_off', channel=7, note=68, velocity=82, time=0),\n",
      "    Message('note_on', channel=9, note=42, velocity=82, time=32),\n",
      "    Message('note_on', channel=9, note=38, velocity=102, time=0),\n",
      "    Message('note_on', channel=9, note=39, velocity=82, time=0),\n",
      "    Message('note_on', channel=2, note=32, velocity=108, time=0),\n",
      "    Message('note_on', channel=8, note=92, velocity=99, time=0),\n",
      "    Message('note_on', channel=15, note=56, velocity=120, time=0),\n",
      "    Message('note_off', channel=9, note=39, velocity=82, time=4),\n",
      "    Message('note_off', channel=9, note=38, velocity=102, time=0),\n",
      "    Message('note_off', channel=9, note=42, velocity=82, time=0),\n",
      "    Message('note_off', channel=15, note=56, velocity=120, time=84),\n",
      "    Message('note_off', channel=8, note=92, velocity=99, time=0),\n",
      "    Message('note_off', channel=2, note=32, velocity=108, time=0),\n",
      "    Message('note_off', channel=13, note=73, velocity=84, time=0),\n",
      "    Message('note_off', channel=13, note=70, velocity=89, time=0),\n",
      "    Message('note_off', channel=13, note=65, velocity=87, time=0),\n",
      "    Message('note_on', channel=2, note=32, velocity=110, time=8),\n",
      "    Message('note_on', channel=8, note=90, velocity=99, time=0),\n",
      "    Message('note_on', channel=15, note=58, velocity=124, time=0),\n",
      "    Message('note_off', channel=15, note=58, velocity=124, time=88),\n",
      "    Message('note_off', channel=8, note=90, velocity=99, time=0),\n",
      "    Message('note_off', channel=2, note=32, velocity=110, time=0),\n",
      "    Message('note_on', channel=9, note=46, velocity=91, time=8),\n",
      "    Message('note_on', channel=8, note=89, velocity=95, time=0),\n",
      "    Message('note_on', channel=15, note=61, velocity=119, time=0),\n",
      "    Message('note_off', channel=9, note=46, velocity=91, time=4),\n",
      "    Message('note_off', channel=15, note=61, velocity=119, time=84),\n",
      "    Message('note_off', channel=8, note=89, velocity=95, time=0),\n",
      "    Message('note_off', channel=3, note=58, velocity=88, time=8),\n",
      "    Message('note_off', channel=3, note=65, velocity=91, time=0),\n",
      "    Message('note_off', channel=3, note=61, velocity=88, time=0),\n",
      "    Message('note_on', channel=2, note=37, velocity=108, time=0),\n",
      "    Message('note_on', channel=8, note=85, velocity=95, time=0),\n",
      "    Message('note_on', channel=15, note=58, velocity=121, time=0),\n",
      "    Message('note_off', channel=15, note=58, velocity=121, time=88),\n",
      "    Message('note_off', channel=2, note=37, velocity=108, time=0),\n",
      "    Message('note_on', channel=9, note=42, velocity=83, time=8),\n",
      "    Message('note_on', channel=9, note=36, velocity=108, time=0),\n",
      "    Message('note_on', channel=2, note=27, velocity=107, time=0),\n",
      "    Message('note_on', channel=3, note=61, velocity=86, time=0),\n",
      "    Message('note_on', channel=3, note=65, velocity=92, time=0),\n",
      "    Message('note_on', channel=3, note=58, velocity=92, time=0),\n",
      "    Message('note_on', channel=13, note=63, velocity=86, time=0),\n",
      "    Message('note_on', channel=13, note=73, velocity=88, time=0),\n",
      "    Message('note_on', channel=13, note=68, velocity=83, time=0),\n",
      "    Message('note_on', channel=15, note=65, velocity=121, time=0),\n",
      "    Message('note_off', channel=9, note=36, velocity=108, time=4),\n",
      "    Message('note_off', channel=9, note=42, velocity=83, time=0),\n",
      "    Message('note_off', channel=2, note=27, velocity=107, time=84),\n",
      "    Message('note_on', channel=9, note=46, velocity=90, time=104),\n",
      "    Message('note_on', channel=2, note=27, velocity=111, time=0),\n",
      "    Message('note_off', channel=9, note=46, velocity=90, time=4),\n",
      "    Message('note_off', channel=15, note=65, velocity=121, time=68),\n",
      "    Message('note_off', channel=2, note=27, velocity=111, time=16),\n",
      "    Message('note_off', channel=13, note=68, velocity=83, time=0),\n",
      "    Message('note_off', channel=13, note=73, velocity=88, time=0),\n",
      "    Message('note_off', channel=13, note=63, velocity=86, time=0),\n",
      "    Message('note_on', channel=2, note=27, velocity=111, time=8),\n",
      "    Message('note_off', channel=2, note=27, velocity=111, time=88),\n",
      "    Message('note_on', channel=9, note=42, velocity=85, time=8),\n",
      "    Message('note_on', channel=9, note=38, velocity=109, time=0),\n",
      "    Message('note_on', channel=9, note=39, velocity=80, time=0),\n",
      "    Message('note_on', channel=13, note=63, velocity=88, time=0),\n",
      "    Message('note_on', channel=13, note=73, velocity=89, time=0),\n",
      "    Message('note_on', channel=13, note=68, velocity=87, time=0),\n",
      "    Message('note_on', channel=15, note=65, velocity=120, time=0),\n",
      "    Message('note_off', channel=9, note=39, velocity=80, time=4),\n",
      "    Message('note_off', channel=9, note=38, velocity=109, time=0),\n",
      "    Message('note_off', channel=9, note=42, velocity=85, time=0),\n",
      "    Message('note_off', channel=3, note=58, velocity=92, time=92),\n",
      "    Message('note_off', channel=3, note=65, velocity=92, time=0),\n",
      "    Message('note_off', channel=3, note=61, velocity=86, time=0),\n",
      "    Message('note_on', channel=2, note=36, velocity=110, time=0),\n",
      "    Message('note_off', channel=8, note=85, velocity=95, time=48),\n",
      "    Message('note_off', channel=15, note=65, velocity=120, time=32),\n",
      "    Message('note_off', channel=2, note=36, velocity=110, time=8),\n",
      "    Message('note_off', channel=13, note=68, velocity=87, time=0),\n",
      "    Message('note_off', channel=13, note=73, velocity=89, time=0),\n",
      "    Message('note_off', channel=13, note=63, velocity=88, time=0),\n",
      "    Message('note_on', channel=9, note=42, velocity=83, time=8),\n",
      "    Message('note_on', channel=2, note=34, velocity=107, time=0),\n",
      "    Message('note_on', channel=3, note=60, velocity=91, time=0),\n",
      "    Message('note_on', channel=3, note=63, velocity=92, time=0),\n",
      "    Message('note_on', channel=3, note=56, velocity=90, time=0),\n",
      "    Message('note_on', channel=8, note=87, velocity=96, time=0),\n",
      "    Message('note_on', channel=13, note=68, velocity=86, time=0),\n",
      "    Message('note_on', channel=13, note=63, velocity=86, time=0),\n",
      "    Message('note_on', channel=13, note=72, velocity=86, time=0),\n",
      "    Message('note_on', channel=15, note=63, velocity=124, time=0),\n",
      "    Message('note_off', channel=9, note=42, velocity=83, time=4),\n",
      "    Message('note_off', channel=2, note=34, velocity=107, time=84),\n",
      "    Message('note_on', channel=9, note=42, velocity=81, time=8),\n",
      "    Message('note_off', channel=9, note=42, velocity=81, time=4),\n",
      "    Message('note_on', channel=9, note=42, velocity=84, time=92),\n",
      "    Message('note_on', channel=9, note=36, velocity=102, time=0),\n",
      "    Message('note_on', channel=2, note=32, velocity=108, time=0),\n",
      "    Message('note_off', channel=9, note=36, velocity=102, time=4),\n",
      "    Message('note_off', channel=9, note=42, velocity=84, time=0),\n",
      "    Message('note_off', channel=2, note=32, velocity=108, time=84),\n",
      "    Message('note_on', channel=9, note=46, velocity=91, time=104),\n",
      "    Message('note_on', channel=2, note=32, velocity=110, time=0),\n",
      "    Message('note_off', channel=9, note=46, velocity=91, time=4),\n",
      "    Message('note_off', channel=2, note=32, velocity=110, time=84),\n",
      "    Message('note_off', channel=8, note=87, velocity=96, time=56),\n",
      "    Message('note_off', channel=15, note=63, velocity=124, time=16),\n",
      "    Message('note_off', channel=13, note=72, velocity=86, time=24),\n",
      "    Message('note_off', channel=13, note=63, velocity=86, time=0),\n",
      "    Message('note_off', channel=13, note=68, velocity=86, time=0),\n",
      "    Message('note_on', channel=9, note=42, velocity=85, time=8),\n",
      "    Message('note_on', channel=9, note=38, velocity=101, time=0),\n",
      "    Message('note_on', channel=9, note=39, velocity=82, time=0),\n",
      "    Message('note_on', channel=8, note=80, velocity=96, time=0),\n",
      "    Message('note_on', channel=15, note=56, velocity=123, time=0),\n",
      "    Message('note_off', channel=9, note=39, velocity=82, time=4),\n",
      "    Message('note_off', channel=9, note=38, velocity=101, time=0),\n",
      "    Message('note_off', channel=9, note=42, velocity=85, time=0),\n",
      "    Message('note_off', channel=15, note=56, velocity=123, time=84),\n",
      "    Message('note_on', channel=15, note=58, velocity=122, time=8),\n",
      "    Message('note_off', channel=15, note=58, velocity=122, time=88),\n",
      "    Message('note_on', channel=9, note=46, velocity=92, time=8),\n",
      "    Message('note_on', channel=2, note=29, velocity=108, time=0),\n",
      "    Message('note_on', channel=15, note=61, velocity=124, time=0),\n",
      "    Message('note_off', channel=9, note=46, velocity=92, time=4),\n",
      "    Message('note_off', channel=15, note=61, velocity=124, time=84),\n",
      "    Message('note_off', channel=2, note=29, velocity=108, time=0),\n",
      "    Message('note_off', channel=3, note=56, velocity=90, time=8),\n",
      "    Message('note_off', channel=3, note=63, velocity=92, time=0),\n",
      "    Message('note_off', channel=3, note=60, velocity=91, time=0),\n",
      "    Message('note_on', channel=2, note=32, velocity=111, time=0),\n",
      "    Message('note_on', channel=15, note=58, velocity=122, time=0),\n",
      "    Message('note_off', channel=8, note=80, velocity=96, time=64),\n",
      "    Message('note_off', channel=15, note=58, velocity=122, time=24),\n",
      "    Message('note_off', channel=2, note=32, velocity=111, time=0),\n",
      "    Message('note_on', channel=9, note=42, velocity=83, time=8),\n",
      "    Message('note_on', channel=9, note=36, velocity=103, time=0),\n",
      "    Message('note_on', channel=2, note=29, velocity=108, time=0),\n",
      "    Message('note_on', channel=3, note=60, velocity=89, time=0),\n",
      "    Message('note_on', channel=3, note=63, velocity=90, time=0),\n",
      "    Message('note_on', channel=3, note=56, velocity=90, time=0),\n",
      "    Message('note_on', channel=8, note=87, velocity=94, time=0),\n",
      "    Message('note_on', channel=13, note=68, velocity=89, time=0),\n",
      "    Message('note_on', channel=13, note=75, velocity=83, time=0),\n",
      "    Message('note_on', channel=13, note=72, velocity=86, time=0),\n",
      "    Message('note_on', channel=15, note=68, velocity=121, time=0),\n",
      "    Message('note_off', channel=9, note=36, velocity=103, time=4),\n",
      "    Message('note_off', channel=9, note=42, velocity=83, time=0),\n",
      "    Message('note_off', channel=2, note=29, velocity=108, time=84),\n",
      "    Message('note_on', channel=9, note=46, velocity=91, time=104),\n",
      "    Message('note_on', channel=2, note=29, velocity=109, time=0),\n",
      "    Message('note_off', channel=9, note=46, velocity=91, time=4),\n",
      "    Message('note_off', channel=2, note=29, velocity=109, time=84),\n",
      "    Message('note_off', channel=13, note=72, velocity=86, time=0),\n",
      "    Message('note_off', channel=13, note=75, velocity=83, time=0),\n",
      "    Message('note_off', channel=13, note=68, velocity=89, time=0),\n",
      "    Message('note_on', channel=2, note=29, velocity=110, time=8),\n",
      "    Message('note_off', channel=15, note=68, velocity=121, time=64),\n",
      "    Message('note_off', channel=2, note=29, velocity=110, time=24),\n",
      "    Message('note_on', channel=9, note=42, velocity=84, time=8),\n",
      "    Message('note_on', channel=9, note=38, velocity=101, time=0),\n",
      "    Message('note_on', channel=9, note=39, velocity=86, time=0),\n",
      "    Message('note_on', channel=13, note=68, velocity=83, time=0),\n",
      "    Message('note_on', channel=13, note=75, velocity=84, time=0),\n",
      "    Message('note_on', channel=13, note=72, velocity=89, time=0),\n",
      "    Message('note_on', channel=15, note=60, velocity=121, time=0),\n",
      "    Message('note_off', channel=9, note=39, velocity=86, time=4),\n",
      "    Message('note_off', channel=9, note=38, velocity=101, time=0),\n",
      "    Message('note_off', channel=9, note=42, velocity=84, time=0),\n",
      "    Message('note_off', channel=3, note=56, velocity=90, time=92),\n",
      "    Message('note_off', channel=3, note=63, velocity=90, time=0),\n",
      "    Message('note_off', channel=3, note=60, velocity=89, time=0),\n",
      "    Message('note_on', channel=2, note=36, velocity=107, time=0),\n",
      "    Message('note_off', channel=8, note=87, velocity=94, time=48),\n",
      "    Message('note_off', channel=15, note=60, velocity=121, time=32),\n",
      "    Message('note_off', channel=2, note=36, velocity=107, time=8),\n",
      "    Message('note_off', channel=13, note=72, velocity=89, time=0),\n",
      "    Message('note_off', channel=13, note=75, velocity=84, time=0),\n",
      "    Message('note_off', channel=13, note=68, velocity=83, time=0),\n",
      "    Message('note_on', channel=9, note=46, velocity=91, time=8),\n",
      "    Message('note_on', channel=2, note=34, velocity=106, time=0),\n",
      "    Message('note_on', channel=3, note=61, velocity=92, time=0),\n",
      "    Message('note_on', channel=3, note=65, velocity=90, time=0),\n",
      "    Message('note_on', channel=3, note=58, velocity=87, time=0),\n",
      "    Message('note_on', channel=8, note=89, velocity=95, time=0),\n",
      "    Message('note_on', channel=13, note=65, velocity=83, time=0),\n",
      "    Message('note_on', channel=13, note=70, velocity=84, time=0),\n",
      "    Message('note_on', channel=13, note=73, velocity=83, time=0),\n",
      "    Message('note_on', channel=15, note=61, velocity=124, time=0),\n",
      "    Message('note_off', channel=9, note=46, velocity=91, time=4),\n",
      "    Message('note_off', channel=2, note=34, velocity=106, time=84),\n",
      "    Message('note_on', channel=9, note=42, velocity=81, time=104),\n",
      "    Message('note_on', channel=9, note=36, velocity=104, time=0),\n",
      "    Message('note_off', channel=9, note=36, velocity=104, time=4),\n",
      "    Message('note_off', channel=9, note=42, velocity=81, time=0),\n",
      "    Message('note_off', channel=15, note=61, velocity=124, time=68),\n",
      "    Message('note_off', channel=13, note=73, velocity=83, time=16),\n",
      "    Message('note_off', channel=13, note=70, velocity=84, time=0),\n",
      "    Message('note_off', channel=13, note=65, velocity=83, time=0),\n",
      "    Message('note_on', channel=13, note=63, velocity=86, time=8),\n",
      "    Message('note_on', channel=13, note=72, velocity=87, time=0),\n",
      "    Message('note_on', channel=13, note=68, velocity=88, time=0),\n",
      "    Message('note_on', channel=15, note=60, velocity=119, time=0),\n",
      "    Message('note_off', channel=15, note=60, velocity=119, time=88),\n",
      "    Message('note_off', channel=13, note=68, velocity=88, time=0),\n",
      "    Message('note_off', channel=13, note=72, velocity=87, time=0),\n",
      "    Message('note_off', channel=13, note=63, velocity=86, time=0),\n",
      "    Message('note_on', channel=9, note=46, velocity=90, time=8),\n",
      "    Message('note_on', channel=2, note=34, velocity=109, time=0),\n",
      "    Message('note_on', channel=13, note=61, velocity=85, time=0),\n",
      "    Message('note_on', channel=13, note=70, velocity=87, time=0),\n",
      "    Message('note_on', channel=13, note=65, velocity=86, time=0),\n",
      "    Message('note_on', channel=15, note=58, velocity=122, time=0),\n",
      "    Message('note_off', channel=9, note=46, velocity=90, time=4),\n",
      "    Message('note_off', channel=2, note=34, velocity=109, time=84),\n",
      "    Message('note_on', channel=2, note=34, velocity=107, time=8),\n",
      "    Message('note_off', channel=8, note=89, velocity=95, time=48),\n",
      "    Message('note_off', channel=15, note=58, velocity=122, time=32),\n",
      "    Message('note_off', channel=2, note=34, velocity=107, time=8),\n",
      "    Message('note_off', channel=13, note=65, velocity=86, time=0),\n",
      "    Message('note_off', channel=13, note=70, velocity=87, time=0),\n",
      "    Message('note_off', channel=13, note=61, velocity=85, time=0),\n",
      "    Message('note_on', channel=9, note=42, velocity=83, time=8),\n",
      "    Message('note_on', channel=9, note=38, velocity=103, time=0),\n",
      "    Message('note_on', channel=9, note=39, velocity=87, time=0),\n",
      "    Message('note_on', channel=2, note=34, velocity=108, time=0),\n",
      "    Message('note_on', channel=8, note=92, velocity=97, time=0),\n",
      "    Message('note_on', channel=15, note=56, velocity=120, time=0),\n",
      "    Message('note_off', channel=9, note=39, velocity=87, time=4),\n",
      "    Message('note_off', channel=9, note=38, velocity=103, time=0),\n",
      "    Message('note_off', channel=9, note=42, velocity=83, time=0),\n",
      "    Message('note_off', channel=15, note=56, velocity=120, time=84),\n",
      "    Message('note_off', channel=8, note=92, velocity=97, time=0),\n",
      "    Message('note_off', channel=2, note=34, velocity=108, time=0),\n",
      "    Message('note_on', channel=2, note=36, velocity=108, time=8),\n",
      "    Message('note_on', channel=8, note=90, velocity=99, time=0),\n",
      "    Message('note_on', channel=15, note=58, velocity=124, time=0),\n",
      "    Message('note_off', channel=15, note=58, velocity=124, time=88),\n",
      "    Message('note_off', channel=8, note=90, velocity=99, time=0),\n",
      "    Message('note_off', channel=2, note=36, velocity=108, time=0),\n",
      "    Message('note_on', channel=9, note=46, velocity=87, time=8),\n",
      "    Message('note_on', channel=8, note=89, velocity=99, time=0),\n",
      "    Message('note_on', channel=15, note=61, velocity=123, time=0),\n",
      "    Message('note_off', channel=9, note=46, velocity=87, time=4),\n",
      "    Message('note_off', channel=15, note=61, velocity=123, time=84),\n",
      "    Message('note_off', channel=8, note=89, velocity=99, time=0),\n",
      "    Message('note_off', channel=3, note=58, velocity=87, time=8),\n",
      "    Message('note_off', channel=3, note=65, velocity=90, time=0),\n",
      "    Message('note_off', channel=3, note=61, velocity=92, time=0),\n",
      "    Message('note_on', channel=2, note=34, velocity=109, time=0),\n",
      "    Message('note_on', channel=8, note=85, velocity=95, time=0),\n",
      "    Message('note_on', channel=15, note=58, velocity=122, time=0),\n",
      "    Message('note_off', channel=15, note=58, velocity=122, time=88),\n",
      "    Message('note_off', channel=2, note=34, velocity=109, time=0),\n",
      "    Message('note_on', channel=9, note=42, velocity=80, time=8),\n",
      "    Message('note_on', channel=9, note=36, velocity=106, time=0),\n",
      "    Message('note_on', channel=2, note=27, velocity=111, time=0),\n",
      "    Message('note_on', channel=3, note=61, velocity=91, time=0),\n",
      "    Message('note_on', channel=3, note=65, velocity=87, time=0),\n",
      "    Message('note_on', channel=3, note=58, velocity=91, time=0),\n",
      "    Message('note_on', channel=15, note=61, velocity=124, time=0),\n",
      "    Message('note_off', channel=9, note=36, velocity=106, time=4),\n",
      "    Message('note_off', channel=9, note=42, velocity=80, time=0),\n",
      "    Message('note_off', channel=2, note=27, velocity=111, time=84),\n",
      "    Message('note_on', channel=9, note=46, velocity=87, time=104),\n",
      "    Message('note_on', channel=2, note=27, velocity=109, time=0),\n",
      "    Message('note_off', channel=9, note=46, velocity=87, time=4),\n",
      "    Message('note_off', channel=2, note=27, velocity=109, time=84),\n",
      "    Message('note_on', channel=2, note=27, velocity=109, time=8),\n",
      "    Message('note_off', channel=15, note=61, velocity=124, time=64),\n",
      "    Message('note_off', channel=2, note=27, velocity=109, time=24),\n",
      "    Message('note_on', channel=9, note=42, velocity=85, time=8),\n",
      "    Message('note_on', channel=9, note=38, velocity=103, time=0),\n",
      "    Message('note_on', channel=9, note=39, velocity=82, time=0),\n",
      "    Message('note_on', channel=15, note=63, velocity=120, time=0),\n",
      "    Message('note_off', channel=9, note=39, velocity=82, time=4),\n",
      "    Message('note_off', channel=9, note=38, velocity=103, time=0),\n",
      "    Message('note_off', channel=9, note=42, velocity=85, time=0),\n",
      "    Message('note_off', channel=3, note=58, velocity=91, time=92),\n",
      "    Message('note_off', channel=3, note=65, velocity=87, time=0),\n",
      "    Message('note_off', channel=3, note=61, velocity=91, time=0),\n",
      "    Message('note_on', channel=2, note=36, velocity=108, time=0),\n",
      "    Message('note_off', channel=8, note=85, velocity=95, time=48),\n",
      "    Message('note_off', channel=15, note=63, velocity=120, time=32),\n",
      "    Message('note_off', channel=2, note=36, velocity=108, time=8),\n",
      "    Message('note_on', channel=9, note=42, velocity=85, time=8),\n",
      "    Message('note_on', channel=2, note=34, velocity=109, time=0),\n",
      "    Message('note_on', channel=3, note=63, velocity=89, time=0),\n",
      "    Message('note_on', channel=3, note=60, velocity=88, time=0),\n",
      "    Message('note_on', channel=3, note=56, velocity=93, time=0),\n",
      "    Message('note_on', channel=8, note=87, velocity=96, time=0),\n",
      "    Message('note_on', channel=15, note=60, velocity=122, time=0),\n",
      "    Message('note_off', channel=9, note=42, velocity=85, time=4),\n",
      "    Message('note_off', channel=2, note=34, velocity=109, time=84),\n",
      "    Message('note_on', channel=9, note=42, velocity=82, time=8),\n",
      "    Message('note_off', channel=9, note=42, velocity=82, time=4),\n",
      "    Message('note_on', channel=9, note=42, velocity=84, time=92),\n",
      "    Message('note_on', channel=9, note=36, velocity=101, time=0),\n",
      "    Message('note_on', channel=2, note=32, velocity=107, time=0),\n",
      "    Message('note_off', channel=9, note=36, velocity=101, time=4),\n",
      "    Message('note_off', channel=9, note=42, velocity=84, time=0),\n",
      "    Message('note_off', channel=15, note=60, velocity=122, time=68),\n",
      "    Message('note_off', channel=2, note=32, velocity=107, time=16),\n",
      "    Message('note_on', channel=15, note=58, velocity=123, time=8),\n",
      "    Message('note_off', channel=15, note=58, velocity=123, time=88),\n",
      "    Message('note_on', channel=9, note=46, velocity=92, time=8),\n",
      "    Message('note_on', channel=2, note=32, velocity=108, time=0),\n",
      "    Message('note_on', channel=15, note=56, velocity=120, time=0),\n",
      "    Message('note_off', channel=9, note=46, velocity=92, time=4),\n",
      "    Message('note_off', channel=2, note=32, velocity=108, time=84),\n",
      "    Message('note_off', channel=8, note=87, velocity=96, time=56),\n",
      "    Message('note_on', channel=9, note=42, velocity=83, time=48),\n",
      "    Message('note_on', channel=9, note=38, velocity=106, time=0),\n",
      "    Message('note_on', channel=9, note=39, velocity=86, time=0),\n",
      "    Message('note_on', channel=8, note=80, velocity=96, time=0),\n",
      "    Message('note_off', channel=9, note=39, velocity=86, time=4),\n",
      "    Message('note_off', channel=9, note=38, velocity=106, time=0),\n",
      "    Message('note_off', channel=9, note=42, velocity=83, time=0),\n",
      "    Message('note_off', channel=15, note=56, velocity=120, time=68),\n",
      "    Message('note_on', channel=9, note=46, velocity=87, time=120),\n",
      "    Message('note_on', channel=2, note=32, velocity=109, time=0),\n",
      "    Message('note_on', channel=15, note=56, velocity=119, time=0),\n",
      "    Message('note_off', channel=9, note=46, velocity=87, time=4),\n",
      "    Message('note_off', channel=2, note=32, velocity=109, time=84),\n",
      "    Message('note_off', channel=3, note=56, velocity=93, time=8),\n",
      "    Message('note_off', channel=3, note=60, velocity=88, time=0),\n",
      "    Message('note_off', channel=3, note=63, velocity=89, time=0),\n",
      "    Message('note_on', channel=2, note=32, velocity=110, time=0),\n",
      "    Message('note_off', channel=15, note=56, velocity=119, time=80),\n",
      "    Message('note_off', channel=2, note=32, velocity=110, time=8),\n",
      "    Message('note_on', channel=9, note=42, velocity=81, time=8),\n",
      "    Message('note_on', channel=9, note=36, velocity=104, time=0),\n",
      "    Message('note_on', channel=2, note=29, velocity=106, time=0),\n",
      "    Message('note_on', channel=3, note=63, velocity=91, time=0),\n",
      "    Message('note_on', channel=3, note=60, velocity=88, time=0),\n",
      "    Message('note_on', channel=3, note=56, velocity=88, time=0),\n",
      "    Message('note_on', channel=13, note=63, velocity=82, time=0),\n",
      "    Message('note_on', channel=13, note=68, velocity=89, time=0),\n",
      "    Message('note_on', channel=13, note=72, velocity=88, time=0),\n",
      "    Message('note_on', channel=15, note=63, velocity=124, time=0),\n",
      "    Message('note_off', channel=9, note=36, velocity=104, time=4),\n",
      "    Message('note_off', channel=9, note=42, velocity=81, time=0),\n",
      "    Message('note_off', channel=2, note=29, velocity=106, time=84),\n",
      "    Message('note_off', channel=15, note=63, velocity=124, time=88),\n",
      "    Message('note_off', channel=3, note=56, velocity=88, time=16),\n",
      "    Message('note_off', channel=3, note=60, velocity=88, time=0),\n",
      "    Message('note_off', channel=3, note=63, velocity=91, time=0),\n",
      "    Message('note_on', channel=9, note=46, velocity=88, time=0),\n",
      "    Message('note_on', channel=2, note=29, velocity=111, time=0),\n",
      "    Message('note_on', channel=15, note=61, velocity=123, time=0),\n",
      "    Message('note_off', channel=9, note=46, velocity=88, time=4),\n",
      "    Message('note_off', channel=15, note=61, velocity=123, time=84),\n",
      "    Message('note_off', channel=2, note=29, velocity=111, time=0),\n",
      "    Message('note_off', channel=13, note=72, velocity=88, time=0),\n",
      "    Message('note_off', channel=13, note=68, velocity=89, time=0),\n",
      "    Message('note_off', channel=13, note=63, velocity=82, time=0),\n",
      "    Message('note_on', channel=2, note=29, velocity=107, time=8),\n",
      "    Message('note_off', channel=2, note=29, velocity=107, time=88),\n",
      "    Message('note_on', channel=9, note=42, velocity=84, time=8),\n",
      "    Message('note_on', channel=9, note=38, velocity=107, time=0),\n",
      "    Message('note_on', channel=9, note=39, velocity=82, time=0),\n",
      "    Message('note_on', channel=3, note=61, velocity=91, time=0),\n",
      "    Message('note_on', channel=3, note=65, velocity=92, time=0),\n",
      "    Message('note_on', channel=3, note=58, velocity=92, time=0),\n",
      "    Message('note_on', channel=13, note=68, velocity=82, time=0),\n",
      "    Message('note_on', channel=13, note=65, velocity=87, time=0),\n",
      "    Message('note_on', channel=13, note=73, velocity=88, time=0),\n",
      "    Message('note_on', channel=15, note=61, velocity=124, time=0),\n",
      "    Message('note_off', channel=9, note=39, velocity=82, time=4),\n",
      "    Message('note_off', channel=9, note=38, velocity=107, time=0),\n",
      "    Message('note_off', channel=9, note=42, velocity=84, time=0),\n",
      "    Message('note_on', channel=2, note=36, velocity=109, time=92),\n",
      "    Message('note_off', channel=2, note=36, velocity=109, time=88),\n",
      "    Message('note_on', channel=9, note=46, velocity=87, time=8),\n",
      "    Message('note_on', channel=2, note=34, velocity=110, time=0),\n",
      "    Message('note_off', channel=9, note=46, velocity=87, time=4),\n",
      "    Message('note_off', channel=2, note=34, velocity=110, time=84),\n",
      "    Message('note_on', channel=9, note=42, velocity=81, time=104),\n",
      "    Message('note_on', channel=9, note=36, velocity=107, time=0),\n",
      "    Message('note_on', channel=9, note=39, velocity=81, time=0),\n",
      "    Message('note_off', channel=9, note=39, velocity=81, time=4),\n",
      "    Message('note_off', channel=9, note=36, velocity=107, time=0),\n",
      "    Message('note_off', channel=9, note=42, velocity=81, time=0),\n",
      "    Message('note_on', channel=9, note=39, velocity=84, time=92),\n",
      "    Message('note_off', channel=9, note=39, velocity=84, time=4),\n",
      "    Message('note_on', channel=9, note=46, velocity=91, time=92),\n",
      "    Message('note_on', channel=2, note=32, velocity=107, time=0),\n",
      "    Message('note_on', channel=7, note=73, velocity=82, time=0),\n",
      "    Message('note_on', channel=7, note=85, velocity=109, time=0),\n",
      "    Message('note_off', channel=9, note=46, velocity=91, time=4),\n",
      "    Message('note_off', channel=7, note=85, velocity=109, time=60),\n",
      "    Message('note_off', channel=7, note=73, velocity=82, time=0),\n",
      "    Message('note_off', channel=2, note=32, velocity=107, time=24),\n",
      "    Message('note_on', channel=7, note=73, velocity=84, time=8),\n",
      "    Message('note_on', channel=7, note=85, velocity=108, time=0),\n",
      "    Message('note_off', channel=7, note=85, velocity=108, time=64),\n",
      "    Message('note_off', channel=7, note=73, velocity=84, time=0),\n",
      "    Message('note_off', channel=13, note=73, velocity=88, time=24),\n",
      "    Message('note_off', channel=13, note=65, velocity=87, time=0),\n",
      "    Message('note_off', channel=13, note=68, velocity=82, time=0),\n",
      "    Message('note_on', channel=9, note=42, velocity=84, time=8),\n",
      "    Message('note_on', channel=9, note=38, velocity=103, time=0),\n",
      "    Message('note_on', channel=9, note=45, velocity=83, time=0),\n",
      "    Message('note_on', channel=9, note=39, velocity=83, time=0),\n",
      "    Message('note_on', channel=2, note=32, velocity=110, time=0),\n",
      "    Message('note_on', channel=7, note=73, velocity=82, time=0),\n",
      "    Message('note_on', channel=7, note=85, velocity=109, time=0),\n",
      "    Message('note_on', channel=15, note=56, velocity=124, time=0),\n",
      "    Message('note_off', channel=9, note=39, velocity=83, time=4),\n",
      "    Message('note_off', channel=9, note=45, velocity=83, time=0),\n",
      "    Message('note_off', channel=9, note=38, velocity=103, time=0),\n",
      "    Message('note_off', channel=9, note=42, velocity=84, time=0),\n",
      "    Message('note_off', channel=8, note=80, velocity=96, time=44),\n",
      "    Message('note_off', channel=7, note=85, velocity=109, time=16),\n",
      "    Message('note_off', channel=7, note=73, velocity=82, time=0),\n",
      "    Message('note_off', channel=15, note=61, velocity=124, time=0),\n",
      "    Message('note_off', channel=15, note=56, velocity=124, time=24),\n",
      "    Message('note_off', channel=2, note=32, velocity=110, time=0),\n",
      "    Message('note_on', channel=9, note=45, velocity=84, time=8),\n",
      "    Message('note_on', channel=9, note=39, velocity=82, time=0),\n",
      "    Message('note_on', channel=2, note=32, velocity=109, time=0),\n",
      "    Message('note_on', channel=7, note=73, velocity=83, time=0),\n",
      "    Message('note_on', channel=7, note=85, velocity=108, time=0),\n",
      "    Message('note_on', channel=15, note=58, velocity=124, time=0),\n",
      "    Message('note_off', channel=9, note=39, velocity=82, time=4),\n",
      "    Message('note_off', channel=9, note=45, velocity=84, time=0),\n",
      "    Message('note_off', channel=7, note=85, velocity=108, time=60),\n",
      "    Message('note_off', channel=7, note=73, velocity=83, time=0),\n",
      "    Message('note_off', channel=15, note=58, velocity=124, time=24),\n",
      "    Message('note_off', channel=2, note=32, velocity=109, time=0),\n",
      "    Message('note_on', channel=9, note=46, velocity=87, time=8),\n",
      "    Message('note_on', channel=15, note=61, velocity=123, time=0),\n",
      "    Message('note_off', channel=9, note=46, velocity=87, time=4),\n",
      "    Message('note_off', channel=15, note=61, velocity=123, time=84),\n",
      "    Message('note_off', channel=3, note=58, velocity=92, time=8),\n",
      "    Message('note_off', channel=3, note=65, velocity=92, time=0),\n",
      "    Message('note_off', channel=3, note=61, velocity=91, time=0),\n",
      "    Message('note_on', channel=2, note=37, velocity=111, time=0),\n",
      "    Message('note_on', channel=7, note=73, velocity=82, time=0),\n",
      "    Message('note_on', channel=7, note=85, velocity=107, time=0),\n",
      "    Message('note_on', channel=15, note=58, velocity=120, time=0),\n",
      "    Message('note_off', channel=7, note=85, velocity=107, time=64),\n",
      "    Message('note_off', channel=7, note=73, velocity=82, time=0),\n",
      "    Message('note_off', channel=15, note=58, velocity=120, time=24),\n",
      "    Message('note_off', channel=2, note=37, velocity=111, time=0),\n",
      "    Message('note_on', channel=9, note=42, velocity=81, time=8),\n",
      "    Message('note_on', channel=9, note=36, velocity=106, time=0),\n",
      "    Message('note_on', channel=2, note=27, velocity=108, time=0),\n",
      "    Message('note_on', channel=3, note=58, velocity=90, time=0),\n",
      "    Message('note_on', channel=3, note=61, velocity=89, time=0),\n",
      "    Message('note_on', channel=3, note=65, velocity=87, time=0),\n",
      "    Message('note_on', channel=8, note=85, velocity=99, time=0),\n",
      "    Message('note_on', channel=13, note=65, velocity=86, time=0),\n",
      "    Message('note_on', channel=13, note=68, velocity=87, time=0),\n",
      "    Message('note_on', channel=13, note=73, velocity=82, time=0),\n",
      "    Message('note_on', channel=15, note=65, velocity=119, time=0),\n",
      "    Message('note_off', channel=9, note=36, velocity=106, time=4),\n",
      "    Message('note_off', channel=9, note=42, velocity=81, time=0),\n",
      "    Message('note_off', channel=2, note=27, velocity=108, time=84),\n",
      "    Message('note_on', channel=9, note=46, velocity=87, time=104),\n",
      "    Message('note_on', channel=2, note=27, velocity=111, time=0),\n",
      "    Message('note_off', channel=9, note=46, velocity=87, time=4),\n",
      "    Message('note_off', channel=15, note=65, velocity=119, time=68),\n",
      "    Message('note_off', channel=2, note=27, velocity=111, time=16),\n",
      "    Message('note_off', channel=13, note=73, velocity=82, time=0),\n",
      "    Message('note_off', channel=13, note=68, velocity=87, time=0),\n",
      "    Message('note_off', channel=13, note=65, velocity=86, time=0),\n",
      "    Message('note_on', channel=2, note=27, velocity=110, time=8),\n",
      "    Message('note_off', channel=2, note=27, velocity=110, time=88),\n",
      "    Message('note_on', channel=9, note=42, velocity=82, time=8),\n",
      "    Message('note_on', channel=9, note=38, velocity=103, time=0),\n",
      "    Message('note_on', channel=9, note=39, velocity=87, time=0),\n",
      "    Message('note_on', channel=13, note=65, velocity=84, time=0),\n",
      "    Message('note_on', channel=13, note=73, velocity=84, time=0),\n",
      "    Message('note_on', channel=13, note=68, velocity=84, time=0),\n",
      "    Message('note_on', channel=15, note=65, velocity=119, time=0),\n",
      "    Message('note_off', channel=9, note=39, velocity=87, time=4),\n",
      "    Message('note_off', channel=9, note=38, velocity=103, time=0),\n",
      "    Message('note_off', channel=9, note=42, velocity=82, time=0),\n",
      "    Message('note_off', channel=3, note=65, velocity=87, time=92),\n",
      "    Message('note_off', channel=3, note=61, velocity=89, time=0),\n",
      "    Message('note_off', channel=3, note=58, velocity=90, time=0),\n",
      "    Message('note_on', channel=2, note=36, velocity=111, time=0),\n",
      "    Message('note_off', channel=8, note=85, velocity=99, time=48),\n",
      "    Message('note_off', channel=15, note=65, velocity=119, time=32),\n",
      "    Message('note_off', channel=2, note=36, velocity=111, time=8),\n",
      "    Message('note_off', channel=13, note=68, velocity=84, time=0),\n",
      "    Message('note_off', channel=13, note=73, velocity=84, time=0),\n",
      "    Message('note_off', channel=13, note=65, velocity=84, time=0),\n",
      "    Message('note_on', channel=9, note=42, velocity=81, time=8),\n",
      "    Message('note_on', channel=2, note=34, velocity=111, time=0),\n",
      "    Message('note_on', channel=3, note=60, velocity=88, time=0),\n",
      "    Message('note_on', channel=3, note=63, velocity=92, time=0),\n",
      "    Message('note_on', channel=3, note=56, velocity=92, time=0),\n",
      "    Message('note_on', channel=8, note=87, velocity=96, time=0),\n",
      "    Message('note_on', channel=13, note=68, velocity=89, time=0),\n",
      "    Message('note_on', channel=13, note=63, velocity=87, time=0),\n",
      "    Message('note_on', channel=13, note=72, velocity=82, time=0),\n",
      "    Message('note_on', channel=15, note=63, velocity=121, time=0),\n",
      "    Message('note_off', channel=9, note=42, velocity=81, time=4),\n",
      "    Message('note_off', channel=2, note=34, velocity=111, time=84),\n",
      "    Message('note_on', channel=9, note=42, velocity=84, time=8),\n",
      "    Message('note_off', channel=9, note=42, velocity=84, time=4),\n",
      "    Message('note_off', channel=13, note=72, velocity=82, time=84),\n",
      "    Message('note_off', channel=13, note=63, velocity=87, time=0),\n",
      "    Message('note_off', channel=13, note=68, velocity=89, time=0),\n",
      "    Message('note_on', channel=9, note=42, velocity=80, time=8),\n",
      "    Message('note_on', channel=9, note=36, velocity=107, time=0),\n",
      "    Message('note_on', channel=2, note=32, velocity=111, time=0),\n",
      "    Message('note_off', channel=9, note=36, velocity=107, time=4),\n",
      "    Message('note_off', channel=9, note=42, velocity=80, time=0),\n",
      "    Message('note_off', channel=2, note=32, velocity=111, time=84),\n",
      "    Message('note_on', channel=9, note=46, velocity=91, time=104),\n",
      "    Message('note_on', channel=2, note=32, velocity=107, time=0),\n",
      "    Message('note_off', channel=9, note=46, velocity=91, time=4),\n",
      "    Message('note_off', channel=2, note=32, velocity=107, time=84),\n",
      "    Message('note_off', channel=8, note=87, velocity=96, time=56),\n",
      "    Message('note_off', channel=15, note=63, velocity=121, time=16),\n",
      "    Message('note_on', channel=9, note=42, velocity=81, time=32),\n",
      "    Message('note_on', channel=9, note=38, velocity=107, time=0),\n",
      "    Message('note_on', channel=9, note=39, velocity=87, time=0),\n",
      "    Message('note_on', channel=8, note=80, velocity=96, time=0),\n",
      "    Message('note_on', channel=15, note=56, velocity=121, time=0),\n",
      "    Message('note_off', channel=9, note=39, velocity=87, time=4),\n",
      "    Message('note_off', channel=9, note=38, velocity=107, time=0),\n",
      "    Message('note_off', channel=9, note=42, velocity=81, time=0),\n",
      "    Message('note_off', channel=15, note=56, velocity=121, time=84),\n",
      "    Message('note_on', channel=15, note=58, velocity=122, time=8),\n",
      "    Message('note_off', channel=15, note=58, velocity=122, time=88),\n",
      "    Message('note_on', channel=9, note=46, velocity=90, time=8),\n",
      "    Message('note_on', channel=2, note=29, velocity=107, time=0),\n",
      "    Message('note_on', channel=15, note=61, velocity=122, time=0),\n",
      "    Message('note_off', channel=9, note=46, velocity=90, time=4),\n",
      "    Message('note_off', channel=15, note=61, velocity=122, time=84),\n",
      "    Message('note_off', channel=2, note=29, velocity=107, time=0),\n",
      "    Message('note_off', channel=3, note=56, velocity=92, time=8),\n",
      "    Message('note_off', channel=3, note=63, velocity=92, time=0),\n",
      "    Message('note_off', channel=3, note=60, velocity=88, time=0),\n",
      "    Message('note_on', channel=2, note=32, velocity=107, time=0),\n",
      "    Message('note_on', channel=15, note=58, velocity=120, time=0),\n",
      "    Message('note_off', channel=8, note=80, velocity=96, time=64),\n",
      "    Message('note_off', channel=15, note=58, velocity=120, time=24),\n",
      "    Message('note_off', channel=2, note=32, velocity=107, time=0),\n",
      "    Message('note_on', channel=9, note=42, velocity=82, time=8),\n",
      "    Message('note_on', channel=9, note=36, velocity=107, time=0),\n",
      "    Message('note_on', channel=2, note=29, velocity=109, time=0),\n",
      "    Message('note_on', channel=3, note=60, velocity=93, time=0),\n",
      "    Message('note_on', channel=3, note=63, velocity=90, time=0),\n",
      "    Message('note_on', channel=3, note=56, velocity=87, time=0),\n",
      "    Message('note_on', channel=8, note=87, velocity=97, time=0),\n",
      "    Message('note_on', channel=13, note=63, velocity=84, time=0),\n",
      "    Message('note_on', channel=13, note=72, velocity=84, time=0),\n",
      "    Message('note_on', channel=13, note=68, velocity=84, time=0),\n",
      "    Message('note_on', channel=15, note=63, velocity=123, time=0),\n",
      "    Message('note_off', channel=9, note=36, velocity=107, time=4),\n",
      "    Message('note_off', channel=9, note=42, velocity=82, time=0),\n",
      "    Message('note_off', channel=2, note=29, velocity=109, time=84),\n",
      "    Message('note_on', channel=9, note=46, velocity=92, time=104),\n",
      "    Message('note_on', channel=2, note=29, velocity=111, time=0),\n",
      "    Message('note_off', channel=9, note=46, velocity=92, time=4),\n",
      "    Message('note_off', channel=15, note=63, velocity=123, time=68),\n",
      "    Message('note_off', channel=2, note=29, velocity=111, time=16),\n",
      "    Message('note_off', channel=13, note=68, velocity=84, time=0),\n",
      "    Message('note_off', channel=13, note=72, velocity=84, time=0),\n",
      "    Message('note_off', channel=13, note=63, velocity=84, time=0),\n",
      "    Message('note_on', channel=2, note=29, velocity=108, time=8),\n",
      "    Message('note_off', channel=2, note=29, velocity=108, time=88),\n",
      "    Message('note_on', channel=9, note=42, velocity=84, time=8),\n",
      "    Message('note_on', channel=9, note=38, velocity=103, time=0),\n",
      "    Message('note_on', channel=9, note=39, velocity=87, time=0),\n",
      "    Message('note_on', channel=13, note=63, velocity=82, time=0),\n",
      "    Message('note_on', channel=13, note=72, velocity=82, time=0),\n",
      "    Message('note_on', channel=13, note=68, velocity=89, time=0),\n",
      "    Message('note_on', channel=15, note=63, velocity=121, time=0),\n",
      "    Message('note_off', channel=9, note=39, velocity=87, time=4),\n",
      "    Message('note_off', channel=9, note=38, velocity=103, time=0),\n",
      "    Message('note_off', channel=9, note=42, velocity=84, time=0),\n",
      "    Message('note_off', channel=3, note=56, velocity=87, time=92),\n",
      "    Message('note_off', channel=3, note=63, velocity=90, time=0),\n",
      "    Message('note_off', channel=3, note=60, velocity=93, time=0),\n",
      "    Message('note_on', channel=2, note=36, velocity=106, time=0),\n",
      "    Message('note_off', channel=8, note=87, velocity=97, time=48),\n",
      "    Message('note_off', channel=15, note=63, velocity=121, time=32),\n",
      "    Message('note_off', channel=2, note=36, velocity=106, time=8),\n",
      "    Message('note_off', channel=13, note=68, velocity=89, time=0),\n",
      "    Message('note_off', channel=13, note=72, velocity=82, time=0),\n",
      "    Message('note_off', channel=13, note=63, velocity=82, time=0),\n",
      "    Message('note_on', channel=9, note=46, velocity=90, time=8),\n",
      "    Message('note_on', channel=2, note=34, velocity=107, time=0),\n",
      "    Message('note_on', channel=3, note=61, velocity=88, time=0),\n",
      "    Message('note_on', channel=3, note=65, velocity=86, time=0),\n",
      "    Message('note_on', channel=3, note=58, velocity=88, time=0),\n",
      "    Message('note_on', channel=8, note=89, velocity=99, time=0),\n",
      "    Message('note_on', channel=13, note=61, velocity=82, time=0),\n",
      "    Message('note_on', channel=13, note=70, velocity=82, time=0),\n",
      "    Message('note_on', channel=13, note=65, velocity=85, time=0),\n",
      "    Message('note_on', channel=15, note=61, velocity=119, time=0),\n",
      "    Message('note_off', channel=9, note=46, velocity=90, time=4),\n",
      "    Message('note_off', channel=2, note=34, velocity=107, time=84),\n",
      "    Message('note_off', channel=13, note=65, velocity=85, time=96),\n",
      "    Message('note_off', channel=13, note=70, velocity=82, time=0),\n",
      "    Message('note_off', channel=13, note=61, velocity=82, time=0),\n",
      "    Message('note_on', channel=9, note=42, velocity=80, time=8),\n",
      "    Message('note_on', channel=9, note=36, velocity=102, time=0),\n",
      "    Message('note_off', channel=9, note=36, velocity=102, time=4),\n",
      "    Message('note_off', channel=9, note=42, velocity=80, time=0),\n",
      "    Message('note_off', channel=15, note=61, velocity=119, time=68),\n",
      "    Message('note_on', channel=15, note=60, velocity=123, time=24),\n",
      "    Message('note_off', channel=15, note=60, velocity=123, time=88),\n",
      "    Message('note_on', channel=9, note=46, velocity=88, time=8),\n",
      "    Message('note_on', channel=2, note=34, velocity=107, time=0),\n",
      "    Message('note_on', channel=15, note=58, velocity=120, time=0),\n",
      "    Message('note_off', channel=9, note=46, velocity=88, time=4),\n",
      "    Message('note_off', channel=2, note=34, velocity=107, time=84),\n",
      "    Message('note_on', channel=2, note=34, velocity=107, time=8),\n",
      "    Message('note_off', channel=8, note=89, velocity=99, time=48),\n",
      "    Message('note_off', channel=15, note=58, velocity=120, time=32),\n",
      "    Message('note_off', channel=2, note=34, velocity=107, time=8),\n",
      "    Message('note_on', channel=9, note=42, velocity=82, time=8),\n",
      "    Message('note_on', channel=9, note=38, velocity=102, time=0),\n",
      "    Message('note_on', channel=9, note=39, velocity=82, time=0),\n",
      "    Message('note_on', channel=2, note=34, velocity=110, time=0),\n",
      "    Message('note_on', channel=8, note=92, velocity=97, time=0),\n",
      "    Message('note_on', channel=15, note=56, velocity=122, time=0),\n",
      "    Message('note_off', channel=9, note=39, velocity=82, time=4),\n",
      "    Message('note_off', channel=9, note=38, velocity=102, time=0),\n",
      "    Message('note_off', channel=9, note=42, velocity=82, time=0),\n",
      "    Message('note_off', channel=15, note=56, velocity=122, time=84),\n",
      "    Message('note_off', channel=8, note=92, velocity=97, time=0),\n",
      "    Message('note_off', channel=2, note=34, velocity=110, time=0),\n",
      "    Message('note_on', channel=2, note=36, velocity=111, time=8),\n",
      "    Message('note_on', channel=8, note=90, velocity=96, time=0),\n",
      "    Message('note_on', channel=15, note=58, velocity=119, time=0),\n",
      "    Message('note_off', channel=15, note=58, velocity=119, time=88),\n",
      "    Message('note_off', channel=8, note=90, velocity=96, time=0),\n",
      "    Message('note_off', channel=2, note=36, velocity=111, time=0),\n",
      "    Message('note_on', channel=9, note=46, velocity=89, time=8),\n",
      "    Message('note_on', channel=8, note=89, velocity=95, time=0),\n",
      "    Message('note_on', channel=15, note=61, velocity=124, time=0),\n",
      "    Message('note_off', channel=9, note=46, velocity=89, time=4),\n",
      "    Message('note_off', channel=15, note=61, velocity=124, time=84),\n",
      "    Message('note_off', channel=8, note=89, velocity=95, time=0),\n",
      "    Message('note_off', channel=3, note=58, velocity=88, time=8),\n",
      "    Message('note_off', channel=3, note=65, velocity=86, time=0),\n",
      "    Message('note_off', channel=3, note=61, velocity=88, time=0),\n",
      "    Message('note_on', channel=2, note=34, velocity=108, time=0),\n",
      "    Message('note_on', channel=8, note=85, velocity=97, time=0),\n",
      "    Message('note_on', channel=15, note=58, velocity=124, time=0),\n",
      "    Message('note_off', channel=15, note=58, velocity=124, time=88),\n",
      "    Message('note_off', channel=2, note=34, velocity=108, time=0),\n",
      "    Message('note_on', channel=9, note=42, velocity=84, time=8),\n",
      "    Message('note_on', channel=9, note=36, velocity=109, time=0),\n",
      "    Message('note_on', channel=2, note=27, velocity=108, time=0),\n",
      "    Message('note_on', channel=3, note=65, velocity=86, time=0),\n",
      "    Message('note_on', channel=3, note=61, velocity=91, time=0),\n",
      "    Message('note_on', channel=3, note=58, velocity=88, time=0),\n",
      "    Message('note_on', channel=15, note=61, velocity=119, time=0),\n",
      "    Message('note_off', channel=9, note=36, velocity=109, time=4),\n",
      "    Message('note_off', channel=9, note=42, velocity=84, time=0),\n",
      "    Message('note_off', channel=2, note=27, velocity=108, time=84),\n",
      "    Message('note_on', channel=9, note=46, velocity=88, time=104),\n",
      "    Message('note_on', channel=2, note=27, velocity=108, time=0),\n",
      "    Message('note_off', channel=9, note=46, velocity=88, time=4),\n",
      "    Message('note_off', channel=2, note=27, velocity=108, time=84),\n",
      "    Message('note_on', channel=2, note=27, velocity=108, time=8),\n",
      "    Message('note_off', channel=15, note=61, velocity=119, time=64),\n",
      "    Message('note_off', channel=2, note=27, velocity=108, time=24),\n",
      "    Message('note_on', channel=9, note=42, velocity=80, time=8),\n",
      "    Message('note_on', channel=9, note=38, velocity=109, time=0),\n",
      "    Message('note_on', channel=9, note=39, velocity=85, time=0),\n",
      "    Message('note_on', channel=15, note=63, velocity=122, time=0),\n",
      "    Message('note_off', channel=9, note=39, velocity=85, time=4),\n",
      "    Message('note_off', channel=9, note=38, velocity=109, time=0),\n",
      "    Message('note_off', channel=9, note=42, velocity=80, time=0),\n",
      "    Message('note_off', channel=3, note=58, velocity=88, time=92),\n",
      "    Message('note_off', channel=3, note=61, velocity=91, time=0),\n",
      "    Message('note_off', channel=3, note=65, velocity=86, time=0),\n",
      "    Message('note_on', channel=2, note=36, velocity=111, time=0),\n",
      "    Message('note_off', channel=8, note=85, velocity=97, time=48),\n",
      "    Message('note_off', channel=15, note=63, velocity=122, time=32),\n",
      "    Message('note_off', channel=2, note=36, velocity=111, time=8),\n",
      "    Message('note_on', channel=9, note=42, velocity=84, time=8),\n",
      "    Message('note_on', channel=2, note=34, velocity=106, time=0),\n",
      "    Message('note_on', channel=3, note=63, velocity=92, time=0),\n",
      "    Message('note_on', channel=3, note=60, velocity=93, time=0),\n",
      "    Message('note_on', channel=3, note=56, velocity=93, time=0),\n",
      "    Message('note_on', channel=8, note=87, velocity=98, time=0),\n",
      "    Message('note_on', channel=15, note=60, velocity=120, time=0),\n",
      "    Message('note_off', channel=9, note=42, velocity=84, time=4),\n",
      "    Message('note_off', channel=2, note=34, velocity=106, time=84),\n",
      "    Message('note_on', channel=9, note=42, velocity=83, time=8),\n",
      "    Message('note_off', channel=9, note=42, velocity=83, time=4),\n",
      "    Message('note_on', channel=9, note=42, velocity=83, time=92),\n",
      "    Message('note_on', channel=9, note=36, velocity=106, time=0),\n",
      "    Message('note_on', channel=2, note=32, velocity=107, time=0),\n",
      "    Message('note_off', channel=9, note=36, velocity=106, time=4),\n",
      "    Message('note_off', channel=9, note=42, velocity=83, time=0),\n",
      "    Message('note_off', channel=15, note=60, velocity=120, time=68),\n",
      "    Message('note_off', channel=2, note=32, velocity=107, time=16),\n",
      "    Message('note_on', channel=15, note=58, velocity=122, time=8),\n",
      "    Message('note_off', channel=15, note=58, velocity=122, time=88),\n",
      "    Message('note_on', channel=9, note=46, velocity=91, time=8),\n",
      "    Message('note_on', channel=2, note=32, velocity=111, time=0),\n",
      "    Message('note_on', channel=15, note=56, velocity=123, time=0),\n",
      "    Message('note_off', channel=9, note=46, velocity=91, time=4),\n",
      "    Message('note_off', channel=15, note=56, velocity=123, time=84),\n",
      "    Message('note_off', channel=2, note=32, velocity=111, time=0),\n",
      "    Message('note_off', channel=8, note=87, velocity=98, time=56),\n",
      "    Message('note_on', channel=9, note=42, velocity=83, time=48),\n",
      "    Message('note_on', channel=9, note=38, velocity=102, time=0),\n",
      "    Message('note_on', channel=9, note=39, velocity=86, time=0),\n",
      "    Message('note_on', channel=8, note=80, velocity=94, time=0),\n",
      "    Message('note_on', channel=15, note=56, velocity=122, time=0),\n",
      "    Message('note_off', channel=9, note=39, velocity=86, time=4),\n",
      "    Message('note_off', channel=9, note=38, velocity=102, time=0),\n",
      "    Message('note_off', channel=9, note=42, velocity=83, time=0),\n",
      "    Message('note_off', channel=15, note=56, velocity=122, time=172),\n",
      "    Message('note_on', channel=9, note=46, velocity=88, time=16),\n",
      "    Message('note_on', channel=2, note=32, velocity=106, time=0),\n",
      "    Message('note_on', channel=15, note=63, velocity=123, time=0),\n",
      "    Message('note_off', channel=9, note=46, velocity=88, time=4),\n",
      "    Message('note_off', channel=2, note=32, velocity=106, time=84),\n",
      "    Message('note_off', channel=3, note=56, velocity=93, time=8),\n",
      "    Message('note_off', channel=3, note=60, velocity=93, time=0),\n",
      "    Message('note_off', channel=3, note=63, velocity=92, time=0),\n",
      "    Message('note_on', channel=2, note=32, velocity=109, time=0),\n",
      "    Message('note_off', channel=2, note=32, velocity=109, time=88),\n",
      "    Message('note_on', channel=9, note=42, velocity=83, time=8),\n",
      "    Message('note_on', channel=9, note=36, velocity=109, time=0),\n",
      "    Message('note_on', channel=2, note=29, velocity=106, time=0),\n",
      "    Message('note_on', channel=3, note=63, velocity=89, time=0),\n",
      "    Message('note_on', channel=3, note=60, velocity=90, time=0),\n",
      "    Message('note_on', channel=3, note=56, velocity=93, time=0),\n",
      "    Message('note_on', channel=13, note=63, velocity=88, time=0),\n",
      "    Message('note_on', channel=13, note=68, velocity=83, time=0),\n",
      "    Message('note_on', channel=13, note=72, velocity=84, time=0),\n",
      "    Message('note_off', channel=9, note=36, velocity=109, time=4),\n",
      "    Message('note_off', channel=9, note=42, velocity=83, time=0),\n",
      "    Message('note_off', channel=2, note=29, velocity=106, time=84),\n",
      "    Message('note_on', channel=9, note=46, velocity=90, time=104),\n",
      "    Message('note_on', channel=2, note=29, velocity=106, time=0),\n",
      "    Message('note_off', channel=9, note=46, velocity=90, time=4),\n",
      "    Message('note_off', channel=2, note=29, velocity=106, time=84),\n",
      "    Message('note_off', channel=13, note=72, velocity=84, time=0),\n",
      "    Message('note_off', channel=13, note=68, velocity=83, time=0),\n",
      "    Message('note_off', channel=13, note=63, velocity=88, time=0),\n",
      "    Message('note_on', channel=2, note=29, velocity=106, time=8),\n",
      "    Message('note_off', channel=15, note=63, velocity=123, time=64),\n",
      "    Message('note_off', channel=2, note=29, velocity=106, time=24),\n",
      "    Message('note_on', channel=9, note=42, velocity=81, time=8),\n",
      "    Message('note_on', channel=9, note=38, velocity=105, time=0),\n",
      "    Message('note_on', channel=9, note=39, velocity=86, time=0),\n",
      "    Message('note_on', channel=13, note=65, velocity=89, time=0),\n",
      "    Message('note_on', channel=13, note=70, velocity=88, time=0),\n",
      "    Message('note_on', channel=13, note=73, velocity=87, time=0),\n",
      "    Message('note_on', channel=15, note=61, velocity=122, time=0),\n",
      "    Message('note_off', channel=9, note=39, velocity=86, time=4),\n",
      "    Message('note_off', channel=9, note=38, velocity=105, time=0),\n",
      "    Message('note_off', channel=9, note=42, velocity=81, time=0),\n",
      "    Message('note_off', channel=3, note=56, velocity=93, time=92),\n",
      "    Message('note_off', channel=3, note=60, velocity=90, time=0),\n",
      "    Message('note_off', channel=3, note=63, velocity=89, time=0),\n",
      "    Message('note_on', channel=2, note=36, velocity=108, time=0),\n",
      "    Message('note_off', channel=2, note=36, velocity=108, time=88),\n",
      "    Message('note_on', channel=9, note=46, velocity=92, time=8),\n",
      "    Message('note_on', channel=2, note=34, velocity=106, time=0),\n",
      "    Message('note_on', channel=3, note=61, velocity=93, time=0),\n",
      "    Message('note_on', channel=3, note=65, velocity=90, time=0),\n",
      "    Message('note_on', channel=3, note=58, velocity=86, time=0),\n",
      "    Message('note_off', channel=9, note=46, velocity=92, time=4),\n",
      "    Message('note_off', channel=2, note=34, velocity=106, time=84),\n",
      "    Message('note_on', channel=9, note=42, velocity=85, time=104),\n",
      "    Message('note_on', channel=9, note=36, velocity=103, time=0),\n",
      "    Message('note_off', channel=9, note=36, velocity=103, time=4),\n",
      "    Message('note_off', channel=9, note=42, velocity=85, time=0),\n",
      "    Message('note_off', channel=8, note=80, velocity=94, time=140),\n",
      "    Message('note_on', channel=9, note=46, velocity=90, time=48),\n",
      "    Message('note_on', channel=2, note=32, velocity=108, time=0),\n",
      "    Message('note_on', channel=7, note=68, velocity=84, time=0),\n",
      "    Message('note_on', channel=7, note=80, velocity=107, time=0),\n",
      "    Message('note_on', channel=7, note=56, velocity=82, time=0),\n",
      "    Message('note_off', channel=9, note=46, velocity=90, time=4),\n",
      "    Message('note_off', channel=7, note=56, velocity=82, time=60),\n",
      "    Message('note_off', channel=7, note=80, velocity=107, time=0),\n",
      "    Message('note_off', channel=7, note=68, velocity=84, time=0),\n",
      "    Message('note_off', channel=15, note=61, velocity=122, time=0),\n",
      "    Message('note_off', channel=2, note=32, velocity=108, time=24),\n",
      "    Message('note_on', channel=7, note=68, velocity=84, time=8),\n",
      "    Message('note_on', channel=7, note=80, velocity=111, time=0),\n",
      "    Message('note_on', channel=7, note=56, velocity=82, time=0),\n",
      "    Message('note_off', channel=7, note=56, velocity=82, time=64),\n",
      "    Message('note_off', channel=7, note=80, velocity=111, time=0),\n",
      "    Message('note_off', channel=7, note=68, velocity=84, time=0),\n",
      "    Message('note_on', channel=9, note=42, velocity=83, time=32),\n",
      "    Message('note_on', channel=9, note=38, velocity=109, time=0),\n",
      "    Message('note_on', channel=9, note=39, velocity=86, time=0),\n",
      "    Message('note_on', channel=2, note=32, velocity=111, time=0),\n",
      "    Message('note_on', channel=8, note=92, velocity=99, time=0),\n",
      "    Message('note_on', channel=15, note=56, velocity=119, time=0),\n",
      "    Message('note_off', channel=9, note=39, velocity=86, time=4),\n",
      "    Message('note_off', channel=9, note=38, velocity=109, time=0),\n",
      "    Message('note_off', channel=9, note=42, velocity=83, time=0),\n",
      "    Message('note_off', channel=15, note=56, velocity=119, time=84),\n",
      "    Message('note_off', channel=8, note=92, velocity=99, time=0),\n",
      "    Message('note_off', channel=2, note=32, velocity=111, time=0),\n",
      "    Message('note_off', channel=13, note=73, velocity=87, time=0),\n",
      "    Message('note_off', channel=13, note=70, velocity=88, time=0),\n",
      "    Message('note_off', channel=13, note=65, velocity=89, time=0),\n",
      "    Message('note_on', channel=2, note=32, velocity=106, time=8),\n",
      "    Message('note_on', channel=8, note=90, velocity=94, time=0),\n",
      "    Message('note_on', channel=15, note=58, velocity=120, time=0),\n",
      "    Message('note_off', channel=15, note=58, velocity=120, time=88),\n",
      "    Message('note_off', channel=8, note=90, velocity=94, time=0),\n",
      "    Message('note_off', channel=2, note=32, velocity=106, time=0),\n",
      "    Message('note_on', channel=9, note=46, velocity=90, time=8),\n",
      "    Message('note_on', channel=8, note=89, velocity=95, time=0),\n",
      "    Message('note_on', channel=15, note=61, velocity=119, time=0),\n",
      "    Message('note_off', channel=9, note=46, velocity=90, time=4),\n",
      "    Message('note_off', channel=15, note=61, velocity=119, time=84),\n",
      "    Message('note_off', channel=8, note=89, velocity=95, time=0),\n",
      "    Message('note_off', channel=3, note=58, velocity=86, time=8),\n",
      "    Message('note_off', channel=3, note=65, velocity=90, time=0),\n",
      "    Message('note_off', channel=3, note=61, velocity=93, time=0),\n",
      "    Message('note_on', channel=2, note=37, velocity=106, time=0),\n",
      "    Message('note_on', channel=8, note=85, velocity=96, time=0),\n",
      "    Message('note_on', channel=15, note=58, velocity=120, time=0),\n",
      "    Message('note_off', channel=15, note=58, velocity=120, time=88),\n",
      "    Message('note_off', channel=2, note=37, velocity=106, time=0),\n",
      "    Message('note_on', channel=9, note=42, velocity=82, time=8),\n",
      "    Message('note_on', channel=9, note=36, velocity=103, time=0),\n",
      "    Message('note_on', channel=2, note=27, velocity=110, time=0),\n",
      "    Message('note_on', channel=3, note=61, velocity=93, time=0),\n",
      "    Message('note_on', channel=3, note=65, velocity=90, time=0),\n",
      "    Message('note_on', channel=3, note=58, velocity=93, time=0),\n",
      "    Message('note_on', channel=13, note=63, velocity=82, time=0),\n",
      "    Message('note_on', channel=13, note=73, velocity=82, time=0),\n",
      "    Message('note_on', channel=13, note=68, velocity=87, time=0),\n",
      "    Message('note_on', channel=15, note=65, velocity=120, time=0),\n",
      "    Message('note_off', channel=9, note=36, velocity=103, time=4),\n",
      "    Message('note_off', channel=9, note=42, velocity=82, time=0),\n",
      "    Message('note_off', channel=2, note=27, velocity=110, time=84),\n",
      "    Message('note_on', channel=9, note=46, velocity=88, time=104),\n",
      "    Message('note_on', channel=2, note=27, velocity=108, time=0),\n",
      "    Message('note_off', channel=9, note=46, velocity=88, time=4),\n",
      "    Message('note_off', channel=15, note=65, velocity=120, time=68),\n",
      "    Message('note_off', channel=2, note=27, velocity=108, time=16),\n",
      "    Message('note_off', channel=13, note=68, velocity=87, time=0),\n",
      "    Message('note_off', channel=13, note=73, velocity=82, time=0),\n",
      "    Message('note_off', channel=13, note=63, velocity=82, time=0),\n",
      "    Message('note_on', channel=2, note=27, velocity=107, time=8),\n",
      "    Message('note_off', channel=2, note=27, velocity=107, time=88),\n",
      "    Message('note_on', channel=9, note=42, velocity=83, time=8),\n",
      "    Message('note_on', channel=9, note=38, velocity=109, time=0),\n",
      "    Message('note_on', channel=9, note=39, velocity=84, time=0),\n",
      "    Message('note_on', channel=13, note=63, velocity=83, time=0),\n",
      "    Message('note_on', channel=13, note=73, velocity=84, time=0),\n",
      "    Message('note_on', channel=13, note=68, velocity=83, time=0),\n",
      "    Message('note_on', channel=15, note=65, velocity=119, time=0),\n",
      "    Message('note_off', channel=9, note=39, velocity=84, time=4),\n",
      "    Message('note_off', channel=9, note=38, velocity=109, time=0),\n",
      "    Message('note_off', channel=9, note=42, velocity=83, time=0),\n",
      "    Message('note_off', channel=3, note=58, velocity=93, time=92),\n",
      "    Message('note_off', channel=3, note=65, velocity=90, time=0),\n",
      "    Message('note_off', channel=3, note=61, velocity=93, time=0),\n",
      "    Message('note_on', channel=2, note=36, velocity=109, time=0),\n",
      "    Message('note_off', channel=8, note=85, velocity=96, time=60),\n",
      "    Message('note_off', channel=15, note=65, velocity=119, time=20),\n",
      "    Message('note_off', channel=2, note=36, velocity=109, time=8),\n",
      "    Message('note_off', channel=13, note=68, velocity=83, time=0),\n",
      "    Message('note_off', channel=13, note=73, velocity=84, time=0),\n",
      "    Message('note_off', channel=13, note=63, velocity=83, time=0),\n",
      "    Message('note_on', channel=9, note=42, velocity=80, time=8),\n",
      "    Message('note_on', channel=2, note=34, velocity=110, time=0),\n",
      "    Message('note_on', channel=3, note=63, velocity=87, time=0),\n",
      "    Message('note_on', channel=3, note=56, velocity=90, time=0),\n",
      "    Message('note_on', channel=3, note=60, velocity=87, time=0),\n",
      "    Message('note_on', channel=8, note=87, velocity=95, time=0),\n",
      "    Message('note_on', channel=13, note=68, velocity=86, time=0),\n",
      "    Message('note_on', channel=13, note=63, velocity=83, time=0),\n",
      "    Message('note_on', channel=13, note=72, velocity=83, time=0),\n",
      "    Message('note_on', channel=15, note=63, velocity=124, time=0),\n",
      "    Message('note_off', channel=9, note=42, velocity=80, time=4),\n",
      "    Message('note_off', channel=2, note=34, velocity=110, time=84),\n",
      "    Message('note_on', channel=9, note=42, velocity=82, time=8),\n",
      "    Message('note_off', channel=9, note=42, velocity=82, time=4),\n",
      "    Message('note_on', channel=9, note=42, velocity=80, time=92),\n",
      "    Message('note_on', channel=9, note=36, velocity=107, time=0),\n",
      "    Message('note_on', channel=2, note=32, velocity=111, time=0),\n",
      "    Message('note_off', channel=9, note=36, velocity=107, time=4),\n",
      "    Message('note_off', channel=9, note=42, velocity=80, time=0),\n",
      "    Message('note_off', channel=2, note=32, velocity=111, time=84),\n",
      "    Message('note_on', channel=9, note=46, velocity=87, time=104),\n",
      "    Message('note_on', channel=2, note=32, velocity=111, time=0),\n",
      "    Message('note_off', channel=9, note=46, velocity=87, time=4),\n",
      "    Message('note_off', channel=2, note=32, velocity=111, time=84),\n",
      "    Message('note_off', channel=8, note=87, velocity=95, time=56),\n",
      "    Message('note_off', channel=15, note=63, velocity=124, time=16),\n",
      "    Message('note_off', channel=13, note=72, velocity=83, time=24),\n",
      "    Message('note_off', channel=13, note=63, velocity=83, time=0),\n",
      "    Message('note_off', channel=13, note=68, velocity=86, time=0),\n",
      "    Message('note_on', channel=9, note=42, velocity=84, time=8),\n",
      "    Message('note_on', channel=9, note=38, velocity=103, time=0),\n",
      "    Message('note_on', channel=9, note=39, velocity=83, time=0),\n",
      "    Message('note_on', channel=8, note=80, velocity=94, time=0),\n",
      "    Message('note_on', channel=15, note=56, velocity=122, time=0),\n",
      "    Message('note_off', channel=9, note=39, velocity=83, time=4),\n",
      "    Message('note_off', channel=9, note=38, velocity=103, time=0),\n",
      "    Message('note_off', channel=9, note=42, velocity=84, time=0),\n",
      "    Message('note_off', channel=15, note=56, velocity=122, time=84),\n",
      "    Message('note_on', channel=15, note=58, velocity=124, time=8),\n",
      "    Message('note_off', channel=15, note=58, velocity=124, time=88),\n",
      "    Message('note_on', channel=9, note=46, velocity=87, time=8),\n",
      "    Message('note_on', channel=2, note=29, velocity=107, time=0),\n",
      "    Message('note_on', channel=15, note=61, velocity=122, time=0),\n",
      "    Message('note_off', channel=9, note=46, velocity=87, time=4),\n",
      "    Message('note_off', channel=15, note=61, velocity=122, time=84),\n",
      "    Message('note_off', channel=2, note=29, velocity=107, time=0),\n",
      "    Message('note_off', channel=3, note=60, velocity=87, time=8),\n",
      "    Message('note_off', channel=3, note=56, velocity=90, time=0),\n",
      "    Message('note_off', channel=3, note=63, velocity=87, time=0),\n",
      "    Message('note_on', channel=2, note=32, velocity=111, time=0),\n",
      "    Message('note_on', channel=15, note=58, velocity=121, time=0),\n",
      "    Message('note_off', channel=8, note=80, velocity=94, time=64),\n",
      "    Message('note_off', channel=15, note=58, velocity=121, time=24),\n",
      "    Message('note_off', channel=2, note=32, velocity=111, time=0),\n",
      "    Message('note_on', channel=9, note=42, velocity=82, time=8),\n",
      "    Message('note_on', channel=9, note=36, velocity=103, time=0),\n",
      "    Message('note_on', channel=2, note=29, velocity=106, time=0),\n",
      "    Message('note_on', channel=3, note=63, velocity=92, time=0),\n",
      "    Message('note_on', channel=3, note=56, velocity=90, time=0),\n",
      "    Message('note_on', channel=3, note=60, velocity=91, time=0),\n",
      "    Message('note_on', channel=8, note=87, velocity=95, time=0),\n",
      "    Message('note_on', channel=13, note=68, velocity=87, time=0),\n",
      "    Message('note_on', channel=13, note=75, velocity=87, time=0),\n",
      "    Message('note_on', channel=13, note=72, velocity=82, time=0),\n",
      "    Message('note_on', channel=15, note=68, velocity=121, time=0),\n",
      "    Message('note_off', channel=9, note=36, velocity=103, time=4),\n",
      "    Message('note_off', channel=9, note=42, velocity=82, time=0),\n",
      "    Message('note_off', channel=2, note=29, velocity=106, time=84),\n",
      "    Message('note_on', channel=9, note=46, velocity=89, time=104),\n",
      "    Message('note_on', channel=2, note=29, velocity=108, time=0),\n",
      "    Message('note_off', channel=9, note=46, velocity=89, time=4),\n",
      "    Message('note_off', channel=2, note=29, velocity=108, time=84),\n",
      "    Message('note_off', channel=13, note=72, velocity=82, time=0),\n",
      "    Message('note_off', channel=13, note=75, velocity=87, time=0),\n",
      "    Message('note_off', channel=13, note=68, velocity=87, time=0),\n",
      "    Message('note_on', channel=2, note=29, velocity=107, time=8),\n",
      "    Message('note_off', channel=15, note=68, velocity=121, time=64),\n",
      "    Message('note_off', channel=2, note=29, velocity=107, time=24),\n",
      "    Message('note_on', channel=9, note=42, velocity=81, time=8),\n",
      "    Message('note_on', channel=9, note=38, velocity=102, time=0),\n",
      "    Message('note_on', channel=9, note=39, velocity=87, time=0),\n",
      "    Message('note_on', channel=13, note=68, velocity=82, time=0),\n",
      "    Message('note_on', channel=13, note=75, velocity=89, time=0),\n",
      "    Message('note_on', channel=13, note=72, velocity=85, time=0),\n",
      "    Message('note_on', channel=15, note=60, velocity=122, time=0),\n",
      "    Message('note_off', channel=9, note=39, velocity=87, time=4),\n",
      "    Message('note_off', channel=9, note=38, velocity=102, time=0),\n",
      "    Message('note_off', channel=9, note=42, velocity=81, time=0),\n",
      "    Message('note_off', channel=3, note=60, velocity=91, time=92),\n",
      "    Message('note_off', channel=3, note=56, velocity=90, time=0),\n",
      "    Message('note_off', channel=3, note=63, velocity=92, time=0),\n",
      "    Message('note_on', channel=2, note=36, velocity=111, time=0),\n",
      "    Message('note_off', channel=8, note=87, velocity=95, time=48),\n",
      "    Message('note_off', channel=15, note=60, velocity=122, time=32),\n",
      "    Message('note_off', channel=2, note=36, velocity=111, time=8),\n",
      "    Message('note_off', channel=13, note=72, velocity=85, time=0),\n",
      "    Message('note_off', channel=13, note=75, velocity=89, time=0),\n",
      "    Message('note_off', channel=13, note=68, velocity=82, time=0),\n",
      "    Message('note_on', channel=9, note=46, velocity=89, time=8),\n",
      "    Message('note_on', channel=2, note=34, velocity=109, time=0),\n",
      "    Message('note_on', channel=3, note=65, velocity=88, time=0),\n",
      "    Message('note_on', channel=3, note=61, velocity=90, time=0),\n",
      "    Message('note_on', channel=3, note=58, velocity=86, time=0),\n",
      "    Message('note_on', channel=8, note=89, velocity=98, time=0),\n",
      "    Message('note_on', channel=13, note=65, velocity=89, time=0),\n",
      "    Message('note_on', channel=13, note=70, velocity=82, time=0),\n",
      "    Message('note_on', channel=13, note=73, velocity=83, time=0),\n",
      "    Message('note_on', channel=15, note=61, velocity=122, time=0),\n",
      "    Message('note_off', channel=9, note=46, velocity=89, time=4),\n",
      "    Message('note_off', channel=2, note=34, velocity=109, time=84),\n",
      "    Message('note_on', channel=9, note=42, velocity=83, time=104),\n",
      "    Message('note_on', channel=9, note=36, velocity=101, time=0),\n",
      "    Message('note_off', channel=9, note=36, velocity=101, time=4),\n",
      "    Message('note_off', channel=9, note=42, velocity=83, time=0),\n",
      "    Message('note_off', channel=15, note=61, velocity=122, time=68),\n",
      "    Message('note_off', channel=13, note=73, velocity=83, time=16),\n",
      "    Message('note_off', channel=13, note=70, velocity=82, time=0),\n",
      "    Message('note_off', channel=13, note=65, velocity=89, time=0),\n",
      "    Message('note_on', channel=13, note=63, velocity=85, time=8),\n",
      "    Message('note_on', channel=13, note=72, velocity=82, time=0),\n",
      "    Message('note_on', channel=13, note=68, velocity=86, time=0),\n",
      "    Message('note_on', channel=15, note=60, velocity=123, time=0),\n",
      "    Message('note_off', channel=15, note=60, velocity=123, time=88),\n",
      "    Message('note_off', channel=13, note=68, velocity=86, time=0),\n",
      "    Message('note_off', channel=13, note=72, velocity=82, time=0),\n",
      "    Message('note_off', channel=13, note=63, velocity=85, time=0),\n",
      "    Message('note_on', channel=9, note=46, velocity=91, time=8),\n",
      "    Message('note_on', channel=2, note=34, velocity=108, time=0),\n",
      "    Message('note_on', channel=13, note=61, velocity=84, time=0),\n",
      "    Message('note_on', channel=13, note=70, velocity=89, time=0),\n",
      "    Message('note_on', channel=13, note=65, velocity=88, time=0),\n",
      "    Message('note_on', channel=15, note=58, velocity=119, time=0),\n",
      "    Message('note_off', channel=9, note=46, velocity=91, time=4),\n",
      "    Message('note_off', channel=2, note=34, velocity=108, time=84),\n",
      "    Message('note_on', channel=2, note=34, velocity=109, time=8),\n",
      "    Message('note_off', channel=8, note=89, velocity=98, time=48),\n",
      "    Message('note_off', channel=15, note=58, velocity=119, time=32),\n",
      "    Message('note_off', channel=2, note=34, velocity=109, time=8),\n",
      "    Message('note_off', channel=13, note=65, velocity=88, time=0),\n",
      "    Message('note_off', channel=13, note=70, velocity=89, time=0),\n",
      "    Message('note_off', channel=13, note=61, velocity=84, time=0),\n",
      "    Message('note_on', channel=9, note=42, velocity=82, time=8),\n",
      "    Message('note_on', channel=9, note=38, velocity=107, time=0),\n",
      "    Message('note_on', channel=9, note=39, velocity=81, time=0),\n",
      "    Message('note_on', channel=2, note=34, velocity=109, time=0),\n",
      "    Message('note_on', channel=8, note=92, velocity=97, time=0),\n",
      "    Message('note_on', channel=15, note=56, velocity=123, time=0),\n",
      "    Message('note_off', channel=9, note=39, velocity=81, time=4),\n",
      "    Message('note_off', channel=9, note=38, velocity=107, time=0),\n",
      "    Message('note_off', channel=9, note=42, velocity=82, time=0),\n",
      "    Message('note_off', channel=15, note=56, velocity=123, time=84),\n",
      "    Message('note_off', channel=8, note=92, velocity=97, time=0),\n",
      "    Message('note_off', channel=2, note=34, velocity=109, time=0),\n",
      "    Message('note_on', channel=2, note=36, velocity=111, time=8),\n",
      "    Message('note_on', channel=8, note=90, velocity=97, time=0),\n",
      "    Message('note_on', channel=15, note=58, velocity=122, time=0),\n",
      "    Message('note_off', channel=15, note=58, velocity=122, time=88),\n",
      "    Message('note_off', channel=8, note=90, velocity=97, time=0),\n",
      "    Message('note_off', channel=2, note=36, velocity=111, time=0),\n",
      "    Message('note_on', channel=9, note=46, velocity=88, time=8),\n",
      "    Message('note_on', channel=8, note=89, velocity=99, time=0),\n",
      "    Message('note_on', channel=15, note=61, velocity=122, time=0),\n",
      "    Message('note_off', channel=9, note=46, velocity=88, time=4),\n",
      "    Message('note_off', channel=15, note=61, velocity=122, time=84),\n",
      "    Message('note_off', channel=8, note=89, velocity=99, time=0),\n",
      "    Message('note_off', channel=3, note=58, velocity=86, time=8),\n",
      "    Message('note_off', channel=3, note=61, velocity=90, time=0),\n",
      "    Message('note_off', channel=3, note=65, velocity=88, time=0),\n",
      "    Message('note_on', channel=2, note=34, velocity=108, time=0),\n",
      "    Message('note_on', channel=8, note=85, velocity=98, time=0),\n",
      "    Message('note_on', channel=15, note=58, velocity=123, time=0),\n",
      "    Message('note_off', channel=15, note=58, velocity=123, time=88),\n",
      "    Message('note_off', channel=2, note=34, velocity=108, time=0),\n",
      "    Message('note_on', channel=9, note=42, velocity=80, time=8),\n",
      "    Message('note_on', channel=9, note=36, velocity=109, time=0),\n",
      "    Message('note_on', channel=2, note=27, velocity=110, time=0),\n",
      "    Message('note_on', channel=3, note=61, velocity=91, time=0),\n",
      "    Message('note_on', channel=3, note=65, velocity=89, time=0),\n",
      "    Message('note_on', channel=3, note=58, velocity=89, time=0),\n",
      "    Message('note_on', channel=15, note=61, velocity=121, time=0),\n",
      "    Message('note_off', channel=9, note=36, velocity=109, time=4),\n",
      "    Message('note_off', channel=9, note=42, velocity=80, time=0),\n",
      "    Message('note_off', channel=2, note=27, velocity=110, time=84),\n",
      "    Message('note_on', channel=9, note=46, velocity=89, time=104),\n",
      "    Message('note_on', channel=2, note=27, velocity=109, time=0),\n",
      "    Message('note_off', channel=9, note=46, velocity=89, time=4),\n",
      "    Message('note_off', channel=2, note=27, velocity=109, time=84),\n",
      "    Message('note_on', channel=2, note=27, velocity=110, time=8),\n",
      "    Message('note_off', channel=15, note=61, velocity=121, time=64),\n",
      "    Message('note_off', channel=2, note=27, velocity=110, time=24),\n",
      "    Message('note_on', channel=9, note=42, velocity=85, time=8),\n",
      "    Message('note_on', channel=9, note=38, velocity=102, time=0),\n",
      "    Message('note_on', channel=9, note=39, velocity=83, time=0),\n",
      "    Message('note_on', channel=15, note=63, velocity=123, time=0),\n",
      "    Message('note_off', channel=9, note=39, velocity=83, time=4),\n",
      "    Message('note_off', channel=9, note=38, velocity=102, time=0),\n",
      "    Message('note_off', channel=9, note=42, velocity=85, time=0),\n",
      "    Message('note_off', channel=3, note=58, velocity=89, time=92),\n",
      "    Message('note_off', channel=3, note=65, velocity=89, time=0),\n",
      "    Message('note_off', channel=3, note=61, velocity=91, time=0),\n",
      "    Message('note_on', channel=2, note=36, velocity=111, time=0),\n",
      "    Message('note_off', channel=8, note=85, velocity=98, time=48),\n",
      "    Message('note_off', channel=15, note=63, velocity=123, time=32),\n",
      "    Message('note_off', channel=2, note=36, velocity=111, time=8),\n",
      "    Message('note_on', channel=9, note=42, velocity=82, time=8),\n",
      "    Message('note_on', channel=2, note=34, velocity=107, time=0),\n",
      "    Message('note_on', channel=3, note=63, velocity=86, time=0),\n",
      "    Message('note_on', channel=3, note=56, velocity=91, time=0),\n",
      "    Message('note_on', channel=3, note=60, velocity=93, time=0),\n",
      "    Message('note_on', channel=8, note=87, velocity=94, time=0),\n",
      "    Message('note_on', channel=15, note=60, velocity=122, time=0),\n",
      "    Message('note_off', channel=9, note=42, velocity=82, time=4),\n",
      "    Message('note_off', channel=2, note=34, velocity=107, time=84),\n",
      "    Message('note_on', channel=9, note=42, velocity=84, time=8),\n",
      "    Message('note_off', channel=9, note=42, velocity=84, time=4),\n",
      "    Message('note_on', channel=9, note=42, velocity=82, time=92),\n",
      "    Message('note_on', channel=9, note=36, velocity=106, time=0),\n",
      "    Message('note_on', channel=2, note=32, velocity=106, time=0),\n",
      "    Message('note_off', channel=9, note=36, velocity=106, time=4),\n",
      "    Message('note_off', channel=9, note=42, velocity=82, time=0),\n",
      "    Message('note_off', channel=15, note=60, velocity=122, time=68),\n",
      "    Message('note_off', channel=2, note=32, velocity=106, time=16),\n",
      "    Message('note_on', channel=15, note=58, velocity=120, time=8),\n",
      "    Message('note_off', channel=15, note=58, velocity=120, time=88),\n",
      "    Message('note_on', channel=9, note=46, velocity=88, time=8),\n",
      "    Message('note_on', channel=2, note=32, velocity=110, time=0),\n",
      "    Message('note_on', channel=15, note=56, velocity=124, time=0),\n",
      "    Message('note_off', channel=9, note=46, velocity=88, time=4),\n",
      "    Message('note_off', channel=2, note=32, velocity=110, time=84),\n",
      "    Message('note_off', channel=8, note=87, velocity=94, time=56),\n",
      "    Message('note_on', channel=9, note=42, velocity=83, time=48),\n",
      "    Message('note_on', channel=9, note=38, velocity=101, time=0),\n",
      "    Message('note_on', channel=9, note=39, velocity=85, time=0),\n",
      "    Message('note_on', channel=8, note=80, velocity=94, time=0),\n",
      "    Message('note_off', channel=9, note=39, velocity=85, time=4),\n",
      "    Message('note_off', channel=9, note=38, velocity=101, time=0),\n",
      "    Message('note_off', channel=9, note=42, velocity=83, time=0),\n",
      "    Message('note_off', channel=15, note=56, velocity=124, time=68),\n",
      "    Message('note_on', channel=9, note=46, velocity=87, time=120),\n",
      "    Message('note_on', channel=2, note=32, velocity=109, time=0),\n",
      "    Message('note_on', channel=15, note=56, velocity=119, time=0),\n",
      "    Message('note_off', channel=9, note=46, velocity=87, time=4),\n",
      "    Message('note_off', channel=2, note=32, velocity=109, time=84),\n",
      "    Message('note_off', channel=3, note=60, velocity=93, time=8),\n",
      "    Message('note_off', channel=3, note=56, velocity=91, time=0),\n",
      "    Message('note_off', channel=3, note=63, velocity=86, time=0),\n",
      "    Message('note_on', channel=2, note=32, velocity=108, time=0),\n",
      "    Message('note_off', channel=15, note=56, velocity=119, time=80),\n",
      "    Message('note_off', channel=2, note=32, velocity=108, time=8),\n",
      "    Message('note_on', channel=9, note=42, velocity=83, time=8),\n",
      "    Message('note_on', channel=9, note=36, velocity=103, time=0),\n",
      "    Message('note_on', channel=2, note=29, velocity=110, time=0),\n",
      "    Message('note_on', channel=3, note=63, velocity=86, time=0),\n",
      "    Message('note_on', channel=3, note=56, velocity=88, time=0),\n",
      "    Message('note_on', channel=3, note=60, velocity=87, time=0),\n",
      "    Message('note_on', channel=13, note=63, velocity=87, time=0),\n",
      "    Message('note_on', channel=13, note=68, velocity=85, time=0),\n",
      "    Message('note_on', channel=13, note=72, velocity=82, time=0),\n",
      "    Message('note_on', channel=15, note=63, velocity=119, time=0),\n",
      "    Message('note_off', channel=9, note=36, velocity=103, time=4),\n",
      "    Message('note_off', channel=9, note=42, velocity=83, time=0),\n",
      "    Message('note_off', channel=2, note=29, velocity=110, time=84),\n",
      "    Message('note_off', channel=3, note=60, velocity=87, time=8),\n",
      "    Message('note_off', channel=3, note=56, velocity=88, time=0),\n",
      "    Message('note_off', channel=3, note=63, velocity=86, time=0),\n",
      "    Message('note_off', channel=15, note=63, velocity=119, time=80),\n",
      "    Message('note_on', channel=9, note=46, velocity=88, time=16),\n",
      "    Message('note_on', channel=2, note=29, velocity=107, time=0),\n",
      "    Message('note_on', channel=15, note=61, velocity=121, time=0),\n",
      "    Message('note_off', channel=9, note=46, velocity=88, time=4),\n",
      "    Message('note_off', channel=15, note=61, velocity=121, time=84),\n",
      "    Message('note_off', channel=2, note=29, velocity=107, time=0),\n",
      "    Message('note_off', channel=13, note=72, velocity=82, time=0),\n",
      "    Message('note_off', channel=13, note=68, velocity=85, time=0),\n",
      "    Message('note_off', channel=13, note=63, velocity=87, time=0),\n",
      "    Message('note_on', channel=2, note=29, velocity=106, time=8),\n",
      "    Message('note_off', channel=2, note=29, velocity=106, time=88),\n",
      "    Message('note_on', channel=9, note=42, velocity=81, time=8),\n",
      "    Message('note_on', channel=9, note=38, velocity=104, time=0),\n",
      "    Message('note_on', channel=9, note=39, velocity=85, time=0),\n",
      "    Message('note_on', channel=3, note=65, velocity=86, time=0),\n",
      "    Message('note_on', channel=3, note=61, velocity=87, time=0),\n",
      "    Message('note_on', channel=3, note=58, velocity=89, time=0),\n",
      "    Message('note_on', channel=13, note=68, velocity=83, time=0),\n",
      "    Message('note_on', channel=13, note=65, velocity=82, time=0),\n",
      "    Message('note_on', channel=13, note=73, velocity=84, time=0),\n",
      "    Message('note_on', channel=15, note=61, velocity=123, time=0),\n",
      "    Message('note_off', channel=9, note=39, velocity=85, time=4),\n",
      "    Message('note_off', channel=9, note=38, velocity=104, time=0),\n",
      "    Message('note_off', channel=9, note=42, velocity=81, time=0),\n",
      "    Message('note_on', channel=2, note=36, velocity=109, time=92),\n",
      "    Message('note_off', channel=2, note=36, velocity=109, time=88),\n",
      "    Message('note_on', channel=9, note=46, velocity=87, time=8),\n",
      "    Message('note_on', channel=2, note=34, velocity=106, time=0),\n",
      "    Message('note_off', channel=9, note=46, velocity=87, time=4),\n",
      "    Message('note_off', channel=2, note=34, velocity=106, time=84),\n",
      "    Message('note_on', channel=9, note=42, velocity=83, time=104),\n",
      "    Message('note_on', channel=9, note=36, velocity=107, time=0),\n",
      "    Message('note_on', channel=9, note=45, velocity=83, time=0),\n",
      "    Message('note_off', channel=9, note=45, velocity=83, time=4),\n",
      "    Message('note_off', channel=9, note=36, velocity=107, time=0),\n",
      "    Message('note_off', channel=9, note=42, velocity=83, time=0),\n",
      "    Message('note_on', channel=9, note=45, velocity=84, time=92),\n",
      "    Message('note_off', channel=9, note=45, velocity=84, time=4),\n",
      "    Message('note_on', channel=9, note=46, velocity=87, time=92),\n",
      "    Message('note_on', channel=9, note=43, velocity=80, time=0),\n",
      "    Message('note_on', channel=2, note=32, velocity=111, time=0),\n",
      "    Message('note_off', channel=9, note=43, velocity=80, time=4),\n",
      "    Message('note_off', channel=9, note=46, velocity=87, time=0),\n",
      "    Message('note_off', channel=2, note=32, velocity=111, time=84),\n",
      "    Message('note_on', channel=9, note=43, velocity=84, time=8),\n",
      "    Message('note_off', channel=9, note=43, velocity=84, time=4),\n",
      "    Message('note_off', channel=13, note=73, velocity=84, time=84),\n",
      "    Message('note_off', channel=13, note=65, velocity=82, time=0),\n",
      "    Message('note_off', channel=13, note=68, velocity=83, time=0),\n",
      "    Message('note_on', channel=9, note=42, velocity=80, time=8),\n",
      "    Message('note_on', channel=9, note=38, velocity=101, time=0),\n",
      "    Message('note_on', channel=9, note=45, velocity=84, time=0),\n",
      "    Message('note_on', channel=9, note=39, velocity=81, time=0),\n",
      "    Message('note_on', channel=2, note=32, velocity=111, time=0),\n",
      "    Message('note_on', channel=3, note=68, velocity=92, time=0),\n",
      "    Message('note_off', channel=9, note=39, velocity=81, time=4),\n",
      "    Message('note_off', channel=9, note=45, velocity=84, time=0),\n",
      "    Message('note_off', channel=9, note=38, velocity=101, time=0),\n",
      "    Message('note_off', channel=9, note=42, velocity=80, time=0),\n",
      "    Message('note_off', channel=8, note=80, velocity=94, time=44),\n",
      "    Message('note_off', channel=15, note=61, velocity=123, time=16),\n",
      "    Message('note_off', channel=2, note=32, velocity=111, time=24),\n",
      "    Message('note_off', channel=3, note=68, velocity=92, time=8),\n",
      "    Message('note_on', channel=9, note=45, velocity=82, time=0),\n",
      "    Message('note_on', channel=2, note=32, velocity=106, time=0),\n",
      "    Message('note_on', channel=3, note=70, velocity=90, time=0),\n",
      "    Message('note_off', channel=9, note=45, velocity=82, time=4),\n",
      "    Message('note_off', channel=2, note=32, velocity=106, time=84),\n",
      "    Message('note_off', channel=3, note=70, velocity=90, time=8),\n",
      "    Message('note_on', channel=9, note=46, velocity=89, time=0),\n",
      "    Message('note_on', channel=9, note=43, velocity=83, time=0),\n",
      "    Message('note_on', channel=3, note=73, velocity=93, time=0),\n",
      "    Message('note_off', channel=9, note=43, velocity=83, time=4),\n",
      "    Message('note_off', channel=9, note=46, velocity=89, time=0),\n",
      "    Message('note_off', channel=3, note=73, velocity=93, time=92),\n",
      "    Message('note_off', channel=3, note=58, velocity=89, time=0),\n",
      "    Message('note_off', channel=3, note=61, velocity=87, time=0),\n",
      "    Message('note_off', channel=3, note=65, velocity=86, time=0),\n",
      "    Message('note_on', channel=9, note=43, velocity=87, time=0),\n",
      "    Message('note_on', channel=2, note=37, velocity=108, time=0),\n",
      "    Message('note_on', channel=3, note=70, velocity=90, time=0),\n",
      "    Message('note_off', channel=9, note=43, velocity=87, time=4),\n",
      "    Message('note_off', channel=2, note=37, velocity=108, time=84),\n",
      "    Message('note_off', channel=3, note=70, velocity=90, time=8),\n",
      "    MetaMessage('set_tempo', tempo=526300, time=0),\n",
      "    Message('note_on', channel=9, note=46, velocity=92, time=0),\n",
      "    Message('note_on', channel=9, note=36, velocity=103, time=0),\n",
      "    Message('note_on', channel=2, note=27, velocity=96, time=0),\n",
      "    Message('note_on', channel=3, note=73, velocity=87, time=0),\n",
      "    Message('note_on', channel=3, note=77, velocity=91, time=0),\n",
      "    Message('note_on', channel=3, note=70, velocity=87, time=0),\n",
      "    Message('note_on', channel=8, note=89, velocity=98, time=0),\n",
      "    Message('note_off', channel=9, note=36, velocity=103, time=4),\n",
      "    Message('note_off', channel=9, note=46, velocity=92, time=0),\n",
      "    Message('note_off', channel=2, note=27, velocity=96, time=84),\n",
      "    Message('note_on', channel=2, note=27, velocity=104, time=104),\n",
      "    Message('note_off', channel=8, note=89, velocity=98, time=72),\n",
      "    Message('note_off', channel=2, note=27, velocity=104, time=16),\n",
      "    Message('note_off', channel=3, note=70, velocity=87, time=8),\n",
      "    Message('note_off', channel=3, note=77, velocity=91, time=0),\n",
      "    Message('note_off', channel=3, note=73, velocity=87, time=0),\n",
      "    Message('note_on', channel=9, note=42, velocity=85, time=0),\n",
      "    Message('note_on', channel=9, note=36, velocity=108, time=0),\n",
      "    Message('note_on', channel=2, note=27, velocity=100, time=0),\n",
      "    Message('note_on', channel=3, note=73, velocity=91, time=0),\n",
      "    Message('note_on', channel=3, note=70, velocity=93, time=0),\n",
      "    Message('note_on', channel=3, note=77, velocity=91, time=0),\n",
      "    Message('note_on', channel=8, note=89, velocity=96, time=0),\n",
      "    Message('note_off', channel=9, note=36, velocity=108, time=4),\n",
      "    Message('note_off', channel=9, note=42, velocity=85, time=0),\n",
      "    Message('note_off', channel=2, note=27, velocity=100, time=84),\n",
      "    Message('note_off', channel=3, note=77, velocity=91, time=8),\n",
      "    Message('note_off', channel=3, note=70, velocity=93, time=0),\n",
      "    Message('note_off', channel=3, note=73, velocity=91, time=0),\n",
      "    MetaMessage('set_tempo', tempo=550428, time=0),\n",
      "    Message('note_on', channel=9, note=38, velocity=101, time=0),\n",
      "    Message('note_off', channel=9, note=38, velocity=101, time=4),\n",
      "    Message('note_off', channel=8, note=89, velocity=96, time=76),\n",
      "    Message('note_on', channel=9, note=46, velocity=88, time=112),\n",
      "    Message('note_on', channel=9, note=36, velocity=101, time=0),\n",
      "    Message('note_on', channel=2, note=32, velocity=112, time=0),\n",
      "    Message('note_on', channel=3, note=68, velocity=87, time=0),\n",
      "    Message('note_on', channel=3, note=75, velocity=92, time=0),\n",
      "    Message('note_on', channel=3, note=72, velocity=88, time=0),\n",
      "    Message('note_on', channel=8, note=87, velocity=95, time=0),\n",
      "    Message('note_off', channel=9, note=36, velocity=101, time=4),\n",
      "    Message('note_off', channel=9, note=46, velocity=88, time=0),\n",
      "    MetaMessage('set_tempo', tempo=566019, time=188),\n",
      "    Message('note_off', channel=2, note=32, velocity=112, time=192),\n",
      "    Message('note_off', channel=3, note=72, velocity=88, time=96),\n",
      "    Message('note_off', channel=3, note=75, velocity=92, time=0),\n",
      "    Message('note_off', channel=3, note=68, velocity=87, time=0),\n",
      "    Message('note_off', channel=8, note=87, velocity=95, time=48),\n",
      "    MetaMessage('set_tempo', tempo=576915, time=48),\n",
      "    Message('note_on', channel=9, note=45, velocity=84, time=0),\n",
      "    Message('note_on', channel=2, note=32, velocity=108, time=0),\n",
      "    Message('note_on', channel=3, note=75, velocity=87, time=0),\n",
      "    Message('note_on', channel=3, note=80, velocity=92, time=0),\n",
      "    Message('note_on', channel=3, note=72, velocity=92, time=0),\n",
      "    Message('note_on', channel=8, note=92, velocity=98, time=0),\n",
      "    Message('note_off', channel=9, note=45, velocity=84, time=4),\n",
      "    Message('note_on', channel=9, note=45, velocity=81, time=92),\n",
      "    Message('note_off', channel=9, note=45, velocity=81, time=4),\n",
      "    Message('note_on', channel=9, note=43, velocity=80, time=92),\n",
      "    Message('note_off', channel=9, note=43, velocity=80, time=4),\n",
      "    Message('note_off', channel=3, note=72, velocity=92, time=92),\n",
      "    Message('note_off', channel=3, note=80, velocity=92, time=0),\n",
      "    Message('note_off', channel=3, note=75, velocity=87, time=0),\n",
      "    Message('note_off', channel=2, note=32, velocity=108, time=0),\n",
      "    Message('note_on', channel=9, note=43, velocity=85, time=0),\n",
      "    Message('note_off', channel=9, note=43, velocity=85, time=4),\n",
      "    Message('note_off', channel=8, note=92, velocity=98, time=60),\n",
      "    MetaMessage('set_tempo', tempo=666647, time=32),\n",
      "    Message('note_on', channel=9, note=51, velocity=90, time=0),\n",
      "    Message('note_on', channel=9, note=46, velocity=87, time=0),\n",
      "    Message('note_on', channel=9, note=45, velocity=60, time=0),\n",
      "    Message('note_on', channel=9, note=36, velocity=104, time=0),\n",
      "    Message('note_on', channel=3, note=75, velocity=93, time=0),\n",
      "    Message('note_on', channel=3, note=65, velocity=88, time=0),\n",
      "    Message('note_on', channel=3, note=68, velocity=91, time=0),\n",
      "    Message('note_on', channel=3, note=72, velocity=90, time=0),\n",
      "    Message('note_on', channel=8, note=92, velocity=99, time=0),\n",
      "    Message('note_off', channel=9, note=36, velocity=104, time=4),\n",
      "    Message('note_off', channel=9, note=45, velocity=60, time=0),\n",
      "    Message('note_off', channel=9, note=46, velocity=87, time=0),\n",
      "    Message('note_off', channel=9, note=51, velocity=90, time=0),\n",
      "    Message('note_on', channel=2, note=25, velocity=104, time=28),\n",
      "    Message('control_change', channel=8, control=7, value=100, time=160),\n",
      "    Message('control_change', channel=8, control=7, value=95, time=96),\n",
      "    Message('control_change', channel=8, control=7, value=90, time=96),\n",
      "    Message('control_change', channel=8, control=7, value=85, time=96),\n",
      "    Message('control_change', channel=8, control=7, value=83, time=96),\n",
      "    Message('control_change', channel=8, control=7, value=79, time=96),\n",
      "    Message('control_change', channel=8, control=7, value=74, time=96),\n",
      "    Message('control_change', channel=8, control=7, value=68, time=96),\n",
      "    Message('control_change', channel=8, control=7, value=64, time=96),\n",
      "    Message('control_change', channel=8, control=7, value=59, time=96),\n",
      "    Message('control_change', channel=8, control=7, value=56, time=96),\n",
      "    Message('control_change', channel=8, control=7, value=50, time=96),\n",
      "    Message('note_off', channel=2, note=25, velocity=104, time=32),\n",
      "    Message('control_change', channel=8, control=7, value=47, time=64),\n",
      "    Message('control_change', channel=8, control=7, value=35, time=96),\n",
      "    Message('note_off', channel=8, note=92, velocity=99, time=28),\n",
      "    Message('note_off', channel=3, note=72, velocity=90, time=68),\n",
      "    Message('note_off', channel=3, note=68, velocity=91, time=0),\n",
      "    Message('note_off', channel=3, note=65, velocity=88, time=0),\n",
      "    Message('note_off', channel=3, note=75, velocity=93, time=0),\n",
      "    Message('sysex', data=(126, 127, 9, 1), time=384),\n",
      "    Message('sysex', data=(65, 16, 66, 18, 64, 0, 127, 127, 66), time=78),\n",
      "    MetaMessage('end_of_track', time=1074)])\n",
      "]) ...\n",
      "... ...\n"
     ]
    },
    {
     "name": "stdout",
     "output_type": "stream",
     "text": [
      "=> Durée de lecture = 00h:03m:36s\n",
      "=> Lecture en cours...\n"
     ]
    }
   ],
   "source": [
    "# *** LECTURE d'un FICHIER MIDI ***\n",
    "print(\"===== JOUE un Fichier MIDI... =====\")\n",
    "\n",
    "# ouvre un port OUT-MidO et le connecte à IN QS-M2 Qsynth/FluidSynth\n",
    "port = mido.open_output(outport_.name)\n",
    " \n",
    "# chemin absolu vers le fichier .mid, ici \"blackvelvet.mid\"\n",
    "#mid = mido.MidiFile(root+'/SOUND7-Free-Midi-Chords/06 - F Major - D minor/4 Progression/Minor/hiphop style/D - i bVIIM bVIM bVIIM.mid')\n",
    "test= mido.MidiFile(lolilol) # affiche chemin fichier Midi + son type + nb de pistes + nb de messages dans fichier\n",
    "print(\"=>\", test, \"...\\n... ...\")\n",
    " \n",
    "# calcul + affiche la durée de lecture du fichier Midi en h:m:s\n",
    "print(\"=> Durée de lecture =\", time.strftime('%Hh:%Mm:%Ss', time.gmtime(test.length)))\n",
    "print(\"=> Lecture en cours...\")\n",
    " \n",
    "for msg in test.play():  # boucle de lecture du fichier Midi\n",
    "    port.send(msg)      # envoi fichier Midi port MidO-OUT vers IN QS-M2 Qsynth/FS\n",
    "    time.sleep(0.3)\n",
    " \n",
    "port.close()  # ferme proprement le port Midi\n",
    "print(\"=> Fichier MIDI lu... ARRÊT !\")"
   ]
  },
  {
   "cell_type": "markdown",
   "id": "dd7a3ce2",
   "metadata": {},
   "source": [
    "# Lecture midi on disk, conversion en array, reconversion en midi"
   ]
  },
  {
   "cell_type": "markdown",
   "id": "65a3cad9",
   "metadata": {},
   "source": [
    "## Lecture midi on disk + conversion en array"
   ]
  },
  {
   "cell_type": "code",
   "execution_count": 52,
   "id": "554c1483",
   "metadata": {
    "ExecuteTime": {
     "end_time": "2023-03-01T14:19:43.706166Z",
     "start_time": "2023-03-01T14:19:43.690605Z"
    }
   },
   "outputs": [],
   "source": [
    "def msg2dict(msg):\n",
    "    result = dict()\n",
    "    if 'note_on' in msg:\n",
    "        on_ = True\n",
    "    elif 'note_off' in msg:\n",
    "        on_ = False\n",
    "    else:\n",
    "        on_ = None\n",
    "    result['time'] = int(msg[msg.rfind('time'):].split(' ')[0].split('=')[1].translate(\n",
    "        str.maketrans({a: None for a in string.punctuation})))\n",
    "\n",
    "    if on_ is not None:\n",
    "        for k in ['note', 'velocity']:\n",
    "            result[k] = int(msg[msg.rfind(k):].split(' ')[0].split('=')[1].translate(\n",
    "                str.maketrans({a: None for a in string.punctuation})))\n",
    "    return [result, on_]"
   ]
  },
  {
   "cell_type": "code",
   "execution_count": 55,
   "id": "732d6582",
   "metadata": {
    "ExecuteTime": {
     "end_time": "2023-03-01T14:20:05.246954Z",
     "start_time": "2023-03-01T14:20:05.228411Z"
    }
   },
   "outputs": [],
   "source": [
    "def get_new_state(new_msg, last_state):\n",
    "    new_msg, on_ = msg2dict(str(new_msg))\n",
    "    new_state = switch_note(last_state, note=new_msg['note'], velocity=new_msg['velocity'], on_=on_) if on_ is not None else last_state\n",
    "    return [new_state, new_msg['time']]\n",
    "\n",
    "def track2seq(track):\n",
    "    # piano has 88 notes, corresponding to note id 21 to 108, any note out of the id range will be ignored\n",
    "    result = []\n",
    "    last_state, last_time = get_new_state(str(track[0]), [0]*88)\n",
    "    for i in range(1, len(track)):\n",
    "        new_state, new_time = get_new_state(track[i], last_state)\n",
    "        if new_time > 0:\n",
    "            result += [last_state]*new_time\n",
    "        last_state, last_time = new_state, new_time\n",
    "    return result"
   ]
  },
  {
   "cell_type": "code",
   "execution_count": 56,
   "id": "0b69d875",
   "metadata": {
    "ExecuteTime": {
     "end_time": "2023-03-01T14:20:12.254292Z",
     "start_time": "2023-03-01T14:20:12.228700Z"
    }
   },
   "outputs": [],
   "source": [
    "def mid2arry(mid, min_msg_pct=0.1):\n",
    "    tracks_len = [len(tr) for tr in mid.tracks]\n",
    "    min_n_msg = max(tracks_len) * min_msg_pct\n",
    "    # convert each track to nested list\n",
    "    all_arys = []\n",
    "    for i in range(len(mid.tracks)):\n",
    "        if len(mid.tracks[i]) > min_n_msg:\n",
    "            ary_i = track2seq(mid.tracks[i])\n",
    "            all_arys.append(ary_i)\n",
    "    # make all nested list the same length\n",
    "    max_len = max([len(ary) for ary in all_arys])\n",
    "    for i in range(len(all_arys)):\n",
    "        if len(all_arys[i]) < max_len:\n",
    "            all_arys[i] += [[0] * 88] * (max_len - len(all_arys[i]))\n",
    "    all_arys = np.array(all_arys)\n",
    "    all_arys = all_arys.max(axis=0)\n",
    "    # trim: remove consecutive 0s in the beginning and at the end\n",
    "    sums = all_arys.sum(axis=1)\n",
    "    ends = np.where(sums > 0)[0]\n",
    "    return all_arys[min(ends): max(ends)]"
   ]
  },
  {
   "cell_type": "code",
   "execution_count": 60,
   "id": "7fe67b16",
   "metadata": {
    "ExecuteTime": {
     "end_time": "2023-03-01T14:21:24.924169Z",
     "start_time": "2023-03-01T14:21:24.430034Z"
    }
   },
   "outputs": [
    {
     "data": {
      "image/png": "iVBORw0KGgoAAAANSUhEUgAAAjEAAAGzCAYAAADe/0a6AAAAOXRFWHRTb2Z0d2FyZQBNYXRwbG90bGliIHZlcnNpb24zLjUuMywgaHR0cHM6Ly9tYXRwbG90bGliLm9yZy/NK7nSAAAACXBIWXMAAA9hAAAPYQGoP6dpAAAucklEQVR4nO3de1iVZb7/8c/itMADC1EESVAzU/NYHpAOlsZEZpmJU/lz0hr3Lttoom0td1PqbyqcamtNpeb8SmdfG6O8Rs0a0+2geZhQk7I0D6NFahnYiQWaAsL9+6PtGleigSx4vOH9uq51XXI/N8/6flf2rI/3ep5nuYwxRgAAAJYJcroAAACAC0GIAQAAViLEAAAAKxFiAACAlQgxAADASoQYAABgJUIMAACwEiEGAABYiRADAACsRIgBcEEWL14sl8ulL774ok6f57333pPL5dJ77733i3NvuOEG3XDDDb6fv/jiC7lcLi1evLjO6jvN5XJp5syZvzhv5syZcrlcdV4P0BgQYgAHzJs3Ty6XS0lJSU6XAgDWCnG6AKAxysrKUvv27bVt2zYdOHBAl112mdMlXbQGDhyoEydOKCwsrMa/265dO504cUKhoaF1UJm/EydOKCSEQypQn1iJAepZfn6+3n//fc2ZM0cxMTHKyspyuqQqVVZW6uTJk06XoaCgIIWHhysoqOaHK5fLpfDwcAUHB9dBZf7Cw8MJMUA9I8QA9SwrK0stWrTQ0KFDNXLkyHOGmKKiIk2ePFnt27eX2+1W27ZtNWbMGH377be+OSdPntTMmTN1+eWXKzw8XG3atNGIESP02Wef+eYcP35cDz/8sBISEuR2u9W5c2c999xz+vkX2LtcLk2YMEFZWVnq1q2b3G63Vq9eLUn69NNPNXjwYEVERKht27Z68sknVVlZWa1+7733XjVr1kyHDh3SrbfeqmbNmumSSy7Ryy+/LEnauXOnBg8erKZNm6pdu3ZasmSJ3++f65yYhQsXqmPHjoqIiFD//v21adOms567uufEnD6/Z/PmzXrooYcUExOjqKgoPfDAAyorK1NRUZHGjBmjFi1aqEWLFpo2bVqVr9/Pz4nZvHmz+vXrp/DwcHXs2FGvvPJKtV4zANXDPxuAepaVlaURI0YoLCxMo0aN0vz58/XBBx+oX79+vjnHjh3Tddddpz179ui3v/2trrrqKn377bdauXKlvvzyS7Vq1UoVFRW69dZblZOTo7vvvluTJk1SSUmJ1q5dq127dqljx44yxmjYsGFav369xo0bp969e2vNmjWaOnWqvvrqK82dO9evtnXr1unNN9/UhAkT1KpVK7Vv314FBQUaNGiQTp06pUcffVRNmzbVwoULFRERUe2eKyoqNGTIEA0cOFDPPPOMsrKyNGHCBDVt2lSPPfaYRo8erREjRmjBggUaM2aMkpOT1aFDh3Pu79VXX9UDDzygq6++WhkZGfr88881bNgwRUdHKyEhoeb/Uf7XxIkTFRcXp1mzZmnLli1auHChoqKi9P777ysxMVFPP/20Vq1apWeffVbdu3fXmDFjzrmvnTt36qabblJMTIxmzpypU6dOacaMGYqNjb3g+gD8jAFQb7Zv324kmbVr1xpjjKmsrDRt27Y1kyZN8pv3xBNPGElm2bJlZ+2jsrLSGGPMa6+9ZiSZOXPmnHPOihUrjCTz5JNP+m0fOXKkcblc5sCBA74xSSYoKMh8+umnfnMzMjKMJLN161bf2NGjR43H4zGSTH5+/nl7Hjt2rJFknn76ad/YDz/8YCIiIozL5TLZ2dm+8b179xpJZsaMGb6x9evXG0lm/fr1xhhjysrKTOvWrU3v3r1NaWmpb97ChQuNJHP99df7xvLz840ks2jRovPWuGjRIiPJpKam+l47Y4xJTk42LpfLjB8/3jd26tQp07ZtW7/nMcacVffw4cNNeHi4OXjwoG9s9+7dJjg42HDoBQKDj5OAepSVlaXY2FgNGjRI0k8fQdx1113Kzs5WRUWFb95f/vIX9erVS3fcccdZ+zh9ee5f/vIXtWrVShMnTjznnFWrVik4OFgPPfSQ3/aHH35Yxhi9++67fuPXX3+9rrjiCr+xVatWacCAAerfv79vLCYmRqNHj65J6/qXf/kX35+joqLUuXNnNW3aVHfeeadvvHPnzoqKitLnn39+zv1s375dR48e1fjx4/1O9r333nvl8XhqVNPPjRs3zu/y56SkJBljNG7cON9YcHCw+vbte94aKyoqtGbNGg0fPlyJiYm+8a5duyo1NbVWNQL4J0IMUE8qKiqUnZ2tQYMGKT8/XwcOHNCBAweUlJSkwsJC5eTk+OZ+9tln6t69+3n399lnn6lz587nPZn04MGDio+PV/Pmzf3Gu3bt6tt+pqo+wjl48KA6dep01njnzp3PW9+ZwsPDFRMT4zfm8XjUtm3bs+6Z4vF49MMPP5xzX6dr/nlNoaGhuvTSS6tdU1XODByna5F01kdUv1TjN998oxMnTtT6dQNwfpwTA9STdevW6euvv1Z2drays7PP2p6VlaWbbrrJgcr+qSbnudTEua4OOte4+dlJs/WlJnU6VSOAfyLEAPUkKytLrVu39l2Vc6Zly5Zp+fLlWrBggSIiItSxY0ft2rXrvPvr2LGjtm7dqvLy8nPeB6Vdu3b629/+ppKSEr/VmL179/q2/5J27dpp//79Z43v27fvF3+3Lpyuef/+/Ro8eLBvvLy8XPn5+erVq5cjdZ0pJiZGERERF9XrBjREfJwE1IMTJ05o2bJluvXWWzVy5MizHhMmTFBJSYlWrlwpSUpLS9PHH3+s5cuXn7Wv0ysAaWlp+vbbb/XSSy+dc84tt9yiioqKs+bMnTtXLpdLQ4YM+cXab7nlFm3ZskXbtm3zjX3zzTeO3d+mb9++iomJ0YIFC1RWVuYbX7x4sYqKin7x971er/bu3Suv11tnNQYHBys1NVUrVqzQoUOHfON79uzRmjVr6ux5gcaGEAPUg5UrV6qkpETDhg2rcvuAAQP8bnw3depUXXHFFfr1r3+t+++/X6+88ooyMzOVnJysTz75RJI0ZswY3XDDDZoyZYpGjRqlefPm6dlnn1VqaqovDN12220aNGiQHnvsMT3wwAOaN2+ehg8frjfeeEOTJk1Sx44df7H2adOmqWXLlrr55ps1a9YsPffcc7rmmmuqtYpTF0JDQ/Xkk09qx44dGjx4sF588UVNmTJF06ZNq9Y5McuXL1fXrl2rDIiBNGvWLEnSddddpz/84Q966qmnNGjQIHXr1q1OnxdoTAgxQD3IyspSeHi4fvWrX1W5PSgoSEOHDtXq1av13XffqVmzZtq0aZMefPBBrVq1Sg899JDmzZunzp07q23btpJ++tf+qlWr9Nhjj2nr1q3KyMjQnDlzFBkZqR49evj2u3LlSmVkZOidd95RRkaGdu/erWeffVZz5sypVu1t2rTR+vXr1bNnT82ePVvPP/+8xowZo0mTJgXmxbkA999/v+bNm6cjR45o6tSp2rRpk1auXFmre8QEWs+ePbVmzRrFxMToiSee0GuvvaZZs2ZVecUZgAvjMpydBgAALMRKDAAAsBIhBgAAWIkQAwAArESIAQAAViLEAAAAKxFiAACAlS66rx2orKzUkSNH1Lx587O+GA4AAFycjDEqKSlRfHy8goLqZ43kogsxR44cuahuWAUAAKrv8OHDvpty1rWLLsSc/pK6w4cPKzIy0uFqAABAdRQXFyshIcHvy2br2kUXYk5/hBQZGUmIAQDAMvV5Kggn9gIAACsRYgAAgJUIMQAAwEqEGAAAYCVCDAAAsBIhBgAAWIkQAwAArESIAQAAViLEAAAAKxFiAACAlWoUYmbOnCmXy+X36NKli2/7yZMnlZ6erpYtW6pZs2ZKS0tTYWFhwIsGAACo8UpMt27d9PXXX/semzdv9m2bPHmy3n77bS1dulQbNmzQkSNHNGLEiIAWDAAAIF3AF0CGhIQoLi7urHGv16tXX31VS5Ys0eDBgyVJixYtUteuXbVlyxYNGDCgyv2VlpaqtLTU93NxcXFNS6q27ht36NuKOts96tHLXROVFhftdBkAAAfVeCVm//79io+P16WXXqrRo0fr0KFDkqS8vDyVl5crJSXFN7dLly5KTExUbm7uOfeXmZkpj8fjeyQkJFxAG9VDgGk4pu//yukSAAAOq1GISUpK0uLFi7V69WrNnz9f+fn5uu6661RSUqKCggKFhYUpKirK73diY2NVUFBwzn1Onz5dXq/X9zh8+PAFNVIdrYLrbNeoZ5mdLnG6BACAw2r0cdKQIUN8f+7Zs6eSkpLUrl07vfnmm4qIiLigAtxut9xu9wX9bk3tGti7Xp4HAADUvVpdYh0VFaXLL79cBw4cUFxcnMrKylRUVOQ3p7CwsMpzaAAAAGqjViHm2LFj+uyzz9SmTRv16dNHoaGhysnJ8W3ft2+fDh06pOTk5FoXCgAAcKYafZz07//+77rtttvUrl07HTlyRDNmzFBwcLBGjRolj8ejcePGacqUKYqOjlZkZKQmTpyo5OTkc16ZBAAAcKFqFGK+/PJLjRo1St99951iYmJ07bXXasuWLYqJiZEkzZ07V0FBQUpLS1NpaalSU1M1b968OikcjVPOus6STjldBmotVDcO3ut0EQAs5zLGGKeLOFNxcbE8Ho+8Xq8iIyOdLgcXmZx1HZ0uAQFy4+DPnC4BQAA58f7NdyfBMjW+PyMuSqFOFwCgAeAdAVa5cfA+p0sAAFwkWIkBAABWIsQAAAArEWIAAICVCDEAAMBKhBgAAGAlQgwAALASIQYAAFiJEAMAAKxEiAEAAFYixAAAACs1qq8d+PL//l36sdLpMhAALe66XE2vjHW6DKDRKZj/oU4dPO50GQiAsM4etb6vp9Nl1ErjWokhwDQYRW/xDciAEwgwDUfZPq/TJdRa4woxTRpXuw1Z1O0dnS4BaJRC2jV1ugQESFhnj9Ml1JrLGGOcLuJMxcXF8ng88nq9ioyMdLocAABQDU68f7M0AQAArESIAQAAViLEAAAAKxFiAACAlQgxAADASoQYAABgJUIMAACwEiEGAABYiRADAACs1Ki+ABL2e/nBddJFdY9pXJAgKX3eYKerAGA5VmJgFwJMw8B3sQIIAEIM7OJyugAEBEceAAHAx0mwSvp8PoIAAPyEfw8BAAArEWIAAICVCDEAAMBKnBMDAKi2z0f9H5V+9JHTZSAAIgYOVPuFrzhdRq2wEgMAqDYCTMNxYuNGp0uoNUIMAKDa3Fde6XQJCJCIgQOdLqHW+DgJAFBtl76+xOkSAB9WYgAAgJUIMQAAwEqEGAAAYKVGdU7MwNcH6oeyH5wuAwGQeV2mbr30VqfLAAA4qFGtxBBgGo6ntzztdAkAAIc1qhDTIqyF0yUgQP5jwH84XQIAwGGN6uOkjaPsv7EPAAD4SaNaiQEAAA0HIQYAAFipUX2chAZgZitJ5U5XgVoLk2Z+43QRACzHSgwsQ4BpGMqcLgBAA0CIgWVCnS4AARHmdAEAGgA+ToJdZn7rdAUAgIsEKzEAAMBKhBgAAGAlQgwAALAS58QAqDd/fj9fM1budroMBEDLJiHKeyLV6TLQyLESA6DePL1qr9MlIEC++/GU0yUAhBgA9ec/bunidAkIkJZNWMiH81zGGON0EWcqLi6Wx+OR1+tVZGSk0+UAAIBqcOL9u1YrMbNnz5bL5VJGRoZv7OTJk0pPT1fLli3VrFkzpaWlqbCwsLZ1AgAA+LngEPPBBx/olVdeUc+ePf3GJ0+erLfffltLly7Vhg0bdOTIEY0YMaLWhQIAAJzpgkLMsWPHNHr0aP3pT39SixYtfONer1evvvqq5syZo8GDB6tPnz5atGiR3n//fW3ZsiVgRQMAAFzQmVnp6ekaOnSoUlJS9OSTT/rG8/LyVF5erpSUFN9Yly5dlJiYqNzcXA0YMOCsfZWWlqq0tNT3c3Fx8YWUBACoB8O279W2kpNOl4EASGnRVP/du5PTZdRKjUNMdna2PvzwQ33wwQdnbSsoKFBYWJiioqL8xmNjY1VQUFDl/jIzMzVr1qyalgEAcAABpuH42w/HnS6h1mr0cdLhw4c1adIkZWVlKTw8PCAFTJ8+XV6v1/c4fPhwQPYLAAi8/s0Dc+yH81JaNHW6hFqr0UpMXl6ejh49qquuuso3VlFRoY0bN+qll17SmjVrVFZWpqKiIr/VmMLCQsXFxVW5T7fbLbfbfWHVAwDq1cq+3OsHF48ahZgbb7xRO3fu9Bu777771KVLFz3yyCNKSEhQaGiocnJylJaWJknat2+fDh06pOTk5MBVDQAAGr0ahZjmzZure/fufmNNmzZVy5YtfePjxo3TlClTFB0drcjISE2cOFHJyclVntQLAABwoQJ+3+i5c+cqKChIaWlpKi0tVWpqqubNmxfopwEAAI0cXzsAAABqzbqvHQAAAHAKIQYAAFiJEAMAAKxEiAEAAFYixAAAACsRYgAAgJUIMQAAwEqEGAAAYCVCDAAAsBIhBgAAWIkQAwAArESIAQAAViLEAAAAKxFiAACAlQgxAADASoQYAABgJUIMAACwEiEGAABYiRADAACsFOJ0AQAajw/ffVvrF7/idBkIgPDmHqX/vyyny0Ajx0oMgHqzMes1p0tAgJws8TpdAkCIAVB/Bo7+rdMlIEDCm3ucLgGQyxhjnC7iTMXFxfJ4PPJ6vYqMjHS6HAAAUA1OvH+zEgMAAKxEiAEAAFYixAAAACsRYgAAgJUIMQAAwEqEGAAAYCVCDAAAsBIhBgAAWIkQAwAArESIAQAAViLEAAAAKxFiAACAlQgxAADASoQYAABgJUIMAACwEiEGAABYKcTpAgA0Hkv2LFHmtkyny0AAtAhroY2jNjpdBho5VmIA1Jv/3P6fTpeAAPmh7AenSwAIMQDqz8N9H3a6BARIi7AWTpcAyGWMMU4Xcabi4mJ5PB55vV5FRkY6XQ4AAKgGJ96/WYkBAABWIsQAAAArEWIAAICVCDEAAMBKhBgAAGAlQgwAALASIQYAAFiJEAMAAKxEiAEAAFYixAAAACsRYgAAgJUIMQAAwEqEGAAAYKUahZj58+erZ8+eioyMVGRkpJKTk/Xuu+/6tp88eVLp6elq2bKlmjVrprS0NBUWFga8aAAAgBqFmLZt22r27NnKy8vT9u3bNXjwYN1+++369NNPJUmTJ0/W22+/raVLl2rDhg06cuSIRowYUSeFAwCAxs1ljDG12UF0dLSeffZZjRw5UjExMVqyZIlGjhwpSdq7d6+6du2q3NxcDRgwoFr7Ky4ulsfjkdfrVWRkZG1KAwAA9cSJ9+8LPiemoqJC2dnZOn78uJKTk5WXl6fy8nKlpKT45nTp0kWJiYnKzc09535KS0tVXFzs9wAAAPglNQ4xO3fuVLNmzeR2uzV+/HgtX75cV1xxhQoKChQWFqaoqCi/+bGxsSooKDjn/jIzM+XxeHyPhISEGjcBAAAanxqHmM6dO2vHjh3aunWrHnzwQY0dO1a7d+++4AKmT58ur9frexw+fPiC9wUAABqPkJr+QlhYmC677DJJUp8+ffTBBx/ohRde0F133aWysjIVFRX5rcYUFhYqLi7unPtzu91yu901rxwAADRqtb5PTGVlpUpLS9WnTx+FhoYqJyfHt23fvn06dOiQkpOTa/s0AAAAfmq0EjN9+nQNGTJEiYmJKikp0ZIlS/Tee+9pzZo18ng8GjdunKZMmaLo6GhFRkZq4sSJSk5OrvaVSQAAANVVoxBz9OhRjRkzRl9//bU8Ho969uypNWvW6Fe/+pUkae7cuQoKClJaWppKS0uVmpqqefPm1UnhAACgcav1fWICjfvEAABgH6vuEwMAAOAkQgwAALASIQYAAFiJEAMAAKxEiAEAAFYixAAAACsRYgAAgJUIMQAAwEqEGAAAYCVCDAAAsBIhBgAAWIkQAwAArESIAQAAViLEAAAAKxFiAACAlQgxAADASoQYAABgJUIMAACwEiEGAABYiRADAACsRIgBAABWIsQAAAArEWIAAICVCDEAAMBKhBgAAGAlQgwAALASIQYAAFiJEAMAAKxEiAEAAFYixAAAACsRYgAAgJUIMQAAwEqEGAAAYCVCDAAAsBIhBgAAWIkQAwAArESIAQAAViLEAAAAKxFiAACAlQgxAADASoQYAABgJUIMAACwEiEGAABYiRADAACsRIgBAABWIsQAAAArEWIAAICVCDEAAMBKhBgAAGAlQgwAALASIQYAAFiJEAMAAKxEiAEAAFYixAAAACsRYgAAgJUIMQAAwEo1CjGZmZnq16+fmjdvrtatW2v48OHat2+f35yTJ08qPT1dLVu2VLNmzZSWlqbCwsKAFg0AAFCjELNhwwalp6dry5YtWrt2rcrLy3XTTTfp+PHjvjmTJ0/W22+/raVLl2rDhg06cuSIRowYEfDCAQBA4+YyxpgL/eVvvvlGrVu31oYNGzRw4EB5vV7FxMRoyZIlGjlypCRp79696tq1q3JzczVgwIBf3GdxcbE8Ho+8Xq8iIyMvtDQAAFCPnHj/rtU5MV6vV5IUHR0tScrLy1N5eblSUlJ8c7p06aLExETl5uZWuY/S0lIVFxf7PQAAAH7JBYeYyspKZWRk6JprrlH37t0lSQUFBQoLC1NUVJTf3NjYWBUUFFS5n8zMTHk8Ht8jISHhQksCAACNyAWHmPT0dO3atUvZ2dm1KmD69Onyer2+x+HDh2u1PwAA0DiEXMgvTZgwQe+88442btyotm3b+sbj4uJUVlamoqIiv9WYwsJCxcXFVbkvt9stt9t9IWUAAIBGrEYrMcYYTZgwQcuXL9e6devUoUMHv+19+vRRaGiocnJyfGP79u3ToUOHlJycHJiKAQAAVMOVmPT0dC1ZskRvvfWWmjdv7jvPxePxKCIiQh6PR+PGjdOUKVMUHR2tyMhITZw4UcnJydW6MgkAAKC6anSJtcvlqnJ80aJFuvfeeyX9dLO7hx9+WK+//rpKS0uVmpqqefPmnfPjpJ/jEmsAAOzjxPt3re4TUxfq8kV4b0M/VVR8H9B9whlXdP1PtWkz3OkyAAD/y7r7xNiGANNw/GP/TKdLAAA4rFGFmODgaKdLQIBc3mmm0yUAABx2QZdY2+qG6z9wugQAABAgjWolBgAANByEGAAAYCVCDAAAsFKjOicG9ps5c6bTJSBA+G8JoLZYiQEAAFYixAAAACs1qjv2AgCAusEdewEAAKqJEAMAAKzE1UkA6k3J+1/Ju/Jzp8tAIDQJUtsnrnG6CjRyrMQAqDfeVflOl4BA+bHS6QoAQgyA+uO5pYPTJSBQmvD2AefxcRKAetP86kvU/OpLnC4DQANBlAYAAFYixAAAACsRYgAAgJU4JwYAUG1LHp+qr/+xx+kyEADte/dV2vSZTpdRK6zEAACqjQDTcHyxY7vTJdQaIQYAUG1tLu/qdAkIkPa9+zpdQq3xcRIAoNr+z++fdboEwIeVGAAAYCVCDAAAsBIhBgAAWIkQAwAArESIAQAAViLEAAAAKxFiAACAlQgxAADASoQYAABgJUIMAACwEiEGAABYiRADAACsRIgBAABWIsQAAAArEWIAAICVCDEAAMBKhBgAAGAlQgwAALASIQYAAFiJEAMAAKxEiAEAAFYixAAAACsRYgAAgJUIMQAAwEqEGAAAYCVCDAAAsBIhBgAAWIkQAwAArESIAQAAViLEAAAAKxFiAACAlQgxAADASoQYAABgpRqHmI0bN+q2225TfHy8XC6XVqxY4bfdGKMnnnhCbdq0UUREhFJSUrR///5A1QsAACDpAkLM8ePH1atXL7388stVbn/mmWf0xz/+UQsWLNDWrVvVtGlTpaam6uTJk7UuFgAA4LSQmv7CkCFDNGTIkCq3GWP0/PPP63e/+51uv/12SdJ//dd/KTY2VitWrNDdd99du2oBAAD+V0DPicnPz1dBQYFSUlJ8Yx6PR0lJScrNza3yd0pLS1VcXOz3AAAA+CUBDTEFBQWSpNjYWL/x2NhY37afy8zMlMfj8T0SEhICWRIAAGigHL86afr06fJ6vb7H4cOHnS4JAABYIKAhJi4uTpJUWFjoN15YWOjb9nNut1uRkZF+DwAAgF8S0BDToUMHxcXFKScnxzdWXFysrVu3Kjk5OZBPBQAAGrkaX5107NgxHThwwPdzfn6+duzYoejoaCUmJiojI0NPPvmkOnXqpA4dOujxxx9XfHy8hg8fHsi6AQBAI1fjELN9+3YNGjTI9/OUKVMkSWPHjtXixYs1bdo0HT9+XPfff7+Kiop07bXXavXq1QoPDw9c1QAAoNFzGWOM00Wcqbi4WB6PR16vl/NjAACwhBPv345fnQQAAHAhCDEAAMBKhBgAAGAlQgwAALASIQYAAFiJEAMAAKxEiAEAAFYixAAAACsRYgAAgJUIMQAAwEqEGAAAYCVCDAAAsBIhBgAAWIkQAwAArESIAQAAViLEAAAAKxFiAACAlQgxAADASoQYAABgJUIMAACwEiEGAABYiRADAACsRIgBAABWIsQAAAArEWIAAICVCDEAAMBKhBgAAGAlQgwAALASIQYAAFiJEAMAAKxEiAEAAFYixAAAACsRYgAAgJUIMQAAwEqEGAAAYCVCDAAAsBIhBgAAWIkQAwAArESIAQAAViLEAAAAKxFiAACAlQgxAADASoQYAABgJUIMAACwEiEGAABYiRADAACsRIgBAABWIsQAAAArEWIAAICVCDEAAMBKhBgAAGAlQgwAALASIQYAAFiJEAMAAKxEiAEAAFYixAAAACsRYgAAgJXqLMS8/PLLat++vcLDw5WUlKRt27bV1VMBAIBGqE5CzBtvvKEpU6ZoxowZ+vDDD9WrVy+lpqbq6NGjdfF0AACgEXIZY0ygd5qUlKR+/frppZdekiRVVlYqISFBEydO1KOPPuo3t7S0VKWlpb6fi4uLlZCQIK/Xq8jIyIDW9dQjM1XuDuguAQCwUnSpWw/9YXrA9ldcXCyPx1Mn79/nEhLoHZaVlSkvL0/Tp//zhQkKClJKSopyc3PPmp+ZmalZs2YFuowqlbsluerlqQAAuKh97y795UkXuYCHmG+//VYVFRWKjY31G4+NjdXevXvPmj99+nRNmTLF9/PplZi6EFoqVmIAANBPKzG2C3iIqSm32y23u35eyMf+MLNengcAANS9gJ/Y26pVKwUHB6uwsNBvvLCwUHFxcYF+OgAA0EgFPMSEhYWpT58+ysnJ8Y1VVlYqJydHycnJgX46AADQSNXJx0lTpkzR2LFj1bdvX/Xv31/PP/+8jh8/rvvuu68ung4AADRCdRJi7rrrLn3zzTd64oknVFBQoN69e2v16tVnnewLAABwoerkPjG14cR15gAAoHaceP/mu5MAAICVCDEAAMBKhBgAAGAlQgwAALASIQYAAFiJEAMAAKxEiAEAAFYixAAAACs5/i3WP3f63nvFxcUOVwIAAKrr9Pt2fd5D96ILMSUlJZKkhIQEhysBAAA1VVJSIo/HUy/PddF97UBlZaWOHDmi5s2by+VyBXTfxcXFSkhI0OHDhxv8Vxo0ll4bS58SvTZEjaVPiV4bqjN7bd68uUpKShQfH6+goPo5W+WiW4kJCgpS27Zt6/Q5IiMjG/xfrNMaS6+NpU+JXhuixtKnRK8N1ele62sF5jRO7AUAAFYixAAAACs1qhDjdrs1Y8YMud1up0upc42l18bSp0SvDVFj6VOi14bK6V4vuhN7AQAAqqNRrcQAAICGgxADAACsRIgBAABWIsQAAAArEWIAAICVGk2Iefnll9W+fXuFh4crKSlJ27Ztc7qk88rMzFS/fv3UvHlztW7dWsOHD9e+ffv85pw8eVLp6elq2bKlmjVrprS0NBUWFvrNOXTokIYOHaomTZqodevWmjp1qk6dOuU357333tNVV10lt9utyy67TIsXL67r9s5r9uzZcrlcysjI8I01lF6/+uor/eY3v1HLli0VERGhHj16aPv27b7txhg98cQTatOmjSIiIpSSkqL9+/f77eP777/X6NGjFRkZqaioKI0bN07Hjh3zm/PJJ5/ouuuuU3h4uBISEvTMM8/US3+nVVRU6PHHH1eHDh0UERGhjh076ve//73fF8PZ2uvGjRt12223KT4+Xi6XSytWrPDbXp99LV26VF26dFF4eLh69OihVatW1Vuv5eXleuSRR9SjRw81bdpU8fHxGjNmjI4cOdLgev258ePHy+Vy6fnnn/cbt6HX6vS5Z88eDRs2TB6PR02bNlW/fv106NAh3/aL6nhsGoHs7GwTFhZmXnvtNfPpp5+af/3XfzVRUVGmsLDQ6dLOKTU11SxatMjs2rXL7Nixw9xyyy0mMTHRHDt2zDdn/PjxJiEhweTk5Jjt27ebAQMGmKuvvtq3/dSpU6Z79+4mJSXFfPTRR2bVqlWmVatWZvr06b45n3/+uWnSpImZMmWK2b17t3nxxRdNcHCwWb16db32e9q2bdtM+/btTc+ePc2kSZN84w2h1++//960a9fO3HvvvWbr1q3m888/N2vWrDEHDhzwzZk9e7bxeDxmxYoV5uOPPzbDhg0zHTp0MCdOnPDNufnmm02vXr3Mli1bzKZNm8xll11mRo0a5dvu9XpNbGysGT16tNm1a5d5/fXXTUREhHnllVfqpU9jjHnqqadMy5YtzTvvvGPy8/PN0qVLTbNmzcwLL7xgfa+rVq0yjz32mFm2bJmRZJYvX+63vb76+vvf/26Cg4PNM888Y3bv3m1+97vfmdDQULNz58566bWoqMikpKSYN954w+zdu9fk5uaa/v37mz59+vjtoyH0eqZly5aZXr16mfj4eDN37lzrev2lPg8cOGCio6PN1KlTzYcffmgOHDhg3nrrLb/3y4vpeNwoQkz//v1Nenq67+eKigoTHx9vMjMzHayqZo4ePWokmQ0bNhhjfjqAhIaGmqVLl/rm7Nmzx0gyubm5xpif/rIGBQWZgoIC35z58+ebyMhIU1paaowxZtq0aaZbt25+z3XXXXeZ1NTUum7pLCUlJaZTp05m7dq15vrrr/eFmIbS6yOPPGKuvfbac26vrKw0cXFx5tlnn/WNFRUVGbfbbV5//XVjjDG7d+82kswHH3zgm/Puu+8al8tlvvrqK2OMMfPmzTMtWrTw9X36uTt37hzols5p6NCh5re//a3f2IgRI8zo0aONMQ2n15+/CdRnX3feeacZOnSoXz1JSUnmgQceCGiPp53vjf20bdu2GUnm4MGDxpiG1+uXX35pLrnkErNr1y7Trl07vxBjY69V9XnXXXeZ3/zmN+f8nYvteNzgP04qKytTXl6eUlJSfGNBQUFKSUlRbm6ug5XVjNfrlSRFR0dLkvLy8lReXu7XV5cuXZSYmOjrKzc3Vz169FBsbKxvTmpqqoqLi/Xpp5/65py5j9NznHht0tPTNXTo0LPqaSi9rly5Un379tWvf/1rtW7dWldeeaX+9Kc/+bbn5+eroKDAr0aPx6OkpCS/PqOiotS3b1/fnJSUFAUFBWnr1q2+OQMHDlRYWJhvTmpqqvbt26cffvihrtuUJF199dXKycnRP/7xD0nSxx9/rM2bN2vIkCGSGlavZ6rPvpz++1wVr9crl8ulqKgoSQ2r18rKSt1zzz2aOnWqunXrdtb2htBrZWWl/vrXv+ryyy9XamqqWrduraSkJL+PnC6243GDDzHffvutKioq/F5MSYqNjVVBQYFDVdVMZWWlMjIydM0116h79+6SpIKCAoWFhfkOFqed2VdBQUGVfZ/edr45xcXFOnHiRF20U6Xs7Gx9+OGHyszMPGtbQ+n1888/1/z589WpUyetWbNGDz74oB566CH9+c9/9qvzfH9XCwoK1Lp1a7/tISEhio6OrtFrUdceffRR3X333erSpYtCQ0N15ZVXKiMjQ6NHj/aroyH0eqb67Otcc5w6rp08eVKPPPKIRo0a5fvm5obU6x/+8AeFhITooYceqnJ7Q+j16NGjOnbsmGbPnq2bb75Z//M//6M77rhDI0aM0IYNG3z1XUzH45AadQhHpKena9euXdq8ebPTpdSJw4cPa9KkSVq7dq3Cw8OdLqfOVFZWqm/fvnr66aclSVdeeaV27dqlBQsWaOzYsQ5XF1hvvvmmsrKytGTJEnXr1k07duxQRkaG4uPjG1yv+Okk3zvvvFPGGM2fP9/pcgIuLy9PL7zwgj788EO5XC6ny6kzlZWVkqTbb79dkydPliT17t1b77//vhYsWKDrr7/eyfKq1OBXYlq1aqXg4OCzzpwuLCxUXFycQ1VV34QJE/TOO+9o/fr1atu2rW88Li5OZWVlKioq8pt/Zl9xcXFV9n162/nmREZGKiIiItDtVCkvL09Hjx7VVVddpZCQEIWEhGjDhg364x//qJCQEMXGxjaIXtu0aaMrrrjCb6xr166+s/5P13m+v6txcXE6evSo3/ZTp07p+++/r9FrUdemTp3qW43p0aOH7rnnHk2ePNm30taQej1TffZ1rjn13ffpAHPw4EGtXbvWtwpzusaG0OumTZt09OhRJSYm+o5RBw8e1MMPP6z27dv7arS911atWikkJOQXj1MX0/G4wYeYsLAw9enTRzk5Ob6xyspK5eTkKDk52cHKzs8YowkTJmj58uVat26dOnTo4Le9T58+Cg0N9etr3759OnTokK+v5ORk7dy50+9/rNMHmdN/SZOTk/32cXpOfb42N954o3bu3KkdO3b4Hn379tXo0aN9f24IvV5zzTVnXSb/j3/8Q+3atZMkdejQQXFxcX41FhcXa+vWrX59FhUVKS8vzzdn3bp1qqysVFJSkm/Oxo0bVV5e7puzdu1ade7cWS1atKiz/s70448/KijI//ASHBzs+5deQ+r1TPXZl9N/n6V/Bpj9+/frb3/7m1q2bOm3vaH0es899+iTTz7xO0bFx8dr6tSpWrNmja9G23sNCwtTv379znucuujee2p0GrClsrOzjdvtNosXLza7d+82999/v4mKivI7c/pi8+CDDxqPx2Pee+898/XXX/seP/74o2/O+PHjTWJiolm3bp3Zvn27SU5ONsnJyb7tpy9zu+mmm8yOHTvM6tWrTUxMTJWXuU2dOtXs2bPHvPzyy45eYn3amVcnGdMwet22bZsJCQkxTz31lNm/f7/JysoyTZo0Mf/93//tmzN79mwTFRVl3nrrLfPJJ5+Y22+/vcrLc6+88kqzdetWs3nzZtOpUye/yziLiopMbGysueeee8yuXbtMdna2adKkSb1eYj127FhzySWX+C6xXrZsmWnVqpWZNm2a9b2WlJSYjz76yHz00UdGkpkzZ4756KOPfFfk1Fdff//7301ISIh57rnnzJ49e8yMGTMCftnx+XotKyszw4YNM23btjU7duzwO06defVNQ+i1Kj+/OsmWXn+pz2XLlpnQ0FCzcOFCs3//ft+lz5s2bfLt42I6HjeKEGOMMS+++KJJTEw0YWFhpn///mbLli1Ol3Rekqp8LFq0yDfnxIkT5t/+7d9MixYtTJMmTcwdd9xhvv76a7/9fPHFF2bIkCEmIiLCtGrVyjz88MOmvLzcb8769etN7969TVhYmLn00kv9nsMpPw8xDaXXt99+23Tv3t243W7TpUsXs3DhQr/tlZWV5vHHHzexsbHG7XabG2+80ezbt89vznfffWdGjRplmjVrZiIjI819991nSkpK/OZ8/PHH5tprrzVut9tccsklZvbs2XXe25mKi4vNpEmTTGJiogkPDzeXXnqpeeyxx/ze3Gztdf369VX+vzl27Nh67+vNN980l19+uQkLCzPdunUzf/3rX+ut1/z8/HMep9avX9+geq1KVSHGhl6r0+err75qLrvsMhMeHm569eplVqxY4bePi+l47DLmjFtoAgAAWKLBnxMDAAAaJkIMAACwEiEGAABYiRADAACsRIgBAABWIsQAAAArEWIAAICVCDEAAMBKhBgAAGAlQgwAALASIQYAAFjp/wNgsWAyqde3BgAAAABJRU5ErkJggg==\n",
      "text/plain": [
       "<Figure size 640x480 with 1 Axes>"
      ]
     },
     "metadata": {},
     "output_type": "display_data"
    }
   ],
   "source": [
    "result_array = mid2arry(mid)\n",
    "\n",
    "plt.plot(range(result_array.shape[0]), np.multiply(np.where(result_array>0, 1, 0), range(1, 89)), marker='.', markersize=1, linestyle='')\n",
    "plt.title(\"Accord midi.mid\")\n",
    "plt.show()"
   ]
  },
  {
   "cell_type": "code",
   "execution_count": 88,
   "id": "5eb32e18",
   "metadata": {
    "ExecuteTime": {
     "end_time": "2023-03-02T13:35:41.437157Z",
     "start_time": "2023-03-02T13:35:41.417314Z"
    }
   },
   "outputs": [
    {
     "data": {
      "text/plain": [
       "(15359, 88)"
      ]
     },
     "execution_count": 88,
     "metadata": {},
     "output_type": "execute_result"
    }
   ],
   "source": [
    "result_array.shape\n",
    "#--> Probablement penser à convertir l'array en sparse"
   ]
  },
  {
   "cell_type": "raw",
   "id": "f0614ba1",
   "metadata": {},
   "source": [
    "Questions : \n",
    "--> Comment est ce que la notion de temps est intégrée dans l'array?\n",
    "--> Velocity etc meme question"
   ]
  },
  {
   "cell_type": "markdown",
   "id": "bae84f4e",
   "metadata": {
    "ExecuteTime": {
     "end_time": "2023-03-02T13:34:21.263716Z",
     "start_time": "2023-03-02T13:34:21.257085Z"
    }
   },
   "source": [
    "## Reconversion en midi"
   ]
  },
  {
   "cell_type": "code",
   "execution_count": 64,
   "id": "b00cf235",
   "metadata": {
    "ExecuteTime": {
     "end_time": "2023-03-01T14:22:54.071872Z",
     "start_time": "2023-03-01T14:22:54.055639Z"
    }
   },
   "outputs": [],
   "source": [
    "def arry2mid(ary, tempo=500000):\n",
    "    # get the difference\n",
    "    new_ary = np.concatenate([np.array([[0] * 88]), np.array(ary)], axis=0)\n",
    "    changes = new_ary[1:] - new_ary[:-1]\n",
    "    # create a midi file with an empty track\n",
    "    mid_new = mido.MidiFile()\n",
    "    track = mido.MidiTrack()\n",
    "    mid_new.tracks.append(track)\n",
    "    track.append(mido.MetaMessage('set_tempo', tempo=tempo, time=0))\n",
    "    # add difference in the empty track\n",
    "    last_time = 0\n",
    "    for ch in changes:\n",
    "        if set(ch) == {0}:  # no change\n",
    "            last_time += 1\n",
    "        else:\n",
    "            on_notes = np.where(ch > 0)[0]\n",
    "            on_notes_vol = ch[on_notes]\n",
    "            off_notes = np.where(ch < 0)[0]\n",
    "            first_ = True\n",
    "            for n, v in zip(on_notes, on_notes_vol):\n",
    "                new_time = last_time if first_ else 0\n",
    "                track.append(mido.Message('note_on', note=n + 21, velocity=v, time=new_time))\n",
    "                first_ = False\n",
    "            for n in off_notes:\n",
    "                new_time = last_time if first_ else 0\n",
    "                track.append(mido.Message('note_off', note=n + 21, velocity=0, time=new_time))\n",
    "                first_ = False\n",
    "            last_time = 0\n",
    "    return mid_new"
   ]
  },
  {
   "cell_type": "code",
   "execution_count": 65,
   "id": "7a9066ed",
   "metadata": {
    "ExecuteTime": {
     "end_time": "2023-03-01T14:22:54.713893Z",
     "start_time": "2023-03-01T14:22:54.586049Z"
    }
   },
   "outputs": [],
   "source": [
    "mid_new = arry2mid(result_array, 545455)\n",
    "mid_new.save('mid_new.mid')"
   ]
  },
  {
   "cell_type": "markdown",
   "id": "85108bf0",
   "metadata": {},
   "source": [
    "# Interaction clavier physique/code python"
   ]
  },
  {
   "cell_type": "markdown",
   "id": "ff8ba58e",
   "metadata": {
    "ExecuteTime": {
     "end_time": "2023-03-02T13:00:16.835360Z",
     "start_time": "2023-03-02T13:00:16.686607Z"
    }
   },
   "source": [
    "## Test basique"
   ]
  },
  {
   "cell_type": "raw",
   "id": "7e32e077",
   "metadata": {
    "ExecuteTime": {
     "end_time": "2023-03-02T13:02:08.647278Z",
     "start_time": "2023-03-02T13:01:30.576127Z"
    }
   },
   "source": [
    "Test avec l'interface Midi-recorder trouvée sur ce github : https://github.com/narcode/MIDI_recorder\n",
    "\n",
    "Commande à executer dans le terminal\n",
    "python3 /Users/WDescamps/Desktop/LeWagon/Notebooks_Projets/MIDI_recorder-master/recorder.py"
   ]
  },
  {
   "cell_type": "raw",
   "id": "82ece2a5",
   "metadata": {},
   "source": [
    "Manips à faire : \n",
    "1 - Ouvrir un bus midi avec le driver IAC Apple\n",
    "2 - Chercher ce bus dans Logic Pro\n",
    "3 - Lancer l'enregistrement via la commande du dessus\n",
    "4 - Enregistrer le midi \n",
    "5 - Dans logic, clic droit sur la piste midi, \"reassigner la piste\" -> \"Instr. MIDI\" -> \"Gestionnaire IAC Logic\"\n",
    "\n",
    "--> Ca fonctionne. \n",
    "--> Du coup, trouver une manière de faire pour accelerer cette routine, et l'intégrer directement dans un code python. Ou via une api? cf cours S7J4"
   ]
  },
  {
   "cell_type": "raw",
   "id": "cdddfdbc",
   "metadata": {},
   "source": [
    "https://www.youtube.com/watch?v=02cu2xsF35s"
   ]
  },
  {
   "cell_type": "markdown",
   "id": "e81b03e7",
   "metadata": {},
   "source": [
    "## Upgrade "
   ]
  },
  {
   "cell_type": "raw",
   "id": "97cbed83",
   "metadata": {},
   "source": [
    "Suivre ce lien : \n",
    "https://www.linuxrouen.fr/wp/programmation/scripts-midi-in-avec-python-mido-et-rtmidi-25420/"
   ]
  },
  {
   "cell_type": "code",
   "execution_count": null,
   "id": "1fbbf7e1",
   "metadata": {},
   "outputs": [],
   "source": []
  }
 ],
 "metadata": {
  "kernelspec": {
   "display_name": "Python 3 (ipykernel)",
   "language": "python",
   "name": "python3"
  },
  "language_info": {
   "codemirror_mode": {
    "name": "ipython",
    "version": 3
   },
   "file_extension": ".py",
   "mimetype": "text/x-python",
   "name": "python",
   "nbconvert_exporter": "python",
   "pygments_lexer": "ipython3",
   "version": "3.10.6"
  },
  "toc": {
   "base_numbering": 1,
   "nav_menu": {},
   "number_sections": true,
   "sideBar": true,
   "skip_h1_title": false,
   "title_cell": "Table of Contents",
   "title_sidebar": "Contents",
   "toc_cell": false,
   "toc_position": {},
   "toc_section_display": true,
   "toc_window_display": false
  },
  "varInspector": {
   "cols": {
    "lenName": 16,
    "lenType": 16,
    "lenVar": 40
   },
   "kernels_config": {
    "python": {
     "delete_cmd_postfix": "",
     "delete_cmd_prefix": "del ",
     "library": "var_list.py",
     "varRefreshCmd": "print(var_dic_list())"
    },
    "r": {
     "delete_cmd_postfix": ") ",
     "delete_cmd_prefix": "rm(",
     "library": "var_list.r",
     "varRefreshCmd": "cat(var_dic_list()) "
    }
   },
   "types_to_exclude": [
    "module",
    "function",
    "builtin_function_or_method",
    "instance",
    "_Feature"
   ],
   "window_display": false
  }
 },
 "nbformat": 4,
 "nbformat_minor": 5
}
